<svg width="74" height="12" viewBox="0 0 74 12" fill="none" xmlns="http://www.w3.org/2000/svg">
<path d="M0.831084 9.88854H2.98708V3.04954C2.98708 2.84421 2.99408 2.63654 3.00808 2.42654L1.21608 3.95954C1.16942 3.99687 1.12275 4.02487 1.07608 4.04354C1.02942 4.05754 0.985084 4.06454 0.943084 4.06454C0.873084 4.06454 0.810084 4.05054 0.754084 4.02254C0.698084 3.98987 0.656084 3.95254 0.628084 3.91054L0.236084 3.37154L3.21808 0.788541H4.23308V9.88854H6.20708V10.8405H0.831084V9.88854Z" fill="#4F4F4F"/>
<path d="M11.1502 0.697541C11.5748 0.697541 11.9715 0.760541 12.3402 0.886541C12.7088 1.01254 13.0262 1.19687 13.2922 1.43954C13.5628 1.67754 13.7752 1.96921 13.9292 2.31454C14.0832 2.65987 14.1602 3.05187 14.1602 3.49054C14.1602 3.86387 14.1042 4.20921 13.9922 4.52654C13.8802 4.84387 13.7285 5.14954 13.5372 5.44354C13.3458 5.73287 13.1242 6.01521 12.8722 6.29054C12.6248 6.56121 12.3612 6.83887 12.0812 7.12354L9.44218 9.82554C9.62885 9.77421 9.81784 9.73454 10.0092 9.70654C10.2005 9.67387 10.3848 9.65754 10.5622 9.65754H13.9222C14.0575 9.65754 14.1648 9.69721 14.2442 9.77654C14.3235 9.85587 14.3632 9.95854 14.3632 10.0845V10.8405H7.67118V10.4135C7.67118 10.3249 7.68751 10.2339 7.72018 10.1405C7.75751 10.0472 7.81584 9.96088 7.89518 9.88154L11.1082 6.65454C11.3742 6.38387 11.6168 6.12487 11.8362 5.87754C12.0555 5.62554 12.2422 5.37354 12.3962 5.12154C12.5548 4.86954 12.6762 4.61521 12.7602 4.35854C12.8442 4.09721 12.8862 3.81954 12.8862 3.52554C12.8862 3.23154 12.8395 2.97487 12.7462 2.75554C12.6528 2.53154 12.5245 2.34721 12.3612 2.20254C12.1978 2.05787 12.0065 1.95054 11.7872 1.88054C11.5678 1.80587 11.3322 1.76854 11.0802 1.76854C10.8282 1.76854 10.5948 1.80587 10.3802 1.88054C10.1655 1.95521 9.97418 2.06021 9.80618 2.19554C9.64284 2.32621 9.50284 2.48254 9.38618 2.66454C9.27418 2.84654 9.19485 3.04721 9.14818 3.26654C9.11084 3.40187 9.05484 3.49987 8.98018 3.56054C8.90551 3.62121 8.80751 3.65154 8.68618 3.65154C8.66284 3.65154 8.63718 3.65154 8.60918 3.65154C8.58584 3.64687 8.55784 3.64221 8.52518 3.63754L7.87418 3.52554C7.93951 3.06821 8.06551 2.66454 8.25218 2.31454C8.43884 1.95987 8.67451 1.66354 8.95918 1.42554C9.24851 1.18754 9.57751 1.00787 9.94618 0.886541C10.3195 0.760541 10.7208 0.697541 11.1502 0.697541Z" fill="#4F4F4F"/>
<path d="M16.1913 10.9875C16.1259 11.1509 16.0279 11.2722 15.8973 11.3515C15.7713 11.4309 15.6406 11.4705 15.5053 11.4705H14.9803L19.1873 0.991541C19.2479 0.842208 19.3343 0.727874 19.4463 0.648541C19.5583 0.569208 19.6913 0.529541 19.8453 0.529541H20.3703L16.1913 10.9875Z" fill="#4F4F4F"/>
<path d="M27.9869 5.82854C27.9869 6.70587 27.8913 7.46654 27.6999 8.11054C27.5133 8.74987 27.2566 9.27954 26.9299 9.69954C26.6033 10.1195 26.2159 10.4322 25.7679 10.6375C25.3246 10.8429 24.8486 10.9455 24.3399 10.9455C23.8266 10.9455 23.3483 10.8429 22.9049 10.6375C22.4663 10.4322 22.0836 10.1195 21.7569 9.69954C21.4303 9.27954 21.1736 8.74987 20.9869 8.11054C20.8003 7.46654 20.7069 6.70587 20.7069 5.82854C20.7069 4.95121 20.8003 4.19054 20.9869 3.54654C21.1736 2.90254 21.4303 2.37054 21.7569 1.95054C22.0836 1.52587 22.4663 1.21087 22.9049 1.00554C23.3483 0.800207 23.8266 0.697541 24.3399 0.697541C24.8486 0.697541 25.3246 0.800207 25.7679 1.00554C26.2159 1.21087 26.6033 1.52587 26.9299 1.95054C27.2566 2.37054 27.5133 2.90254 27.6999 3.54654C27.8913 4.19054 27.9869 4.95121 27.9869 5.82854ZM26.6919 5.82854C26.6919 5.06321 26.6266 4.42154 26.4959 3.90354C26.3699 3.38087 26.1973 2.96087 25.9779 2.64354C25.7633 2.32621 25.5136 2.09987 25.2289 1.96454C24.9443 1.82454 24.6479 1.75454 24.3399 1.75454C24.0319 1.75454 23.7356 1.82454 23.4509 1.96454C23.1663 2.09987 22.9166 2.32621 22.7019 2.64354C22.4873 2.96087 22.3146 3.38087 22.1839 3.90354C22.0579 4.42154 21.9949 5.06321 21.9949 5.82854C21.9949 6.59387 22.0579 7.23554 22.1839 7.75354C22.3146 8.27154 22.4873 8.68921 22.7019 9.00654C22.9166 9.32387 23.1663 9.55254 23.4509 9.69254C23.7356 9.82787 24.0319 9.89554 24.3399 9.89554C24.6479 9.89554 24.9443 9.82787 25.2289 9.69254C25.5136 9.55254 25.7633 9.32387 25.9779 9.00654C26.1973 8.68921 26.3699 8.27154 26.4959 7.75354C26.6266 7.23554 26.6919 6.59387 26.6919 5.82854Z" fill="#4F4F4F"/>
<path d="M32.958 4.69454C33.3594 4.69454 33.7397 4.76221 34.099 4.89754C34.4584 5.02821 34.7734 5.22187 35.044 5.47854C35.3147 5.73054 35.5294 6.04321 35.688 6.41654C35.8467 6.78521 35.926 7.20754 35.926 7.68354C35.926 8.14554 35.842 8.57487 35.674 8.97154C35.506 9.36821 35.2704 9.71354 34.967 10.0075C34.6684 10.3015 34.3067 10.5325 33.882 10.7005C33.4574 10.8685 32.9907 10.9525 32.482 10.9525C31.978 10.9525 31.5207 10.8732 31.11 10.7145C30.704 10.5512 30.3564 10.3225 30.067 10.0285C29.7777 9.72987 29.5537 9.37054 29.395 8.95054C29.241 8.52587 29.164 8.05221 29.164 7.52954C29.164 7.09087 29.262 6.62421 29.458 6.12954C29.654 5.63487 29.9644 5.10287 30.389 4.53354L32.93 1.11054C32.9954 1.02654 33.0864 0.956541 33.203 0.900541C33.3197 0.839874 33.4527 0.809541 33.602 0.809541H34.708L31.229 5.21254C31.467 5.04921 31.7307 4.92321 32.02 4.83454C32.3094 4.74121 32.622 4.69454 32.958 4.69454ZM30.368 7.74654C30.368 8.06854 30.4147 8.36254 30.508 8.62854C30.6014 8.89454 30.7367 9.12321 30.914 9.31454C31.096 9.50587 31.3154 9.65521 31.572 9.76254C31.8334 9.86521 32.1297 9.91654 32.461 9.91654C32.797 9.91654 33.1004 9.86287 33.371 9.75554C33.6417 9.64821 33.8727 9.49887 34.064 9.30754C34.26 9.11621 34.4094 8.88988 34.512 8.62854C34.6194 8.36721 34.673 8.08254 34.673 7.77454C34.673 7.44787 34.6217 7.15387 34.519 6.89254C34.4164 6.62654 34.2717 6.40254 34.085 6.22054C33.8984 6.03387 33.6744 5.89154 33.413 5.79354C33.1517 5.69554 32.8647 5.64654 32.552 5.64654C32.216 5.64654 31.9127 5.70487 31.642 5.82154C31.3714 5.93354 31.1404 6.08754 30.949 6.28354C30.7624 6.47487 30.6177 6.69887 30.515 6.95554C30.417 7.20754 30.368 7.47121 30.368 7.74654Z" fill="#4F4F4F"/>
<path d="M37.6561 10.9875C37.5908 11.1509 37.4928 11.2722 37.3621 11.3515C37.2361 11.4309 37.1054 11.4705 36.9701 11.4705H36.4451L40.6521 0.991541C40.7128 0.842208 40.7991 0.727874 40.9111 0.648541C41.0231 0.569208 41.1561 0.529541 41.3101 0.529541H41.8351L37.6561 10.9875Z" fill="#4F4F4F"/>
<path d="M45.9588 0.697541C46.3834 0.697541 46.7801 0.760541 47.1488 0.886541C47.5174 1.01254 47.8348 1.19687 48.1008 1.43954C48.3714 1.67754 48.5838 1.96921 48.7378 2.31454C48.8918 2.65987 48.9688 3.05187 48.9688 3.49054C48.9688 3.86387 48.9128 4.20921 48.8008 4.52654C48.6888 4.84387 48.5371 5.14954 48.3458 5.44354C48.1544 5.73287 47.9328 6.01521 47.6808 6.29054C47.4334 6.56121 47.1698 6.83887 46.8898 7.12354L44.2508 9.82554C44.4374 9.77421 44.6264 9.73454 44.8178 9.70654C45.0091 9.67387 45.1934 9.65754 45.3708 9.65754H48.7308C48.8661 9.65754 48.9734 9.69721 49.0528 9.77654C49.1321 9.85587 49.1718 9.95854 49.1718 10.0845V10.8405H42.4798V10.4135C42.4798 10.3249 42.4961 10.2339 42.5288 10.1405C42.5661 10.0472 42.6244 9.96088 42.7038 9.88154L45.9168 6.65454C46.1828 6.38387 46.4254 6.12487 46.6448 5.87754C46.8641 5.62554 47.0508 5.37354 47.2048 5.12154C47.3634 4.86954 47.4848 4.61521 47.5688 4.35854C47.6528 4.09721 47.6948 3.81954 47.6948 3.52554C47.6948 3.23154 47.6481 2.97487 47.5548 2.75554C47.4614 2.53154 47.3331 2.34721 47.1698 2.20254C47.0064 2.05787 46.8151 1.95054 46.5958 1.88054C46.3764 1.80587 46.1408 1.76854 45.8888 1.76854C45.6368 1.76854 45.4034 1.80587 45.1888 1.88054C44.9741 1.95521 44.7828 2.06021 44.6148 2.19554C44.4514 2.32621 44.3114 2.48254 44.1948 2.66454C44.0828 2.84654 44.0034 3.04721 43.9568 3.26654C43.9194 3.40187 43.8634 3.49987 43.7888 3.56054C43.7141 3.62121 43.6161 3.65154 43.4948 3.65154C43.4714 3.65154 43.4458 3.65154 43.4178 3.65154C43.3944 3.64687 43.3664 3.64221 43.3338 3.63754L42.6828 3.52554C42.7481 3.06821 42.8741 2.66454 43.0608 2.31454C43.2474 1.95987 43.4831 1.66354 43.7678 1.42554C44.0571 1.18754 44.3861 1.00787 44.7548 0.886541C45.1281 0.760541 45.5294 0.697541 45.9588 0.697541Z" fill="#4F4F4F"/>
<path d="M57.5729 5.82854C57.5729 6.70587 57.4772 7.46654 57.2859 8.11054C57.0992 8.74987 56.8425 9.27954 56.5159 9.69954C56.1892 10.1195 55.8019 10.4322 55.3539 10.6375C54.9105 10.8429 54.4345 10.9455 53.9259 10.9455C53.4125 10.9455 52.9342 10.8429 52.4909 10.6375C52.0522 10.4322 51.6695 10.1195 51.3429 9.69954C51.0162 9.27954 50.7595 8.74987 50.5729 8.11054C50.3862 7.46654 50.2929 6.70587 50.2929 5.82854C50.2929 4.95121 50.3862 4.19054 50.5729 3.54654C50.7595 2.90254 51.0162 2.37054 51.3429 1.95054C51.6695 1.52587 52.0522 1.21087 52.4909 1.00554C52.9342 0.800207 53.4125 0.697541 53.9259 0.697541C54.4345 0.697541 54.9105 0.800207 55.3539 1.00554C55.8019 1.21087 56.1892 1.52587 56.5159 1.95054C56.8425 2.37054 57.0992 2.90254 57.2859 3.54654C57.4772 4.19054 57.5729 4.95121 57.5729 5.82854ZM56.2779 5.82854C56.2779 5.06321 56.2125 4.42154 56.0819 3.90354C55.9559 3.38087 55.7832 2.96087 55.5639 2.64354C55.3492 2.32621 55.0995 2.09987 54.8149 1.96454C54.5302 1.82454 54.2339 1.75454 53.9259 1.75454C53.6179 1.75454 53.3215 1.82454 53.0369 1.96454C52.7522 2.09987 52.5025 2.32621 52.2879 2.64354C52.0732 2.96087 51.9005 3.38087 51.7699 3.90354C51.6439 4.42154 51.5809 5.06321 51.5809 5.82854C51.5809 6.59387 51.6439 7.23554 51.7699 7.75354C51.9005 8.27154 52.0732 8.68921 52.2879 9.00654C52.5025 9.32387 52.7522 9.55254 53.0369 9.69254C53.3215 9.82787 53.6179 9.89554 53.9259 9.89554C54.2339 9.89554 54.5302 9.82787 54.8149 9.69254C55.0995 9.55254 55.3492 9.32387 55.5639 9.00654C55.7832 8.68921 55.9559 8.27154 56.0819 7.75354C56.2125 7.23554 56.2779 6.59387 56.2779 5.82854Z" fill="#4F4F4F"/>
<path d="M62.201 0.697541C62.6256 0.697541 63.0223 0.760541 63.391 0.886541C63.7596 1.01254 64.077 1.19687 64.343 1.43954C64.6136 1.67754 64.826 1.96921 64.98 2.31454C65.134 2.65987 65.211 3.05187 65.211 3.49054C65.211 3.86387 65.155 4.20921 65.043 4.52654C64.931 4.84387 64.7793 5.14954 64.588 5.44354C64.3966 5.73287 64.175 6.01521 63.923 6.29054C63.6756 6.56121 63.412 6.83887 63.132 7.12354L60.493 9.82554C60.6796 9.77421 60.8686 9.73454 61.06 9.70654C61.2513 9.67387 61.4356 9.65754 61.613 9.65754H64.973C65.1083 9.65754 65.2156 9.69721 65.295 9.77654C65.3743 9.85587 65.414 9.95854 65.414 10.0845V10.8405H58.722V10.4135C58.722 10.3249 58.7383 10.2339 58.771 10.1405C58.8083 10.0472 58.8666 9.96088 58.946 9.88154L62.159 6.65454C62.425 6.38387 62.6676 6.12487 62.887 5.87754C63.1063 5.62554 63.293 5.37354 63.447 5.12154C63.6056 4.86954 63.727 4.61521 63.811 4.35854C63.895 4.09721 63.937 3.81954 63.937 3.52554C63.937 3.23154 63.8903 2.97487 63.797 2.75554C63.7036 2.53154 63.5753 2.34721 63.412 2.20254C63.2486 2.05787 63.0573 1.95054 62.838 1.88054C62.6186 1.80587 62.383 1.76854 62.131 1.76854C61.879 1.76854 61.6456 1.80587 61.431 1.88054C61.2163 1.95521 61.025 2.06021 60.857 2.19554C60.6936 2.32621 60.5536 2.48254 60.437 2.66454C60.325 2.84654 60.2456 3.04721 60.199 3.26654C60.1616 3.40187 60.1056 3.49987 60.031 3.56054C59.9563 3.62121 59.8583 3.65154 59.737 3.65154C59.7136 3.65154 59.688 3.65154 59.66 3.65154C59.6366 3.64687 59.6086 3.64221 59.576 3.63754L58.925 3.52554C58.9903 3.06821 59.1163 2.66454 59.303 2.31454C59.4896 1.95987 59.7253 1.66354 60.01 1.42554C60.2993 1.18754 60.6283 1.00787 60.997 0.886541C61.3703 0.760541 61.7716 0.697541 62.201 0.697541Z" fill="#4F4F4F"/>
<path d="M68.1241 9.88854H70.2801V3.04954C70.2801 2.84421 70.287 2.63654 70.301 2.42654L68.509 3.95954C68.4624 3.99687 68.4157 4.02487 68.369 4.04354C68.3224 4.05754 68.2781 4.06454 68.2361 4.06454C68.1661 4.06454 68.1031 4.05054 68.0471 4.02254C67.9911 3.98987 67.9491 3.95254 67.9211 3.91054L67.5291 3.37154L70.5111 0.788541H71.5261V9.88854H73.5001V10.8405H68.1241V9.88854Z" fill="#4F4F4F"/>
</svg>
