<svg width="74" height="12" viewBox="0 0 74 12" fill="none" xmlns="http://www.w3.org/2000/svg">
<path d="M0.831084 9.88848H2.98708V3.04948C2.98708 2.84415 2.99408 2.63648 3.00808 2.42648L1.21608 3.95948C1.16942 3.99681 1.12275 4.02481 1.07608 4.04348C1.02942 4.05748 0.985084 4.06448 0.943084 4.06448C0.873084 4.06448 0.810084 4.05048 0.754084 4.02248C0.698084 3.98981 0.656084 3.95248 0.628084 3.91048L0.236084 3.37148L3.21808 0.78848H4.23308V9.88848H6.20708V10.8405H0.831084V9.88848Z" fill="#4F4F4F"/>
<path d="M11.1502 0.697479C11.5748 0.697479 11.9715 0.76048 12.3402 0.88648C12.7088 1.01248 13.0262 1.19681 13.2922 1.43948C13.5628 1.67748 13.7752 1.96915 13.9292 2.31448C14.0832 2.65981 14.1602 3.05181 14.1602 3.49048C14.1602 3.86381 14.1042 4.20915 13.9922 4.52648C13.8802 4.84381 13.7285 5.14948 13.5372 5.44348C13.3458 5.73281 13.1242 6.01515 12.8722 6.29048C12.6248 6.56115 12.3612 6.83881 12.0812 7.12348L9.44218 9.82548C9.62885 9.77415 9.81784 9.73448 10.0092 9.70648C10.2005 9.67381 10.3848 9.65748 10.5622 9.65748H13.9222C14.0575 9.65748 14.1648 9.69715 14.2442 9.77648C14.3235 9.85581 14.3632 9.95848 14.3632 10.0845V10.8405H7.67118V10.4135C7.67118 10.3248 7.68751 10.2338 7.72018 10.1405C7.75751 10.0471 7.81584 9.96081 7.89518 9.88148L11.1082 6.65448C11.3742 6.38381 11.6168 6.12481 11.8362 5.87748C12.0555 5.62548 12.2422 5.37348 12.3962 5.12148C12.5548 4.86948 12.6762 4.61515 12.7602 4.35848C12.8442 4.09715 12.8862 3.81948 12.8862 3.52548C12.8862 3.23148 12.8395 2.97481 12.7462 2.75548C12.6528 2.53148 12.5245 2.34715 12.3612 2.20248C12.1978 2.05781 12.0065 1.95048 11.7872 1.88048C11.5678 1.80581 11.3322 1.76848 11.0802 1.76848C10.8282 1.76848 10.5948 1.80581 10.3802 1.88048C10.1655 1.95515 9.97418 2.06015 9.80618 2.19548C9.64284 2.32615 9.50284 2.48248 9.38618 2.66448C9.27418 2.84648 9.19485 3.04715 9.14818 3.26648C9.11084 3.40181 9.05484 3.49981 8.98018 3.56048C8.90551 3.62115 8.80751 3.65148 8.68618 3.65148C8.66284 3.65148 8.63718 3.65148 8.60918 3.65148C8.58584 3.64681 8.55784 3.64215 8.52518 3.63748L7.87418 3.52548C7.93951 3.06815 8.06551 2.66448 8.25218 2.31448C8.43884 1.95981 8.67451 1.66348 8.95918 1.42548C9.24851 1.18748 9.57751 1.00781 9.94618 0.88648C10.3195 0.76048 10.7208 0.697479 11.1502 0.697479Z" fill="#4F4F4F"/>
<path d="M16.1913 10.9875C16.1259 11.1508 16.0279 11.2721 15.8973 11.3515C15.7713 11.4308 15.6406 11.4705 15.5053 11.4705H14.9803L19.1873 0.99148C19.2479 0.842147 19.3343 0.727813 19.4463 0.64848C19.5583 0.569147 19.6913 0.52948 19.8453 0.52948H20.3703L16.1913 10.9875Z" fill="#4F4F4F"/>
<path d="M27.9869 5.82848C27.9869 6.70581 27.8913 7.46648 27.6999 8.11048C27.5133 8.74981 27.2566 9.27948 26.9299 9.69948C26.6033 10.1195 26.2159 10.4321 25.7679 10.6375C25.3246 10.8428 24.8486 10.9455 24.3399 10.9455C23.8266 10.9455 23.3483 10.8428 22.9049 10.6375C22.4663 10.4321 22.0836 10.1195 21.7569 9.69948C21.4303 9.27948 21.1736 8.74981 20.9869 8.11048C20.8003 7.46648 20.7069 6.70581 20.7069 5.82848C20.7069 4.95115 20.8003 4.19048 20.9869 3.54648C21.1736 2.90248 21.4303 2.37048 21.7569 1.95048C22.0836 1.52581 22.4663 1.21081 22.9049 1.00548C23.3483 0.800146 23.8266 0.697479 24.3399 0.697479C24.8486 0.697479 25.3246 0.800146 25.7679 1.00548C26.2159 1.21081 26.6033 1.52581 26.9299 1.95048C27.2566 2.37048 27.5133 2.90248 27.6999 3.54648C27.8913 4.19048 27.9869 4.95115 27.9869 5.82848ZM26.6919 5.82848C26.6919 5.06315 26.6266 4.42148 26.4959 3.90348C26.3699 3.38081 26.1973 2.96081 25.9779 2.64348C25.7633 2.32615 25.5136 2.09981 25.2289 1.96448C24.9443 1.82448 24.6479 1.75448 24.3399 1.75448C24.0319 1.75448 23.7356 1.82448 23.4509 1.96448C23.1663 2.09981 22.9166 2.32615 22.7019 2.64348C22.4873 2.96081 22.3146 3.38081 22.1839 3.90348C22.0579 4.42148 21.9949 5.06315 21.9949 5.82848C21.9949 6.59381 22.0579 7.23548 22.1839 7.75348C22.3146 8.27148 22.4873 8.68915 22.7019 9.00648C22.9166 9.32381 23.1663 9.55248 23.4509 9.69248C23.7356 9.82781 24.0319 9.89548 24.3399 9.89548C24.6479 9.89548 24.9443 9.82781 25.2289 9.69248C25.5136 9.55248 25.7633 9.32381 25.9779 9.00648C26.1973 8.68915 26.3699 8.27148 26.4959 7.75348C26.6266 7.23548 26.6919 6.59381 26.6919 5.82848Z" fill="#4F4F4F"/>
<path d="M32.958 4.69448C33.3594 4.69448 33.7397 4.76215 34.099 4.89748C34.4584 5.02815 34.7734 5.22181 35.044 5.47848C35.3147 5.73048 35.5294 6.04315 35.688 6.41648C35.8467 6.78515 35.926 7.20748 35.926 7.68348C35.926 8.14548 35.842 8.57481 35.674 8.97148C35.506 9.36815 35.2704 9.71348 34.967 10.0075C34.6684 10.3015 34.3067 10.5325 33.882 10.7005C33.4574 10.8685 32.9907 10.9525 32.482 10.9525C31.978 10.9525 31.5207 10.8731 31.11 10.7145C30.704 10.5511 30.3564 10.3225 30.067 10.0285C29.7777 9.72981 29.5537 9.37048 29.395 8.95048C29.241 8.52581 29.164 8.05215 29.164 7.52948C29.164 7.09081 29.262 6.62415 29.458 6.12948C29.654 5.63481 29.9644 5.10281 30.389 4.53348L32.93 1.11048C32.9954 1.02648 33.0864 0.95648 33.203 0.90048C33.3197 0.839813 33.4527 0.80948 33.602 0.80948H34.708L31.229 5.21248C31.467 5.04915 31.7307 4.92315 32.02 4.83448C32.3094 4.74115 32.622 4.69448 32.958 4.69448ZM30.368 7.74648C30.368 8.06848 30.4147 8.36248 30.508 8.62848C30.6014 8.89448 30.7367 9.12315 30.914 9.31448C31.096 9.50581 31.3154 9.65515 31.572 9.76248C31.8334 9.86515 32.1297 9.91648 32.461 9.91648C32.797 9.91648 33.1004 9.86281 33.371 9.75548C33.6417 9.64815 33.8727 9.49881 34.064 9.30748C34.26 9.11615 34.4094 8.88981 34.512 8.62848C34.6194 8.36715 34.673 8.08248 34.673 7.77448C34.673 7.44781 34.6217 7.15381 34.519 6.89248C34.4164 6.62648 34.2717 6.40248 34.085 6.22048C33.8984 6.03381 33.6744 5.89148 33.413 5.79348C33.1517 5.69548 32.8647 5.64648 32.552 5.64648C32.216 5.64648 31.9127 5.70481 31.642 5.82148C31.3714 5.93348 31.1404 6.08748 30.949 6.28348C30.7624 6.47481 30.6177 6.69881 30.515 6.95548C30.417 7.20748 30.368 7.47115 30.368 7.74648Z" fill="#4F4F4F"/>
<path d="M37.6561 10.9875C37.5908 11.1508 37.4928 11.2721 37.3621 11.3515C37.2361 11.4308 37.1054 11.4705 36.9701 11.4705H36.4451L40.6521 0.99148C40.7128 0.842147 40.7991 0.727813 40.9111 0.64848C41.0231 0.569147 41.1561 0.52948 41.3101 0.52948H41.8351L37.6561 10.9875Z" fill="#4F4F4F"/>
<path d="M45.9588 0.697479C46.3834 0.697479 46.7801 0.76048 47.1488 0.88648C47.5174 1.01248 47.8348 1.19681 48.1008 1.43948C48.3714 1.67748 48.5838 1.96915 48.7378 2.31448C48.8918 2.65981 48.9688 3.05181 48.9688 3.49048C48.9688 3.86381 48.9128 4.20915 48.8008 4.52648C48.6888 4.84381 48.5371 5.14948 48.3458 5.44348C48.1544 5.73281 47.9328 6.01515 47.6808 6.29048C47.4334 6.56115 47.1698 6.83881 46.8898 7.12348L44.2508 9.82548C44.4374 9.77415 44.6264 9.73448 44.8178 9.70648C45.0091 9.67381 45.1934 9.65748 45.3708 9.65748H48.7308C48.8661 9.65748 48.9734 9.69715 49.0528 9.77648C49.1321 9.85581 49.1718 9.95848 49.1718 10.0845V10.8405H42.4798V10.4135C42.4798 10.3248 42.4961 10.2338 42.5288 10.1405C42.5661 10.0471 42.6244 9.96081 42.7038 9.88148L45.9168 6.65448C46.1828 6.38381 46.4254 6.12481 46.6448 5.87748C46.8641 5.62548 47.0508 5.37348 47.2048 5.12148C47.3634 4.86948 47.4848 4.61515 47.5688 4.35848C47.6528 4.09715 47.6948 3.81948 47.6948 3.52548C47.6948 3.23148 47.6481 2.97481 47.5548 2.75548C47.4614 2.53148 47.3331 2.34715 47.1698 2.20248C47.0064 2.05781 46.8151 1.95048 46.5958 1.88048C46.3764 1.80581 46.1408 1.76848 45.8888 1.76848C45.6368 1.76848 45.4034 1.80581 45.1888 1.88048C44.9741 1.95515 44.7828 2.06015 44.6148 2.19548C44.4514 2.32615 44.3114 2.48248 44.1948 2.66448C44.0828 2.84648 44.0034 3.04715 43.9568 3.26648C43.9194 3.40181 43.8634 3.49981 43.7888 3.56048C43.7141 3.62115 43.6161 3.65148 43.4948 3.65148C43.4714 3.65148 43.4458 3.65148 43.4178 3.65148C43.3944 3.64681 43.3664 3.64215 43.3338 3.63748L42.6828 3.52548C42.7481 3.06815 42.8741 2.66448 43.0608 2.31448C43.2474 1.95981 43.4831 1.66348 43.7678 1.42548C44.0571 1.18748 44.3861 1.00781 44.7548 0.88648C45.1281 0.76048 45.5294 0.697479 45.9588 0.697479Z" fill="#4F4F4F"/>
<path d="M57.5729 5.82848C57.5729 6.70581 57.4772 7.46648 57.2859 8.11048C57.0992 8.74981 56.8425 9.27948 56.5159 9.69948C56.1892 10.1195 55.8019 10.4321 55.3539 10.6375C54.9105 10.8428 54.4345 10.9455 53.9259 10.9455C53.4125 10.9455 52.9342 10.8428 52.4909 10.6375C52.0522 10.4321 51.6695 10.1195 51.3429 9.69948C51.0162 9.27948 50.7595 8.74981 50.5729 8.11048C50.3862 7.46648 50.2929 6.70581 50.2929 5.82848C50.2929 4.95115 50.3862 4.19048 50.5729 3.54648C50.7595 2.90248 51.0162 2.37048 51.3429 1.95048C51.6695 1.52581 52.0522 1.21081 52.4909 1.00548C52.9342 0.800146 53.4125 0.697479 53.9259 0.697479C54.4345 0.697479 54.9105 0.800146 55.3539 1.00548C55.8019 1.21081 56.1892 1.52581 56.5159 1.95048C56.8425 2.37048 57.0992 2.90248 57.2859 3.54648C57.4772 4.19048 57.5729 4.95115 57.5729 5.82848ZM56.2779 5.82848C56.2779 5.06315 56.2125 4.42148 56.0819 3.90348C55.9559 3.38081 55.7832 2.96081 55.5639 2.64348C55.3492 2.32615 55.0995 2.09981 54.8149 1.96448C54.5302 1.82448 54.2339 1.75448 53.9259 1.75448C53.6179 1.75448 53.3215 1.82448 53.0369 1.96448C52.7522 2.09981 52.5025 2.32615 52.2879 2.64348C52.0732 2.96081 51.9005 3.38081 51.7699 3.90348C51.6439 4.42148 51.5809 5.06315 51.5809 5.82848C51.5809 6.59381 51.6439 7.23548 51.7699 7.75348C51.9005 8.27148 52.0732 8.68915 52.2879 9.00648C52.5025 9.32381 52.7522 9.55248 53.0369 9.69248C53.3215 9.82781 53.6179 9.89548 53.9259 9.89548C54.2339 9.89548 54.5302 9.82781 54.8149 9.69248C55.0995 9.55248 55.3492 9.32381 55.5639 9.00648C55.7832 8.68915 55.9559 8.27148 56.0819 7.75348C56.2125 7.23548 56.2779 6.59381 56.2779 5.82848Z" fill="#4F4F4F"/>
<path d="M62.201 0.697479C62.6256 0.697479 63.0223 0.76048 63.391 0.88648C63.7596 1.01248 64.077 1.19681 64.343 1.43948C64.6136 1.67748 64.826 1.96915 64.98 2.31448C65.134 2.65981 65.211 3.05181 65.211 3.49048C65.211 3.86381 65.155 4.20915 65.043 4.52648C64.931 4.84381 64.7793 5.14948 64.588 5.44348C64.3966 5.73281 64.175 6.01515 63.923 6.29048C63.6756 6.56115 63.412 6.83881 63.132 7.12348L60.493 9.82548C60.6796 9.77415 60.8686 9.73448 61.06 9.70648C61.2513 9.67381 61.4356 9.65748 61.613 9.65748H64.973C65.1083 9.65748 65.2156 9.69715 65.295 9.77648C65.3743 9.85581 65.414 9.95848 65.414 10.0845V10.8405H58.722V10.4135C58.722 10.3248 58.7383 10.2338 58.771 10.1405C58.8083 10.0471 58.8666 9.96081 58.946 9.88148L62.159 6.65448C62.425 6.38381 62.6676 6.12481 62.887 5.87748C63.1063 5.62548 63.293 5.37348 63.447 5.12148C63.6056 4.86948 63.727 4.61515 63.811 4.35848C63.895 4.09715 63.937 3.81948 63.937 3.52548C63.937 3.23148 63.8903 2.97481 63.797 2.75548C63.7036 2.53148 63.5753 2.34715 63.412 2.20248C63.2486 2.05781 63.0573 1.95048 62.838 1.88048C62.6186 1.80581 62.383 1.76848 62.131 1.76848C61.879 1.76848 61.6456 1.80581 61.431 1.88048C61.2163 1.95515 61.025 2.06015 60.857 2.19548C60.6936 2.32615 60.5536 2.48248 60.437 2.66448C60.325 2.84648 60.2456 3.04715 60.199 3.26648C60.1616 3.40181 60.1056 3.49981 60.031 3.56048C59.9563 3.62115 59.8583 3.65148 59.737 3.65148C59.7136 3.65148 59.688 3.65148 59.66 3.65148C59.6366 3.64681 59.6086 3.64215 59.576 3.63748L58.925 3.52548C58.9903 3.06815 59.1163 2.66448 59.303 2.31448C59.4896 1.95981 59.7253 1.66348 60.01 1.42548C60.2993 1.18748 60.6283 1.00781 60.997 0.88648C61.3703 0.76048 61.7716 0.697479 62.201 0.697479Z" fill="#4F4F4F"/>
<path d="M68.1241 9.88848H70.2801V3.04948C70.2801 2.84415 70.287 2.63648 70.301 2.42648L68.509 3.95948C68.4624 3.99681 68.4157 4.02481 68.369 4.04348C68.3224 4.05748 68.2781 4.06448 68.2361 4.06448C68.1661 4.06448 68.1031 4.05048 68.0471 4.02248C67.9911 3.98981 67.9491 3.95248 67.9211 3.91048L67.5291 3.37148L70.5111 0.78848H71.5261V9.88848H73.5001V10.8405H68.1241V9.88848Z" fill="#4F4F4F"/>
</svg>
