<svg width="30" height="9" viewBox="0 0 30 9" fill="none" xmlns="http://www.w3.org/2000/svg">
<path d="M1.01 7.89204H2.858V2.03004C2.858 1.85404 2.864 1.67604 2.876 1.49604L1.34 2.81004C1.3 2.84204 1.26 2.86604 1.22 2.88204C1.18 2.89404 1.142 2.90004 1.106 2.90004C1.046 2.90004 0.992 2.88804 0.944 2.86404C0.896 2.83604 0.86 2.80404 0.836 2.76804L0.5 2.30604L3.056 0.0920382H3.926V7.89204H5.618V8.70804H1.01V7.89204Z" fill="#4F4F4F"/>
<path d="M9.54294 5.18004C9.21894 5.18004 8.91094 5.12604 8.61894 5.01804C8.33094 4.91004 8.07694 4.75204 7.85694 4.54404C7.63694 4.33204 7.46094 4.07404 7.32894 3.77004C7.20094 3.46204 7.13694 3.11004 7.13694 2.71404C7.13694 2.33804 7.20694 1.98604 7.34694 1.65804C7.48694 1.33004 7.68294 1.04404 7.93494 0.800038C8.18694 0.556038 8.48694 0.364038 8.83494 0.224039C9.18294 0.0840383 9.56494 0.0140381 9.98094 0.0140381C10.3929 0.0140381 10.7669 0.0820382 11.1029 0.218038C11.4389 0.354038 11.7269 0.544039 11.9669 0.788039C12.2069 1.03204 12.3909 1.32404 12.5189 1.66404C12.6509 2.00404 12.7169 2.38004 12.7169 2.79204C12.7169 3.04004 12.6929 3.27604 12.6449 3.50004C12.6009 3.72004 12.5349 3.93604 12.4469 4.14804C12.3589 4.36004 12.2529 4.57204 12.1289 4.78404C12.0089 4.99204 11.8709 5.20804 11.7149 5.43204L9.62094 8.45604C9.56894 8.53204 9.49494 8.59404 9.39894 8.64204C9.30294 8.68604 9.19294 8.70804 9.06894 8.70804H8.08494L10.7009 5.28204C10.7889 5.16604 10.8709 5.05604 10.9469 4.95204C11.0229 4.84804 11.0949 4.74404 11.1629 4.64004C10.9429 4.81604 10.6949 4.95004 10.4189 5.04204C10.1429 5.13404 9.85094 5.18004 9.54294 5.18004ZM11.6909 2.66604C11.6909 2.39804 11.6469 2.15604 11.5589 1.94004C11.4749 1.72004 11.3569 1.53404 11.2049 1.38204C11.0529 1.23004 10.8709 1.11404 10.6589 1.03404C10.4509 0.950038 10.2209 0.908039 9.96894 0.908039C9.70494 0.908039 9.46294 0.952038 9.24294 1.04004C9.02694 1.12404 8.84094 1.24204 8.68494 1.39404C8.53294 1.54604 8.41494 1.72804 8.33094 1.94004C8.24694 2.15204 8.20494 2.38404 8.20494 2.63604C8.20494 2.90804 8.24294 3.15204 8.31894 3.36804C8.39894 3.58004 8.51094 3.76004 8.65494 3.90804C8.80294 4.05604 8.98094 4.16804 9.18894 4.24404C9.40094 4.32004 9.63694 4.35804 9.89694 4.35804C10.1849 4.35804 10.4389 4.31204 10.6589 4.22004C10.8829 4.12404 11.0709 3.99804 11.2229 3.84204C11.3749 3.68604 11.4909 3.50604 11.5709 3.30204C11.6509 3.09804 11.6909 2.88604 11.6909 2.66604Z" fill="#4F4F4F"/>
<path d="M13.9779 8.04804C13.9779 7.94404 13.9959 7.84604 14.0319 7.75404C14.0719 7.66204 14.1239 7.58204 14.1879 7.51404C14.2559 7.44604 14.3359 7.39204 14.4279 7.35204C14.5199 7.31204 14.6179 7.29204 14.7219 7.29204C14.8259 7.29204 14.9239 7.31204 15.0159 7.35204C15.1079 7.39204 15.1879 7.44604 15.2559 7.51404C15.3239 7.58204 15.3759 7.66204 15.4119 7.75404C15.4519 7.84604 15.4719 7.94404 15.4719 8.04804C15.4719 8.15604 15.4519 8.25604 15.4119 8.34804C15.3759 8.43604 15.3239 8.51404 15.2559 8.58204C15.1879 8.65004 15.1079 8.70204 15.0159 8.73804C14.9239 8.77804 14.8259 8.79804 14.7219 8.79804C14.6179 8.79804 14.5199 8.77804 14.4279 8.73804C14.3359 8.70204 14.2559 8.65004 14.1879 8.58204C14.1239 8.51404 14.0719 8.43604 14.0319 8.34804C13.9959 8.25604 13.9779 8.15604 13.9779 8.04804ZM13.9779 3.54804C13.9779 3.44404 13.9959 3.34604 14.0319 3.25404C14.0719 3.16204 14.1239 3.08204 14.1879 3.01404C14.2559 2.94604 14.3359 2.89204 14.4279 2.85204C14.5199 2.81204 14.6179 2.79204 14.7219 2.79204C14.8259 2.79204 14.9239 2.81204 15.0159 2.85204C15.1079 2.89204 15.1879 2.94604 15.2559 3.01404C15.3239 3.08204 15.3759 3.16204 15.4119 3.25404C15.4519 3.34604 15.4719 3.44404 15.4719 3.54804C15.4719 3.65604 15.4519 3.75604 15.4119 3.84804C15.3759 3.93604 15.3239 4.01404 15.2559 4.08204C15.1879 4.15004 15.1079 4.20404 15.0159 4.24404C14.9239 4.28004 14.8259 4.29804 14.7219 4.29804C14.6179 4.29804 14.5199 4.28004 14.4279 4.24404C14.3359 4.20404 14.2559 4.15004 14.1879 4.08204C14.1239 4.01404 14.0719 3.93604 14.0319 3.84804C13.9959 3.75604 13.9779 3.65604 13.9779 3.54804Z" fill="#4F4F4F"/>
<path d="M19.9533 0.0140381C20.3173 0.0140381 20.6533 0.0660381 20.9613 0.170038C21.2693 0.274038 21.5333 0.422038 21.7533 0.614038C21.9773 0.806038 22.1513 1.03804 22.2753 1.31004C22.3993 1.58204 22.4613 1.88404 22.4613 2.21604C22.4613 2.48804 22.4253 2.73204 22.3533 2.94804C22.2853 3.16004 22.1853 3.34804 22.0533 3.51204C21.9253 3.67204 21.7693 3.80804 21.5853 3.92004C21.4013 4.03204 21.1953 4.12204 20.9673 4.19004C21.5273 4.33804 21.9473 4.58604 22.2273 4.93404C22.5113 5.28204 22.6533 5.71804 22.6533 6.24204C22.6533 6.63804 22.5773 6.99404 22.4253 7.31004C22.2773 7.62604 22.0733 7.89604 21.8133 8.12004C21.5533 8.34004 21.2493 8.51004 20.9013 8.63004C20.5573 8.74604 20.1873 8.80404 19.7913 8.80404C19.3353 8.80404 18.9453 8.74804 18.6213 8.63604C18.2973 8.52004 18.0233 8.36204 17.7993 8.16204C17.5753 7.96204 17.3913 7.72604 17.2473 7.45404C17.1033 7.17804 16.9813 6.88004 16.8813 6.56004L17.3373 6.36804C17.4213 6.33204 17.5053 6.31404 17.5893 6.31404C17.6693 6.31404 17.7393 6.33204 17.7993 6.36804C17.8633 6.40004 17.9113 6.45204 17.9433 6.52404C17.9513 6.54004 17.9593 6.55804 17.9673 6.57804C17.9753 6.59404 17.9833 6.61204 17.9913 6.63204C18.0473 6.74804 18.1153 6.88004 18.1953 7.02804C18.2753 7.17204 18.3833 7.30804 18.5193 7.43604C18.6553 7.56404 18.8233 7.67204 19.0233 7.76004C19.2273 7.84804 19.4793 7.89204 19.7793 7.89204C20.0793 7.89204 20.3413 7.84404 20.5653 7.74804C20.7933 7.64804 20.9813 7.52004 21.1293 7.36404C21.2813 7.20804 21.3953 7.03404 21.4713 6.84204C21.5473 6.65004 21.5853 6.46004 21.5853 6.27204C21.5853 6.04004 21.5533 5.82804 21.4893 5.63604C21.4293 5.44404 21.3173 5.27804 21.1533 5.13804C20.9933 4.99804 20.7693 4.88804 20.4813 4.80804C20.1973 4.72804 19.8313 4.68804 19.3833 4.68804V3.91404C19.7473 3.91004 20.0573 3.87004 20.3133 3.79404C20.5733 3.71804 20.7853 3.61404 20.9493 3.48204C21.1133 3.35004 21.2313 3.19204 21.3033 3.00804C21.3793 2.82404 21.4173 2.62004 21.4173 2.39604C21.4173 2.14804 21.3773 1.93204 21.2973 1.74804C21.2213 1.56404 21.1153 1.41204 20.9793 1.29204C20.8433 1.17204 20.6813 1.08204 20.4933 1.02204C20.3093 0.962039 20.1093 0.932039 19.8933 0.932039C19.6773 0.932039 19.4773 0.964039 19.2933 1.02804C19.1093 1.09204 18.9453 1.18204 18.8013 1.29804C18.6613 1.41004 18.5433 1.54604 18.4473 1.70604C18.3513 1.86204 18.2793 2.03204 18.2313 2.21604C18.1993 2.33204 18.1513 2.41604 18.0873 2.46804C18.0233 2.52004 17.9413 2.54604 17.8413 2.54604C17.8213 2.54604 17.7993 2.54604 17.7753 2.54604C17.7553 2.54204 17.7313 2.53804 17.7033 2.53404L17.1453 2.43804C17.2013 2.04604 17.3093 1.70004 17.4693 1.40004C17.6293 1.09604 17.8313 0.842039 18.0753 0.638039C18.3233 0.434039 18.6053 0.280039 18.9213 0.176039C19.2413 0.0680382 19.5853 0.0140381 19.9533 0.0140381Z" fill="#4F4F4F"/>
<path d="M26.8003 0.0140381C27.1643 0.0140381 27.5042 0.0680382 27.8202 0.176039C28.1362 0.284038 28.4083 0.442038 28.6363 0.650038C28.8683 0.854038 29.0503 1.10404 29.1823 1.40004C29.3143 1.69604 29.3803 2.03204 29.3803 2.40804C29.3803 2.72804 29.3322 3.02404 29.2362 3.29604C29.1402 3.56804 29.0103 3.83004 28.8463 4.08204C28.6823 4.33004 28.4923 4.57204 28.2763 4.80804C28.0643 5.04004 27.8382 5.27804 27.5982 5.52204L25.3363 7.83804C25.4963 7.79404 25.6583 7.76004 25.8223 7.73604C25.9862 7.70804 26.1442 7.69404 26.2962 7.69404H29.1763C29.2922 7.69404 29.3843 7.72804 29.4523 7.79604C29.5203 7.86404 29.5543 7.95204 29.5543 8.06004V8.70804H23.8183V8.34204C23.8183 8.26604 23.8323 8.18804 23.8603 8.10804C23.8923 8.02804 23.9422 7.95404 24.0103 7.88604L26.7642 5.12004C26.9923 4.88804 27.2003 4.66604 27.3883 4.45404C27.5763 4.23804 27.7362 4.02204 27.8682 3.80604C28.0042 3.59004 28.1082 3.37204 28.1803 3.15204C28.2523 2.92804 28.2882 2.69004 28.2882 2.43804C28.2882 2.18604 28.2483 1.96604 28.1683 1.77804C28.0883 1.58604 27.9783 1.42804 27.8383 1.30404C27.6983 1.18004 27.5343 1.08804 27.3463 1.02804C27.1583 0.964039 26.9562 0.932039 26.7402 0.932039C26.5243 0.932039 26.3243 0.964039 26.1403 1.02804C25.9563 1.09204 25.7923 1.18204 25.6483 1.29804C25.5083 1.41004 25.3883 1.54404 25.2882 1.70004C25.1922 1.85604 25.1242 2.02804 25.0842 2.21604C25.0522 2.33204 25.0042 2.41604 24.9403 2.46804C24.8763 2.52004 24.7922 2.54604 24.6882 2.54604C24.6682 2.54604 24.6462 2.54604 24.6222 2.54604C24.6022 2.54204 24.5783 2.53804 24.5503 2.53404L23.9923 2.43804C24.0483 2.04604 24.1562 1.70004 24.3162 1.40004C24.4762 1.09604 24.6783 0.842039 24.9223 0.638039C25.1702 0.434039 25.4522 0.280039 25.7682 0.176039C26.0882 0.0680382 26.4323 0.0140381 26.8003 0.0140381Z" fill="#4F4F4F"/>
</svg>
