<svg width="30" height="10" viewBox="0 0 30 10" fill="none" xmlns="http://www.w3.org/2000/svg">
<path d="M1.01 8.31208H2.858V2.45008C2.858 2.27408 2.864 2.09608 2.876 1.91608L1.34 3.23008C1.3 3.26208 1.26 3.28608 1.22 3.30208C1.18 3.31408 1.142 3.32008 1.106 3.32008C1.046 3.32008 0.992 3.30808 0.944 3.28408C0.896 3.25608 0.86 3.22408 0.836 3.18808L0.5 2.72608L3.056 0.512082H3.926V8.31208H5.618V9.12808H1.01V8.31208Z" fill="#4F4F4F"/>
<path d="M9.54294 5.60008C9.21894 5.60008 8.91094 5.54608 8.61894 5.43808C8.33094 5.33008 8.07694 5.17208 7.85694 4.96408C7.63694 4.75208 7.46094 4.49408 7.32894 4.19008C7.20094 3.88208 7.13694 3.53008 7.13694 3.13408C7.13694 2.75808 7.20694 2.40608 7.34694 2.07808C7.48694 1.75008 7.68294 1.46408 7.93494 1.22008C8.18694 0.976082 8.48694 0.784082 8.83494 0.644083C9.18294 0.504082 9.56494 0.434082 9.98094 0.434082C10.3929 0.434082 10.7669 0.502082 11.1029 0.638082C11.4389 0.774082 11.7269 0.964083 11.9669 1.20808C12.2069 1.45208 12.3909 1.74408 12.5189 2.08408C12.6509 2.42408 12.7169 2.80008 12.7169 3.21208C12.7169 3.46008 12.6929 3.69608 12.6449 3.92008C12.6009 4.14008 12.5349 4.35608 12.4469 4.56808C12.3589 4.78008 12.2529 4.99208 12.1289 5.20408C12.0089 5.41208 11.8709 5.62808 11.7149 5.85208L9.62094 8.87608C9.56894 8.95208 9.49494 9.01408 9.39894 9.06208C9.30294 9.10608 9.19294 9.12808 9.06894 9.12808H8.08494L10.7009 5.70208C10.7889 5.58608 10.8709 5.47608 10.9469 5.37208C11.0229 5.26808 11.0949 5.16408 11.1629 5.06008C10.9429 5.23608 10.6949 5.37008 10.4189 5.46208C10.1429 5.55408 9.85094 5.60008 9.54294 5.60008ZM11.6909 3.08608C11.6909 2.81808 11.6469 2.57608 11.5589 2.36008C11.4749 2.14008 11.3569 1.95408 11.2049 1.80208C11.0529 1.65008 10.8709 1.53408 10.6589 1.45408C10.4509 1.37008 10.2209 1.32808 9.96894 1.32808C9.70494 1.32808 9.46294 1.37208 9.24294 1.46008C9.02694 1.54408 8.84094 1.66208 8.68494 1.81408C8.53294 1.96608 8.41494 2.14808 8.33094 2.36008C8.24694 2.57208 8.20494 2.80408 8.20494 3.05608C8.20494 3.32808 8.24294 3.57208 8.31894 3.78808C8.39894 4.00008 8.51094 4.18008 8.65494 4.32808C8.80294 4.47608 8.98094 4.58808 9.18894 4.66408C9.40094 4.74008 9.63694 4.77808 9.89694 4.77808C10.1849 4.77808 10.4389 4.73208 10.6589 4.64008C10.8829 4.54408 11.0709 4.41808 11.2229 4.26208C11.3749 4.10608 11.4909 3.92608 11.5709 3.72208C11.6509 3.51808 11.6909 3.30608 11.6909 3.08608Z" fill="#4F4F4F"/>
<path d="M13.9779 8.46808C13.9779 8.36408 13.9959 8.26608 14.0319 8.17408C14.0719 8.08208 14.1239 8.00208 14.1879 7.93408C14.2559 7.86608 14.3359 7.81208 14.4279 7.77208C14.5199 7.73208 14.6179 7.71208 14.7219 7.71208C14.8259 7.71208 14.9239 7.73208 15.0159 7.77208C15.1079 7.81208 15.1879 7.86608 15.2559 7.93408C15.3239 8.00208 15.3759 8.08208 15.4119 8.17408C15.4519 8.26608 15.4719 8.36408 15.4719 8.46808C15.4719 8.57608 15.4519 8.67608 15.4119 8.76808C15.3759 8.85608 15.3239 8.93408 15.2559 9.00208C15.1879 9.07008 15.1079 9.12208 15.0159 9.15808C14.9239 9.19808 14.8259 9.21808 14.7219 9.21808C14.6179 9.21808 14.5199 9.19808 14.4279 9.15808C14.3359 9.12208 14.2559 9.07008 14.1879 9.00208C14.1239 8.93408 14.0719 8.85608 14.0319 8.76808C13.9959 8.67608 13.9779 8.57608 13.9779 8.46808ZM13.9779 3.96808C13.9779 3.86408 13.9959 3.76608 14.0319 3.67408C14.0719 3.58208 14.1239 3.50208 14.1879 3.43408C14.2559 3.36608 14.3359 3.31208 14.4279 3.27208C14.5199 3.23208 14.6179 3.21208 14.7219 3.21208C14.8259 3.21208 14.9239 3.23208 15.0159 3.27208C15.1079 3.31208 15.1879 3.36608 15.2559 3.43408C15.3239 3.50208 15.3759 3.58208 15.4119 3.67408C15.4519 3.76608 15.4719 3.86408 15.4719 3.96808C15.4719 4.07608 15.4519 4.17608 15.4119 4.26808C15.3759 4.35608 15.3239 4.43408 15.2559 4.50208C15.1879 4.57008 15.1079 4.62408 15.0159 4.66408C14.9239 4.70008 14.8259 4.71808 14.7219 4.71808C14.6179 4.71808 14.5199 4.70008 14.4279 4.66408C14.3359 4.62408 14.2559 4.57008 14.1879 4.50208C14.1239 4.43408 14.0719 4.35608 14.0319 4.26808C13.9959 4.17608 13.9779 4.07608 13.9779 3.96808Z" fill="#4F4F4F"/>
<path d="M19.9533 0.434082C20.3173 0.434082 20.6533 0.486082 20.9613 0.590082C21.2693 0.694082 21.5333 0.842082 21.7533 1.03408C21.9773 1.22608 22.1513 1.45808 22.2753 1.73008C22.3993 2.00208 22.4613 2.30408 22.4613 2.63608C22.4613 2.90808 22.4253 3.15208 22.3533 3.36808C22.2853 3.58008 22.1853 3.76808 22.0533 3.93208C21.9253 4.09208 21.7693 4.22808 21.5853 4.34008C21.4013 4.45208 21.1953 4.54208 20.9673 4.61008C21.5273 4.75808 21.9473 5.00608 22.2273 5.35408C22.5113 5.70208 22.6533 6.13808 22.6533 6.66208C22.6533 7.05808 22.5773 7.41408 22.4253 7.73008C22.2773 8.04608 22.0733 8.31608 21.8133 8.54008C21.5533 8.76008 21.2493 8.93008 20.9013 9.05008C20.5573 9.16608 20.1873 9.22408 19.7913 9.22408C19.3353 9.22408 18.9453 9.16808 18.6213 9.05608C18.2973 8.94008 18.0233 8.78208 17.7993 8.58208C17.5753 8.38208 17.3913 8.14608 17.2473 7.87408C17.1033 7.59808 16.9813 7.30008 16.8813 6.98008L17.3373 6.78808C17.4213 6.75208 17.5053 6.73408 17.5893 6.73408C17.6693 6.73408 17.7393 6.75208 17.7993 6.78808C17.8633 6.82008 17.9113 6.87208 17.9433 6.94408C17.9513 6.96008 17.9593 6.97808 17.9673 6.99808C17.9753 7.01408 17.9833 7.03208 17.9913 7.05208C18.0473 7.16808 18.1153 7.30008 18.1953 7.44808C18.2753 7.59208 18.3833 7.72808 18.5193 7.85608C18.6553 7.98408 18.8233 8.09208 19.0233 8.18008C19.2273 8.26808 19.4793 8.31208 19.7793 8.31208C20.0793 8.31208 20.3413 8.26408 20.5653 8.16808C20.7933 8.06808 20.9813 7.94008 21.1293 7.78408C21.2813 7.62808 21.3953 7.45408 21.4713 7.26208C21.5473 7.07008 21.5853 6.88008 21.5853 6.69208C21.5853 6.46008 21.5533 6.24808 21.4893 6.05608C21.4293 5.86408 21.3173 5.69808 21.1533 5.55808C20.9933 5.41808 20.7693 5.30808 20.4813 5.22808C20.1973 5.14808 19.8313 5.10808 19.3833 5.10808V4.33408C19.7473 4.33008 20.0573 4.29008 20.3133 4.21408C20.5733 4.13808 20.7853 4.03408 20.9493 3.90208C21.1133 3.77008 21.2313 3.61208 21.3033 3.42808C21.3793 3.24408 21.4173 3.04008 21.4173 2.81608C21.4173 2.56808 21.3773 2.35208 21.2973 2.16808C21.2213 1.98408 21.1153 1.83208 20.9793 1.71208C20.8433 1.59208 20.6813 1.50208 20.4933 1.44208C20.3093 1.38208 20.1093 1.35208 19.8933 1.35208C19.6773 1.35208 19.4773 1.38408 19.2933 1.44808C19.1093 1.51208 18.9453 1.60208 18.8013 1.71808C18.6613 1.83008 18.5433 1.96608 18.4473 2.12608C18.3513 2.28208 18.2793 2.45208 18.2313 2.63608C18.1993 2.75208 18.1513 2.83608 18.0873 2.88808C18.0233 2.94008 17.9413 2.96608 17.8413 2.96608C17.8213 2.96608 17.7993 2.96608 17.7753 2.96608C17.7553 2.96208 17.7313 2.95808 17.7033 2.95408L17.1453 2.85808C17.2013 2.46608 17.3093 2.12008 17.4693 1.82008C17.6293 1.51608 17.8313 1.26208 18.0753 1.05808C18.3233 0.854083 18.6053 0.700083 18.9213 0.596082C19.2413 0.488082 19.5853 0.434082 19.9533 0.434082Z" fill="#4F4F4F"/>
<path d="M26.8003 0.434082C27.1643 0.434082 27.5042 0.488082 27.8202 0.596082C28.1362 0.704082 28.4083 0.862082 28.6363 1.07008C28.8683 1.27408 29.0503 1.52408 29.1823 1.82008C29.3143 2.11608 29.3803 2.45208 29.3803 2.82808C29.3803 3.14808 29.3322 3.44408 29.2362 3.71608C29.1402 3.98808 29.0103 4.25008 28.8463 4.50208C28.6823 4.75008 28.4923 4.99208 28.2763 5.22808C28.0643 5.46008 27.8382 5.69808 27.5982 5.94208L25.3363 8.25808C25.4963 8.21408 25.6583 8.18008 25.8223 8.15608C25.9862 8.12808 26.1442 8.11408 26.2962 8.11408H29.1763C29.2922 8.11408 29.3843 8.14808 29.4523 8.21608C29.5203 8.28408 29.5543 8.37208 29.5543 8.48008V9.12808H23.8183V8.76208C23.8183 8.68608 23.8323 8.60808 23.8603 8.52808C23.8923 8.44808 23.9422 8.37408 24.0103 8.30608L26.7642 5.54008C26.9923 5.30808 27.2003 5.08608 27.3883 4.87408C27.5763 4.65808 27.7362 4.44208 27.8682 4.22608C28.0042 4.01008 28.1082 3.79208 28.1803 3.57208C28.2523 3.34808 28.2882 3.11008 28.2882 2.85808C28.2882 2.60608 28.2483 2.38608 28.1683 2.19808C28.0883 2.00608 27.9783 1.84808 27.8383 1.72408C27.6983 1.60008 27.5343 1.50808 27.3463 1.44808C27.1583 1.38408 26.9562 1.35208 26.7402 1.35208C26.5243 1.35208 26.3243 1.38408 26.1403 1.44808C25.9563 1.51208 25.7923 1.60208 25.6483 1.71808C25.5083 1.83008 25.3883 1.96408 25.2882 2.12008C25.1922 2.27608 25.1242 2.44808 25.0842 2.63608C25.0522 2.75208 25.0042 2.83608 24.9403 2.88808C24.8763 2.94008 24.7922 2.96608 24.6882 2.96608C24.6682 2.96608 24.6462 2.96608 24.6222 2.96608C24.6022 2.96208 24.5783 2.95808 24.5503 2.95408L23.9923 2.85808C24.0483 2.46608 24.1562 2.12008 24.3162 1.82008C24.4762 1.51608 24.6783 1.26208 24.9223 1.05808C25.1702 0.854083 25.4522 0.700083 25.7682 0.596082C26.0882 0.488082 26.4323 0.434082 26.8003 0.434082Z" fill="#4F4F4F"/>
</svg>
