<svg width="30" height="10" viewBox="0 0 30 10" fill="none" xmlns="http://www.w3.org/2000/svg">
<path d="M1.01 8.10212H2.858V2.24012C2.858 2.06412 2.864 1.88612 2.876 1.70612L1.34 3.02012C1.3 3.05212 1.26 3.07612 1.22 3.09212C1.18 3.10412 1.142 3.11012 1.106 3.11012C1.046 3.11012 0.992 3.09812 0.944 3.07412C0.896 3.04612 0.86 3.01412 0.836 2.97812L0.5 2.51612L3.056 0.302121H3.926V8.10212H5.618V8.91812H1.01V8.10212Z" fill="#4F4F4F"/>
<path d="M9.54294 5.39012C9.21894 5.39012 8.91094 5.33612 8.61894 5.22812C8.33094 5.12012 8.07694 4.96212 7.85694 4.75412C7.63694 4.54212 7.46094 4.28412 7.32894 3.98012C7.20094 3.67212 7.13694 3.32012 7.13694 2.92412C7.13694 2.54812 7.20694 2.19612 7.34694 1.86812C7.48694 1.54012 7.68294 1.25412 7.93494 1.01012C8.18694 0.766121 8.48694 0.574121 8.83494 0.434122C9.18294 0.294121 9.56494 0.224121 9.98094 0.224121C10.3929 0.224121 10.7669 0.292121 11.1029 0.428121C11.4389 0.564121 11.7269 0.754122 11.9669 0.998122C12.2069 1.24212 12.3909 1.53412 12.5189 1.87412C12.6509 2.21412 12.7169 2.59012 12.7169 3.00212C12.7169 3.25012 12.6929 3.48612 12.6449 3.71012C12.6009 3.93012 12.5349 4.14612 12.4469 4.35812C12.3589 4.57012 12.2529 4.78212 12.1289 4.99412C12.0089 5.20212 11.8709 5.41812 11.7149 5.64212L9.62094 8.66612C9.56894 8.74212 9.49494 8.80412 9.39894 8.85212C9.30294 8.89612 9.19294 8.91812 9.06894 8.91812H8.08494L10.7009 5.49212C10.7889 5.37612 10.8709 5.26612 10.9469 5.16212C11.0229 5.05812 11.0949 4.95412 11.1629 4.85012C10.9429 5.02612 10.6949 5.16012 10.4189 5.25212C10.1429 5.34412 9.85094 5.39012 9.54294 5.39012ZM11.6909 2.87612C11.6909 2.60812 11.6469 2.36612 11.5589 2.15012C11.4749 1.93012 11.3569 1.74412 11.2049 1.59212C11.0529 1.44012 10.8709 1.32412 10.6589 1.24412C10.4509 1.16012 10.2209 1.11812 9.96894 1.11812C9.70494 1.11812 9.46294 1.16212 9.24294 1.25012C9.02694 1.33412 8.84094 1.45212 8.68494 1.60412C8.53294 1.75612 8.41494 1.93812 8.33094 2.15012C8.24694 2.36212 8.20494 2.59412 8.20494 2.84612C8.20494 3.11812 8.24294 3.36212 8.31894 3.57812C8.39894 3.79012 8.51094 3.97012 8.65494 4.11812C8.80294 4.26612 8.98094 4.37812 9.18894 4.45412C9.40094 4.53012 9.63694 4.56812 9.89694 4.56812C10.1849 4.56812 10.4389 4.52212 10.6589 4.43012C10.8829 4.33412 11.0709 4.20812 11.2229 4.05212C11.3749 3.89612 11.4909 3.71612 11.5709 3.51212C11.6509 3.30812 11.6909 3.09612 11.6909 2.87612Z" fill="#4F4F4F"/>
<path d="M13.9779 8.25812C13.9779 8.15412 13.9959 8.05612 14.0319 7.96412C14.0719 7.87212 14.1239 7.79212 14.1879 7.72412C14.2559 7.65612 14.3359 7.60212 14.4279 7.56212C14.5199 7.52212 14.6179 7.50212 14.7219 7.50212C14.8259 7.50212 14.9239 7.52212 15.0159 7.56212C15.1079 7.60212 15.1879 7.65612 15.2559 7.72412C15.3239 7.79212 15.3759 7.87212 15.4119 7.96412C15.4519 8.05612 15.4719 8.15412 15.4719 8.25812C15.4719 8.36612 15.4519 8.46612 15.4119 8.55812C15.3759 8.64612 15.3239 8.72412 15.2559 8.79212C15.1879 8.86012 15.1079 8.91212 15.0159 8.94812C14.9239 8.98812 14.8259 9.00812 14.7219 9.00812C14.6179 9.00812 14.5199 8.98812 14.4279 8.94812C14.3359 8.91212 14.2559 8.86012 14.1879 8.79212C14.1239 8.72412 14.0719 8.64612 14.0319 8.55812C13.9959 8.46612 13.9779 8.36612 13.9779 8.25812ZM13.9779 3.75812C13.9779 3.65412 13.9959 3.55612 14.0319 3.46412C14.0719 3.37212 14.1239 3.29212 14.1879 3.22412C14.2559 3.15612 14.3359 3.10212 14.4279 3.06212C14.5199 3.02212 14.6179 3.00212 14.7219 3.00212C14.8259 3.00212 14.9239 3.02212 15.0159 3.06212C15.1079 3.10212 15.1879 3.15612 15.2559 3.22412C15.3239 3.29212 15.3759 3.37212 15.4119 3.46412C15.4519 3.55612 15.4719 3.65412 15.4719 3.75812C15.4719 3.86612 15.4519 3.96612 15.4119 4.05812C15.3759 4.14612 15.3239 4.22412 15.2559 4.29212C15.1879 4.36012 15.1079 4.41412 15.0159 4.45412C14.9239 4.49012 14.8259 4.50812 14.7219 4.50812C14.6179 4.50812 14.5199 4.49012 14.4279 4.45412C14.3359 4.41412 14.2559 4.36012 14.1879 4.29212C14.1239 4.22412 14.0719 4.14612 14.0319 4.05812C13.9959 3.96612 13.9779 3.86612 13.9779 3.75812Z" fill="#4F4F4F"/>
<path d="M19.9533 0.224121C20.3173 0.224121 20.6533 0.276121 20.9613 0.380121C21.2693 0.484121 21.5333 0.632121 21.7533 0.824121C21.9773 1.01612 22.1513 1.24812 22.2753 1.52012C22.3993 1.79212 22.4613 2.09412 22.4613 2.42612C22.4613 2.69812 22.4253 2.94212 22.3533 3.15812C22.2853 3.37012 22.1853 3.55812 22.0533 3.72212C21.9253 3.88212 21.7693 4.01812 21.5853 4.13012C21.4013 4.24212 21.1953 4.33212 20.9673 4.40012C21.5273 4.54812 21.9473 4.79612 22.2273 5.14412C22.5113 5.49212 22.6533 5.92812 22.6533 6.45212C22.6533 6.84812 22.5773 7.20412 22.4253 7.52012C22.2773 7.83612 22.0733 8.10612 21.8133 8.33012C21.5533 8.55012 21.2493 8.72012 20.9013 8.84012C20.5573 8.95612 20.1873 9.01412 19.7913 9.01412C19.3353 9.01412 18.9453 8.95812 18.6213 8.84612C18.2973 8.73012 18.0233 8.57212 17.7993 8.37212C17.5753 8.17212 17.3913 7.93612 17.2473 7.66412C17.1033 7.38812 16.9813 7.09012 16.8813 6.77012L17.3373 6.57812C17.4213 6.54212 17.5053 6.52412 17.5893 6.52412C17.6693 6.52412 17.7393 6.54212 17.7993 6.57812C17.8633 6.61012 17.9113 6.66212 17.9433 6.73412C17.9513 6.75012 17.9593 6.76812 17.9673 6.78812C17.9753 6.80412 17.9833 6.82212 17.9913 6.84212C18.0473 6.95812 18.1153 7.09012 18.1953 7.23812C18.2753 7.38212 18.3833 7.51812 18.5193 7.64612C18.6553 7.77412 18.8233 7.88212 19.0233 7.97012C19.2273 8.05812 19.4793 8.10212 19.7793 8.10212C20.0793 8.10212 20.3413 8.05412 20.5653 7.95812C20.7933 7.85812 20.9813 7.73012 21.1293 7.57412C21.2813 7.41812 21.3953 7.24412 21.4713 7.05212C21.5473 6.86012 21.5853 6.67012 21.5853 6.48212C21.5853 6.25012 21.5533 6.03812 21.4893 5.84612C21.4293 5.65412 21.3173 5.48812 21.1533 5.34812C20.9933 5.20812 20.7693 5.09812 20.4813 5.01812C20.1973 4.93812 19.8313 4.89812 19.3833 4.89812V4.12412C19.7473 4.12012 20.0573 4.08012 20.3133 4.00412C20.5733 3.92812 20.7853 3.82412 20.9493 3.69212C21.1133 3.56012 21.2313 3.40212 21.3033 3.21812C21.3793 3.03412 21.4173 2.83012 21.4173 2.60612C21.4173 2.35812 21.3773 2.14212 21.2973 1.95812C21.2213 1.77412 21.1153 1.62212 20.9793 1.50212C20.8433 1.38212 20.6813 1.29212 20.4933 1.23212C20.3093 1.17212 20.1093 1.14212 19.8933 1.14212C19.6773 1.14212 19.4773 1.17412 19.2933 1.23812C19.1093 1.30212 18.9453 1.39212 18.8013 1.50812C18.6613 1.62012 18.5433 1.75612 18.4473 1.91612C18.3513 2.07212 18.2793 2.24212 18.2313 2.42612C18.1993 2.54212 18.1513 2.62612 18.0873 2.67812C18.0233 2.73012 17.9413 2.75612 17.8413 2.75612C17.8213 2.75612 17.7993 2.75612 17.7753 2.75612C17.7553 2.75212 17.7313 2.74812 17.7033 2.74412L17.1453 2.64812C17.2013 2.25612 17.3093 1.91012 17.4693 1.61012C17.6293 1.30612 17.8313 1.05212 18.0753 0.848122C18.3233 0.644122 18.6053 0.490122 18.9213 0.386122C19.2413 0.278121 19.5853 0.224121 19.9533 0.224121Z" fill="#4F4F4F"/>
<path d="M26.8003 0.224121C27.1643 0.224121 27.5042 0.278121 27.8202 0.386122C28.1362 0.494121 28.4083 0.652121 28.6363 0.860121C28.8683 1.06412 29.0503 1.31412 29.1823 1.61012C29.3143 1.90612 29.3803 2.24212 29.3803 2.61812C29.3803 2.93812 29.3322 3.23412 29.2362 3.50612C29.1402 3.77812 29.0103 4.04012 28.8463 4.29212C28.6823 4.54012 28.4923 4.78212 28.2763 5.01812C28.0643 5.25012 27.8382 5.48812 27.5982 5.73212L25.3363 8.04812C25.4963 8.00412 25.6583 7.97012 25.8223 7.94612C25.9862 7.91812 26.1442 7.90412 26.2962 7.90412H29.1763C29.2922 7.90412 29.3843 7.93812 29.4523 8.00612C29.5203 8.07412 29.5543 8.16212 29.5543 8.27012V8.91812H23.8183V8.55212C23.8183 8.47612 23.8323 8.39812 23.8603 8.31812C23.8923 8.23812 23.9422 8.16412 24.0103 8.09612L26.7642 5.33012C26.9923 5.09812 27.2003 4.87612 27.3883 4.66412C27.5763 4.44812 27.7362 4.23212 27.8682 4.01612C28.0042 3.80012 28.1082 3.58212 28.1803 3.36212C28.2523 3.13812 28.2882 2.90012 28.2882 2.64812C28.2882 2.39612 28.2483 2.17612 28.1683 1.98812C28.0883 1.79612 27.9783 1.63812 27.8383 1.51412C27.6983 1.39012 27.5343 1.29812 27.3463 1.23812C27.1583 1.17412 26.9562 1.14212 26.7402 1.14212C26.5243 1.14212 26.3243 1.17412 26.1403 1.23812C25.9563 1.30212 25.7923 1.39212 25.6483 1.50812C25.5083 1.62012 25.3883 1.75412 25.2882 1.91012C25.1922 2.06612 25.1242 2.23812 25.0842 2.42612C25.0522 2.54212 25.0042 2.62612 24.9403 2.67812C24.8763 2.73012 24.7922 2.75612 24.6882 2.75612C24.6682 2.75612 24.6462 2.75612 24.6222 2.75612C24.6022 2.75212 24.5783 2.74812 24.5503 2.74412L23.9923 2.64812C24.0483 2.25612 24.1562 1.91012 24.3162 1.61012C24.4762 1.30612 24.6783 1.05212 24.9223 0.848122C25.1702 0.644122 25.4522 0.490122 25.7682 0.386122C26.0882 0.278121 26.4323 0.224121 26.8003 0.224121Z" fill="#4F4F4F"/>
</svg>
