<svg width="30" height="9" viewBox="0 0 30 9" fill="none" xmlns="http://www.w3.org/2000/svg">
<path d="M1.01 7.95405H2.858V2.09205C2.858 1.91605 2.864 1.73805 2.876 1.55805L1.34 2.87205C1.3 2.90405 1.26 2.92805 1.22 2.94405C1.18 2.95605 1.142 2.96205 1.106 2.96205C1.046 2.96205 0.992 2.95005 0.944 2.92605C0.896 2.89805 0.86 2.86605 0.836 2.83005L0.5 2.36805L3.056 0.15405H3.926V7.95405H5.618V8.77005H1.01V7.95405Z" fill="#4F4F4F"/>
<path d="M9.54294 5.24205C9.21894 5.24205 8.91094 5.18805 8.61894 5.08005C8.33094 4.97205 8.07694 4.81405 7.85694 4.60605C7.63694 4.39405 7.46094 4.13605 7.32894 3.83205C7.20094 3.52405 7.13694 3.17205 7.13694 2.77605C7.13694 2.40005 7.20694 2.04805 7.34694 1.72005C7.48694 1.39205 7.68294 1.10605 7.93494 0.86205C8.18694 0.61805 8.48694 0.42605 8.83494 0.28605C9.18294 0.14605 9.56494 0.0760498 9.98094 0.0760498C10.3929 0.0760498 10.7669 0.14405 11.1029 0.28005C11.4389 0.41605 11.7269 0.60605 11.9669 0.85005C12.2069 1.09405 12.3909 1.38605 12.5189 1.72605C12.6509 2.06605 12.7169 2.44205 12.7169 2.85405C12.7169 3.10205 12.6929 3.33805 12.6449 3.56205C12.6009 3.78205 12.5349 3.99805 12.4469 4.21005C12.3589 4.42205 12.2529 4.63405 12.1289 4.84605C12.0089 5.05405 11.8709 5.27005 11.7149 5.49405L9.62094 8.51805C9.56894 8.59405 9.49494 8.65605 9.39894 8.70405C9.30294 8.74805 9.19294 8.77005 9.06894 8.77005H8.08494L10.7009 5.34405C10.7889 5.22805 10.8709 5.11805 10.9469 5.01405C11.0229 4.91005 11.0949 4.80605 11.1629 4.70205C10.9429 4.87805 10.6949 5.01205 10.4189 5.10405C10.1429 5.19605 9.85094 5.24205 9.54294 5.24205ZM11.6909 2.72805C11.6909 2.46005 11.6469 2.21805 11.5589 2.00205C11.4749 1.78205 11.3569 1.59605 11.2049 1.44405C11.0529 1.29205 10.8709 1.17605 10.6589 1.09605C10.4509 1.01205 10.2209 0.97005 9.96894 0.97005C9.70494 0.97005 9.46294 1.01405 9.24294 1.10205C9.02694 1.18605 8.84094 1.30405 8.68494 1.45605C8.53294 1.60805 8.41494 1.79005 8.33094 2.00205C8.24694 2.21405 8.20494 2.44605 8.20494 2.69805C8.20494 2.97005 8.24294 3.21405 8.31894 3.43005C8.39894 3.64205 8.51094 3.82205 8.65494 3.97005C8.80294 4.11805 8.98094 4.23005 9.18894 4.30605C9.40094 4.38205 9.63694 4.42005 9.89694 4.42005C10.1849 4.42005 10.4389 4.37405 10.6589 4.28205C10.8829 4.18605 11.0709 4.06005 11.2229 3.90405C11.3749 3.74805 11.4909 3.56805 11.5709 3.36405C11.6509 3.16005 11.6909 2.94805 11.6909 2.72805Z" fill="#4F4F4F"/>
<path d="M13.9779 8.11005C13.9779 8.00605 13.9959 7.90805 14.0319 7.81605C14.0719 7.72405 14.1239 7.64405 14.1879 7.57605C14.2559 7.50805 14.3359 7.45405 14.4279 7.41405C14.5199 7.37405 14.6179 7.35405 14.7219 7.35405C14.8259 7.35405 14.9239 7.37405 15.0159 7.41405C15.1079 7.45405 15.1879 7.50805 15.2559 7.57605C15.3239 7.64405 15.3759 7.72405 15.4119 7.81605C15.4519 7.90805 15.4719 8.00605 15.4719 8.11005C15.4719 8.21805 15.4519 8.31805 15.4119 8.41005C15.3759 8.49805 15.3239 8.57605 15.2559 8.64405C15.1879 8.71205 15.1079 8.76405 15.0159 8.80005C14.9239 8.84005 14.8259 8.86005 14.7219 8.86005C14.6179 8.86005 14.5199 8.84005 14.4279 8.80005C14.3359 8.76405 14.2559 8.71205 14.1879 8.64405C14.1239 8.57605 14.0719 8.49805 14.0319 8.41005C13.9959 8.31805 13.9779 8.21805 13.9779 8.11005ZM13.9779 3.61005C13.9779 3.50605 13.9959 3.40805 14.0319 3.31605C14.0719 3.22405 14.1239 3.14405 14.1879 3.07605C14.2559 3.00805 14.3359 2.95405 14.4279 2.91405C14.5199 2.87405 14.6179 2.85405 14.7219 2.85405C14.8259 2.85405 14.9239 2.87405 15.0159 2.91405C15.1079 2.95405 15.1879 3.00805 15.2559 3.07605C15.3239 3.14405 15.3759 3.22405 15.4119 3.31605C15.4519 3.40805 15.4719 3.50605 15.4719 3.61005C15.4719 3.71805 15.4519 3.81805 15.4119 3.91005C15.3759 3.99805 15.3239 4.07605 15.2559 4.14405C15.1879 4.21205 15.1079 4.26605 15.0159 4.30605C14.9239 4.34205 14.8259 4.36005 14.7219 4.36005C14.6179 4.36005 14.5199 4.34205 14.4279 4.30605C14.3359 4.26605 14.2559 4.21205 14.1879 4.14405C14.1239 4.07605 14.0719 3.99805 14.0319 3.91005C13.9959 3.81805 13.9779 3.71805 13.9779 3.61005Z" fill="#4F4F4F"/>
<path d="M19.9533 0.0760498C20.3173 0.0760498 20.6533 0.12805 20.9613 0.23205C21.2693 0.33605 21.5333 0.48405 21.7533 0.67605C21.9773 0.86805 22.1513 1.10005 22.2753 1.37205C22.3993 1.64405 22.4613 1.94605 22.4613 2.27805C22.4613 2.55005 22.4253 2.79405 22.3533 3.01005C22.2853 3.22205 22.1853 3.41005 22.0533 3.57405C21.9253 3.73405 21.7693 3.87005 21.5853 3.98205C21.4013 4.09405 21.1953 4.18405 20.9673 4.25205C21.5273 4.40005 21.9473 4.64805 22.2273 4.99605C22.5113 5.34405 22.6533 5.78005 22.6533 6.30405C22.6533 6.70005 22.5773 7.05605 22.4253 7.37205C22.2773 7.68805 22.0733 7.95805 21.8133 8.18205C21.5533 8.40205 21.2493 8.57205 20.9013 8.69205C20.5573 8.80805 20.1873 8.86605 19.7913 8.86605C19.3353 8.86605 18.9453 8.81005 18.6213 8.69805C18.2973 8.58205 18.0233 8.42405 17.7993 8.22405C17.5753 8.02405 17.3913 7.78805 17.2473 7.51605C17.1033 7.24005 16.9813 6.94205 16.8813 6.62205L17.3373 6.43005C17.4213 6.39405 17.5053 6.37605 17.5893 6.37605C17.6693 6.37605 17.7393 6.39405 17.7993 6.43005C17.8633 6.46205 17.9113 6.51405 17.9433 6.58605C17.9513 6.60205 17.9593 6.62005 17.9673 6.64005C17.9753 6.65605 17.9833 6.67405 17.9913 6.69405C18.0473 6.81005 18.1153 6.94205 18.1953 7.09005C18.2753 7.23405 18.3833 7.37005 18.5193 7.49805C18.6553 7.62605 18.8233 7.73405 19.0233 7.82205C19.2273 7.91005 19.4793 7.95405 19.7793 7.95405C20.0793 7.95405 20.3413 7.90605 20.5653 7.81005C20.7933 7.71005 20.9813 7.58205 21.1293 7.42605C21.2813 7.27005 21.3953 7.09605 21.4713 6.90405C21.5473 6.71205 21.5853 6.52205 21.5853 6.33405C21.5853 6.10205 21.5533 5.89005 21.4893 5.69805C21.4293 5.50605 21.3173 5.34005 21.1533 5.20005C20.9933 5.06005 20.7693 4.95005 20.4813 4.87005C20.1973 4.79005 19.8313 4.75005 19.3833 4.75005V3.97605C19.7473 3.97205 20.0573 3.93205 20.3133 3.85605C20.5733 3.78005 20.7853 3.67605 20.9493 3.54405C21.1133 3.41205 21.2313 3.25405 21.3033 3.07005C21.3793 2.88605 21.4173 2.68205 21.4173 2.45805C21.4173 2.21005 21.3773 1.99405 21.2973 1.81005C21.2213 1.62605 21.1153 1.47405 20.9793 1.35405C20.8433 1.23405 20.6813 1.14405 20.4933 1.08405C20.3093 1.02405 20.1093 0.994051 19.8933 0.994051C19.6773 0.994051 19.4773 1.02605 19.2933 1.09005C19.1093 1.15405 18.9453 1.24405 18.8013 1.36005C18.6613 1.47205 18.5433 1.60805 18.4473 1.76805C18.3513 1.92405 18.2793 2.09405 18.2313 2.27805C18.1993 2.39405 18.1513 2.47805 18.0873 2.53005C18.0233 2.58205 17.9413 2.60805 17.8413 2.60805C17.8213 2.60805 17.7993 2.60805 17.7753 2.60805C17.7553 2.60405 17.7313 2.60005 17.7033 2.59605L17.1453 2.50005C17.2013 2.10805 17.3093 1.76205 17.4693 1.46205C17.6293 1.15805 17.8313 0.90405 18.0753 0.70005C18.3233 0.49605 18.6053 0.34205 18.9213 0.23805C19.2413 0.13005 19.5853 0.0760498 19.9533 0.0760498Z" fill="#4F4F4F"/>
<path d="M26.8003 0.0760498C27.1643 0.0760498 27.5042 0.13005 27.8202 0.23805C28.1362 0.34605 28.4083 0.50405 28.6363 0.71205C28.8683 0.91605 29.0503 1.16605 29.1823 1.46205C29.3143 1.75805 29.3803 2.09405 29.3803 2.47005C29.3803 2.79005 29.3322 3.08605 29.2362 3.35805C29.1402 3.63005 29.0103 3.89205 28.8463 4.14405C28.6823 4.39205 28.4923 4.63405 28.2763 4.87005C28.0643 5.10205 27.8382 5.34005 27.5982 5.58405L25.3363 7.90005C25.4963 7.85605 25.6583 7.82205 25.8223 7.79805C25.9862 7.77005 26.1442 7.75605 26.2962 7.75605H29.1763C29.2922 7.75605 29.3843 7.79005 29.4523 7.85805C29.5203 7.92605 29.5543 8.01405 29.5543 8.12205V8.77005H23.8183V8.40405C23.8183 8.32805 23.8323 8.25005 23.8603 8.17005C23.8923 8.09005 23.9422 8.01605 24.0103 7.94805L26.7642 5.18205C26.9923 4.95005 27.2003 4.72805 27.3883 4.51605C27.5763 4.30005 27.7362 4.08405 27.8682 3.86805C28.0042 3.65205 28.1082 3.43405 28.1803 3.21405C28.2523 2.99005 28.2882 2.75205 28.2882 2.50005C28.2882 2.24805 28.2483 2.02805 28.1683 1.84005C28.0883 1.64805 27.9783 1.49005 27.8383 1.36605C27.6983 1.24205 27.5343 1.15005 27.3463 1.09005C27.1583 1.02605 26.9562 0.994051 26.7402 0.994051C26.5243 0.994051 26.3243 1.02605 26.1403 1.09005C25.9563 1.15405 25.7923 1.24405 25.6483 1.36005C25.5083 1.47205 25.3883 1.60605 25.2882 1.76205C25.1922 1.91805 25.1242 2.09005 25.0842 2.27805C25.0522 2.39405 25.0042 2.47805 24.9403 2.53005C24.8763 2.58205 24.7922 2.60805 24.6882 2.60805C24.6682 2.60805 24.6462 2.60805 24.6222 2.60805C24.6022 2.60405 24.5783 2.60005 24.5503 2.59605L23.9923 2.50005C24.0483 2.10805 24.1562 1.76205 24.3162 1.46205C24.4762 1.15805 24.6783 0.90405 24.9223 0.70005C25.1702 0.49605 25.4522 0.34205 25.7682 0.23805C26.0882 0.13005 26.4323 0.0760498 26.8003 0.0760498Z" fill="#4F4F4F"/>
</svg>
