<svg width="30" height="10" viewBox="0 0 30 10" fill="none" xmlns="http://www.w3.org/2000/svg">
<path d="M1.01 8.13807H2.858V2.27607C2.858 2.10007 2.864 1.92207 2.876 1.74207L1.34 3.05607C1.3 3.08807 1.26 3.11207 1.22 3.12807C1.18 3.14007 1.142 3.14607 1.106 3.14607C1.046 3.14607 0.992 3.13407 0.944 3.11007C0.896 3.08207 0.86 3.05007 0.836 3.01407L0.5 2.55207L3.056 0.338071H3.926V8.13807H5.618V8.95407H1.01V8.13807Z" fill="#4F4F4F"/>
<path d="M9.54294 5.42607C9.21894 5.42607 8.91094 5.37207 8.61894 5.26407C8.33094 5.15607 8.07694 4.99807 7.85694 4.79007C7.63694 4.57807 7.46094 4.32007 7.32894 4.01607C7.20094 3.70807 7.13694 3.35607 7.13694 2.96007C7.13694 2.58407 7.20694 2.23207 7.34694 1.90407C7.48694 1.57607 7.68294 1.29007 7.93494 1.04607C8.18694 0.802071 8.48694 0.610071 8.83494 0.470071C9.18294 0.330071 9.56494 0.260071 9.98094 0.260071C10.3929 0.260071 10.7669 0.328071 11.1029 0.464071C11.4389 0.600071 11.7269 0.790071 11.9669 1.03407C12.2069 1.27807 12.3909 1.57007 12.5189 1.91007C12.6509 2.25007 12.7169 2.62607 12.7169 3.03807C12.7169 3.28607 12.6929 3.52207 12.6449 3.74607C12.6009 3.96607 12.5349 4.18207 12.4469 4.39407C12.3589 4.60607 12.2529 4.81807 12.1289 5.03007C12.0089 5.23807 11.8709 5.45407 11.7149 5.67807L9.62094 8.70207C9.56894 8.77807 9.49494 8.84007 9.39894 8.88807C9.30294 8.93207 9.19294 8.95407 9.06894 8.95407H8.08494L10.7009 5.52807C10.7889 5.41207 10.8709 5.30207 10.9469 5.19807C11.0229 5.09407 11.0949 4.99007 11.1629 4.88607C10.9429 5.06207 10.6949 5.19607 10.4189 5.28807C10.1429 5.38007 9.85094 5.42607 9.54294 5.42607ZM11.6909 2.91207C11.6909 2.64407 11.6469 2.40207 11.5589 2.18607C11.4749 1.96607 11.3569 1.78007 11.2049 1.62807C11.0529 1.47607 10.8709 1.36007 10.6589 1.28007C10.4509 1.19607 10.2209 1.15407 9.96894 1.15407C9.70494 1.15407 9.46294 1.19807 9.24294 1.28607C9.02694 1.37007 8.84094 1.48807 8.68494 1.64007C8.53294 1.79207 8.41494 1.97407 8.33094 2.18607C8.24694 2.39807 8.20494 2.63007 8.20494 2.88207C8.20494 3.15407 8.24294 3.39807 8.31894 3.61407C8.39894 3.82607 8.51094 4.00607 8.65494 4.15407C8.80294 4.30207 8.98094 4.41407 9.18894 4.49007C9.40094 4.56607 9.63694 4.60407 9.89694 4.60407C10.1849 4.60407 10.4389 4.55807 10.6589 4.46607C10.8829 4.37007 11.0709 4.24407 11.2229 4.08807C11.3749 3.93207 11.4909 3.75207 11.5709 3.54807C11.6509 3.34407 11.6909 3.13207 11.6909 2.91207Z" fill="#4F4F4F"/>
<path d="M13.9779 8.29407C13.9779 8.19007 13.9959 8.09207 14.0319 8.00007C14.0719 7.90807 14.1239 7.82807 14.1879 7.76007C14.2559 7.69207 14.3359 7.63807 14.4279 7.59807C14.5199 7.55807 14.6179 7.53807 14.7219 7.53807C14.8259 7.53807 14.9239 7.55807 15.0159 7.59807C15.1079 7.63807 15.1879 7.69207 15.2559 7.76007C15.3239 7.82807 15.3759 7.90807 15.4119 8.00007C15.4519 8.09207 15.4719 8.19007 15.4719 8.29407C15.4719 8.40207 15.4519 8.50207 15.4119 8.59407C15.3759 8.68207 15.3239 8.76007 15.2559 8.82807C15.1879 8.89607 15.1079 8.94807 15.0159 8.98407C14.9239 9.02407 14.8259 9.04407 14.7219 9.04407C14.6179 9.04407 14.5199 9.02407 14.4279 8.98407C14.3359 8.94807 14.2559 8.89607 14.1879 8.82807C14.1239 8.76007 14.0719 8.68207 14.0319 8.59407C13.9959 8.50207 13.9779 8.40207 13.9779 8.29407ZM13.9779 3.79407C13.9779 3.69007 13.9959 3.59207 14.0319 3.50007C14.0719 3.40807 14.1239 3.32807 14.1879 3.26007C14.2559 3.19207 14.3359 3.13807 14.4279 3.09807C14.5199 3.05807 14.6179 3.03807 14.7219 3.03807C14.8259 3.03807 14.9239 3.05807 15.0159 3.09807C15.1079 3.13807 15.1879 3.19207 15.2559 3.26007C15.3239 3.32807 15.3759 3.40807 15.4119 3.50007C15.4519 3.59207 15.4719 3.69007 15.4719 3.79407C15.4719 3.90207 15.4519 4.00207 15.4119 4.09407C15.3759 4.18207 15.3239 4.26007 15.2559 4.32807C15.1879 4.39607 15.1079 4.45007 15.0159 4.49007C14.9239 4.52607 14.8259 4.54407 14.7219 4.54407C14.6179 4.54407 14.5199 4.52607 14.4279 4.49007C14.3359 4.45007 14.2559 4.39607 14.1879 4.32807C14.1239 4.26007 14.0719 4.18207 14.0319 4.09407C13.9959 4.00207 13.9779 3.90207 13.9779 3.79407Z" fill="#4F4F4F"/>
<path d="M19.9533 0.260071C20.3173 0.260071 20.6533 0.312071 20.9613 0.416071C21.2693 0.520071 21.5333 0.668071 21.7533 0.860071C21.9773 1.05207 22.1513 1.28407 22.2753 1.55607C22.3993 1.82807 22.4613 2.13007 22.4613 2.46207C22.4613 2.73407 22.4253 2.97807 22.3533 3.19407C22.2853 3.40607 22.1853 3.59407 22.0533 3.75807C21.9253 3.91807 21.7693 4.05407 21.5853 4.16607C21.4013 4.27807 21.1953 4.36807 20.9673 4.43607C21.5273 4.58407 21.9473 4.83207 22.2273 5.18007C22.5113 5.52807 22.6533 5.96407 22.6533 6.48807C22.6533 6.88407 22.5773 7.24007 22.4253 7.55607C22.2773 7.87207 22.0733 8.14207 21.8133 8.36607C21.5533 8.58607 21.2493 8.75607 20.9013 8.87607C20.5573 8.99207 20.1873 9.05007 19.7913 9.05007C19.3353 9.05007 18.9453 8.99407 18.6213 8.88207C18.2973 8.76607 18.0233 8.60807 17.7993 8.40807C17.5753 8.20807 17.3913 7.97207 17.2473 7.70007C17.1033 7.42407 16.9813 7.12607 16.8813 6.80607L17.3373 6.61407C17.4213 6.57807 17.5053 6.56007 17.5893 6.56007C17.6693 6.56007 17.7393 6.57807 17.7993 6.61407C17.8633 6.64607 17.9113 6.69807 17.9433 6.77007C17.9513 6.78607 17.9593 6.80407 17.9673 6.82407C17.9753 6.84007 17.9833 6.85807 17.9913 6.87807C18.0473 6.99407 18.1153 7.12607 18.1953 7.27407C18.2753 7.41807 18.3833 7.55407 18.5193 7.68207C18.6553 7.81007 18.8233 7.91807 19.0233 8.00607C19.2273 8.09407 19.4793 8.13807 19.7793 8.13807C20.0793 8.13807 20.3413 8.09007 20.5653 7.99407C20.7933 7.89407 20.9813 7.76607 21.1293 7.61007C21.2813 7.45407 21.3953 7.28007 21.4713 7.08807C21.5473 6.89607 21.5853 6.70607 21.5853 6.51807C21.5853 6.28607 21.5533 6.07407 21.4893 5.88207C21.4293 5.69007 21.3173 5.52407 21.1533 5.38407C20.9933 5.24407 20.7693 5.13407 20.4813 5.05407C20.1973 4.97407 19.8313 4.93407 19.3833 4.93407V4.16007C19.7473 4.15607 20.0573 4.11607 20.3133 4.04007C20.5733 3.96407 20.7853 3.86007 20.9493 3.72807C21.1133 3.59607 21.2313 3.43807 21.3033 3.25407C21.3793 3.07007 21.4173 2.86607 21.4173 2.64207C21.4173 2.39407 21.3773 2.17807 21.2973 1.99407C21.2213 1.81007 21.1153 1.65807 20.9793 1.53807C20.8433 1.41807 20.6813 1.32807 20.4933 1.26807C20.3093 1.20807 20.1093 1.17807 19.8933 1.17807C19.6773 1.17807 19.4773 1.21007 19.2933 1.27407C19.1093 1.33807 18.9453 1.42807 18.8013 1.54407C18.6613 1.65607 18.5433 1.79207 18.4473 1.95207C18.3513 2.10807 18.2793 2.27807 18.2313 2.46207C18.1993 2.57807 18.1513 2.66207 18.0873 2.71407C18.0233 2.76607 17.9413 2.79207 17.8413 2.79207C17.8213 2.79207 17.7993 2.79207 17.7753 2.79207C17.7553 2.78807 17.7313 2.78407 17.7033 2.78007L17.1453 2.68407C17.2013 2.29207 17.3093 1.94607 17.4693 1.64607C17.6293 1.34207 17.8313 1.08807 18.0753 0.884071C18.3233 0.680071 18.6053 0.526071 18.9213 0.422071C19.2413 0.314071 19.5853 0.260071 19.9533 0.260071Z" fill="#4F4F4F"/>
<path d="M26.8003 0.260071C27.1643 0.260071 27.5042 0.314071 27.8202 0.422071C28.1362 0.530071 28.4083 0.688071 28.6363 0.896071C28.8683 1.10007 29.0503 1.35007 29.1823 1.64607C29.3143 1.94207 29.3803 2.27807 29.3803 2.65407C29.3803 2.97407 29.3322 3.27007 29.2362 3.54207C29.1402 3.81407 29.0103 4.07607 28.8463 4.32807C28.6823 4.57607 28.4923 4.81807 28.2763 5.05407C28.0643 5.28607 27.8382 5.52407 27.5982 5.76807L25.3363 8.08407C25.4963 8.04007 25.6583 8.00607 25.8223 7.98207C25.9862 7.95407 26.1442 7.94007 26.2962 7.94007H29.1763C29.2922 7.94007 29.3843 7.97407 29.4523 8.04207C29.5203 8.11007 29.5543 8.19807 29.5543 8.30607V8.95407H23.8183V8.58807C23.8183 8.51207 23.8323 8.43407 23.8603 8.35407C23.8923 8.27407 23.9422 8.20007 24.0103 8.13207L26.7642 5.36607C26.9923 5.13407 27.2003 4.91207 27.3883 4.70007C27.5763 4.48407 27.7362 4.26807 27.8682 4.05207C28.0042 3.83607 28.1082 3.61807 28.1803 3.39807C28.2523 3.17407 28.2882 2.93607 28.2882 2.68407C28.2882 2.43207 28.2483 2.21207 28.1683 2.02407C28.0883 1.83207 27.9783 1.67407 27.8383 1.55007C27.6983 1.42607 27.5343 1.33407 27.3463 1.27407C27.1583 1.21007 26.9562 1.17807 26.7402 1.17807C26.5243 1.17807 26.3243 1.21007 26.1403 1.27407C25.9563 1.33807 25.7923 1.42807 25.6483 1.54407C25.5083 1.65607 25.3883 1.79007 25.2882 1.94607C25.1922 2.10207 25.1242 2.27407 25.0842 2.46207C25.0522 2.57807 25.0042 2.66207 24.9403 2.71407C24.8763 2.76607 24.7922 2.79207 24.6882 2.79207C24.6682 2.79207 24.6462 2.79207 24.6222 2.79207C24.6022 2.78807 24.5783 2.78407 24.5503 2.78007L23.9923 2.68407C24.0483 2.29207 24.1562 1.94607 24.3162 1.64607C24.4762 1.34207 24.6783 1.08807 24.9223 0.884071C25.1702 0.680071 25.4522 0.526071 25.7682 0.422071C26.0882 0.314071 26.4323 0.260071 26.8003 0.260071Z" fill="#4F4F4F"/>
</svg>
