<svg width="69" height="14" viewBox="0 0 69 14" fill="none" xmlns="http://www.w3.org/2000/svg">
<path d="M4.36572 0.74551C4.79039 0.74551 5.18705 0.80851 5.55572 0.934511C5.92439 1.06051 6.24172 1.24484 6.50772 1.48751C6.77839 1.72551 6.99072 2.01718 7.14472 2.36251C7.29872 2.70784 7.37572 3.09984 7.37572 3.53851C7.37572 3.91184 7.31972 4.25718 7.20772 4.57451C7.09572 4.89184 6.94405 5.19751 6.75272 5.49151C6.56139 5.78084 6.33972 6.06318 6.08772 6.33851C5.84039 6.60918 5.57672 6.88684 5.29672 7.17151L2.65772 9.87351C2.84439 9.82218 3.03339 9.78251 3.22472 9.75451C3.41605 9.72184 3.60039 9.70551 3.77772 9.70551H7.13772C7.27305 9.70551 7.38039 9.74518 7.45972 9.82451C7.53905 9.90384 7.57872 10.0065 7.57872 10.1325V10.8885H0.886719V10.4615C0.886719 10.3728 0.903052 10.2818 0.935719 10.1885C0.973052 10.0952 1.03139 10.0088 1.11072 9.92951L4.32372 6.70251C4.58972 6.43184 4.83239 6.17284 5.05172 5.92551C5.27105 5.67351 5.45772 5.42151 5.61172 5.16951C5.77039 4.91751 5.89172 4.66318 5.97572 4.40651C6.05972 4.14518 6.10172 3.86751 6.10172 3.57351C6.10172 3.27951 6.05505 3.02284 5.96172 2.80351C5.86839 2.57951 5.74005 2.39518 5.57672 2.25051C5.41339 2.10584 5.22205 1.99851 5.00272 1.92851C4.78339 1.85384 4.54772 1.81651 4.29572 1.81651C4.04372 1.81651 3.81039 1.85384 3.59572 1.92851C3.38105 2.00318 3.18972 2.10818 3.02172 2.24351C2.85839 2.37418 2.71839 2.53051 2.60172 2.71251C2.48972 2.89451 2.41039 3.09518 2.36372 3.31451C2.32639 3.44984 2.27039 3.54784 2.19572 3.60851C2.12105 3.66918 2.02305 3.69951 1.90172 3.69951C1.87839 3.69951 1.85272 3.69951 1.82472 3.69951C1.80139 3.69484 1.77339 3.69018 1.74072 3.68551L1.08972 3.57351C1.15505 3.11618 1.28105 2.71251 1.46772 2.36251C1.65439 2.00784 1.89005 1.71151 2.17472 1.47351C2.46405 1.23551 2.79305 1.05584 3.16172 0.934511C3.53505 0.80851 3.93639 0.74551 4.36572 0.74551Z" fill="#EB5757"/>
<path d="M20.8988 5.87651C20.8988 6.62784 20.7798 7.31151 20.5418 7.92751C20.3038 8.54351 19.9678 9.07085 19.5338 9.50951C19.0998 9.94818 18.5795 10.2888 17.9728 10.5315C17.3662 10.7695 16.6942 10.8885 15.9568 10.8885H12.2048V0.857511H15.9568C16.6942 0.857511 17.3662 0.978844 17.9728 1.22151C18.5795 1.45951 19.0998 1.80018 19.5338 2.24351C19.9678 2.68218 20.3038 3.20951 20.5418 3.82551C20.7798 4.44151 20.8988 5.12518 20.8988 5.87651ZM19.5058 5.87651C19.5058 5.26051 19.4218 4.70984 19.2538 4.22451C19.0858 3.73918 18.8478 3.32851 18.5398 2.99251C18.2318 2.65651 17.8585 2.39984 17.4198 2.22251C16.9812 2.04518 16.4935 1.95651 15.9568 1.95651H13.5698V9.78951H15.9568C16.4935 9.78951 16.9812 9.70084 17.4198 9.52351C17.8585 9.34618 18.2318 9.09184 18.5398 8.76051C18.8478 8.42451 19.0858 8.01384 19.2538 7.52851C19.4218 7.04318 19.5058 6.49251 19.5058 5.87651Z" fill="#EB5757"/>
<path d="M27.7579 10.8885H27.2049C27.0835 10.8885 26.9855 10.8698 26.9109 10.8325C26.8362 10.7952 26.7872 10.7158 26.7639 10.5945L26.6239 9.93651C26.4372 10.1045 26.2552 10.2562 26.0779 10.3915C25.9005 10.5222 25.7139 10.6342 25.5179 10.7275C25.3219 10.8162 25.1119 10.8838 24.8879 10.9305C24.6685 10.9772 24.4235 11.0005 24.1529 11.0005C23.8775 11.0005 23.6185 10.9632 23.3759 10.8885C23.1379 10.8092 22.9302 10.6925 22.7529 10.5385C22.5755 10.3845 22.4332 10.1908 22.3259 9.95751C22.2232 9.71951 22.1719 9.43951 22.1719 9.11751C22.1719 8.83751 22.2489 8.56918 22.4029 8.31251C22.5569 8.05118 22.8042 7.82018 23.1449 7.61951C23.4902 7.41884 23.9405 7.25551 24.4959 7.12951C25.0512 6.99884 25.7302 6.92418 26.5329 6.90551V6.35251C26.5329 5.80184 26.4139 5.38651 26.1759 5.10651C25.9425 4.82184 25.5949 4.67951 25.1329 4.67951C24.8295 4.67951 24.5729 4.71918 24.3629 4.79851C24.1575 4.87318 23.9779 4.95951 23.8239 5.05751C23.6745 5.15084 23.5439 5.23718 23.4319 5.31651C23.3245 5.39118 23.2172 5.42851 23.1099 5.42851C23.0259 5.42851 22.9512 5.40751 22.8859 5.36551C22.8252 5.31884 22.7762 5.26284 22.7389 5.19751L22.5149 4.79851C22.9069 4.42051 23.3292 4.13818 23.7819 3.95151C24.2345 3.76484 24.7362 3.67151 25.2869 3.67151C25.6835 3.67151 26.0359 3.73684 26.3439 3.86751C26.6519 3.99818 26.9109 4.18018 27.1209 4.41351C27.3309 4.64684 27.4895 4.92918 27.5969 5.26051C27.7042 5.59184 27.7579 5.95584 27.7579 6.35251V10.8885ZM24.5239 10.1255C24.7432 10.1255 24.9439 10.1045 25.1259 10.0625C25.3079 10.0158 25.4782 9.95284 25.6369 9.87351C25.8002 9.78951 25.9542 9.68918 26.0989 9.57251C26.2482 9.45584 26.3929 9.32284 26.5329 9.17351V7.69651C25.9589 7.71518 25.4712 7.76184 25.0699 7.83651C24.6685 7.90651 24.3419 7.99984 24.0899 8.11651C23.8379 8.23318 23.6535 8.37084 23.5369 8.52951C23.4249 8.68818 23.3689 8.86551 23.3689 9.06151C23.3689 9.24818 23.3992 9.40918 23.4599 9.54451C23.5205 9.67984 23.6022 9.79184 23.7049 9.88051C23.8075 9.96451 23.9289 10.0275 24.0689 10.0695C24.2089 10.1068 24.3605 10.1255 24.5239 10.1255Z" fill="#EB5757"/>
<path d="M31.5058 12.9815C31.4638 13.0748 31.4101 13.1495 31.3448 13.2055C31.2841 13.2615 31.1885 13.2895 31.0578 13.2895H30.1338L31.4288 10.4755L28.5028 3.79751H29.5808C29.6881 3.79751 29.7721 3.82551 29.8328 3.88151C29.8935 3.93284 29.9378 3.99118 29.9658 4.05651L31.8628 8.52251C31.9048 8.62518 31.9398 8.72784 31.9678 8.83051C32.0005 8.93318 32.0285 9.03818 32.0518 9.14551C32.0845 9.03818 32.1171 8.93318 32.1498 8.83051C32.1825 8.72784 32.2198 8.62284 32.2618 8.51551L34.1028 4.05651C34.1308 3.98184 34.1775 3.92118 34.2428 3.87451C34.3128 3.82318 34.3875 3.79751 34.4668 3.79751H35.4608L31.5058 12.9815Z" fill="#EB5757"/>
<path d="M40.6509 4.96651C40.5949 5.06918 40.5085 5.12051 40.3919 5.12051C40.3219 5.12051 40.2425 5.09484 40.1539 5.04351C40.0652 4.99218 39.9555 4.93618 39.8249 4.87551C39.6989 4.81018 39.5472 4.75184 39.3699 4.70051C39.1925 4.64451 38.9825 4.61651 38.7399 4.61651C38.5299 4.61651 38.3409 4.64451 38.1729 4.70051C38.0049 4.75184 37.8602 4.82418 37.7389 4.91751C37.6222 5.01084 37.5312 5.12051 37.4659 5.24651C37.4052 5.36784 37.3749 5.50084 37.3749 5.64551C37.3749 5.82751 37.4262 5.97918 37.5289 6.10051C37.6362 6.22184 37.7762 6.32684 37.9489 6.41551C38.1215 6.50418 38.3175 6.58351 38.5369 6.65351C38.7562 6.71884 38.9802 6.79118 39.2089 6.87051C39.4422 6.94518 39.6685 7.02918 39.8879 7.12251C40.1072 7.21584 40.3032 7.33251 40.4759 7.47251C40.6485 7.61251 40.7862 7.78518 40.8889 7.99051C40.9962 8.19118 41.0499 8.43385 41.0499 8.71851C41.0499 9.04518 40.9915 9.34851 40.8749 9.62851C40.7582 9.90384 40.5855 10.1442 40.3569 10.3495C40.1282 10.5502 39.8482 10.7088 39.5169 10.8255C39.1855 10.9422 38.8029 11.0005 38.3689 11.0005C37.8742 11.0005 37.4262 10.9212 37.0249 10.7625C36.6235 10.5992 36.2829 10.3915 36.0029 10.1395L36.2969 9.66351C36.3342 9.60284 36.3785 9.55618 36.4299 9.52351C36.4812 9.49085 36.5489 9.47451 36.6329 9.47451C36.7169 9.47451 36.8055 9.50718 36.8989 9.57251C36.9922 9.63785 37.1042 9.71018 37.2349 9.78951C37.3702 9.86884 37.5312 9.94118 37.7179 10.0065C37.9092 10.0718 38.1472 10.1045 38.4319 10.1045C38.6745 10.1045 38.8869 10.0742 39.0689 10.0135C39.2509 9.94818 39.4025 9.86184 39.5239 9.75451C39.6452 9.64718 39.7339 9.52351 39.7899 9.38351C39.8505 9.24351 39.8809 9.09418 39.8809 8.93551C39.8809 8.73951 39.8272 8.57851 39.7199 8.45251C39.6172 8.32184 39.4795 8.21218 39.3069 8.12351C39.1342 8.03018 38.9359 7.95084 38.7119 7.88551C38.4925 7.81551 38.2662 7.74318 38.0329 7.66851C37.8042 7.59384 37.5779 7.50984 37.3539 7.41651C37.1345 7.31851 36.9385 7.19718 36.7659 7.05251C36.5932 6.90784 36.4532 6.73051 36.3459 6.52051C36.2432 6.30584 36.1919 6.04684 36.1919 5.74351C36.1919 5.47284 36.2479 5.21384 36.3599 4.96651C36.4719 4.71451 36.6352 4.49518 36.8499 4.30851C37.0645 4.11718 37.3282 3.96551 37.6409 3.85351C37.9535 3.74151 38.3105 3.68551 38.7119 3.68551C39.1785 3.68551 39.5962 3.76018 39.9649 3.90951C40.3382 4.05418 40.6602 4.25484 40.9309 4.51151L40.6509 4.96651Z" fill="#EB5757"/>
<path d="M46.9222 9.74751H51.2622V10.8885H45.5642V0.857511H46.9222V9.74751Z" fill="#EB5757"/>
<path d="M55.1205 3.68551C55.5452 3.68551 55.9372 3.75784 56.2965 3.90251C56.6559 4.04251 56.9662 4.24784 57.2275 4.51851C57.4889 4.78451 57.6919 5.11584 57.8365 5.51251C57.9859 5.90451 58.0605 6.35251 58.0605 6.85651C58.0605 7.05251 58.0395 7.18318 57.9975 7.24851C57.9555 7.31384 57.8762 7.34651 57.7595 7.34651H53.0415C53.0509 7.79451 53.1115 8.18418 53.2235 8.51551C53.3355 8.84684 53.4895 9.12451 53.6855 9.34851C53.8815 9.56784 54.1149 9.73351 54.3855 9.84551C54.6562 9.95284 54.9595 10.0065 55.2955 10.0065C55.6082 10.0065 55.8765 9.97151 56.1005 9.90151C56.3292 9.82684 56.5252 9.74751 56.6885 9.66351C56.8519 9.57951 56.9872 9.50251 57.0945 9.43251C57.2065 9.35784 57.3022 9.32051 57.3815 9.32051C57.4842 9.32051 57.5635 9.36018 57.6195 9.43951L57.9695 9.89451C57.8155 10.0812 57.6312 10.2445 57.4165 10.3845C57.2019 10.5198 56.9709 10.6318 56.7235 10.7205C56.4809 10.8092 56.2289 10.8745 55.9675 10.9165C55.7062 10.9632 55.4472 10.9865 55.1905 10.9865C54.7005 10.9865 54.2479 10.9048 53.8325 10.7415C53.4219 10.5735 53.0649 10.3308 52.7615 10.0135C52.4629 9.69151 52.2295 9.29484 52.0615 8.82351C51.8935 8.35218 51.8095 7.81084 51.8095 7.19951C51.8095 6.70484 51.8842 6.24284 52.0335 5.81351C52.1875 5.38418 52.4069 5.01318 52.6915 4.70051C52.9762 4.38318 53.3239 4.13584 53.7345 3.95851C54.1452 3.77651 54.6072 3.68551 55.1205 3.68551ZM55.1485 4.60251C54.5465 4.60251 54.0729 4.77751 53.7275 5.12751C53.3822 5.47285 53.1675 5.95351 53.0835 6.56951H56.9405C56.9405 6.28018 56.9009 6.01651 56.8215 5.77851C56.7422 5.53584 56.6255 5.32818 56.4715 5.15551C56.3175 4.97818 56.1285 4.84284 55.9045 4.74951C55.6852 4.65151 55.4332 4.60251 55.1485 4.60251Z" fill="#EB5757"/>
<path d="M59.9353 10.8885V4.86151L59.1513 4.77051C59.0533 4.74718 58.9717 4.71218 58.9063 4.66551C58.8457 4.61418 58.8153 4.54184 58.8153 4.44851V3.93751H59.9353V3.25151C59.9353 2.84551 59.9913 2.48618 60.1033 2.17351C60.22 1.85618 60.3833 1.59018 60.5933 1.37551C60.808 1.15618 61.0647 0.990511 61.3633 0.878511C61.662 0.76651 61.998 0.71051 62.3713 0.71051C62.6887 0.71051 62.9827 0.757177 63.2533 0.850511L63.2253 1.47351C63.2207 1.56684 63.181 1.62284 63.1063 1.64151C63.0317 1.66018 62.9267 1.66951 62.7913 1.66951H62.5743C62.3597 1.66951 62.1637 1.69751 61.9863 1.75351C61.8137 1.80951 61.6643 1.90051 61.5383 2.02651C61.4123 2.15251 61.3143 2.31818 61.2443 2.52351C61.179 2.72884 61.1463 2.98318 61.1463 3.28651V3.93751H63.1973V4.84051H61.1883V10.8885H59.9353Z" fill="#EB5757"/>
<path d="M66.5211 11.0005C65.9611 11.0005 65.5295 10.8442 65.2261 10.5315C64.9275 10.2188 64.7781 9.76851 64.7781 9.18051V4.84051H63.9241C63.8495 4.84051 63.7865 4.81951 63.7351 4.77751C63.6838 4.73084 63.6581 4.66084 63.6581 4.56751V4.07051L64.8201 3.92351L65.1071 1.73251C65.1165 1.66251 65.1468 1.60651 65.1981 1.56451C65.2495 1.51784 65.3148 1.49451 65.3941 1.49451H66.0241V3.93751H68.0541V4.84051H66.0241V9.09651C66.0241 9.39518 66.0965 9.61684 66.2411 9.76151C66.3858 9.90618 66.5725 9.97851 66.8011 9.97851C66.9318 9.97851 67.0438 9.96218 67.1371 9.92951C67.2351 9.89218 67.3191 9.85251 67.3891 9.81051C67.4591 9.76851 67.5175 9.73118 67.5641 9.69851C67.6155 9.66118 67.6598 9.64251 67.6971 9.64251C67.7625 9.64251 67.8208 9.68218 67.8721 9.76151L68.2361 10.3565C68.0215 10.5572 67.7625 10.7158 67.4591 10.8325C67.1558 10.9445 66.8431 11.0005 66.5211 11.0005Z" fill="#EB5757"/>
</svg>
