<svg width="69" height="14" viewBox="0 0 69 14" fill="none" xmlns="http://www.w3.org/2000/svg">
<path d="M4.36572 0.745449C4.79039 0.745449 5.18705 0.808449 5.55572 0.93445C5.92439 1.06045 6.24172 1.24478 6.50772 1.48745C6.77839 1.72545 6.99072 2.01712 7.14472 2.36245C7.29872 2.70778 7.37572 3.09978 7.37572 3.53845C7.37572 3.91178 7.31972 4.25712 7.20772 4.57445C7.09572 4.89178 6.94405 5.19745 6.75272 5.49145C6.56139 5.78078 6.33972 6.06312 6.08772 6.33845C5.84039 6.60912 5.57672 6.88678 5.29672 7.17145L2.65772 9.87345C2.84439 9.82212 3.03339 9.78245 3.22472 9.75445C3.41605 9.72178 3.60039 9.70545 3.77772 9.70545H7.13772C7.27305 9.70545 7.38039 9.74512 7.45972 9.82445C7.53905 9.90378 7.57872 10.0064 7.57872 10.1325V10.8885H0.886719V10.4615C0.886719 10.3728 0.903052 10.2818 0.935719 10.1884C0.973052 10.0951 1.03139 10.0088 1.11072 9.92945L4.32372 6.70245C4.58972 6.43178 4.83239 6.17278 5.05172 5.92545C5.27105 5.67345 5.45772 5.42145 5.61172 5.16945C5.77039 4.91745 5.89172 4.66312 5.97572 4.40645C6.05972 4.14512 6.10172 3.86745 6.10172 3.57345C6.10172 3.27945 6.05505 3.02278 5.96172 2.80345C5.86839 2.57945 5.74005 2.39512 5.57672 2.25045C5.41339 2.10578 5.22205 1.99845 5.00272 1.92845C4.78339 1.85378 4.54772 1.81645 4.29572 1.81645C4.04372 1.81645 3.81039 1.85378 3.59572 1.92845C3.38105 2.00312 3.18972 2.10812 3.02172 2.24345C2.85839 2.37412 2.71839 2.53045 2.60172 2.71245C2.48972 2.89445 2.41039 3.09512 2.36372 3.31445C2.32639 3.44978 2.27039 3.54778 2.19572 3.60845C2.12105 3.66912 2.02305 3.69945 1.90172 3.69945C1.87839 3.69945 1.85272 3.69945 1.82472 3.69945C1.80139 3.69478 1.77339 3.69012 1.74072 3.68545L1.08972 3.57345C1.15505 3.11612 1.28105 2.71245 1.46772 2.36245C1.65439 2.00778 1.89005 1.71145 2.17472 1.47345C2.46405 1.23545 2.79305 1.05578 3.16172 0.93445C3.53505 0.808449 3.93639 0.745449 4.36572 0.745449Z" fill="#EB5757"/>
<path d="M20.8988 5.87645C20.8988 6.62778 20.7798 7.31145 20.5418 7.92745C20.3038 8.54345 19.9678 9.07078 19.5338 9.50945C19.0998 9.94812 18.5795 10.2888 17.9728 10.5315C17.3662 10.7695 16.6942 10.8885 15.9568 10.8885H12.2048V0.85745H15.9568C16.6942 0.85745 17.3662 0.978783 17.9728 1.22145C18.5795 1.45945 19.0998 1.80012 19.5338 2.24345C19.9678 2.68212 20.3038 3.20945 20.5418 3.82545C20.7798 4.44145 20.8988 5.12512 20.8988 5.87645ZM19.5058 5.87645C19.5058 5.26045 19.4218 4.70978 19.2538 4.22445C19.0858 3.73912 18.8478 3.32845 18.5398 2.99245C18.2318 2.65645 17.8585 2.39978 17.4198 2.22245C16.9812 2.04512 16.4935 1.95645 15.9568 1.95645H13.5698V9.78945H15.9568C16.4935 9.78945 16.9812 9.70078 17.4198 9.52345C17.8585 9.34612 18.2318 9.09178 18.5398 8.76045C18.8478 8.42445 19.0858 8.01378 19.2538 7.52845C19.4218 7.04312 19.5058 6.49245 19.5058 5.87645Z" fill="#EB5757"/>
<path d="M27.7579 10.8885H27.2049C27.0835 10.8885 26.9855 10.8698 26.9109 10.8325C26.8362 10.7951 26.7872 10.7158 26.7639 10.5944L26.6239 9.93645C26.4372 10.1045 26.2552 10.2561 26.0779 10.3915C25.9005 10.5221 25.7139 10.6341 25.5179 10.7274C25.3219 10.8161 25.1119 10.8838 24.8879 10.9305C24.6685 10.9771 24.4235 11.0005 24.1529 11.0005C23.8775 11.0005 23.6185 10.9631 23.3759 10.8885C23.1379 10.8091 22.9302 10.6925 22.7529 10.5385C22.5755 10.3844 22.4332 10.1908 22.3259 9.95745C22.2232 9.71945 22.1719 9.43945 22.1719 9.11745C22.1719 8.83745 22.2489 8.56912 22.4029 8.31245C22.5569 8.05112 22.8042 7.82012 23.1449 7.61945C23.4902 7.41878 23.9405 7.25545 24.4959 7.12945C25.0512 6.99878 25.7302 6.92412 26.5329 6.90545V6.35245C26.5329 5.80178 26.4139 5.38645 26.1759 5.10645C25.9425 4.82178 25.5949 4.67945 25.1329 4.67945C24.8295 4.67945 24.5729 4.71912 24.3629 4.79845C24.1575 4.87312 23.9779 4.95945 23.8239 5.05745C23.6745 5.15078 23.5439 5.23712 23.4319 5.31645C23.3245 5.39112 23.2172 5.42845 23.1099 5.42845C23.0259 5.42845 22.9512 5.40745 22.8859 5.36545C22.8252 5.31878 22.7762 5.26278 22.7389 5.19745L22.5149 4.79845C22.9069 4.42045 23.3292 4.13812 23.7819 3.95145C24.2345 3.76478 24.7362 3.67145 25.2869 3.67145C25.6835 3.67145 26.0359 3.73678 26.3439 3.86745C26.6519 3.99812 26.9109 4.18012 27.1209 4.41345C27.3309 4.64678 27.4895 4.92912 27.5969 5.26045C27.7042 5.59178 27.7579 5.95578 27.7579 6.35245V10.8885ZM24.5239 10.1255C24.7432 10.1255 24.9439 10.1045 25.1259 10.0625C25.3079 10.0158 25.4782 9.95278 25.6369 9.87345C25.8002 9.78945 25.9542 9.68912 26.0989 9.57245C26.2482 9.45578 26.3929 9.32278 26.5329 9.17345V7.69645C25.9589 7.71512 25.4712 7.76178 25.0699 7.83645C24.6685 7.90645 24.3419 7.99978 24.0899 8.11645C23.8379 8.23312 23.6535 8.37078 23.5369 8.52945C23.4249 8.68812 23.3689 8.86545 23.3689 9.06145C23.3689 9.24812 23.3992 9.40912 23.4599 9.54445C23.5205 9.67978 23.6022 9.79178 23.7049 9.88045C23.8075 9.96445 23.9289 10.0275 24.0689 10.0695C24.2089 10.1068 24.3605 10.1255 24.5239 10.1255Z" fill="#EB5757"/>
<path d="M31.5058 12.9815C31.4638 13.0748 31.4101 13.1495 31.3448 13.2055C31.2841 13.2614 31.1885 13.2895 31.0578 13.2895H30.1338L31.4288 10.4755L28.5028 3.79745H29.5808C29.6881 3.79745 29.7721 3.82545 29.8328 3.88145C29.8935 3.93278 29.9378 3.99112 29.9658 4.05645L31.8628 8.52245C31.9048 8.62512 31.9398 8.72778 31.9678 8.83045C32.0005 8.93312 32.0285 9.03812 32.0518 9.14545C32.0845 9.03812 32.1171 8.93312 32.1498 8.83045C32.1825 8.72778 32.2198 8.62278 32.2618 8.51545L34.1028 4.05645C34.1308 3.98178 34.1775 3.92112 34.2428 3.87445C34.3128 3.82312 34.3875 3.79745 34.4668 3.79745H35.4608L31.5058 12.9815Z" fill="#EB5757"/>
<path d="M40.6509 4.96645C40.5949 5.06912 40.5085 5.12045 40.3919 5.12045C40.3219 5.12045 40.2425 5.09478 40.1539 5.04345C40.0652 4.99212 39.9555 4.93612 39.8249 4.87545C39.6989 4.81012 39.5472 4.75178 39.3699 4.70045C39.1925 4.64445 38.9825 4.61645 38.7399 4.61645C38.5299 4.61645 38.3409 4.64445 38.1729 4.70045C38.0049 4.75178 37.8602 4.82412 37.7389 4.91745C37.6222 5.01078 37.5312 5.12045 37.4659 5.24645C37.4052 5.36778 37.3749 5.50078 37.3749 5.64545C37.3749 5.82745 37.4262 5.97912 37.5289 6.10045C37.6362 6.22178 37.7762 6.32678 37.9489 6.41545C38.1215 6.50412 38.3175 6.58345 38.5369 6.65345C38.7562 6.71878 38.9802 6.79112 39.2089 6.87045C39.4422 6.94512 39.6685 7.02912 39.8879 7.12245C40.1072 7.21578 40.3032 7.33245 40.4759 7.47245C40.6485 7.61245 40.7862 7.78512 40.8889 7.99045C40.9962 8.19112 41.0499 8.43378 41.0499 8.71845C41.0499 9.04512 40.9915 9.34845 40.8749 9.62845C40.7582 9.90378 40.5855 10.1441 40.3569 10.3494C40.1282 10.5501 39.8482 10.7088 39.5169 10.8255C39.1855 10.9421 38.8029 11.0005 38.3689 11.0005C37.8742 11.0005 37.4262 10.9211 37.0249 10.7624C36.6235 10.5991 36.2829 10.3914 36.0029 10.1395L36.2969 9.66345C36.3342 9.60278 36.3785 9.55612 36.4299 9.52345C36.4812 9.49078 36.5489 9.47445 36.6329 9.47445C36.7169 9.47445 36.8055 9.50712 36.8989 9.57245C36.9922 9.63778 37.1042 9.71012 37.2349 9.78945C37.3702 9.86878 37.5312 9.94112 37.7179 10.0065C37.9092 10.0718 38.1472 10.1045 38.4319 10.1045C38.6745 10.1045 38.8869 10.0741 39.0689 10.0135C39.2509 9.94812 39.4025 9.86178 39.5239 9.75445C39.6452 9.64712 39.7339 9.52345 39.7899 9.38345C39.8505 9.24345 39.8809 9.09412 39.8809 8.93545C39.8809 8.73945 39.8272 8.57845 39.7199 8.45245C39.6172 8.32178 39.4795 8.21212 39.3069 8.12345C39.1342 8.03012 38.9359 7.95078 38.7119 7.88545C38.4925 7.81545 38.2662 7.74312 38.0329 7.66845C37.8042 7.59378 37.5779 7.50978 37.3539 7.41645C37.1345 7.31845 36.9385 7.19712 36.7659 7.05245C36.5932 6.90778 36.4532 6.73045 36.3459 6.52045C36.2432 6.30578 36.1919 6.04678 36.1919 5.74345C36.1919 5.47278 36.2479 5.21378 36.3599 4.96645C36.4719 4.71445 36.6352 4.49512 36.8499 4.30845C37.0645 4.11712 37.3282 3.96545 37.6409 3.85345C37.9535 3.74145 38.3105 3.68545 38.7119 3.68545C39.1785 3.68545 39.5962 3.76012 39.9649 3.90945C40.3382 4.05412 40.6602 4.25478 40.9309 4.51145L40.6509 4.96645Z" fill="#EB5757"/>
<path d="M46.9222 9.74745H51.2622V10.8885H45.5642V0.85745H46.9222V9.74745Z" fill="#EB5757"/>
<path d="M55.1205 3.68545C55.5452 3.68545 55.9372 3.75778 56.2965 3.90245C56.6559 4.04245 56.9662 4.24778 57.2275 4.51845C57.4889 4.78445 57.6919 5.11578 57.8365 5.51245C57.9859 5.90445 58.0605 6.35245 58.0605 6.85645C58.0605 7.05245 58.0395 7.18312 57.9975 7.24845C57.9555 7.31378 57.8762 7.34645 57.7595 7.34645H53.0415C53.0509 7.79445 53.1115 8.18412 53.2235 8.51545C53.3355 8.84678 53.4895 9.12445 53.6855 9.34845C53.8815 9.56778 54.1149 9.73345 54.3855 9.84545C54.6562 9.95278 54.9595 10.0065 55.2955 10.0065C55.6082 10.0065 55.8765 9.97145 56.1005 9.90145C56.3292 9.82678 56.5252 9.74745 56.6885 9.66345C56.8519 9.57945 56.9872 9.50245 57.0945 9.43245C57.2065 9.35778 57.3022 9.32045 57.3815 9.32045C57.4842 9.32045 57.5635 9.36012 57.6195 9.43945L57.9695 9.89445C57.8155 10.0811 57.6312 10.2445 57.4165 10.3845C57.2019 10.5198 56.9709 10.6318 56.7235 10.7204C56.4809 10.8091 56.2289 10.8745 55.9675 10.9165C55.7062 10.9631 55.4472 10.9865 55.1905 10.9865C54.7005 10.9865 54.2479 10.9048 53.8325 10.7414C53.4219 10.5734 53.0649 10.3308 52.7615 10.0135C52.4629 9.69145 52.2295 9.29478 52.0615 8.82345C51.8935 8.35212 51.8095 7.81078 51.8095 7.19945C51.8095 6.70478 51.8842 6.24278 52.0335 5.81345C52.1875 5.38412 52.4069 5.01312 52.6915 4.70045C52.9762 4.38312 53.3239 4.13578 53.7345 3.95845C54.1452 3.77645 54.6072 3.68545 55.1205 3.68545ZM55.1485 4.60245C54.5465 4.60245 54.0729 4.77745 53.7275 5.12745C53.3822 5.47278 53.1675 5.95345 53.0835 6.56945H56.9405C56.9405 6.28012 56.9009 6.01645 56.8215 5.77845C56.7422 5.53578 56.6255 5.32812 56.4715 5.15545C56.3175 4.97812 56.1285 4.84278 55.9045 4.74945C55.6852 4.65145 55.4332 4.60245 55.1485 4.60245Z" fill="#EB5757"/>
<path d="M59.9353 10.8885V4.86145L59.1513 4.77045C59.0533 4.74712 58.9717 4.71212 58.9063 4.66545C58.8457 4.61412 58.8153 4.54178 58.8153 4.44845V3.93745H59.9353V3.25145C59.9353 2.84545 59.9913 2.48612 60.1033 2.17345C60.22 1.85612 60.3833 1.59012 60.5933 1.37545C60.808 1.15612 61.0647 0.99045 61.3633 0.87845C61.662 0.766449 61.998 0.710449 62.3713 0.710449C62.6887 0.710449 62.9827 0.757116 63.2533 0.85045L63.2253 1.47345C63.2207 1.56678 63.181 1.62278 63.1063 1.64145C63.0317 1.66012 62.9267 1.66945 62.7913 1.66945H62.5743C62.3597 1.66945 62.1637 1.69745 61.9863 1.75345C61.8137 1.80945 61.6643 1.90045 61.5383 2.02645C61.4123 2.15245 61.3143 2.31812 61.2443 2.52345C61.179 2.72878 61.1463 2.98312 61.1463 3.28645V3.93745H63.1973V4.84045H61.1883V10.8885H59.9353Z" fill="#EB5757"/>
<path d="M66.5211 11.0005C65.9611 11.0005 65.5295 10.8441 65.2261 10.5315C64.9275 10.2188 64.7781 9.76845 64.7781 9.18045V4.84045H63.9241C63.8495 4.84045 63.7865 4.81945 63.7351 4.77745C63.6838 4.73078 63.6581 4.66078 63.6581 4.56745V4.07045L64.8201 3.92345L65.1071 1.73245C65.1165 1.66245 65.1468 1.60645 65.1981 1.56445C65.2495 1.51778 65.3148 1.49445 65.3941 1.49445H66.0241V3.93745H68.0541V4.84045H66.0241V9.09645C66.0241 9.39512 66.0965 9.61678 66.2411 9.76145C66.3858 9.90612 66.5725 9.97845 66.8011 9.97845C66.9318 9.97845 67.0438 9.96212 67.1371 9.92945C67.2351 9.89212 67.3191 9.85245 67.3891 9.81045C67.4591 9.76845 67.5175 9.73112 67.5641 9.69845C67.6155 9.66112 67.6598 9.64245 67.6971 9.64245C67.7625 9.64245 67.8208 9.68212 67.8721 9.76145L68.2361 10.3565C68.0215 10.5571 67.7625 10.7158 67.4591 10.8325C67.1558 10.9445 66.8431 11.0005 66.5211 11.0005Z" fill="#EB5757"/>
</svg>
