<svg width="67" height="12" viewBox="0 0 67 12" fill="none" xmlns="http://www.w3.org/2000/svg">
<path d="M3.979 0.697479C4.40367 0.697479 4.80033 0.76048 5.169 0.88648C5.53767 1.01248 5.855 1.19681 6.121 1.43948C6.39167 1.67748 6.604 1.96915 6.758 2.31448C6.912 2.65981 6.989 3.05181 6.989 3.49048C6.989 3.86381 6.933 4.20915 6.821 4.52648C6.709 4.84381 6.55733 5.14948 6.366 5.44348C6.17467 5.73281 5.953 6.01515 5.701 6.29048C5.45367 6.56115 5.19 6.83881 4.91 7.12348L2.271 9.82548C2.45767 9.77415 2.64667 9.73448 2.838 9.70648C3.02933 9.67381 3.21367 9.65748 3.391 9.65748H6.751C6.88633 9.65748 6.99367 9.69715 7.073 9.77648C7.15233 9.85581 7.192 9.95848 7.192 10.0845V10.8405H0.5V10.4135C0.5 10.3248 0.516333 10.2338 0.549 10.1405C0.586333 10.0471 0.644667 9.96081 0.724 9.88148L3.937 6.65448C4.203 6.38381 4.44567 6.12481 4.665 5.87748C4.88433 5.62548 5.071 5.37348 5.225 5.12148C5.38367 4.86948 5.505 4.61515 5.589 4.35848C5.673 4.09715 5.715 3.81948 5.715 3.52548C5.715 3.23148 5.66833 2.97481 5.575 2.75548C5.48167 2.53148 5.35333 2.34715 5.19 2.20248C5.02667 2.05781 4.83533 1.95048 4.616 1.88048C4.39667 1.80581 4.161 1.76848 3.909 1.76848C3.657 1.76848 3.42367 1.80581 3.209 1.88048C2.99433 1.95515 2.803 2.06015 2.635 2.19548C2.47167 2.32615 2.33167 2.48248 2.215 2.66448C2.103 2.84648 2.02367 3.04715 1.977 3.26648C1.93967 3.40181 1.88367 3.49981 1.809 3.56048C1.73433 3.62115 1.63633 3.65148 1.515 3.65148C1.49167 3.65148 1.466 3.65148 1.438 3.65148C1.41467 3.64681 1.38667 3.64215 1.354 3.63748L0.703 3.52548C0.768333 3.06815 0.894333 2.66448 1.081 2.31448C1.26767 1.95981 1.50333 1.66348 1.788 1.42548C2.07733 1.18748 2.40633 1.00781 2.775 0.88648C3.14833 0.76048 3.54967 0.697479 3.979 0.697479Z" fill="#4F4F4F"/>
<path d="M9.02009 10.9875C8.95476 11.1508 8.85676 11.2721 8.72609 11.3515C8.60009 11.4308 8.46943 11.4705 8.33409 11.4705H7.80909L12.0161 0.99148C12.0768 0.842147 12.1631 0.727813 12.2751 0.64848C12.3871 0.569147 12.5201 0.52948 12.6741 0.52948H13.1991L9.02009 10.9875Z" fill="#4F4F4F"/>
<path d="M20.8158 5.82848C20.8158 6.70581 20.7201 7.46648 20.5287 8.11048C20.3421 8.74981 20.0854 9.27948 19.7587 9.69948C19.4321 10.1195 19.0448 10.4321 18.5968 10.6375C18.1534 10.8428 17.6774 10.9455 17.1687 10.9455C16.6554 10.9455 16.1771 10.8428 15.7338 10.6375C15.2951 10.4321 14.9124 10.1195 14.5858 9.69948C14.2591 9.27948 14.0024 8.74981 13.8158 8.11048C13.6291 7.46648 13.5358 6.70581 13.5358 5.82848C13.5358 4.95115 13.6291 4.19048 13.8158 3.54648C14.0024 2.90248 14.2591 2.37048 14.5858 1.95048C14.9124 1.52581 15.2951 1.21081 15.7338 1.00548C16.1771 0.800146 16.6554 0.697479 17.1687 0.697479C17.6774 0.697479 18.1534 0.800146 18.5968 1.00548C19.0448 1.21081 19.4321 1.52581 19.7587 1.95048C20.0854 2.37048 20.3421 2.90248 20.5287 3.54648C20.7201 4.19048 20.8158 4.95115 20.8158 5.82848ZM19.5208 5.82848C19.5208 5.06315 19.4554 4.42148 19.3247 3.90348C19.1987 3.38081 19.0261 2.96081 18.8067 2.64348C18.5921 2.32615 18.3424 2.09981 18.0577 1.96448C17.7731 1.82448 17.4767 1.75448 17.1687 1.75448C16.8607 1.75448 16.5644 1.82448 16.2797 1.96448C15.9951 2.09981 15.7454 2.32615 15.5308 2.64348C15.3161 2.96081 15.1434 3.38081 15.0128 3.90348C14.8868 4.42148 14.8238 5.06315 14.8238 5.82848C14.8238 6.59381 14.8868 7.23548 15.0128 7.75348C15.1434 8.27148 15.3161 8.68915 15.5308 9.00648C15.7454 9.32381 15.9951 9.55248 16.2797 9.69248C16.5644 9.82781 16.8607 9.89548 17.1687 9.89548C17.4767 9.89548 17.7731 9.82781 18.0577 9.69248C18.3424 9.55248 18.5921 9.32381 18.8067 9.00648C19.0261 8.68915 19.1987 8.27148 19.3247 7.75348C19.4554 7.23548 19.5208 6.59381 19.5208 5.82848Z" fill="#4F4F4F"/>
<path d="M25.7868 4.69448C26.1882 4.69448 26.5685 4.76215 26.9278 4.89748C27.2872 5.02815 27.6022 5.22181 27.8728 5.47848C28.1435 5.73048 28.3582 6.04315 28.5168 6.41648C28.6755 6.78515 28.7548 7.20748 28.7548 7.68348C28.7548 8.14548 28.6708 8.57481 28.5028 8.97148C28.3348 9.36815 28.0992 9.71348 27.7958 10.0075C27.4972 10.3015 27.1355 10.5325 26.7108 10.7005C26.2862 10.8685 25.8195 10.9525 25.3108 10.9525C24.8068 10.9525 24.3495 10.8731 23.9388 10.7145C23.5328 10.5511 23.1852 10.3225 22.8958 10.0285C22.6065 9.72981 22.3825 9.37048 22.2238 8.95048C22.0698 8.52581 21.9928 8.05215 21.9928 7.52948C21.9928 7.09081 22.0908 6.62415 22.2868 6.12948C22.4828 5.63481 22.7932 5.10281 23.2178 4.53348L25.7588 1.11048C25.8242 1.02648 25.9152 0.95648 26.0318 0.90048C26.1485 0.839813 26.2815 0.80948 26.4308 0.80948H27.5368L24.0578 5.21248C24.2958 5.04915 24.5595 4.92315 24.8488 4.83448C25.1382 4.74115 25.4508 4.69448 25.7868 4.69448ZM23.1968 7.74648C23.1968 8.06848 23.2435 8.36248 23.3368 8.62848C23.4302 8.89448 23.5655 9.12315 23.7428 9.31448C23.9248 9.50581 24.1442 9.65515 24.4008 9.76248C24.6622 9.86515 24.9585 9.91648 25.2898 9.91648C25.6258 9.91648 25.9292 9.86281 26.1998 9.75548C26.4705 9.64815 26.7015 9.49881 26.8928 9.30748C27.0888 9.11615 27.2382 8.88981 27.3408 8.62848C27.4482 8.36715 27.5018 8.08248 27.5018 7.77448C27.5018 7.44781 27.4505 7.15381 27.3478 6.89248C27.2452 6.62648 27.1005 6.40248 26.9138 6.22048C26.7272 6.03381 26.5032 5.89148 26.2418 5.79348C25.9805 5.69548 25.6935 5.64648 25.3808 5.64648C25.0448 5.64648 24.7415 5.70481 24.4708 5.82148C24.2002 5.93348 23.9692 6.08748 23.7778 6.28348C23.5912 6.47481 23.4465 6.69881 23.3438 6.95548C23.2458 7.20748 23.1968 7.47115 23.1968 7.74648Z" fill="#4F4F4F"/>
<path d="M30.4849 10.9875C30.4196 11.1508 30.3216 11.2721 30.1909 11.3515C30.0649 11.4308 29.9343 11.4705 29.7989 11.4705H29.2739L33.4809 0.99148C33.5416 0.842147 33.6279 0.727813 33.7399 0.64848C33.8519 0.569147 33.9849 0.52948 34.1389 0.52948H34.6639L30.4849 10.9875Z" fill="#4F4F4F"/>
<path d="M38.7876 0.697479C39.2123 0.697479 39.6089 0.76048 39.9776 0.88648C40.3463 1.01248 40.6636 1.19681 40.9296 1.43948C41.2003 1.67748 41.4126 1.96915 41.5666 2.31448C41.7206 2.65981 41.7976 3.05181 41.7976 3.49048C41.7976 3.86381 41.7416 4.20915 41.6296 4.52648C41.5176 4.84381 41.3659 5.14948 41.1746 5.44348C40.9833 5.73281 40.7616 6.01515 40.5096 6.29048C40.2623 6.56115 39.9986 6.83881 39.7186 7.12348L37.0796 9.82548C37.2663 9.77415 37.4553 9.73448 37.6466 9.70648C37.8379 9.67381 38.0223 9.65748 38.1996 9.65748H41.5596C41.6949 9.65748 41.8023 9.69715 41.8816 9.77648C41.9609 9.85581 42.0006 9.95848 42.0006 10.0845V10.8405H35.3086V10.4135C35.3086 10.3248 35.3249 10.2338 35.3576 10.1405C35.3949 10.0471 35.4533 9.96081 35.5326 9.88148L38.7456 6.65448C39.0116 6.38381 39.2543 6.12481 39.4736 5.87748C39.6929 5.62548 39.8796 5.37348 40.0336 5.12148C40.1923 4.86948 40.3136 4.61515 40.3976 4.35848C40.4816 4.09715 40.5236 3.81948 40.5236 3.52548C40.5236 3.23148 40.4769 2.97481 40.3836 2.75548C40.2903 2.53148 40.1619 2.34715 39.9986 2.20248C39.8353 2.05781 39.6439 1.95048 39.4246 1.88048C39.2053 1.80581 38.9696 1.76848 38.7176 1.76848C38.4656 1.76848 38.2323 1.80581 38.0176 1.88048C37.8029 1.95515 37.6116 2.06015 37.4436 2.19548C37.2803 2.32615 37.1403 2.48248 37.0236 2.66448C36.9116 2.84648 36.8323 3.04715 36.7856 3.26648C36.7483 3.40181 36.6923 3.49981 36.6176 3.56048C36.5429 3.62115 36.4449 3.65148 36.3236 3.65148C36.3003 3.65148 36.2746 3.65148 36.2466 3.65148C36.2233 3.64681 36.1953 3.64215 36.1626 3.63748L35.5116 3.52548C35.5769 3.06815 35.7029 2.66448 35.8896 2.31448C36.0763 1.95981 36.3119 1.66348 36.5966 1.42548C36.8859 1.18748 37.2149 1.00781 37.5836 0.88648C37.9569 0.76048 38.3583 0.697479 38.7876 0.697479Z" fill="#4F4F4F"/>
<path d="M50.4017 5.82848C50.4017 6.70581 50.306 7.46648 50.1147 8.11048C49.928 8.74981 49.6714 9.27948 49.3447 9.69948C49.018 10.1195 48.6307 10.4321 48.1827 10.6375C47.7394 10.8428 47.2634 10.9455 46.7547 10.9455C46.2414 10.9455 45.763 10.8428 45.3197 10.6375C44.881 10.4321 44.4984 10.1195 44.1717 9.69948C43.845 9.27948 43.5884 8.74981 43.4017 8.11048C43.215 7.46648 43.1217 6.70581 43.1217 5.82848C43.1217 4.95115 43.215 4.19048 43.4017 3.54648C43.5884 2.90248 43.845 2.37048 44.1717 1.95048C44.4984 1.52581 44.881 1.21081 45.3197 1.00548C45.763 0.800146 46.2414 0.697479 46.7547 0.697479C47.2634 0.697479 47.7394 0.800146 48.1827 1.00548C48.6307 1.21081 49.018 1.52581 49.3447 1.95048C49.6714 2.37048 49.928 2.90248 50.1147 3.54648C50.306 4.19048 50.4017 4.95115 50.4017 5.82848ZM49.1067 5.82848C49.1067 5.06315 49.0414 4.42148 48.9107 3.90348C48.7847 3.38081 48.612 2.96081 48.3927 2.64348C48.178 2.32615 47.9284 2.09981 47.6437 1.96448C47.359 1.82448 47.0627 1.75448 46.7547 1.75448C46.4467 1.75448 46.1504 1.82448 45.8657 1.96448C45.581 2.09981 45.3314 2.32615 45.1167 2.64348C44.902 2.96081 44.7294 3.38081 44.5987 3.90348C44.4727 4.42148 44.4097 5.06315 44.4097 5.82848C44.4097 6.59381 44.4727 7.23548 44.5987 7.75348C44.7294 8.27148 44.902 8.68915 45.1167 9.00648C45.3314 9.32381 45.581 9.55248 45.8657 9.69248C46.1504 9.82781 46.4467 9.89548 46.7547 9.89548C47.0627 9.89548 47.359 9.82781 47.6437 9.69248C47.9284 9.55248 48.178 9.32381 48.3927 9.00648C48.612 8.68915 48.7847 8.27148 48.9107 7.75348C49.0414 7.23548 49.1067 6.59381 49.1067 5.82848Z" fill="#4F4F4F"/>
<path d="M55.0298 0.697479C55.4544 0.697479 55.8511 0.76048 56.2198 0.88648C56.5884 1.01248 56.9058 1.19681 57.1718 1.43948C57.4424 1.67748 57.6548 1.96915 57.8088 2.31448C57.9628 2.65981 58.0398 3.05181 58.0398 3.49048C58.0398 3.86381 57.9838 4.20915 57.8718 4.52648C57.7598 4.84381 57.6081 5.14948 57.4168 5.44348C57.2254 5.73281 57.0038 6.01515 56.7518 6.29048C56.5044 6.56115 56.2408 6.83881 55.9608 7.12348L53.3218 9.82548C53.5084 9.77415 53.6974 9.73448 53.8888 9.70648C54.0801 9.67381 54.2644 9.65748 54.4418 9.65748H57.8018C57.9371 9.65748 58.0444 9.69715 58.1238 9.77648C58.2031 9.85581 58.2428 9.95848 58.2428 10.0845V10.8405H51.5508V10.4135C51.5508 10.3248 51.5671 10.2338 51.5998 10.1405C51.6371 10.0471 51.6954 9.96081 51.7748 9.88148L54.9878 6.65448C55.2538 6.38381 55.4964 6.12481 55.7158 5.87748C55.9351 5.62548 56.1218 5.37348 56.2758 5.12148C56.4344 4.86948 56.5558 4.61515 56.6398 4.35848C56.7238 4.09715 56.7658 3.81948 56.7658 3.52548C56.7658 3.23148 56.7191 2.97481 56.6258 2.75548C56.5324 2.53148 56.4041 2.34715 56.2408 2.20248C56.0774 2.05781 55.8861 1.95048 55.6668 1.88048C55.4474 1.80581 55.2118 1.76848 54.9598 1.76848C54.7078 1.76848 54.4744 1.80581 54.2598 1.88048C54.0451 1.95515 53.8538 2.06015 53.6858 2.19548C53.5224 2.32615 53.3824 2.48248 53.2658 2.66448C53.1538 2.84648 53.0744 3.04715 53.0278 3.26648C52.9904 3.40181 52.9344 3.49981 52.8598 3.56048C52.7851 3.62115 52.6871 3.65148 52.5658 3.65148C52.5424 3.65148 52.5168 3.65148 52.4888 3.65148C52.4654 3.64681 52.4374 3.64215 52.4048 3.63748L51.7538 3.52548C51.8191 3.06815 51.9451 2.66448 52.1318 2.31448C52.3185 1.95981 52.5541 1.66348 52.8388 1.42548C53.1281 1.18748 53.4571 1.00781 53.8258 0.88648C54.1991 0.76048 54.6004 0.697479 55.0298 0.697479Z" fill="#4F4F4F"/>
<path d="M60.9529 9.88848H63.1089V3.04948C63.1089 2.84415 63.1159 2.63648 63.1299 2.42648L61.3379 3.95948C61.2912 3.99681 61.2445 4.02481 61.1979 4.04348C61.1512 4.05748 61.1069 4.06448 61.0649 4.06448C60.9949 4.06448 60.9319 4.05048 60.8759 4.02248C60.8199 3.98981 60.7779 3.95248 60.7499 3.91048L60.3579 3.37148L63.3399 0.78848H64.3549V9.88848H66.3289V10.8405H60.9529V9.88848Z" fill="#4F4F4F"/>
</svg>
