<svg width="72" height="12" viewBox="0 0 72 12" fill="none" xmlns="http://www.w3.org/2000/svg">
<path d="M3.572 0.923007C3.936 0.923007 4.272 0.975007 4.58 1.07901C4.888 1.18301 5.152 1.33101 5.372 1.52301C5.596 1.71501 5.77 1.94701 5.894 2.21901C6.018 2.49101 6.08 2.79301 6.08 3.12501C6.08 3.39701 6.044 3.64101 5.972 3.85701C5.904 4.06901 5.804 4.25701 5.672 4.42101C5.544 4.58101 5.388 4.71701 5.204 4.82901C5.02 4.94101 4.814 5.03101 4.586 5.09901C5.146 5.24701 5.566 5.49501 5.846 5.84301C6.13 6.19101 6.272 6.62701 6.272 7.15101C6.272 7.54701 6.196 7.90301 6.044 8.21901C5.896 8.53501 5.692 8.80501 5.432 9.02901C5.172 9.24901 4.868 9.41901 4.52 9.53901C4.176 9.65501 3.806 9.71301 3.41 9.71301C2.954 9.71301 2.564 9.65701 2.24 9.54501C1.916 9.42901 1.642 9.27101 1.418 9.07101C1.194 8.87101 1.01 8.63501 0.866 8.36301C0.722 8.08701 0.6 7.78901 0.5 7.46901L0.956 7.27701C1.04 7.24101 1.124 7.22301 1.208 7.22301C1.288 7.22301 1.358 7.24101 1.418 7.27701C1.482 7.30901 1.53 7.36101 1.562 7.43301C1.57 7.44901 1.578 7.46701 1.586 7.48701C1.594 7.50301 1.602 7.52101 1.61 7.54101C1.666 7.65701 1.734 7.78901 1.814 7.93701C1.894 8.08101 2.002 8.21701 2.138 8.34501C2.274 8.47301 2.442 8.58101 2.642 8.66901C2.846 8.75701 3.098 8.80101 3.398 8.80101C3.698 8.80101 3.96 8.75301 4.184 8.65701C4.412 8.55701 4.6 8.42901 4.748 8.27301C4.9 8.11701 5.014 7.94301 5.09 7.75101C5.166 7.55901 5.204 7.36901 5.204 7.18101C5.204 6.94901 5.172 6.73701 5.108 6.54501C5.048 6.35301 4.936 6.18701 4.772 6.04701C4.612 5.90701 4.388 5.79701 4.1 5.71701C3.816 5.63701 3.45 5.59701 3.002 5.59701V4.82301C3.366 4.81901 3.676 4.77901 3.932 4.70301C4.192 4.62701 4.404 4.52301 4.568 4.39101C4.732 4.25901 4.85 4.10101 4.922 3.91701C4.998 3.73301 5.036 3.52901 5.036 3.30501C5.036 3.05701 4.996 2.84101 4.916 2.65701C4.84 2.47301 4.734 2.32101 4.598 2.20101C4.462 2.08101 4.3 1.99101 4.112 1.93101C3.928 1.87101 3.728 1.84101 3.512 1.84101C3.296 1.84101 3.096 1.87301 2.912 1.93701C2.728 2.00101 2.564 2.09101 2.42 2.20701C2.28 2.31901 2.162 2.45501 2.066 2.61501C1.97 2.77101 1.898 2.94101 1.85 3.12501C1.818 3.24101 1.77 3.32501 1.706 3.37701C1.642 3.42901 1.56 3.45501 1.46 3.45501C1.44 3.45501 1.418 3.45501 1.394 3.45501C1.374 3.45101 1.35 3.44701 1.322 3.44301L0.764 3.34701C0.82 2.95501 0.928 2.60901 1.088 2.30901C1.248 2.00501 1.45 1.75101 1.694 1.54701C1.942 1.34301 2.224 1.18901 2.54 1.08501C2.86 0.977007 3.204 0.923007 3.572 0.923007Z" fill="#333333"/>
<path d="M11.4553 6.40101V9.61701H10.2972V1.01901H12.8353C13.3793 1.01901 13.8512 1.08301 14.2513 1.21101C14.6553 1.33501 14.9893 1.51301 15.2533 1.74501C15.5173 1.97701 15.7133 2.25701 15.8413 2.58501C15.9733 2.91301 16.0393 3.27901 16.0393 3.68301C16.0393 4.08301 15.9692 4.44901 15.8293 4.78101C15.6893 5.11301 15.4833 5.39901 15.2113 5.63901C14.9433 5.87901 14.6093 6.06701 14.2093 6.20301C13.8093 6.33501 13.3513 6.40101 12.8353 6.40101H11.4553ZM11.4553 5.47701H12.8353C13.1673 5.47701 13.4593 5.43301 13.7113 5.34501C13.9673 5.25701 14.1813 5.13501 14.3533 4.97901C14.5253 4.81901 14.6553 4.62901 14.7433 4.40901C14.8313 4.18901 14.8753 3.94701 14.8753 3.68301C14.8753 3.13501 14.7053 2.70701 14.3653 2.39901C14.0293 2.09101 13.5193 1.93701 12.8353 1.93701H11.4553V5.47701Z" fill="#333333"/>
<path d="M21.5045 9.61701H21.0305C20.9265 9.61701 20.8425 9.60101 20.7785 9.56901C20.7145 9.53701 20.6725 9.46901 20.6525 9.36501L20.5325 8.80101C20.3725 8.94501 20.2165 9.07501 20.0645 9.19101C19.9125 9.30301 19.7525 9.39901 19.5845 9.47901C19.4165 9.55501 19.2365 9.61301 19.0445 9.65301C18.8565 9.69301 18.6465 9.71301 18.4145 9.71301C18.1785 9.71301 17.9565 9.68101 17.7485 9.61701C17.5445 9.54901 17.3665 9.44901 17.2145 9.31701C17.0625 9.18501 16.9405 9.01901 16.8485 8.81901C16.7605 8.61501 16.7165 8.37501 16.7165 8.09901C16.7165 7.85901 16.7825 7.62901 16.9145 7.40901C17.0465 7.18501 17.2585 6.98701 17.5505 6.81501C17.8465 6.64301 18.2325 6.50301 18.7085 6.39501C19.1845 6.28301 19.7665 6.21901 20.4545 6.20301V5.72901C20.4545 5.25701 20.3525 4.90101 20.1485 4.66101C19.9485 4.41701 19.6505 4.29501 19.2545 4.29501C18.9945 4.29501 18.7745 4.32901 18.5945 4.39701C18.4185 4.46101 18.2645 4.53501 18.1325 4.61901C18.0045 4.69901 17.8925 4.77301 17.7965 4.84101C17.7045 4.90501 17.6125 4.93701 17.5205 4.93701C17.4485 4.93701 17.3845 4.91901 17.3285 4.88301C17.2765 4.84301 17.2345 4.79501 17.2025 4.73901L17.0105 4.39701C17.3465 4.07301 17.7085 3.83101 18.0965 3.67101C18.4845 3.51101 18.9145 3.43101 19.3865 3.43101C19.7265 3.43101 20.0285 3.48701 20.2925 3.59901C20.5565 3.71101 20.7785 3.86701 20.9585 4.06701C21.1385 4.26701 21.2745 4.50901 21.3665 4.79301C21.4585 5.07701 21.5045 5.38901 21.5045 5.72901V9.61701ZM18.7325 8.96301C18.9205 8.96301 19.0925 8.94501 19.2485 8.90901C19.4045 8.86901 19.5505 8.81501 19.6865 8.74701C19.8265 8.67501 19.9585 8.58901 20.0825 8.48901C20.2105 8.38901 20.3345 8.27501 20.4545 8.14701V6.88101C19.9625 6.89701 19.5445 6.93701 19.2005 7.00101C18.8565 7.06101 18.5765 7.14101 18.3605 7.24101C18.1445 7.34101 17.9865 7.45901 17.8865 7.59501C17.7905 7.73101 17.7425 7.88301 17.7425 8.05101C17.7425 8.21101 17.7685 8.34901 17.8205 8.46501C17.8725 8.58101 17.9425 8.67701 18.0305 8.75301C18.1185 8.82501 18.2225 8.87901 18.3425 8.91501C18.4625 8.94701 18.5925 8.96301 18.7325 8.96301Z" fill="#333333"/>
<path d="M23.1225 9.61701V3.53901H23.7345C23.8505 3.53901 23.9305 3.56101 23.9745 3.60501C24.0185 3.64901 24.0485 3.72501 24.0645 3.83301L24.1365 4.78101C24.3445 4.35701 24.6005 4.02701 24.9045 3.79101C25.2125 3.55101 25.5725 3.43101 25.9845 3.43101C26.1525 3.43101 26.3045 3.45101 26.4405 3.49101C26.5765 3.52701 26.7025 3.57901 26.8185 3.64701L26.6805 4.44501C26.6525 4.54501 26.5905 4.59501 26.4945 4.59501C26.4385 4.59501 26.3525 4.57701 26.2365 4.54101C26.1205 4.50101 25.9585 4.48101 25.7505 4.48101C25.3785 4.48101 25.0665 4.58901 24.8145 4.80501C24.5665 5.02101 24.3585 5.33501 24.1905 5.74701V9.61701H23.1225Z" fill="#333333"/>
<path d="M29.8044 9.71301C29.3244 9.71301 28.9544 9.57901 28.6944 9.31101C28.4384 9.04301 28.3104 8.65701 28.3104 8.15301V4.43301H27.5784C27.5144 4.43301 27.4604 4.41501 27.4164 4.37901C27.3724 4.33901 27.3504 4.27901 27.3504 4.19901V3.77301L28.3464 3.64701L28.5924 1.76901C28.6004 1.70901 28.6264 1.66101 28.6704 1.62501C28.7144 1.58501 28.7704 1.56501 28.8384 1.56501H29.3784V3.65901H31.1184V4.43301H29.3784V8.08101C29.3784 8.33701 29.4404 8.52701 29.5644 8.65101C29.6884 8.77501 29.8484 8.83701 30.0444 8.83701C30.1564 8.83701 30.2524 8.82301 30.3324 8.79501C30.4164 8.76301 30.4884 8.72901 30.5484 8.69301C30.6084 8.65701 30.6584 8.62501 30.6984 8.59701C30.7424 8.56501 30.7804 8.54901 30.8124 8.54901C30.8684 8.54901 30.9184 8.58301 30.9624 8.65101L31.2744 9.16101C31.0904 9.33301 30.8684 9.46901 30.6084 9.56901C30.3484 9.66501 30.0804 9.71301 29.8044 9.71301Z" fill="#333333"/>
<path d="M33.6269 3.53901V9.61701H32.5589V3.53901H33.6269ZM33.8669 1.63101C33.8669 1.73501 33.8449 1.83301 33.8009 1.92501C33.7609 2.01301 33.7049 2.09301 33.6329 2.16501C33.5649 2.23301 33.4849 2.28701 33.3929 2.32701C33.3009 2.36701 33.2029 2.38701 33.0989 2.38701C32.9949 2.38701 32.8969 2.36701 32.8049 2.32701C32.7169 2.28701 32.6369 2.23301 32.5649 2.16501C32.4969 2.09301 32.4429 2.01301 32.4029 1.92501C32.3629 1.83301 32.3429 1.73501 32.3429 1.63101C32.3429 1.52701 32.3629 1.42901 32.4029 1.33701C32.4429 1.24101 32.4969 1.15901 32.5649 1.09101C32.6369 1.01901 32.7169 0.963007 32.8049 0.923007C32.8969 0.883007 32.9949 0.863007 33.0989 0.863007C33.2029 0.863007 33.3009 0.883007 33.3929 0.923007C33.4849 0.963007 33.5649 1.01901 33.6329 1.09101C33.7049 1.15901 33.7609 1.24101 33.8009 1.33701C33.8449 1.42901 33.8669 1.52701 33.8669 1.63101Z" fill="#333333"/>
<path d="M39.6553 4.61901C39.6232 4.66301 39.5913 4.69701 39.5592 4.72101C39.5272 4.74501 39.4813 4.75701 39.4213 4.75701C39.3613 4.75701 39.2952 4.73301 39.2233 4.68501C39.1553 4.63301 39.0673 4.57701 38.9593 4.51701C38.8512 4.45701 38.7192 4.40301 38.5633 4.35501C38.4113 4.30301 38.2233 4.27701 37.9993 4.27701C37.7033 4.27701 37.4413 4.33101 37.2133 4.43901C36.9853 4.54301 36.7933 4.69501 36.6373 4.89501C36.4853 5.09501 36.3692 5.33701 36.2892 5.62101C36.2132 5.90501 36.1753 6.22301 36.1753 6.57501C36.1753 6.94301 36.2173 7.27101 36.3013 7.55901C36.3853 7.84301 36.5033 8.08301 36.6553 8.27901C36.8073 8.47101 36.9913 8.61901 37.2073 8.72301C37.4273 8.82301 37.6733 8.87301 37.9453 8.87301C38.2052 8.87301 38.4193 8.84301 38.5872 8.78301C38.7552 8.71901 38.8953 8.64901 39.0073 8.57301C39.1193 8.49701 39.2113 8.42901 39.2833 8.36901C39.3553 8.30501 39.4273 8.27301 39.4993 8.27301C39.5913 8.27301 39.6593 8.30701 39.7033 8.37501L40.0033 8.76501C39.7393 9.08901 39.4093 9.32701 39.0133 9.47901C38.6173 9.62701 38.1992 9.70101 37.7593 9.70101C37.3792 9.70101 37.0252 9.63101 36.6973 9.49101C36.3732 9.35101 36.0913 9.14901 35.8512 8.88501C35.6112 8.61701 35.4212 8.28901 35.2812 7.90101C35.1452 7.51301 35.0773 7.07101 35.0773 6.57501C35.0773 6.12301 35.1393 5.70501 35.2633 5.32101C35.3913 4.93701 35.5752 4.60701 35.8153 4.33101C36.0592 4.05101 36.3593 3.83301 36.7153 3.67701C37.0713 3.52101 37.4793 3.44301 37.9393 3.44301C38.3633 3.44301 38.7393 3.51301 39.0673 3.65301C39.3953 3.78901 39.6853 3.98301 39.9373 4.23501L39.6553 4.61901Z" fill="#333333"/>
<path d="M42.2988 3.53901V9.61701H41.2308V3.53901H42.2988ZM42.5388 1.63101C42.5388 1.73501 42.5168 1.83301 42.4728 1.92501C42.4328 2.01301 42.3768 2.09301 42.3048 2.16501C42.2368 2.23301 42.1568 2.28701 42.0648 2.32701C41.9728 2.36701 41.8748 2.38701 41.7708 2.38701C41.6668 2.38701 41.5688 2.36701 41.4768 2.32701C41.3888 2.28701 41.3088 2.23301 41.2368 2.16501C41.1688 2.09301 41.1148 2.01301 41.0748 1.92501C41.0348 1.83301 41.0148 1.73501 41.0148 1.63101C41.0148 1.52701 41.0348 1.42901 41.0748 1.33701C41.1148 1.24101 41.1688 1.15901 41.2368 1.09101C41.3088 1.01901 41.3888 0.963007 41.4768 0.923007C41.5688 0.883007 41.6668 0.863007 41.7708 0.863007C41.8748 0.863007 41.9728 0.883007 42.0648 0.923007C42.1568 0.963007 42.2368 1.01901 42.3048 1.09101C42.3768 1.15901 42.4328 1.24101 42.4728 1.33701C42.5168 1.42901 42.5388 1.52701 42.5388 1.63101Z" fill="#333333"/>
<path d="M44.1811 11.675V3.53901H44.8171C44.9691 3.53901 45.0651 3.61301 45.1051 3.76101L45.1951 4.48101C45.4551 4.16501 45.7511 3.91101 46.0831 3.71901C46.4191 3.52701 46.8051 3.43101 47.2411 3.43101C47.5891 3.43101 47.9051 3.49901 48.1891 3.63501C48.4731 3.76701 48.7151 3.96501 48.9151 4.22901C49.1151 4.48901 49.2691 4.81301 49.3771 5.20101C49.4851 5.58901 49.5391 6.03501 49.5391 6.53901C49.5391 6.98701 49.4791 7.40501 49.3591 7.79301C49.2391 8.17701 49.0671 8.51101 48.8431 8.79501C48.6191 9.07501 48.3431 9.29701 48.0151 9.46101C47.6911 9.62101 47.3251 9.70101 46.9171 9.70101C46.5411 9.70101 46.2191 9.63901 45.9511 9.51501C45.6871 9.39101 45.4531 9.21501 45.2491 8.98701V11.675H44.1811ZM46.8871 4.29501C46.5391 4.29501 46.2331 4.37501 45.9691 4.53501C45.7091 4.69501 45.4691 4.92101 45.2491 5.21301V8.15301C45.4451 8.41701 45.6591 8.60301 45.8911 8.71101C46.1271 8.81901 46.3891 8.87301 46.6771 8.87301C47.2411 8.87301 47.6751 8.67101 47.9791 8.26701C48.2831 7.86301 48.4351 7.28701 48.4351 6.53901C48.4351 6.14301 48.3991 5.80301 48.3271 5.51901C48.2591 5.23501 48.1591 5.00301 48.0271 4.82301C47.8951 4.63901 47.7331 4.50501 47.5411 4.42101C47.3491 4.33701 47.1311 4.29501 46.8871 4.29501Z" fill="#333333"/>
<path d="M55.2662 9.61701H54.7922C54.6882 9.61701 54.6042 9.60101 54.5402 9.56901C54.4762 9.53701 54.4342 9.46901 54.4142 9.36501L54.2942 8.80101C54.1342 8.94501 53.9782 9.07501 53.8262 9.19101C53.6742 9.30301 53.5142 9.39901 53.3462 9.47901C53.1782 9.55501 52.9982 9.61301 52.8062 9.65301C52.6182 9.69301 52.4082 9.71301 52.1762 9.71301C51.9402 9.71301 51.7182 9.68101 51.5102 9.61701C51.3062 9.54901 51.1282 9.44901 50.9762 9.31701C50.8242 9.18501 50.7022 9.01901 50.6102 8.81901C50.5222 8.61501 50.4782 8.37501 50.4782 8.09901C50.4782 7.85901 50.5442 7.62901 50.6762 7.40901C50.8082 7.18501 51.0202 6.98701 51.3122 6.81501C51.6082 6.64301 51.9942 6.50301 52.4702 6.39501C52.9462 6.28301 53.5282 6.21901 54.2162 6.20301V5.72901C54.2162 5.25701 54.1142 4.90101 53.9102 4.66101C53.7102 4.41701 53.4122 4.29501 53.0162 4.29501C52.7562 4.29501 52.5362 4.32901 52.3562 4.39701C52.1802 4.46101 52.0262 4.53501 51.8942 4.61901C51.7662 4.69901 51.6542 4.77301 51.5582 4.84101C51.4662 4.90501 51.3742 4.93701 51.2822 4.93701C51.2102 4.93701 51.1462 4.91901 51.0902 4.88301C51.0382 4.84301 50.9962 4.79501 50.9642 4.73901L50.7722 4.39701C51.1082 4.07301 51.4702 3.83101 51.8582 3.67101C52.2462 3.51101 52.6762 3.43101 53.1482 3.43101C53.4882 3.43101 53.7902 3.48701 54.0542 3.59901C54.3182 3.71101 54.5402 3.86701 54.7202 4.06701C54.9002 4.26701 55.0362 4.50901 55.1282 4.79301C55.2202 5.07701 55.2662 5.38901 55.2662 5.72901V9.61701ZM52.4942 8.96301C52.6822 8.96301 52.8542 8.94501 53.0102 8.90901C53.1662 8.86901 53.3122 8.81501 53.4482 8.74701C53.5882 8.67501 53.7202 8.58901 53.8442 8.48901C53.9722 8.38901 54.0962 8.27501 54.2162 8.14701V6.88101C53.7242 6.89701 53.3062 6.93701 52.9622 7.00101C52.6182 7.06101 52.3382 7.14101 52.1222 7.24101C51.9062 7.34101 51.7482 7.45901 51.6482 7.59501C51.5522 7.73101 51.5042 7.88301 51.5042 8.05101C51.5042 8.21101 51.5302 8.34901 51.5822 8.46501C51.6342 8.58101 51.7042 8.67701 51.7922 8.75301C51.8802 8.82501 51.9842 8.87901 52.1042 8.91501C52.2242 8.94701 52.3542 8.96301 52.4942 8.96301Z" fill="#333333"/>
<path d="M56.8843 9.61701V3.53901H57.5203C57.6723 3.53901 57.7682 3.61301 57.8083 3.76101L57.8923 4.42101C58.1562 4.12901 58.4502 3.89301 58.7743 3.71301C59.1022 3.53301 59.4803 3.44301 59.9083 3.44301C60.2403 3.44301 60.5323 3.49901 60.7843 3.61101C61.0403 3.71901 61.2523 3.87501 61.4202 4.07901C61.5923 4.27901 61.7223 4.52101 61.8103 4.80501C61.8983 5.08901 61.9423 5.40301 61.9423 5.74701V9.61701H60.8743V5.74701C60.8743 5.28701 60.7683 4.93101 60.5563 4.67901C60.3483 4.42301 60.0283 4.29501 59.5963 4.29501C59.2803 4.29501 58.9843 4.37101 58.7083 4.52301C58.4363 4.67501 58.1842 4.88101 57.9523 5.14101V9.61701H56.8843Z" fill="#333333"/>
<path d="M65.3942 9.71301C64.9142 9.71301 64.5442 9.57901 64.2842 9.31101C64.0282 9.04301 63.9002 8.65701 63.9002 8.15301V4.43301H63.1682C63.1042 4.43301 63.0502 4.41501 63.0062 4.37901C62.9622 4.33901 62.9402 4.27901 62.9402 4.19901V3.77301L63.9362 3.64701L64.1822 1.76901C64.1902 1.70901 64.2162 1.66101 64.2602 1.62501C64.3042 1.58501 64.3602 1.56501 64.4282 1.56501H64.9682V3.65901H66.7082V4.43301H64.9682V8.08101C64.9682 8.33701 65.0302 8.52701 65.1542 8.65101C65.2782 8.77501 65.4382 8.83701 65.6342 8.83701C65.7462 8.83701 65.8422 8.82301 65.9222 8.79501C66.0062 8.76301 66.0782 8.72901 66.1382 8.69301C66.1982 8.65701 66.2482 8.62501 66.2882 8.59701C66.3322 8.56501 66.3702 8.54901 66.4022 8.54901C66.4582 8.54901 66.5082 8.58301 66.5522 8.65101L66.8642 9.16101C66.6802 9.33301 66.4582 9.46901 66.1982 9.56901C65.9382 9.66501 65.6702 9.71301 65.3942 9.71301Z" fill="#333333"/>
<path d="M71.5088 4.54101C71.4608 4.62901 71.3868 4.67301 71.2868 4.67301C71.2268 4.67301 71.1588 4.65101 71.0828 4.60701C71.0068 4.56301 70.9128 4.51501 70.8008 4.46301C70.6928 4.40701 70.5628 4.35701 70.4108 4.31301C70.2588 4.26501 70.0788 4.24101 69.8708 4.24101C69.6908 4.24101 69.5288 4.26501 69.3848 4.31301C69.2408 4.35701 69.1168 4.41901 69.0128 4.49901C68.9128 4.57901 68.8348 4.67301 68.7788 4.78101C68.7268 4.88501 68.7008 4.99901 68.7008 5.12301C68.7008 5.27901 68.7448 5.40901 68.8328 5.51301C68.9248 5.61701 69.0448 5.70701 69.1928 5.78301C69.3408 5.85901 69.5088 5.92701 69.6968 5.98701C69.8848 6.04301 70.0768 6.10501 70.2728 6.17301C70.4728 6.23701 70.6668 6.30901 70.8548 6.38901C71.0428 6.46901 71.2108 6.56901 71.3588 6.68901C71.5068 6.80901 71.6248 6.95701 71.7128 7.13301C71.8048 7.30501 71.8508 7.51301 71.8508 7.75701C71.8508 8.03701 71.8008 8.29701 71.7008 8.53701C71.6008 8.77301 71.4528 8.97901 71.2568 9.15501C71.0608 9.32701 70.8208 9.46301 70.5368 9.56301C70.2528 9.66301 69.9248 9.71301 69.5528 9.71301C69.1288 9.71301 68.7448 9.64501 68.4008 9.50901C68.0568 9.36901 67.7648 9.19101 67.5248 8.97501L67.7768 8.56701C67.8088 8.51501 67.8468 8.47501 67.8908 8.44701C67.9348 8.41901 67.9928 8.40501 68.0648 8.40501C68.1368 8.40501 68.2128 8.43301 68.2928 8.48901C68.3728 8.54501 68.4688 8.60701 68.5808 8.67501C68.6968 8.74301 68.8348 8.80501 68.9948 8.86101C69.1588 8.91701 69.3628 8.94501 69.6068 8.94501C69.8148 8.94501 69.9968 8.91901 70.1528 8.86701C70.3088 8.81101 70.4388 8.73701 70.5428 8.64501C70.6468 8.55301 70.7228 8.44701 70.7708 8.32701C70.8228 8.20701 70.8488 8.07901 70.8488 7.94301C70.8488 7.77501 70.8028 7.63701 70.7108 7.52901C70.6228 7.41701 70.5048 7.32301 70.3568 7.24701C70.2088 7.16701 70.0388 7.09901 69.8468 7.04301C69.6588 6.98301 69.4648 6.92101 69.2648 6.85701C69.0688 6.79301 68.8748 6.72101 68.6828 6.64101C68.4948 6.55701 68.3268 6.45301 68.1788 6.32901C68.0308 6.20501 67.9108 6.05301 67.8188 5.87301C67.7308 5.68901 67.6868 5.46701 67.6868 5.20701C67.6868 4.97501 67.7348 4.75301 67.8308 4.54101C67.9268 4.32501 68.0668 4.13701 68.2508 3.97701C68.4348 3.81301 68.6608 3.68301 68.9288 3.58701C69.1968 3.49101 69.5028 3.44301 69.8468 3.44301C70.2468 3.44301 70.6048 3.50701 70.9208 3.63501C71.2408 3.75901 71.5168 3.93101 71.7488 4.15101L71.5088 4.54101Z" fill="#333333"/>
</svg>
