<svg width="72" height="12" viewBox="0 0 72 12" fill="none" xmlns="http://www.w3.org/2000/svg">
<path d="M3.572 0.324038C3.936 0.324038 4.272 0.376038 4.58 0.480038C4.888 0.584038 5.152 0.732038 5.372 0.924038C5.596 1.11604 5.77 1.34804 5.894 1.62004C6.018 1.89204 6.08 2.19404 6.08 2.52604C6.08 2.79804 6.044 3.04204 5.972 3.25804C5.904 3.47004 5.804 3.65804 5.672 3.82204C5.544 3.98204 5.388 4.11804 5.204 4.23004C5.02 4.34204 4.814 4.43204 4.586 4.50004C5.146 4.64804 5.566 4.89604 5.846 5.24404C6.13 5.59204 6.272 6.02804 6.272 6.55204C6.272 6.94804 6.196 7.30404 6.044 7.62004C5.896 7.93604 5.692 8.20604 5.432 8.43004C5.172 8.65004 4.868 8.82004 4.52 8.94004C4.176 9.05604 3.806 9.11404 3.41 9.11404C2.954 9.11404 2.564 9.05804 2.24 8.94604C1.916 8.83004 1.642 8.67204 1.418 8.47204C1.194 8.27204 1.01 8.03604 0.866 7.76404C0.722 7.48804 0.6 7.19004 0.5 6.87004L0.956 6.67804C1.04 6.64204 1.124 6.62404 1.208 6.62404C1.288 6.62404 1.358 6.64204 1.418 6.67804C1.482 6.71004 1.53 6.76204 1.562 6.83404C1.57 6.85004 1.578 6.86804 1.586 6.88804C1.594 6.90404 1.602 6.92204 1.61 6.94204C1.666 7.05804 1.734 7.19004 1.814 7.33804C1.894 7.48204 2.002 7.61804 2.138 7.74604C2.274 7.87404 2.442 7.98204 2.642 8.07004C2.846 8.15804 3.098 8.20204 3.398 8.20204C3.698 8.20204 3.96 8.15404 4.184 8.05804C4.412 7.95804 4.6 7.83004 4.748 7.67404C4.9 7.51804 5.014 7.34404 5.09 7.15204C5.166 6.96004 5.204 6.77004 5.204 6.58204C5.204 6.35004 5.172 6.13804 5.108 5.94604C5.048 5.75404 4.936 5.58804 4.772 5.44804C4.612 5.30804 4.388 5.19804 4.1 5.11804C3.816 5.03804 3.45 4.99804 3.002 4.99804V4.22404C3.366 4.22004 3.676 4.18004 3.932 4.10404C4.192 4.02804 4.404 3.92404 4.568 3.79204C4.732 3.66004 4.85 3.50204 4.922 3.31804C4.998 3.13404 5.036 2.93004 5.036 2.70604C5.036 2.45804 4.996 2.24204 4.916 2.05804C4.84 1.87404 4.734 1.72204 4.598 1.60204C4.462 1.48204 4.3 1.39204 4.112 1.33204C3.928 1.27204 3.728 1.24204 3.512 1.24204C3.296 1.24204 3.096 1.27404 2.912 1.33804C2.728 1.40204 2.564 1.49204 2.42 1.60804C2.28 1.72004 2.162 1.85604 2.066 2.01604C1.97 2.17204 1.898 2.34204 1.85 2.52604C1.818 2.64204 1.77 2.72604 1.706 2.77804C1.642 2.83004 1.56 2.85604 1.46 2.85604C1.44 2.85604 1.418 2.85604 1.394 2.85604C1.374 2.85204 1.35 2.84804 1.322 2.84404L0.764 2.74804C0.82 2.35604 0.928 2.01004 1.088 1.71004C1.248 1.40604 1.45 1.15204 1.694 0.948039C1.942 0.744039 2.224 0.590039 2.54 0.486038C2.86 0.378038 3.204 0.324038 3.572 0.324038Z" fill="#333333"/>
<path d="M11.4553 5.80204V9.01804H10.2972V0.420038H12.8353C13.3793 0.420038 13.8512 0.484038 14.2513 0.612039C14.6553 0.736038 14.9893 0.914038 15.2533 1.14604C15.5173 1.37804 15.7133 1.65804 15.8413 1.98604C15.9733 2.31404 16.0393 2.68004 16.0393 3.08404C16.0393 3.48404 15.9692 3.85004 15.8293 4.18204C15.6893 4.51404 15.4833 4.80004 15.2113 5.04004C14.9433 5.28004 14.6093 5.46804 14.2093 5.60404C13.8093 5.73604 13.3513 5.80204 12.8353 5.80204H11.4553ZM11.4553 4.87804H12.8353C13.1673 4.87804 13.4593 4.83404 13.7113 4.74604C13.9673 4.65804 14.1813 4.53604 14.3533 4.38004C14.5253 4.22004 14.6553 4.03004 14.7433 3.81004C14.8313 3.59004 14.8753 3.34804 14.8753 3.08404C14.8753 2.53604 14.7053 2.10804 14.3653 1.80004C14.0293 1.49204 13.5193 1.33804 12.8353 1.33804H11.4553V4.87804Z" fill="#333333"/>
<path d="M21.5045 9.01804H21.0305C20.9265 9.01804 20.8425 9.00204 20.7785 8.97004C20.7145 8.93804 20.6725 8.87004 20.6525 8.76604L20.5325 8.20204C20.3725 8.34604 20.2165 8.47604 20.0645 8.59204C19.9125 8.70404 19.7525 8.80004 19.5845 8.88004C19.4165 8.95604 19.2365 9.01404 19.0445 9.05404C18.8565 9.09404 18.6465 9.11404 18.4145 9.11404C18.1785 9.11404 17.9565 9.08204 17.7485 9.01804C17.5445 8.95004 17.3665 8.85004 17.2145 8.71804C17.0625 8.58604 16.9405 8.42004 16.8485 8.22004C16.7605 8.01604 16.7165 7.77604 16.7165 7.50004C16.7165 7.26004 16.7825 7.03004 16.9145 6.81004C17.0465 6.58604 17.2585 6.38804 17.5505 6.21604C17.8465 6.04404 18.2325 5.90404 18.7085 5.79604C19.1845 5.68404 19.7665 5.62004 20.4545 5.60404V5.13004C20.4545 4.65804 20.3525 4.30204 20.1485 4.06204C19.9485 3.81804 19.6505 3.69604 19.2545 3.69604C18.9945 3.69604 18.7745 3.73004 18.5945 3.79804C18.4185 3.86204 18.2645 3.93604 18.1325 4.02004C18.0045 4.10004 17.8925 4.17404 17.7965 4.24204C17.7045 4.30604 17.6125 4.33804 17.5205 4.33804C17.4485 4.33804 17.3845 4.32004 17.3285 4.28404C17.2765 4.24404 17.2345 4.19604 17.2025 4.14004L17.0105 3.79804C17.3465 3.47404 17.7085 3.23204 18.0965 3.07204C18.4845 2.91204 18.9145 2.83204 19.3865 2.83204C19.7265 2.83204 20.0285 2.88804 20.2925 3.00004C20.5565 3.11204 20.7785 3.26804 20.9585 3.46804C21.1385 3.66804 21.2745 3.91004 21.3665 4.19404C21.4585 4.47804 21.5045 4.79004 21.5045 5.13004V9.01804ZM18.7325 8.36404C18.9205 8.36404 19.0925 8.34604 19.2485 8.31004C19.4045 8.27004 19.5505 8.21604 19.6865 8.14804C19.8265 8.07604 19.9585 7.99004 20.0825 7.89004C20.2105 7.79004 20.3345 7.67604 20.4545 7.54804V6.28204C19.9625 6.29804 19.5445 6.33804 19.2005 6.40204C18.8565 6.46204 18.5765 6.54204 18.3605 6.64204C18.1445 6.74204 17.9865 6.86004 17.8865 6.99604C17.7905 7.13204 17.7425 7.28404 17.7425 7.45204C17.7425 7.61204 17.7685 7.75004 17.8205 7.86604C17.8725 7.98204 17.9425 8.07804 18.0305 8.15404C18.1185 8.22604 18.2225 8.28004 18.3425 8.31604C18.4625 8.34804 18.5925 8.36404 18.7325 8.36404Z" fill="#333333"/>
<path d="M23.1225 9.01804V2.94004H23.7345C23.8505 2.94004 23.9305 2.96204 23.9745 3.00604C24.0185 3.05004 24.0485 3.12604 24.0645 3.23404L24.1365 4.18204C24.3445 3.75804 24.6005 3.42804 24.9045 3.19204C25.2125 2.95204 25.5725 2.83204 25.9845 2.83204C26.1525 2.83204 26.3045 2.85204 26.4405 2.89204C26.5765 2.92804 26.7025 2.98004 26.8185 3.04804L26.6805 3.84604C26.6525 3.94604 26.5905 3.99604 26.4945 3.99604C26.4385 3.99604 26.3525 3.97804 26.2365 3.94204C26.1205 3.90204 25.9585 3.88204 25.7505 3.88204C25.3785 3.88204 25.0665 3.99004 24.8145 4.20604C24.5665 4.42204 24.3585 4.73604 24.1905 5.14804V9.01804H23.1225Z" fill="#333333"/>
<path d="M29.8044 9.11404C29.3244 9.11404 28.9544 8.98004 28.6944 8.71204C28.4384 8.44404 28.3104 8.05804 28.3104 7.55404V3.83404H27.5784C27.5144 3.83404 27.4604 3.81604 27.4164 3.78004C27.3724 3.74004 27.3504 3.68004 27.3504 3.60004V3.17404L28.3464 3.04804L28.5924 1.17004C28.6004 1.11004 28.6264 1.06204 28.6704 1.02604C28.7144 0.986039 28.7704 0.966039 28.8384 0.966039H29.3784V3.06004H31.1184V3.83404H29.3784V7.48204C29.3784 7.73804 29.4404 7.92804 29.5644 8.05204C29.6884 8.17604 29.8484 8.23804 30.0444 8.23804C30.1564 8.23804 30.2524 8.22404 30.3324 8.19604C30.4164 8.16404 30.4884 8.13004 30.5484 8.09404C30.6084 8.05804 30.6584 8.02604 30.6984 7.99804C30.7424 7.96604 30.7804 7.95004 30.8124 7.95004C30.8684 7.95004 30.9184 7.98404 30.9624 8.05204L31.2744 8.56204C31.0904 8.73404 30.8684 8.87004 30.6084 8.97004C30.3484 9.06604 30.0804 9.11404 29.8044 9.11404Z" fill="#333333"/>
<path d="M33.6269 2.94004V9.01804H32.5589V2.94004H33.6269ZM33.8669 1.03204C33.8669 1.13604 33.8449 1.23404 33.8009 1.32604C33.7609 1.41404 33.7049 1.49404 33.6329 1.56604C33.5649 1.63404 33.4849 1.68804 33.3929 1.72804C33.3009 1.76804 33.2029 1.78804 33.0989 1.78804C32.9949 1.78804 32.8969 1.76804 32.8049 1.72804C32.7169 1.68804 32.6369 1.63404 32.5649 1.56604C32.4969 1.49404 32.4429 1.41404 32.4029 1.32604C32.3629 1.23404 32.3429 1.13604 32.3429 1.03204C32.3429 0.928038 32.3629 0.830038 32.4029 0.738038C32.4429 0.642038 32.4969 0.560038 32.5649 0.492038C32.6369 0.420038 32.7169 0.364038 32.8049 0.324038C32.8969 0.284038 32.9949 0.264038 33.0989 0.264038C33.2029 0.264038 33.3009 0.284038 33.3929 0.324038C33.4849 0.364038 33.5649 0.420038 33.6329 0.492038C33.7049 0.560038 33.7609 0.642038 33.8009 0.738038C33.8449 0.830038 33.8669 0.928038 33.8669 1.03204Z" fill="#333333"/>
<path d="M39.6553 4.02004C39.6232 4.06404 39.5913 4.09804 39.5592 4.12204C39.5272 4.14604 39.4813 4.15804 39.4213 4.15804C39.3613 4.15804 39.2952 4.13404 39.2233 4.08604C39.1553 4.03404 39.0673 3.97804 38.9593 3.91804C38.8512 3.85804 38.7192 3.80404 38.5633 3.75604C38.4113 3.70404 38.2233 3.67804 37.9993 3.67804C37.7033 3.67804 37.4413 3.73204 37.2133 3.84004C36.9853 3.94404 36.7933 4.09604 36.6373 4.29604C36.4853 4.49604 36.3692 4.73804 36.2892 5.02204C36.2132 5.30604 36.1753 5.62404 36.1753 5.97604C36.1753 6.34404 36.2173 6.67204 36.3013 6.96004C36.3853 7.24404 36.5033 7.48404 36.6553 7.68004C36.8073 7.87204 36.9913 8.02004 37.2073 8.12404C37.4273 8.22404 37.6733 8.27404 37.9453 8.27404C38.2052 8.27404 38.4193 8.24404 38.5872 8.18404C38.7552 8.12004 38.8953 8.05004 39.0073 7.97404C39.1193 7.89804 39.2113 7.83004 39.2833 7.77004C39.3553 7.70604 39.4273 7.67404 39.4993 7.67404C39.5913 7.67404 39.6593 7.70804 39.7033 7.77604L40.0033 8.16604C39.7393 8.49004 39.4093 8.72804 39.0133 8.88004C38.6173 9.02804 38.1992 9.10204 37.7593 9.10204C37.3792 9.10204 37.0252 9.03204 36.6973 8.89204C36.3732 8.75204 36.0913 8.55004 35.8512 8.28604C35.6112 8.01804 35.4212 7.69004 35.2812 7.30204C35.1452 6.91404 35.0773 6.47204 35.0773 5.97604C35.0773 5.52404 35.1393 5.10604 35.2633 4.72204C35.3913 4.33804 35.5752 4.00804 35.8153 3.73204C36.0592 3.45204 36.3593 3.23404 36.7153 3.07804C37.0713 2.92204 37.4793 2.84404 37.9393 2.84404C38.3633 2.84404 38.7393 2.91404 39.0673 3.05404C39.3953 3.19004 39.6853 3.38404 39.9373 3.63604L39.6553 4.02004Z" fill="#333333"/>
<path d="M42.2988 2.94004V9.01804H41.2308V2.94004H42.2988ZM42.5388 1.03204C42.5388 1.13604 42.5168 1.23404 42.4728 1.32604C42.4328 1.41404 42.3768 1.49404 42.3048 1.56604C42.2368 1.63404 42.1568 1.68804 42.0648 1.72804C41.9728 1.76804 41.8748 1.78804 41.7708 1.78804C41.6668 1.78804 41.5688 1.76804 41.4768 1.72804C41.3888 1.68804 41.3088 1.63404 41.2368 1.56604C41.1688 1.49404 41.1148 1.41404 41.0748 1.32604C41.0348 1.23404 41.0148 1.13604 41.0148 1.03204C41.0148 0.928038 41.0348 0.830038 41.0748 0.738038C41.1148 0.642038 41.1688 0.560038 41.2368 0.492038C41.3088 0.420038 41.3888 0.364038 41.4768 0.324038C41.5688 0.284038 41.6668 0.264038 41.7708 0.264038C41.8748 0.264038 41.9728 0.284038 42.0648 0.324038C42.1568 0.364038 42.2368 0.420038 42.3048 0.492038C42.3768 0.560038 42.4328 0.642038 42.4728 0.738038C42.5168 0.830038 42.5388 0.928038 42.5388 1.03204Z" fill="#333333"/>
<path d="M44.1811 11.076V2.94004H44.8171C44.9691 2.94004 45.0651 3.01404 45.1051 3.16204L45.1951 3.88204C45.4551 3.56604 45.7511 3.31204 46.0831 3.12004C46.4191 2.92804 46.8051 2.83204 47.2411 2.83204C47.5891 2.83204 47.9051 2.90004 48.1891 3.03604C48.4731 3.16804 48.7151 3.36604 48.9151 3.63004C49.1151 3.89004 49.2691 4.21404 49.3771 4.60204C49.4851 4.99004 49.5391 5.43604 49.5391 5.94004C49.5391 6.38804 49.4791 6.80604 49.3591 7.19404C49.2391 7.57804 49.0671 7.91204 48.8431 8.19604C48.6191 8.47604 48.3431 8.69804 48.0151 8.86204C47.6911 9.02204 47.3251 9.10204 46.9171 9.10204C46.5411 9.10204 46.2191 9.04004 45.9511 8.91604C45.6871 8.79204 45.4531 8.61604 45.2491 8.38804V11.076H44.1811ZM46.8871 3.69604C46.5391 3.69604 46.2331 3.77604 45.9691 3.93604C45.7091 4.09604 45.4691 4.32204 45.2491 4.61404V7.55404C45.4451 7.81804 45.6591 8.00404 45.8911 8.11204C46.1271 8.22004 46.3891 8.27404 46.6771 8.27404C47.2411 8.27404 47.6751 8.07204 47.9791 7.66804C48.2831 7.26404 48.4351 6.68804 48.4351 5.94004C48.4351 5.54404 48.3991 5.20404 48.3271 4.92004C48.2591 4.63604 48.1591 4.40404 48.0271 4.22404C47.8951 4.04004 47.7331 3.90604 47.5411 3.82204C47.3491 3.73804 47.1311 3.69604 46.8871 3.69604Z" fill="#333333"/>
<path d="M55.2662 9.01804H54.7922C54.6882 9.01804 54.6042 9.00204 54.5402 8.97004C54.4762 8.93804 54.4342 8.87004 54.4142 8.76604L54.2942 8.20204C54.1342 8.34604 53.9782 8.47604 53.8262 8.59204C53.6742 8.70404 53.5142 8.80004 53.3462 8.88004C53.1782 8.95604 52.9982 9.01404 52.8062 9.05404C52.6182 9.09404 52.4082 9.11404 52.1762 9.11404C51.9402 9.11404 51.7182 9.08204 51.5102 9.01804C51.3062 8.95004 51.1282 8.85004 50.9762 8.71804C50.8242 8.58604 50.7022 8.42004 50.6102 8.22004C50.5222 8.01604 50.4782 7.77604 50.4782 7.50004C50.4782 7.26004 50.5442 7.03004 50.6762 6.81004C50.8082 6.58604 51.0202 6.38804 51.3122 6.21604C51.6082 6.04404 51.9942 5.90404 52.4702 5.79604C52.9462 5.68404 53.5282 5.62004 54.2162 5.60404V5.13004C54.2162 4.65804 54.1142 4.30204 53.9102 4.06204C53.7102 3.81804 53.4122 3.69604 53.0162 3.69604C52.7562 3.69604 52.5362 3.73004 52.3562 3.79804C52.1802 3.86204 52.0262 3.93604 51.8942 4.02004C51.7662 4.10004 51.6542 4.17404 51.5582 4.24204C51.4662 4.30604 51.3742 4.33804 51.2822 4.33804C51.2102 4.33804 51.1462 4.32004 51.0902 4.28404C51.0382 4.24404 50.9962 4.19604 50.9642 4.14004L50.7722 3.79804C51.1082 3.47404 51.4702 3.23204 51.8582 3.07204C52.2462 2.91204 52.6762 2.83204 53.1482 2.83204C53.4882 2.83204 53.7902 2.88804 54.0542 3.00004C54.3182 3.11204 54.5402 3.26804 54.7202 3.46804C54.9002 3.66804 55.0362 3.91004 55.1282 4.19404C55.2202 4.47804 55.2662 4.79004 55.2662 5.13004V9.01804ZM52.4942 8.36404C52.6822 8.36404 52.8542 8.34604 53.0102 8.31004C53.1662 8.27004 53.3122 8.21604 53.4482 8.14804C53.5882 8.07604 53.7202 7.99004 53.8442 7.89004C53.9722 7.79004 54.0962 7.67604 54.2162 7.54804V6.28204C53.7242 6.29804 53.3062 6.33804 52.9622 6.40204C52.6182 6.46204 52.3382 6.54204 52.1222 6.64204C51.9062 6.74204 51.7482 6.86004 51.6482 6.99604C51.5522 7.13204 51.5042 7.28404 51.5042 7.45204C51.5042 7.61204 51.5302 7.75004 51.5822 7.86604C51.6342 7.98204 51.7042 8.07804 51.7922 8.15404C51.8802 8.22604 51.9842 8.28004 52.1042 8.31604C52.2242 8.34804 52.3542 8.36404 52.4942 8.36404Z" fill="#333333"/>
<path d="M56.8843 9.01804V2.94004H57.5203C57.6723 2.94004 57.7682 3.01404 57.8083 3.16204L57.8923 3.82204C58.1562 3.53004 58.4502 3.29404 58.7743 3.11404C59.1022 2.93404 59.4803 2.84404 59.9083 2.84404C60.2403 2.84404 60.5323 2.90004 60.7843 3.01204C61.0403 3.12004 61.2523 3.27604 61.4202 3.48004C61.5923 3.68004 61.7223 3.92204 61.8103 4.20604C61.8983 4.49004 61.9423 4.80404 61.9423 5.14804V9.01804H60.8743V5.14804C60.8743 4.68804 60.7683 4.33204 60.5563 4.08004C60.3483 3.82404 60.0283 3.69604 59.5963 3.69604C59.2803 3.69604 58.9843 3.77204 58.7083 3.92404C58.4363 4.07604 58.1842 4.28204 57.9523 4.54204V9.01804H56.8843Z" fill="#333333"/>
<path d="M65.3942 9.11404C64.9142 9.11404 64.5442 8.98004 64.2842 8.71204C64.0282 8.44404 63.9002 8.05804 63.9002 7.55404V3.83404H63.1682C63.1042 3.83404 63.0502 3.81604 63.0062 3.78004C62.9622 3.74004 62.9402 3.68004 62.9402 3.60004V3.17404L63.9362 3.04804L64.1822 1.17004C64.1902 1.11004 64.2162 1.06204 64.2602 1.02604C64.3042 0.986039 64.3602 0.966039 64.4282 0.966039H64.9682V3.06004H66.7082V3.83404H64.9682V7.48204C64.9682 7.73804 65.0302 7.92804 65.1542 8.05204C65.2782 8.17604 65.4382 8.23804 65.6342 8.23804C65.7462 8.23804 65.8422 8.22404 65.9222 8.19604C66.0062 8.16404 66.0782 8.13004 66.1382 8.09404C66.1982 8.05804 66.2482 8.02604 66.2882 7.99804C66.3322 7.96604 66.3702 7.95004 66.4022 7.95004C66.4582 7.95004 66.5082 7.98404 66.5522 8.05204L66.8642 8.56204C66.6802 8.73404 66.4582 8.87004 66.1982 8.97004C65.9382 9.06604 65.6702 9.11404 65.3942 9.11404Z" fill="#333333"/>
<path d="M71.5088 3.94204C71.4608 4.03004 71.3868 4.07404 71.2868 4.07404C71.2268 4.07404 71.1588 4.05204 71.0828 4.00804C71.0068 3.96404 70.9128 3.91604 70.8008 3.86404C70.6928 3.80804 70.5628 3.75804 70.4108 3.71404C70.2588 3.66604 70.0788 3.64204 69.8708 3.64204C69.6908 3.64204 69.5288 3.66604 69.3848 3.71404C69.2408 3.75804 69.1168 3.82004 69.0128 3.90004C68.9128 3.98004 68.8348 4.07404 68.7788 4.18204C68.7268 4.28604 68.7008 4.40004 68.7008 4.52404C68.7008 4.68004 68.7448 4.81004 68.8328 4.91404C68.9248 5.01804 69.0448 5.10804 69.1928 5.18404C69.3408 5.26004 69.5088 5.32804 69.6968 5.38804C69.8848 5.44404 70.0768 5.50604 70.2728 5.57404C70.4728 5.63804 70.6668 5.71004 70.8548 5.79004C71.0428 5.87004 71.2108 5.97004 71.3588 6.09004C71.5068 6.21004 71.6248 6.35804 71.7128 6.53404C71.8048 6.70604 71.8508 6.91404 71.8508 7.15804C71.8508 7.43804 71.8008 7.69804 71.7008 7.93804C71.6008 8.17404 71.4528 8.38004 71.2568 8.55604C71.0608 8.72804 70.8208 8.86404 70.5368 8.96404C70.2528 9.06404 69.9248 9.11404 69.5528 9.11404C69.1288 9.11404 68.7448 9.04604 68.4008 8.91004C68.0568 8.77004 67.7648 8.59204 67.5248 8.37604L67.7768 7.96804C67.8088 7.91604 67.8468 7.87604 67.8908 7.84804C67.9348 7.82004 67.9928 7.80604 68.0648 7.80604C68.1368 7.80604 68.2128 7.83404 68.2928 7.89004C68.3728 7.94604 68.4688 8.00804 68.5808 8.07604C68.6968 8.14404 68.8348 8.20604 68.9948 8.26204C69.1588 8.31804 69.3628 8.34604 69.6068 8.34604C69.8148 8.34604 69.9968 8.32004 70.1528 8.26804C70.3088 8.21204 70.4388 8.13804 70.5428 8.04604C70.6468 7.95404 70.7228 7.84804 70.7708 7.72804C70.8228 7.60804 70.8488 7.48004 70.8488 7.34404C70.8488 7.17604 70.8028 7.03804 70.7108 6.93004C70.6228 6.81804 70.5048 6.72404 70.3568 6.64804C70.2088 6.56804 70.0388 6.50004 69.8468 6.44404C69.6588 6.38404 69.4648 6.32204 69.2648 6.25804C69.0688 6.19404 68.8748 6.12204 68.6828 6.04204C68.4948 5.95804 68.3268 5.85404 68.1788 5.73004C68.0308 5.60604 67.9108 5.45404 67.8188 5.27404C67.7308 5.09004 67.6868 4.86804 67.6868 4.60804C67.6868 4.37604 67.7348 4.15404 67.8308 3.94204C67.9268 3.72604 68.0668 3.53804 68.2508 3.37804C68.4348 3.21404 68.6608 3.08404 68.9288 2.98804C69.1968 2.89204 69.5028 2.84404 69.8468 2.84404C70.2468 2.84404 70.6048 2.90804 70.9208 3.03604C71.2408 3.16004 71.5168 3.33204 71.7488 3.55204L71.5088 3.94204Z" fill="#333333"/>
</svg>
