<svg width="67" height="12" viewBox="0 0 67 12" fill="none" xmlns="http://www.w3.org/2000/svg">
<path d="M4.084 0.697479C4.50867 0.697479 4.90067 0.758146 5.26 0.87948C5.61933 1.00081 5.92733 1.17348 6.184 1.39748C6.44533 1.62148 6.64833 1.89215 6.793 2.20948C6.93767 2.52681 7.01 2.87915 7.01 3.26648C7.01 3.58381 6.968 3.86848 6.884 4.12048C6.80467 4.36781 6.688 4.58715 6.534 4.77848C6.38467 4.96515 6.20267 5.12381 5.988 5.25448C5.77333 5.38515 5.533 5.49015 5.267 5.56948C5.92033 5.74215 6.41033 6.03148 6.737 6.43748C7.06833 6.84348 7.234 7.35215 7.234 7.96348C7.234 8.42548 7.14533 8.84081 6.968 9.20948C6.79533 9.57815 6.55733 9.89315 6.254 10.1545C5.95067 10.4111 5.596 10.6095 5.19 10.7495C4.78867 10.8848 4.357 10.9525 3.895 10.9525C3.363 10.9525 2.908 10.8871 2.53 10.7565C2.152 10.6211 1.83233 10.4368 1.571 10.2035C1.30967 9.97015 1.095 9.69481 0.927 9.37748C0.759 9.05548 0.616667 8.70781 0.5 8.33448L1.032 8.11048C1.13 8.06848 1.228 8.04748 1.326 8.04748C1.41933 8.04748 1.501 8.06848 1.571 8.11048C1.64567 8.14781 1.70167 8.20848 1.739 8.29248C1.74833 8.31115 1.75767 8.33215 1.767 8.35548C1.77633 8.37415 1.78567 8.39515 1.795 8.41848C1.86033 8.55381 1.93967 8.70781 2.033 8.88048C2.12633 9.04848 2.25233 9.20715 2.411 9.35648C2.56967 9.50581 2.76567 9.63181 2.999 9.73448C3.237 9.83715 3.531 9.88848 3.881 9.88848C4.231 9.88848 4.53667 9.83248 4.798 9.72048C5.064 9.60381 5.28333 9.45448 5.456 9.27248C5.63333 9.09048 5.76633 8.88748 5.855 8.66348C5.94367 8.43948 5.988 8.21781 5.988 7.99848C5.988 7.72781 5.95067 7.48048 5.876 7.25648C5.806 7.03248 5.67533 6.83881 5.484 6.67548C5.29733 6.51215 5.036 6.38381 4.7 6.29048C4.36867 6.19715 3.94167 6.15048 3.419 6.15048V5.24748C3.84367 5.24281 4.20533 5.19615 4.504 5.10748C4.80733 5.01881 5.05467 4.89748 5.246 4.74348C5.43733 4.58948 5.575 4.40515 5.659 4.19048C5.74767 3.97581 5.792 3.73781 5.792 3.47648C5.792 3.18715 5.74533 2.93515 5.652 2.72048C5.56333 2.50581 5.43967 2.32848 5.281 2.18848C5.12233 2.04848 4.93333 1.94348 4.714 1.87348C4.49933 1.80348 4.266 1.76848 4.014 1.76848C3.762 1.76848 3.52867 1.80581 3.314 1.88048C3.09933 1.95515 2.908 2.06015 2.74 2.19548C2.57667 2.32615 2.439 2.48481 2.327 2.67148C2.215 2.85348 2.131 3.05181 2.075 3.26648C2.03767 3.40181 1.98167 3.49981 1.907 3.56048C1.83233 3.62115 1.73667 3.65148 1.62 3.65148C1.59667 3.65148 1.571 3.65148 1.543 3.65148C1.51967 3.64681 1.49167 3.64215 1.459 3.63748L0.808 3.52548C0.873333 3.06815 0.999333 2.66448 1.186 2.31448C1.37267 1.95981 1.60833 1.66348 1.893 1.42548C2.18233 1.18748 2.51133 1.00781 2.88 0.88648C3.25333 0.76048 3.65467 0.697479 4.084 0.697479Z" fill="#4F4F4F"/>
<path d="M8.99209 10.9875C8.92676 11.1508 8.82876 11.2721 8.69809 11.3515C8.57209 11.4308 8.44143 11.4705 8.30609 11.4705H7.78109L11.9881 0.99148C12.0488 0.842147 12.1351 0.727813 12.2471 0.64848C12.3591 0.569147 12.4921 0.52948 12.6461 0.52948H13.1711L8.99209 10.9875Z" fill="#4F4F4F"/>
<path d="M20.7878 5.82848C20.7878 6.70581 20.6921 7.46648 20.5007 8.11048C20.3141 8.74981 20.0574 9.27948 19.7307 9.69948C19.4041 10.1195 19.0168 10.4321 18.5688 10.6375C18.1254 10.8428 17.6494 10.9455 17.1407 10.9455C16.6274 10.9455 16.1491 10.8428 15.7057 10.6375C15.2671 10.4321 14.8844 10.1195 14.5578 9.69948C14.2311 9.27948 13.9744 8.74981 13.7878 8.11048C13.6011 7.46648 13.5077 6.70581 13.5077 5.82848C13.5077 4.95115 13.6011 4.19048 13.7878 3.54648C13.9744 2.90248 14.2311 2.37048 14.5578 1.95048C14.8844 1.52581 15.2671 1.21081 15.7057 1.00548C16.1491 0.800146 16.6274 0.697479 17.1407 0.697479C17.6494 0.697479 18.1254 0.800146 18.5688 1.00548C19.0168 1.21081 19.4041 1.52581 19.7307 1.95048C20.0574 2.37048 20.3141 2.90248 20.5007 3.54648C20.6921 4.19048 20.7878 4.95115 20.7878 5.82848ZM19.4928 5.82848C19.4928 5.06315 19.4274 4.42148 19.2967 3.90348C19.1707 3.38081 18.9981 2.96081 18.7787 2.64348C18.5641 2.32615 18.3144 2.09981 18.0297 1.96448C17.7451 1.82448 17.4487 1.75448 17.1407 1.75448C16.8327 1.75448 16.5364 1.82448 16.2517 1.96448C15.9671 2.09981 15.7174 2.32615 15.5028 2.64348C15.2881 2.96081 15.1154 3.38081 14.9848 3.90348C14.8588 4.42148 14.7957 5.06315 14.7957 5.82848C14.7957 6.59381 14.8588 7.23548 14.9848 7.75348C15.1154 8.27148 15.2881 8.68915 15.5028 9.00648C15.7174 9.32381 15.9671 9.55248 16.2517 9.69248C16.5364 9.82781 16.8327 9.89548 17.1407 9.89548C17.4487 9.89548 17.7451 9.82781 18.0297 9.69248C18.3144 9.55248 18.5641 9.32381 18.7787 9.00648C18.9981 8.68915 19.1707 8.27148 19.2967 7.75348C19.4274 7.23548 19.4928 6.59381 19.4928 5.82848Z" fill="#4F4F4F"/>
<path d="M25.7588 4.69448C26.1602 4.69448 26.5405 4.76215 26.8998 4.89748C27.2592 5.02815 27.5742 5.22181 27.8448 5.47848C28.1155 5.73048 28.3302 6.04315 28.4888 6.41648C28.6475 6.78515 28.7268 7.20748 28.7268 7.68348C28.7268 8.14548 28.6428 8.57481 28.4748 8.97148C28.3068 9.36815 28.0712 9.71348 27.7678 10.0075C27.4692 10.3015 27.1075 10.5325 26.6828 10.7005C26.2582 10.8685 25.7915 10.9525 25.2828 10.9525C24.7788 10.9525 24.3215 10.8731 23.9108 10.7145C23.5048 10.5511 23.1572 10.3225 22.8678 10.0285C22.5785 9.72981 22.3545 9.37048 22.1958 8.95048C22.0418 8.52581 21.9648 8.05215 21.9648 7.52948C21.9648 7.09081 22.0628 6.62415 22.2588 6.12948C22.4548 5.63481 22.7652 5.10281 23.1898 4.53348L25.7308 1.11048C25.7962 1.02648 25.8872 0.95648 26.0038 0.90048C26.1205 0.839813 26.2535 0.80948 26.4028 0.80948H27.5088L24.0298 5.21248C24.2678 5.04915 24.5315 4.92315 24.8208 4.83448C25.1102 4.74115 25.4228 4.69448 25.7588 4.69448ZM23.1688 7.74648C23.1688 8.06848 23.2155 8.36248 23.3088 8.62848C23.4022 8.89448 23.5375 9.12315 23.7148 9.31448C23.8968 9.50581 24.1162 9.65515 24.3728 9.76248C24.6342 9.86515 24.9305 9.91648 25.2618 9.91648C25.5978 9.91648 25.9012 9.86281 26.1718 9.75548C26.4425 9.64815 26.6735 9.49881 26.8648 9.30748C27.0608 9.11615 27.2102 8.88981 27.3128 8.62848C27.4202 8.36715 27.4738 8.08248 27.4738 7.77448C27.4738 7.44781 27.4225 7.15381 27.3198 6.89248C27.2172 6.62648 27.0725 6.40248 26.8858 6.22048C26.6992 6.03381 26.4752 5.89148 26.2138 5.79348C25.9525 5.69548 25.6655 5.64648 25.3528 5.64648C25.0168 5.64648 24.7135 5.70481 24.4428 5.82148C24.1722 5.93348 23.9412 6.08748 23.7498 6.28348C23.5632 6.47481 23.4185 6.69881 23.3158 6.95548C23.2178 7.20748 23.1688 7.47115 23.1688 7.74648Z" fill="#4F4F4F"/>
<path d="M30.4569 10.9875C30.3916 11.1508 30.2936 11.2721 30.1629 11.3515C30.0369 11.4308 29.9063 11.4705 29.7709 11.4705H29.2459L33.4529 0.99148C33.5136 0.842147 33.5999 0.727813 33.7119 0.64848C33.8239 0.569147 33.9569 0.52948 34.1109 0.52948H34.6359L30.4569 10.9875Z" fill="#4F4F4F"/>
<path d="M38.7596 0.697479C39.1843 0.697479 39.5809 0.76048 39.9496 0.88648C40.3183 1.01248 40.6356 1.19681 40.9016 1.43948C41.1723 1.67748 41.3846 1.96915 41.5386 2.31448C41.6926 2.65981 41.7696 3.05181 41.7696 3.49048C41.7696 3.86381 41.7136 4.20915 41.6016 4.52648C41.4896 4.84381 41.3379 5.14948 41.1466 5.44348C40.9553 5.73281 40.7336 6.01515 40.4816 6.29048C40.2343 6.56115 39.9706 6.83881 39.6906 7.12348L37.0516 9.82548C37.2383 9.77415 37.4273 9.73448 37.6186 9.70648C37.8099 9.67381 37.9943 9.65748 38.1716 9.65748H41.5316C41.6669 9.65748 41.7743 9.69715 41.8536 9.77648C41.9329 9.85581 41.9726 9.95848 41.9726 10.0845V10.8405H35.2806V10.4135C35.2806 10.3248 35.2969 10.2338 35.3296 10.1405C35.3669 10.0471 35.4253 9.96081 35.5046 9.88148L38.7176 6.65448C38.9836 6.38381 39.2263 6.12481 39.4456 5.87748C39.6649 5.62548 39.8516 5.37348 40.0056 5.12148C40.1643 4.86948 40.2856 4.61515 40.3696 4.35848C40.4536 4.09715 40.4956 3.81948 40.4956 3.52548C40.4956 3.23148 40.4489 2.97481 40.3556 2.75548C40.2623 2.53148 40.1339 2.34715 39.9706 2.20248C39.8073 2.05781 39.6159 1.95048 39.3966 1.88048C39.1773 1.80581 38.9416 1.76848 38.6896 1.76848C38.4376 1.76848 38.2043 1.80581 37.9896 1.88048C37.7749 1.95515 37.5836 2.06015 37.4156 2.19548C37.2523 2.32615 37.1123 2.48248 36.9956 2.66448C36.8836 2.84648 36.8043 3.04715 36.7576 3.26648C36.7203 3.40181 36.6643 3.49981 36.5896 3.56048C36.5149 3.62115 36.4169 3.65148 36.2956 3.65148C36.2723 3.65148 36.2466 3.65148 36.2186 3.65148C36.1953 3.64681 36.1673 3.64215 36.1346 3.63748L35.4836 3.52548C35.5489 3.06815 35.6749 2.66448 35.8616 2.31448C36.0483 1.95981 36.2839 1.66348 36.5686 1.42548C36.8579 1.18748 37.1869 1.00781 37.5556 0.88648C37.9289 0.76048 38.3303 0.697479 38.7596 0.697479Z" fill="#4F4F4F"/>
<path d="M50.3737 5.82848C50.3737 6.70581 50.278 7.46648 50.0867 8.11048C49.9 8.74981 49.6434 9.27948 49.3167 9.69948C48.99 10.1195 48.6027 10.4321 48.1547 10.6375C47.7114 10.8428 47.2354 10.9455 46.7267 10.9455C46.2134 10.9455 45.735 10.8428 45.2917 10.6375C44.853 10.4321 44.4704 10.1195 44.1437 9.69948C43.817 9.27948 43.5604 8.74981 43.3737 8.11048C43.187 7.46648 43.0937 6.70581 43.0937 5.82848C43.0937 4.95115 43.187 4.19048 43.3737 3.54648C43.5604 2.90248 43.817 2.37048 44.1437 1.95048C44.4704 1.52581 44.853 1.21081 45.2917 1.00548C45.735 0.800146 46.2134 0.697479 46.7267 0.697479C47.2354 0.697479 47.7114 0.800146 48.1547 1.00548C48.6027 1.21081 48.99 1.52581 49.3167 1.95048C49.6434 2.37048 49.9 2.90248 50.0867 3.54648C50.278 4.19048 50.3737 4.95115 50.3737 5.82848ZM49.0787 5.82848C49.0787 5.06315 49.0134 4.42148 48.8827 3.90348C48.7567 3.38081 48.584 2.96081 48.3647 2.64348C48.15 2.32615 47.9004 2.09981 47.6157 1.96448C47.331 1.82448 47.0347 1.75448 46.7267 1.75448C46.4187 1.75448 46.1224 1.82448 45.8377 1.96448C45.553 2.09981 45.3034 2.32615 45.0887 2.64348C44.874 2.96081 44.7014 3.38081 44.5707 3.90348C44.4447 4.42148 44.3817 5.06315 44.3817 5.82848C44.3817 6.59381 44.4447 7.23548 44.5707 7.75348C44.7014 8.27148 44.874 8.68915 45.0887 9.00648C45.3034 9.32381 45.553 9.55248 45.8377 9.69248C46.1224 9.82781 46.4187 9.89548 46.7267 9.89548C47.0347 9.89548 47.331 9.82781 47.6157 9.69248C47.9004 9.55248 48.15 9.32381 48.3647 9.00648C48.584 8.68915 48.7567 8.27148 48.8827 7.75348C49.0134 7.23548 49.0787 6.59381 49.0787 5.82848Z" fill="#4F4F4F"/>
<path d="M55.0018 0.697479C55.4264 0.697479 55.8231 0.76048 56.1918 0.88648C56.5604 1.01248 56.8778 1.19681 57.1438 1.43948C57.4144 1.67748 57.6268 1.96915 57.7808 2.31448C57.9348 2.65981 58.0118 3.05181 58.0118 3.49048C58.0118 3.86381 57.9558 4.20915 57.8438 4.52648C57.7318 4.84381 57.5801 5.14948 57.3888 5.44348C57.1974 5.73281 56.9758 6.01515 56.7238 6.29048C56.4764 6.56115 56.2128 6.83881 55.9328 7.12348L53.2938 9.82548C53.4804 9.77415 53.6694 9.73448 53.8608 9.70648C54.0521 9.67381 54.2364 9.65748 54.4138 9.65748H57.7738C57.9091 9.65748 58.0164 9.69715 58.0958 9.77648C58.1751 9.85581 58.2148 9.95848 58.2148 10.0845V10.8405H51.5228V10.4135C51.5228 10.3248 51.5391 10.2338 51.5718 10.1405C51.6091 10.0471 51.6674 9.96081 51.7468 9.88148L54.9598 6.65448C55.2258 6.38381 55.4684 6.12481 55.6878 5.87748C55.9071 5.62548 56.0938 5.37348 56.2478 5.12148C56.4064 4.86948 56.5278 4.61515 56.6118 4.35848C56.6958 4.09715 56.7378 3.81948 56.7378 3.52548C56.7378 3.23148 56.6911 2.97481 56.5978 2.75548C56.5044 2.53148 56.3761 2.34715 56.2128 2.20248C56.0494 2.05781 55.8581 1.95048 55.6388 1.88048C55.4194 1.80581 55.1838 1.76848 54.9318 1.76848C54.6798 1.76848 54.4464 1.80581 54.2318 1.88048C54.0171 1.95515 53.8258 2.06015 53.6578 2.19548C53.4944 2.32615 53.3544 2.48248 53.2378 2.66448C53.1258 2.84648 53.0464 3.04715 52.9998 3.26648C52.9624 3.40181 52.9064 3.49981 52.8318 3.56048C52.7571 3.62115 52.6591 3.65148 52.5378 3.65148C52.5144 3.65148 52.4888 3.65148 52.4608 3.65148C52.4374 3.64681 52.4094 3.64215 52.3768 3.63748L51.7258 3.52548C51.7911 3.06815 51.9171 2.66448 52.1038 2.31448C52.2905 1.95981 52.5261 1.66348 52.8108 1.42548C53.1001 1.18748 53.4291 1.00781 53.7978 0.88648C54.1711 0.76048 54.5724 0.697479 55.0018 0.697479Z" fill="#4F4F4F"/>
<path d="M60.9249 9.88848H63.0809V3.04948C63.0809 2.84415 63.0879 2.63648 63.1019 2.42648L61.3099 3.95948C61.2632 3.99681 61.2165 4.02481 61.1699 4.04348C61.1232 4.05748 61.0789 4.06448 61.0369 4.06448C60.9669 4.06448 60.9039 4.05048 60.8479 4.02248C60.7919 3.98981 60.7499 3.95248 60.7219 3.91048L60.3299 3.37148L63.3119 0.78848H64.3269V9.88848H66.3009V10.8405H60.9249V9.88848Z" fill="#4F4F4F"/>
</svg>
