<svg width="1920" height="1080" viewBox="0 0 1920 1080" fill="none" xmlns="http://www.w3.org/2000/svg">
<path d="M285 58H1920V1080H285V58Z" fill="#333333"/>
<path d="M0 0H285V1080H0V0Z" fill="#333333"/>
<path d="M283 0H1920V58H283V0Z" fill="#4F4F4F"/>
<path fill-rule="evenodd" clip-rule="evenodd" d="M319.712 29.0629H320.435L325 33.6369L323.637 35L319.063 30.4351V29.7124L318.816 29.4563C317.773 30.3528 316.419 30.8925 314.946 30.8925C311.662 30.8925 309 28.2304 309 24.9463C309 21.6621 311.662 19 314.946 19C318.23 19 320.893 21.6621 320.893 24.9463C320.893 26.4191 320.353 27.773 319.456 28.8159L319.712 29.0629ZM310.83 24.9455C310.83 27.2234 312.668 29.0622 314.946 29.0622C317.224 29.0622 319.063 27.2234 319.063 24.9455C319.063 22.6677 317.224 20.8289 314.946 20.8289C312.668 20.8289 310.83 22.6677 310.83 24.9455Z" fill="#F2F2F2"/>
<path fill-rule="evenodd" clip-rule="evenodd" d="M282.5 1079L282.5 0L283.5 -4.37114e-08L283.5 1079L282.5 1079Z" fill="#F2F2F2"/>
</svg>
