<svg width="194" height="40" viewBox="0 0 194 40" fill="none" xmlns="http://www.w3.org/2000/svg">
<path d="M16.4627 25.9119H18.9267V18.0959C18.9267 17.8613 18.9347 17.6239 18.9507 17.3839L16.9027 19.1359C16.8494 19.1786 16.796 19.2106 16.7427 19.2319C16.6894 19.2479 16.6387 19.2559 16.5907 19.2559C16.5107 19.2559 16.4387 19.2399 16.3747 19.2079C16.3107 19.1706 16.2627 19.1279 16.2307 19.0799L15.7827 18.4639L19.1907 15.5119H20.3507V25.9119H22.6067V26.9999H16.4627V25.9119Z" fill="#4F4F4F"/>
<path d="M28.256 15.4079C28.7413 15.4079 29.1946 15.4799 29.616 15.6239C30.0373 15.7679 30.4 15.9786 30.704 16.2559C31.0133 16.5279 31.256 16.8613 31.432 17.2559C31.608 17.6506 31.696 18.0986 31.696 18.5999C31.696 19.0266 31.632 19.4213 31.504 19.7839C31.376 20.1466 31.2026 20.4959 30.984 20.8319C30.7653 21.1626 30.512 21.4853 30.224 21.7999C29.9413 22.1093 29.64 22.4266 29.32 22.7519L26.304 25.8399C26.5173 25.7813 26.7333 25.7359 26.952 25.7039C27.1706 25.6666 27.3813 25.6479 27.584 25.6479H31.424C31.5786 25.6479 31.7013 25.6933 31.792 25.7839C31.8826 25.8746 31.928 25.9919 31.928 26.1359V26.9999H24.28V26.5119C24.28 26.4106 24.2986 26.3066 24.336 26.1999C24.3786 26.0933 24.4453 25.9946 24.536 25.9039L28.208 22.2159C28.512 21.9066 28.7893 21.6106 29.04 21.3279C29.2906 21.0399 29.504 20.7519 29.68 20.4639C29.8613 20.1759 30 19.8853 30.096 19.5919C30.192 19.2933 30.24 18.9759 30.24 18.6399C30.24 18.3039 30.1866 18.0106 30.08 17.7599C29.9733 17.5039 29.8266 17.2933 29.64 17.1279C29.4533 16.9626 29.2346 16.8399 28.984 16.7599C28.7333 16.6746 28.464 16.6319 28.176 16.6319C27.888 16.6319 27.6213 16.6746 27.376 16.7599C27.1306 16.8453 26.912 16.9653 26.72 17.1199C26.5333 17.2693 26.3733 17.4479 26.24 17.6559C26.112 17.8639 26.0213 18.0933 25.968 18.3439C25.9253 18.4986 25.8613 18.6106 25.776 18.6799C25.6906 18.7493 25.5786 18.7839 25.44 18.7839C25.4133 18.7839 25.384 18.7839 25.352 18.7839C25.3253 18.7786 25.2933 18.7733 25.256 18.7679L24.512 18.6399C24.5866 18.1173 24.7306 17.6559 24.944 17.2559C25.1573 16.8506 25.4266 16.5119 25.752 16.2399C26.0826 15.9679 26.4586 15.7626 26.88 15.6239C27.3066 15.4799 27.7653 15.4079 28.256 15.4079Z" fill="#4F4F4F"/>
<path d="M34.0172 27.1679C33.9425 27.3546 33.8305 27.4933 33.6812 27.5839C33.5372 27.6746 33.3879 27.7199 33.2332 27.7199H32.6332L37.4412 15.7439C37.5105 15.5733 37.6092 15.4426 37.7372 15.3519C37.8652 15.2613 38.0172 15.2159 38.1932 15.2159H38.7932L34.0172 27.1679Z" fill="#4F4F4F"/>
<path d="M47.498 21.2719C47.498 22.2746 47.3886 23.1439 47.17 23.8799C46.9566 24.6106 46.6633 25.2159 46.29 25.6959C45.9166 26.1759 45.474 26.5333 44.962 26.7679C44.4553 27.0026 43.9113 27.1199 43.33 27.1199C42.7433 27.1199 42.1966 27.0026 41.69 26.7679C41.1886 26.5333 40.7513 26.1759 40.378 25.6959C40.0046 25.2159 39.7113 24.6106 39.498 23.8799C39.2846 23.1439 39.178 22.2746 39.178 21.2719C39.178 20.2693 39.2846 19.3999 39.498 18.6639C39.7113 17.9279 40.0046 17.3199 40.378 16.8399C40.7513 16.3546 41.1886 15.9946 41.69 15.7599C42.1966 15.5253 42.7433 15.4079 43.33 15.4079C43.9113 15.4079 44.4553 15.5253 44.962 15.7599C45.474 15.9946 45.9166 16.3546 46.29 16.8399C46.6633 17.3199 46.9566 17.9279 47.17 18.6639C47.3886 19.3999 47.498 20.2693 47.498 21.2719ZM46.018 21.2719C46.018 20.3973 45.9433 19.6639 45.794 19.0719C45.65 18.4746 45.4526 17.9946 45.202 17.6319C44.9566 17.2693 44.6713 17.0106 44.346 16.8559C44.0206 16.6959 43.682 16.6159 43.33 16.6159C42.978 16.6159 42.6393 16.6959 42.314 16.8559C41.9886 17.0106 41.7033 17.2693 41.458 17.6319C41.2126 17.9946 41.0153 18.4746 40.866 19.0719C40.722 19.6639 40.65 20.3973 40.65 21.2719C40.65 22.1466 40.722 22.8799 40.866 23.4719C41.0153 24.0639 41.2126 24.5413 41.458 24.9039C41.7033 25.2666 41.9886 25.5279 42.314 25.6879C42.6393 25.8426 42.978 25.9199 43.33 25.9199C43.682 25.9199 44.0206 25.8426 44.346 25.6879C44.6713 25.5279 44.9566 25.2666 45.202 24.9039C45.4526 24.5413 45.65 24.0639 45.794 23.4719C45.9433 22.8799 46.018 22.1466 46.018 21.2719Z" fill="#4F4F4F"/>
<path d="M53.1792 19.9759C53.6379 19.9759 54.0725 20.0533 54.4832 20.2079C54.8939 20.3573 55.2539 20.5786 55.5632 20.8719C55.8725 21.1599 56.1179 21.5173 56.2992 21.9439C56.4805 22.3653 56.5712 22.8479 56.5712 23.3919C56.5712 23.9199 56.4752 24.4106 56.2832 24.8639C56.0912 25.3173 55.8219 25.7119 55.4752 26.0479C55.1339 26.3839 54.7205 26.6479 54.2352 26.8399C53.7499 27.0319 53.2165 27.1279 52.6352 27.1279C52.0592 27.1279 51.5365 27.0373 51.0672 26.8559C50.6032 26.6693 50.2059 26.4079 49.8752 26.0719C49.5445 25.7306 49.2885 25.3199 49.1072 24.8399C48.9312 24.3546 48.8432 23.8133 48.8432 23.2159C48.8432 22.7146 48.9552 22.1813 49.1792 21.6159C49.4032 21.0506 49.7579 20.4426 50.2432 19.7919L53.1472 15.8799C53.2219 15.7839 53.3259 15.7039 53.4592 15.6399C53.5925 15.5706 53.7445 15.5359 53.9152 15.5359H55.1792L51.2032 20.5679C51.4752 20.3813 51.7765 20.2373 52.1072 20.1359C52.4379 20.0293 52.7952 19.9759 53.1792 19.9759ZM50.2192 23.4639C50.2192 23.8319 50.2725 24.1679 50.3792 24.4719C50.4859 24.7759 50.6405 25.0373 50.8432 25.2559C51.0512 25.4746 51.3019 25.6453 51.5952 25.7679C51.8939 25.8853 52.2325 25.9439 52.6112 25.9439C52.9952 25.9439 53.3419 25.8826 53.6512 25.7599C53.9605 25.6373 54.2245 25.4666 54.4432 25.2479C54.6672 25.0293 54.8379 24.7706 54.9552 24.4719C55.0779 24.1733 55.1392 23.8479 55.1392 23.4959C55.1392 23.1226 55.0805 22.7866 54.9632 22.4879C54.8459 22.1839 54.6805 21.9279 54.4672 21.7199C54.2539 21.5066 53.9979 21.3439 53.6992 21.2319C53.4005 21.1199 53.0725 21.0639 52.7152 21.0639C52.3312 21.0639 51.9845 21.1306 51.6752 21.2639C51.3659 21.3919 51.1019 21.5679 50.8832 21.7919C50.6699 22.0106 50.5045 22.2666 50.3872 22.5599C50.2752 22.8479 50.2192 23.1493 50.2192 23.4639Z" fill="#4F4F4F"/>
<path d="M58.5485 27.1679C58.4738 27.3546 58.3618 27.4933 58.2125 27.5839C58.0685 27.6746 57.9191 27.7199 57.7645 27.7199H57.1645L61.9725 15.7439C62.0418 15.5733 62.1405 15.4426 62.2685 15.3519C62.3965 15.2613 62.5485 15.2159 62.7245 15.2159H63.3245L58.5485 27.1679Z" fill="#4F4F4F"/>
<path d="M68.0372 15.4079C68.5225 15.4079 68.9759 15.4799 69.3972 15.6239C69.8185 15.7679 70.1812 15.9786 70.4852 16.2559C70.7945 16.5279 71.0372 16.8613 71.2132 17.2559C71.3892 17.6506 71.4772 18.0986 71.4772 18.5999C71.4772 19.0266 71.4132 19.4213 71.2852 19.7839C71.1572 20.1466 70.9839 20.4959 70.7652 20.8319C70.5465 21.1626 70.2932 21.4853 70.0052 21.7999C69.7225 22.1093 69.4212 22.4266 69.1012 22.7519L66.0852 25.8399C66.2985 25.7813 66.5145 25.7359 66.7332 25.7039C66.9519 25.6666 67.1625 25.6479 67.3652 25.6479H71.2052C71.3599 25.6479 71.4825 25.6933 71.5732 25.7839C71.6639 25.8746 71.7092 25.9919 71.7092 26.1359V26.9999H64.0612V26.5119C64.0612 26.4106 64.0799 26.3066 64.1172 26.1999C64.1599 26.0933 64.2265 25.9946 64.3172 25.9039L67.9892 22.2159C68.2932 21.9066 68.5705 21.6106 68.8212 21.3279C69.0719 21.0399 69.2852 20.7519 69.4612 20.4639C69.6425 20.1759 69.7812 19.8853 69.8772 19.5919C69.9732 19.2933 70.0212 18.9759 70.0212 18.6399C70.0212 18.3039 69.9679 18.0106 69.8612 17.7599C69.7545 17.5039 69.6079 17.2933 69.4212 17.1279C69.2345 16.9626 69.0159 16.8399 68.7652 16.7599C68.5145 16.6746 68.2452 16.6319 67.9572 16.6319C67.6692 16.6319 67.4025 16.6746 67.1572 16.7599C66.9119 16.8453 66.6932 16.9653 66.5012 17.1199C66.3145 17.2693 66.1545 17.4479 66.0212 17.6559C65.8932 17.8639 65.8025 18.0933 65.7492 18.3439C65.7065 18.4986 65.6425 18.6106 65.5572 18.6799C65.4719 18.7493 65.3599 18.7839 65.2212 18.7839C65.1945 18.7839 65.1652 18.7839 65.1332 18.7839C65.1065 18.7786 65.0745 18.7733 65.0372 18.7679L64.2932 18.6399C64.3679 18.1173 64.5119 17.6559 64.7252 17.2559C64.9385 16.8506 65.2079 16.5119 65.5332 16.2399C65.8639 15.9679 66.2399 15.7626 66.6612 15.6239C67.0879 15.4799 67.5465 15.4079 68.0372 15.4079Z" fill="#4F4F4F"/>
<path d="M81.3105 21.2719C81.3105 22.2746 81.2011 23.1439 80.9825 23.8799C80.7691 24.6106 80.4758 25.2159 80.1025 25.6959C79.7291 26.1759 79.2865 26.5333 78.7745 26.7679C78.2678 27.0026 77.7238 27.1199 77.1425 27.1199C76.5558 27.1199 76.0091 27.0026 75.5025 26.7679C75.0011 26.5333 74.5638 26.1759 74.1905 25.6959C73.8171 25.2159 73.5238 24.6106 73.3105 23.8799C73.0971 23.1439 72.9905 22.2746 72.9905 21.2719C72.9905 20.2693 73.0971 19.3999 73.3105 18.6639C73.5238 17.9279 73.8171 17.3199 74.1905 16.8399C74.5638 16.3546 75.0011 15.9946 75.5025 15.7599C76.0091 15.5253 76.5558 15.4079 77.1425 15.4079C77.7238 15.4079 78.2678 15.5253 78.7745 15.7599C79.2865 15.9946 79.7291 16.3546 80.1025 16.8399C80.4758 17.3199 80.7691 17.9279 80.9825 18.6639C81.2011 19.3999 81.3105 20.2693 81.3105 21.2719ZM79.8305 21.2719C79.8305 20.3973 79.7558 19.6639 79.6065 19.0719C79.4625 18.4746 79.2651 17.9946 79.0145 17.6319C78.7691 17.2693 78.4838 17.0106 78.1585 16.8559C77.8331 16.6959 77.4945 16.6159 77.1425 16.6159C76.7905 16.6159 76.4518 16.6959 76.1265 16.8559C75.8011 17.0106 75.5158 17.2693 75.2705 17.6319C75.0251 17.9946 74.8278 18.4746 74.6785 19.0719C74.5345 19.6639 74.4625 20.3973 74.4625 21.2719C74.4625 22.1466 74.5345 22.8799 74.6785 23.4719C74.8278 24.0639 75.0251 24.5413 75.2705 24.9039C75.5158 25.2666 75.8011 25.5279 76.1265 25.6879C76.4518 25.8426 76.7905 25.9199 77.1425 25.9199C77.4945 25.9199 77.8331 25.8426 78.1585 25.6879C78.4838 25.5279 78.7691 25.2666 79.0145 24.9039C79.2651 24.5413 79.4625 24.0639 79.6065 23.4719C79.7558 22.8799 79.8305 22.1466 79.8305 21.2719Z" fill="#4F4F4F"/>
<path d="M86.5997 15.4079C87.0851 15.4079 87.5384 15.4799 87.9597 15.6239C88.3811 15.7679 88.7437 15.9786 89.0477 16.2559C89.357 16.5279 89.5997 16.8613 89.7757 17.2559C89.9517 17.6506 90.0397 18.0986 90.0397 18.5999C90.0397 19.0266 89.9757 19.4213 89.8477 19.7839C89.7197 20.1466 89.5464 20.4959 89.3277 20.8319C89.1091 21.1626 88.8557 21.4853 88.5677 21.7999C88.285 22.1093 87.9837 22.4266 87.6637 22.7519L84.6477 25.8399C84.8611 25.7813 85.077 25.7359 85.2957 25.7039C85.5144 25.6666 85.7251 25.6479 85.9277 25.6479H89.7677C89.9224 25.6479 90.0451 25.6933 90.1357 25.7839C90.2264 25.8746 90.2717 25.9919 90.2717 26.1359V26.9999H82.6237V26.5119C82.6237 26.4106 82.6424 26.3066 82.6797 26.1999C82.7224 26.0933 82.789 25.9946 82.8797 25.9039L86.5517 22.2159C86.8557 21.9066 87.1331 21.6106 87.3837 21.3279C87.6344 21.0399 87.8477 20.7519 88.0237 20.4639C88.2051 20.1759 88.3437 19.8853 88.4397 19.5919C88.5357 19.2933 88.5837 18.9759 88.5837 18.6399C88.5837 18.3039 88.5304 18.0106 88.4237 17.7599C88.3171 17.5039 88.1704 17.2933 87.9837 17.1279C87.7971 16.9626 87.5784 16.8399 87.3277 16.7599C87.0771 16.6746 86.8077 16.6319 86.5197 16.6319C86.2317 16.6319 85.965 16.6746 85.7197 16.7599C85.4744 16.8453 85.2557 16.9653 85.0637 17.1199C84.8771 17.2693 84.717 17.4479 84.5837 17.6559C84.4557 17.8639 84.3651 18.0933 84.3117 18.3439C84.2691 18.4986 84.2051 18.6106 84.1197 18.6799C84.0344 18.7493 83.9224 18.7839 83.7837 18.7839C83.757 18.7839 83.7277 18.7839 83.6957 18.7839C83.6691 18.7786 83.637 18.7733 83.5997 18.7679L82.8557 18.6399C82.9304 18.1173 83.0744 17.6559 83.2877 17.2559C83.5011 16.8506 83.7704 16.5119 84.0957 16.2399C84.4264 15.9679 84.8024 15.7626 85.2237 15.6239C85.6504 15.4799 86.109 15.4079 86.5997 15.4079Z" fill="#4F4F4F"/>
<path d="M93.369 25.9119H95.833V18.0959C95.833 17.8613 95.841 17.6239 95.857 17.3839L93.809 19.1359C93.7556 19.1786 93.7023 19.2106 93.649 19.2319C93.5956 19.2479 93.545 19.2559 93.497 19.2559C93.417 19.2559 93.345 19.2399 93.281 19.2079C93.217 19.1706 93.169 19.1279 93.137 19.0799L92.689 18.4639L96.097 15.5119H97.257V25.9119H99.513V26.9999H93.369V25.9119Z" fill="#4F4F4F"/>
<path fill-rule="evenodd" clip-rule="evenodd" d="M177.5 14H176.833V12.6666H175.5V14H168.833V12.6666H167.5V14H166.833C166.1 14 165.5 14.6 165.5 15.3333V26C165.5 26.7333 166.1 27.3333 166.833 27.3333H177.5C178.233 27.3333 178.833 26.7333 178.833 26V15.3333C178.833 14.6 178.233 14 177.5 14ZM177.5 26H166.833V18.6666H177.5V26ZM166.833 17.3333H177.5V15.3333H166.833V17.3333Z" fill="#4F4F4F"/>
<path fill-rule="evenodd" clip-rule="evenodd" d="M188.167 1H5.16675C2.95761 1 1.16675 2.79086 1.16675 5V35C1.16675 37.2091 2.95761 39 5.16675 39H188.167C190.376 39 192.167 37.2091 192.167 35V5C192.167 2.79086 190.376 1 188.167 1ZM5.16675 0C2.40532 0 0.166748 2.23858 0.166748 5V35C0.166748 37.7614 2.40533 40 5.16675 40H188.167C190.928 40 193.167 37.7614 193.167 35V5C193.167 2.23858 190.928 0 188.167 0H5.16675Z" fill="#828282"/>
</svg>
