<svg width="289" height="24" viewBox="0 0 289 24" fill="none" xmlns="http://www.w3.org/2000/svg">
<path d="M49.4801 14.613C49.5827 14.613 49.6714 14.6527 49.7461 14.732L50.4881 15.537C50.0774 16.0457 49.5711 16.4354 48.9691 16.706C48.3717 16.9767 47.6531 17.112 46.8131 17.112C46.0617 17.112 45.3851 16.9837 44.7831 16.727C44.1857 16.4704 43.6747 16.1134 43.2501 15.656C42.8254 15.1987 42.4987 14.6527 42.2701 14.018C42.0461 13.3834 41.9341 12.6904 41.9341 11.939C41.9341 11.1784 42.0601 10.483 42.3121 9.85302C42.5641 9.21836 42.9187 8.67236 43.3761 8.21502C43.8334 7.75769 44.3794 7.40302 45.0141 7.15102C45.6534 6.89436 46.3581 6.76602 47.1281 6.76602C47.8794 6.76602 48.5351 6.88736 49.0951 7.13002C49.6597 7.36802 50.1427 7.68536 50.5441 8.08202L49.9141 8.95702C49.8767 9.01302 49.8277 9.06202 49.7671 9.10402C49.7111 9.14602 49.6317 9.16702 49.5291 9.16702C49.4217 9.16702 49.3121 9.12502 49.2001 9.04102C49.0881 8.95702 48.9457 8.86602 48.7731 8.76802C48.6004 8.67002 48.3811 8.57902 48.1151 8.49502C47.8537 8.41102 47.5201 8.36902 47.1141 8.36902C46.6381 8.36902 46.1994 8.45302 45.7981 8.62102C45.4014 8.78436 45.0584 9.02002 44.7691 9.32802C44.4844 9.63602 44.2604 10.0117 44.0971 10.455C43.9384 10.8937 43.8591 11.3884 43.8591 11.939C43.8591 12.5084 43.9384 13.0147 44.0971 13.458C44.2604 13.9014 44.4797 14.2747 44.7551 14.578C45.0304 14.8814 45.3547 15.1147 45.7281 15.278C46.1014 15.4367 46.5027 15.516 46.9321 15.516C47.1887 15.516 47.4197 15.502 47.6251 15.474C47.8351 15.446 48.0264 15.4017 48.1991 15.341C48.3764 15.2804 48.5421 15.2034 48.6961 15.11C48.8547 15.012 49.0111 14.893 49.1651 14.753C49.2117 14.711 49.2607 14.6784 49.3121 14.655C49.3634 14.627 49.4194 14.613 49.4801 14.613Z" fill="#828282"/>
<path d="M54.8827 9.70602C55.4193 9.70602 55.9047 9.79236 56.3387 9.96502C56.7773 10.1377 57.1507 10.3827 57.4587 10.7C57.7667 11.0174 58.0047 11.4047 58.1727 11.862C58.3407 12.3194 58.4247 12.8304 58.4247 13.395C58.4247 13.9644 58.3407 14.4777 58.1727 14.935C58.0047 15.3924 57.7667 15.782 57.4587 16.104C57.1507 16.426 56.7773 16.6734 56.3387 16.846C55.9047 17.0187 55.4193 17.105 54.8827 17.105C54.346 17.105 53.8583 17.0187 53.4197 16.846C52.981 16.6734 52.6053 16.426 52.2927 16.104C51.9847 15.782 51.7443 15.3924 51.5717 14.935C51.4037 14.4777 51.3197 13.9644 51.3197 13.395C51.3197 12.8304 51.4037 12.3194 51.5717 11.862C51.7443 11.4047 51.9847 11.0174 52.2927 10.7C52.6053 10.3827 52.981 10.1377 53.4197 9.96502C53.8583 9.79236 54.346 9.70602 54.8827 9.70602ZM54.8827 15.775C55.48 15.775 55.921 15.5744 56.2057 15.173C56.495 14.7717 56.6397 14.1837 56.6397 13.409C56.6397 12.6344 56.495 12.044 56.2057 11.638C55.921 11.232 55.48 11.029 54.8827 11.029C54.276 11.029 53.828 11.2344 53.5387 11.645C53.2493 12.051 53.1047 12.639 53.1047 13.409C53.1047 14.179 53.2493 14.767 53.5387 15.173C53.828 15.5744 54.276 15.775 54.8827 15.775Z" fill="#828282"/>
<path d="M59.7737 17V9.81802H60.8307C61.0547 9.81802 61.2017 9.92302 61.2717 10.133L61.3907 10.7C61.5354 10.5507 61.687 10.4154 61.8457 10.294C62.009 10.1727 62.1794 10.0677 62.3567 9.97902C62.5387 9.89036 62.7324 9.82269 62.9377 9.77602C63.143 9.72936 63.367 9.70602 63.6097 9.70602C64.0017 9.70602 64.3494 9.77369 64.6527 9.90902C64.956 10.0397 65.208 10.2264 65.4087 10.469C65.614 10.707 65.768 10.994 65.8707 11.33C65.978 11.6614 66.0317 12.0277 66.0317 12.429V17H64.3027V12.429C64.3027 11.9904 64.2 11.652 63.9947 11.414C63.794 11.1714 63.4907 11.05 63.0847 11.05C62.786 11.05 62.506 11.1177 62.2447 11.253C61.9834 11.3884 61.736 11.5727 61.5027 11.806V17H59.7737Z" fill="#828282"/>
<path d="M70.0897 17.112C69.4691 17.112 68.9907 16.937 68.6547 16.587C68.3187 16.2324 68.1507 15.7447 68.1507 15.124V11.113H67.4227C67.3294 11.113 67.2477 11.0827 67.1777 11.022C67.1124 10.9614 67.0797 10.8704 67.0797 10.749V10.063L68.2347 9.87402L68.5987 7.91402C68.6174 7.82069 68.6594 7.74836 68.7247 7.69702C68.7947 7.64569 68.8811 7.62002 68.9837 7.62002H69.8797V9.88102H71.7697V11.113H69.8797V15.005C69.8797 15.229 69.9357 15.404 70.0477 15.53C70.1597 15.656 70.3091 15.719 70.4957 15.719C70.6031 15.719 70.6917 15.7074 70.7617 15.684C70.8364 15.656 70.8994 15.628 70.9507 15.6C71.0067 15.572 71.0557 15.5464 71.0977 15.523C71.1397 15.495 71.1817 15.481 71.2237 15.481C71.2751 15.481 71.3171 15.495 71.3497 15.523C71.3824 15.5464 71.4174 15.5837 71.4547 15.635L71.9727 16.475C71.7207 16.685 71.4314 16.8437 71.1047 16.951C70.7781 17.0584 70.4397 17.112 70.0897 17.112Z" fill="#828282"/>
<path d="M78.7728 17H77.9958C77.8325 17 77.7041 16.9767 77.6108 16.93C77.5175 16.8787 77.4475 16.7784 77.4008 16.629L77.2468 16.118C77.0648 16.2814 76.8851 16.426 76.7078 16.552C76.5351 16.6734 76.3555 16.776 76.1688 16.86C75.9821 16.944 75.7838 17.007 75.5738 17.049C75.3638 17.091 75.1305 17.112 74.8738 17.112C74.5705 17.112 74.2905 17.0724 74.0338 16.993C73.7771 16.909 73.5555 16.7854 73.3688 16.622C73.1868 16.4587 73.0445 16.2557 72.9418 16.013C72.8391 15.7704 72.7878 15.488 72.7878 15.166C72.7878 14.8954 72.8578 14.6294 72.9978 14.368C73.1425 14.102 73.3805 13.864 73.7118 13.654C74.0431 13.4394 74.4841 13.262 75.0348 13.122C75.5854 12.982 76.2691 12.9027 77.0858 12.884V12.464C77.0858 11.9834 76.9831 11.6287 76.7778 11.4C76.5771 11.1667 76.2831 11.05 75.8958 11.05C75.6158 11.05 75.3825 11.0827 75.1958 11.148C75.0091 11.2134 74.8458 11.288 74.7058 11.372C74.5705 11.4514 74.4444 11.5237 74.3278 11.589C74.2111 11.6544 74.0828 11.687 73.9428 11.687C73.8261 11.687 73.7258 11.6567 73.6418 11.596C73.5578 11.5354 73.4901 11.4607 73.4388 11.372L73.1238 10.819C73.9498 10.063 74.9461 9.68502 76.1128 9.68502C76.5328 9.68502 76.9061 9.75502 77.2328 9.89502C77.5641 10.0304 77.8441 10.2217 78.0728 10.469C78.3015 10.7117 78.4741 11.0034 78.5908 11.344C78.7121 11.6847 78.7728 12.058 78.7728 12.464V17ZM75.4128 15.922C75.5901 15.922 75.7535 15.9057 75.9028 15.873C76.0521 15.8404 76.1921 15.7914 76.3228 15.726C76.4581 15.6607 76.5865 15.5814 76.7078 15.488C76.8338 15.39 76.9598 15.2757 77.0858 15.145V13.934C76.5818 13.9574 76.1595 14.0017 75.8188 14.067C75.4828 14.1277 75.2121 14.207 75.0068 14.305C74.8014 14.403 74.6545 14.5174 74.5658 14.648C74.4818 14.7787 74.4398 14.921 74.4398 15.075C74.4398 15.3784 74.5285 15.5954 74.7058 15.726C74.8878 15.8567 75.1235 15.922 75.4128 15.922Z" fill="#828282"/>
<path d="M85.5199 11.337C85.4686 11.4024 85.4172 11.4537 85.3659 11.491C85.3192 11.5284 85.2492 11.547 85.1559 11.547C85.0672 11.547 84.9809 11.5214 84.8969 11.47C84.8129 11.414 84.7126 11.3534 84.5959 11.288C84.4792 11.218 84.3392 11.1574 84.1759 11.106C84.0172 11.05 83.8189 11.022 83.5809 11.022C83.2776 11.022 83.0116 11.078 82.7829 11.19C82.5542 11.2974 82.3629 11.4537 82.2089 11.659C82.0596 11.8644 81.9476 12.114 81.8729 12.408C81.7982 12.6974 81.7609 13.0264 81.7609 13.395C81.7609 13.7777 81.8006 14.1184 81.8799 14.417C81.9639 14.7157 82.0829 14.9677 82.2369 15.173C82.3909 15.3737 82.5776 15.5277 82.7969 15.635C83.0162 15.7377 83.2636 15.789 83.5389 15.789C83.8142 15.789 84.0359 15.7564 84.2039 15.691C84.3766 15.621 84.5212 15.5464 84.6379 15.467C84.7546 15.383 84.8549 15.3084 84.9389 15.243C85.0276 15.173 85.1256 15.138 85.2329 15.138C85.3729 15.138 85.4779 15.1917 85.5479 15.299L86.0449 15.929C85.8536 16.153 85.6459 16.342 85.4219 16.496C85.1979 16.6454 84.9646 16.7667 84.7219 16.86C84.4839 16.9487 84.2366 17.0117 83.9799 17.049C83.7232 17.0864 83.4689 17.105 83.2169 17.105C82.7736 17.105 82.3559 17.0234 81.9639 16.86C81.5719 16.692 81.2289 16.4494 80.9349 16.132C80.6456 15.8147 80.4146 15.4274 80.2419 14.97C80.0739 14.508 79.9899 13.983 79.9899 13.395C79.9899 12.8677 80.0646 12.38 80.2139 11.932C80.3679 11.4794 80.5919 11.0897 80.8859 10.763C81.1799 10.4317 81.5439 10.1727 81.9779 9.98602C82.4119 9.79936 82.9112 9.70602 83.4759 9.70602C84.0126 9.70602 84.4816 9.79236 84.8829 9.96502C85.2889 10.1377 85.6529 10.385 85.9749 10.707L85.5199 11.337Z" fill="#828282"/>
<path d="M89.5038 17.112C88.8831 17.112 88.4048 16.937 88.0688 16.587C87.7328 16.2324 87.5648 15.7447 87.5648 15.124V11.113H86.8368C86.7435 11.113 86.6618 11.0827 86.5918 11.022C86.5264 10.9614 86.4938 10.8704 86.4938 10.749V10.063L87.6488 9.87402L88.0128 7.91402C88.0315 7.82069 88.0735 7.74836 88.1388 7.69702C88.2088 7.64569 88.2951 7.62002 88.3978 7.62002H89.2938V9.88102H91.1838V11.113H89.2938V15.005C89.2938 15.229 89.3498 15.404 89.4618 15.53C89.5738 15.656 89.7231 15.719 89.9098 15.719C90.0171 15.719 90.1058 15.7074 90.1758 15.684C90.2505 15.656 90.3134 15.628 90.3648 15.6C90.4208 15.572 90.4698 15.5464 90.5118 15.523C90.5538 15.495 90.5958 15.481 90.6378 15.481C90.6891 15.481 90.7311 15.495 90.7638 15.523C90.7965 15.5464 90.8314 15.5837 90.8688 15.635L91.3868 16.475C91.1348 16.685 90.8455 16.8437 90.5188 16.951C90.1921 17.0584 89.8538 17.112 89.5038 17.112Z" fill="#828282"/>
<path d="M100.446 12.8C100.525 12.9494 100.598 13.1057 100.663 13.269C100.733 13.4277 100.801 13.5887 100.866 13.752C100.931 13.584 100.999 13.4184 101.069 13.255C101.139 13.0917 101.214 12.9354 101.293 12.786L104.289 7.17902C104.326 7.10902 104.364 7.05302 104.401 7.01102C104.443 6.96902 104.487 6.93869 104.534 6.92002C104.585 6.90136 104.641 6.88969 104.702 6.88502C104.763 6.88036 104.835 6.87802 104.919 6.87802H106.34V17H104.681V10.462C104.681 10.3407 104.683 10.2077 104.688 10.063C104.697 9.91836 104.709 9.77136 104.723 9.62202L101.664 15.362C101.594 15.4927 101.503 15.5954 101.391 15.67C101.279 15.74 101.148 15.775 100.999 15.775H100.74C100.591 15.775 100.46 15.74 100.348 15.67C100.236 15.5954 100.145 15.4927 100.075 15.362L96.9739 9.60102C96.9925 9.75502 97.0042 9.90669 97.0089 10.056C97.0182 10.2007 97.0229 10.336 97.0229 10.462V17H95.3639V6.87802H96.7849C96.8689 6.87802 96.9412 6.88036 97.0019 6.88502C97.0625 6.88969 97.1162 6.90136 97.1629 6.92002C97.2142 6.93869 97.2609 6.96902 97.3029 7.01102C97.3449 7.05302 97.3845 7.10902 97.4219 7.17902L100.446 12.8Z" fill="#828282"/>
<path d="M108.282 17V9.81802H109.297C109.474 9.81802 109.598 9.85069 109.668 9.91602C109.738 9.98136 109.784 10.0934 109.808 10.252L109.913 11.12C110.169 10.6767 110.47 10.3267 110.816 10.07C111.161 9.81336 111.548 9.68502 111.978 9.68502C112.332 9.68502 112.626 9.76669 112.86 9.93002L112.636 11.225C112.622 11.309 112.591 11.3697 112.545 11.407C112.498 11.4397 112.435 11.456 112.356 11.456C112.286 11.456 112.19 11.4397 112.069 11.407C111.947 11.3744 111.786 11.358 111.586 11.358C111.226 11.358 110.918 11.4584 110.662 11.659C110.405 11.855 110.188 12.1444 110.011 12.527V17H108.282Z" fill="#828282"/>
<path d="M123.759 14.613C123.862 14.613 123.951 14.6527 124.025 14.732L124.767 15.537C124.357 16.0457 123.85 16.4354 123.248 16.706C122.651 16.9767 121.932 17.112 121.092 17.112C120.341 17.112 119.664 16.9837 119.062 16.727C118.465 16.4704 117.954 16.1134 117.529 15.656C117.105 15.1987 116.778 14.6527 116.549 14.018C116.325 13.3834 116.213 12.6904 116.213 11.939C116.213 11.1784 116.339 10.483 116.591 9.85302C116.843 9.21836 117.198 8.67236 117.655 8.21502C118.113 7.75769 118.659 7.40302 119.293 7.15102C119.933 6.89436 120.637 6.76602 121.407 6.76602C122.159 6.76602 122.814 6.88736 123.374 7.13002C123.939 7.36802 124.422 7.68536 124.823 8.08202L124.193 8.95702C124.156 9.01302 124.107 9.06202 124.046 9.10402C123.99 9.14602 123.911 9.16702 123.808 9.16702C123.701 9.16702 123.591 9.12502 123.479 9.04102C123.367 8.95702 123.225 8.86602 123.052 8.76802C122.88 8.67002 122.66 8.57902 122.394 8.49502C122.133 8.41102 121.799 8.36902 121.393 8.36902C120.917 8.36902 120.479 8.45302 120.077 8.62102C119.681 8.78436 119.338 9.02002 119.048 9.32802C118.764 9.63602 118.54 10.0117 118.376 10.455C118.218 10.8937 118.138 11.3884 118.138 11.939C118.138 12.5084 118.218 13.0147 118.376 13.458C118.54 13.9014 118.759 14.2747 119.034 14.578C119.31 14.8814 119.634 15.1147 120.007 15.278C120.381 15.4367 120.782 15.516 121.211 15.516C121.468 15.516 121.699 15.502 121.904 15.474C122.114 15.446 122.306 15.4017 122.478 15.341C122.656 15.2804 122.821 15.2034 122.975 15.11C123.134 15.012 123.29 14.893 123.444 14.753C123.491 14.711 123.54 14.6784 123.591 14.655C123.643 14.627 123.699 14.613 123.759 14.613Z" fill="#828282"/>
<path d="M131.724 17H130.947C130.784 17 130.655 16.9767 130.562 16.93C130.469 16.8787 130.399 16.7784 130.352 16.629L130.198 16.118C130.016 16.2814 129.836 16.426 129.659 16.552C129.486 16.6734 129.307 16.776 129.12 16.86C128.933 16.944 128.735 17.007 128.525 17.049C128.315 17.091 128.082 17.112 127.825 17.112C127.522 17.112 127.242 17.0724 126.985 16.993C126.728 16.909 126.507 16.7854 126.32 16.622C126.138 16.4587 125.996 16.2557 125.893 16.013C125.79 15.7704 125.739 15.488 125.739 15.166C125.739 14.8954 125.809 14.6294 125.949 14.368C126.094 14.102 126.332 13.864 126.663 13.654C126.994 13.4394 127.435 13.262 127.986 13.122C128.537 12.982 129.22 12.9027 130.037 12.884V12.464C130.037 11.9834 129.934 11.6287 129.729 11.4C129.528 11.1667 129.234 11.05 128.847 11.05C128.567 11.05 128.334 11.0827 128.147 11.148C127.96 11.2134 127.797 11.288 127.657 11.372C127.522 11.4514 127.396 11.5237 127.279 11.589C127.162 11.6544 127.034 11.687 126.894 11.687C126.777 11.687 126.677 11.6567 126.593 11.596C126.509 11.5354 126.441 11.4607 126.39 11.372L126.075 10.819C126.901 10.063 127.897 9.68502 129.064 9.68502C129.484 9.68502 129.857 9.75502 130.184 9.89502C130.515 10.0304 130.795 10.2217 131.024 10.469C131.253 10.7117 131.425 11.0034 131.542 11.344C131.663 11.6847 131.724 12.058 131.724 12.464V17ZM128.364 15.922C128.541 15.922 128.705 15.9057 128.854 15.873C129.003 15.8404 129.143 15.7914 129.274 15.726C129.409 15.6607 129.538 15.5814 129.659 15.488C129.785 15.39 129.911 15.2757 130.037 15.145V13.934C129.533 13.9574 129.111 14.0017 128.77 14.067C128.434 14.1277 128.163 14.207 127.958 14.305C127.753 14.403 127.606 14.5174 127.517 14.648C127.433 14.7787 127.391 14.921 127.391 15.075C127.391 15.3784 127.48 15.5954 127.657 15.726C127.839 15.8567 128.075 15.922 128.364 15.922Z" fill="#828282"/>
<path d="M135.265 6.59802V17H133.536V6.59802H135.265Z" fill="#828282"/>
<path d="M140.193 9.70602C140.646 9.70602 141.061 9.77836 141.439 9.92302C141.822 10.0677 142.151 10.28 142.426 10.56C142.701 10.8354 142.916 11.176 143.07 11.582C143.224 11.9834 143.301 12.443 143.301 12.961C143.301 13.0917 143.294 13.2014 143.28 13.29C143.271 13.374 143.25 13.4417 143.217 13.493C143.189 13.5397 143.149 13.5747 143.098 13.598C143.047 13.6167 142.981 13.626 142.902 13.626H138.464C138.515 14.3634 138.714 14.9047 139.059 15.25C139.404 15.5954 139.862 15.768 140.431 15.768C140.711 15.768 140.951 15.7354 141.152 15.67C141.357 15.6047 141.535 15.5324 141.684 15.453C141.838 15.3737 141.971 15.3014 142.083 15.236C142.2 15.1707 142.312 15.138 142.419 15.138C142.489 15.138 142.55 15.152 142.601 15.18C142.652 15.208 142.697 15.2477 142.734 15.299L143.238 15.929C143.047 16.153 142.832 16.342 142.594 16.496C142.356 16.6454 142.106 16.7667 141.845 16.86C141.588 16.9487 141.325 17.0117 141.054 17.049C140.788 17.0864 140.529 17.105 140.277 17.105C139.778 17.105 139.313 17.0234 138.884 16.86C138.455 16.692 138.081 16.447 137.764 16.125C137.447 15.7984 137.197 15.397 137.015 14.921C136.833 14.4404 136.742 13.885 136.742 13.255C136.742 12.765 136.821 12.3054 136.98 11.876C137.139 11.442 137.365 11.0664 137.659 10.749C137.958 10.427 138.319 10.1727 138.744 9.98602C139.173 9.79936 139.656 9.70602 140.193 9.70602ZM140.228 10.945C139.724 10.945 139.33 11.0874 139.045 11.372C138.76 11.6567 138.578 12.0604 138.499 12.583H141.747C141.747 12.359 141.717 12.149 141.656 11.953C141.595 11.7524 141.502 11.5774 141.376 11.428C141.25 11.2787 141.091 11.162 140.9 11.078C140.709 10.9894 140.485 10.945 140.228 10.945Z" fill="#828282"/>
<path d="M144.724 17V6.59802H146.453V10.7C146.738 10.3967 147.06 10.1564 147.419 9.97902C147.779 9.79702 148.199 9.70602 148.679 9.70602C149.071 9.70602 149.428 9.78769 149.75 9.95102C150.077 10.1097 150.357 10.343 150.59 10.651C150.828 10.959 151.01 11.3394 151.136 11.792C151.267 12.2447 151.332 12.765 151.332 13.353C151.332 13.8897 151.26 14.3867 151.115 14.844C150.971 15.3014 150.763 15.698 150.492 16.034C150.226 16.37 149.902 16.6337 149.519 16.825C149.141 17.0117 148.717 17.105 148.245 17.105C148.026 17.105 147.825 17.0817 147.643 17.035C147.461 16.993 147.296 16.9324 147.146 16.853C146.997 16.7737 146.857 16.678 146.726 16.566C146.6 16.4494 146.479 16.321 146.362 16.181L146.285 16.664C146.257 16.7854 146.208 16.8717 146.138 16.923C146.073 16.9744 145.982 17 145.865 17H144.724ZM148.084 11.05C147.725 11.05 147.417 11.127 147.16 11.281C146.908 11.4304 146.673 11.6427 146.453 11.918V15.138C146.649 15.3807 146.862 15.551 147.09 15.649C147.324 15.7424 147.576 15.789 147.846 15.789C148.108 15.789 148.343 15.74 148.553 15.642C148.763 15.544 148.941 15.3947 149.085 15.194C149.235 14.9934 149.349 14.7414 149.428 14.438C149.508 14.13 149.547 13.7684 149.547 13.353C149.547 12.933 149.512 12.5784 149.442 12.289C149.377 11.995 149.281 11.757 149.155 11.575C149.029 11.393 148.875 11.26 148.693 11.176C148.516 11.092 148.313 11.05 148.084 11.05Z" fill="#828282"/>
<path d="M155.171 12.051H158.797V13.493H155.171V12.051Z" fill="#828282"/>
<path d="M166.731 17H165.163L162.307 9.81802H163.742C163.868 9.81802 163.973 9.84836 164.057 9.90902C164.146 9.96969 164.206 10.0467 164.239 10.14L165.625 13.976C165.704 14.2 165.77 14.4194 165.821 14.634C165.877 14.8487 165.926 15.0634 165.968 15.278C166.01 15.0634 166.057 14.8487 166.108 14.634C166.164 14.4194 166.234 14.2 166.318 13.976L167.739 10.14C167.772 10.0467 167.83 9.96969 167.914 9.90902C167.998 9.84836 168.098 9.81802 168.215 9.81802H169.58L166.731 17Z" fill="#828282"/>
<path d="M172.439 9.81802V17H170.71V9.81802H172.439ZM172.698 7.72502C172.698 7.87436 172.668 8.01436 172.607 8.14502C172.546 8.27569 172.465 8.39002 172.362 8.48802C172.264 8.58602 172.147 8.66536 172.012 8.72602C171.877 8.78202 171.732 8.81002 171.578 8.81002C171.429 8.81002 171.286 8.78202 171.151 8.72602C171.02 8.66536 170.906 8.58602 170.808 8.48802C170.71 8.39002 170.631 8.27569 170.57 8.14502C170.514 8.01436 170.486 7.87436 170.486 7.72502C170.486 7.57102 170.514 7.42636 170.57 7.29102C170.631 7.15569 170.71 7.03902 170.808 6.94102C170.906 6.84302 171.02 6.76602 171.151 6.71002C171.286 6.64936 171.429 6.61902 171.578 6.61902C171.732 6.61902 171.877 6.64936 172.012 6.71002C172.147 6.76602 172.264 6.84302 172.362 6.94102C172.465 7.03902 172.546 7.15569 172.607 7.29102C172.668 7.42636 172.698 7.57102 172.698 7.72502Z" fill="#828282"/>
<path d="M179.453 17C179.229 17 179.082 16.895 179.012 16.685L178.872 15.992C178.722 16.16 178.566 16.3117 178.403 16.447C178.239 16.5824 178.062 16.699 177.871 16.797C177.684 16.895 177.481 16.9697 177.262 17.021C177.047 17.077 176.814 17.105 176.562 17.105C176.17 17.105 175.81 17.0234 175.484 16.86C175.157 16.6967 174.875 16.461 174.637 16.153C174.403 15.8404 174.221 15.4554 174.091 14.998C173.965 14.5407 173.902 14.018 173.902 13.43C173.902 12.898 173.974 12.4034 174.119 11.946C174.263 11.4887 174.471 11.092 174.742 10.756C175.012 10.42 175.337 10.1587 175.715 9.97202C176.093 9.78069 176.517 9.68502 176.989 9.68502C177.39 9.68502 177.733 9.75036 178.018 9.88102C178.302 10.007 178.557 10.1774 178.781 10.392V6.59802H180.51V17H179.453ZM177.15 15.733C177.509 15.733 177.815 15.6584 178.067 15.509C178.319 15.3597 178.557 15.1474 178.781 14.872V11.652C178.585 11.414 178.37 11.246 178.137 11.148C177.908 11.05 177.661 11.001 177.395 11.001C177.133 11.001 176.895 11.05 176.681 11.148C176.471 11.246 176.291 11.3954 176.142 11.596C175.997 11.792 175.885 12.044 175.806 12.352C175.726 12.6554 175.687 13.0147 175.687 13.43C175.687 13.85 175.719 14.207 175.785 14.501C175.855 14.7904 175.953 15.0284 176.079 15.215C176.205 15.397 176.359 15.53 176.541 15.614C176.723 15.6934 176.926 15.733 177.15 15.733Z" fill="#828282"/>
<path d="M185.351 9.70602C185.804 9.70602 186.219 9.77836 186.597 9.92302C186.98 10.0677 187.309 10.28 187.584 10.56C187.859 10.8354 188.074 11.176 188.228 11.582C188.382 11.9834 188.459 12.443 188.459 12.961C188.459 13.0917 188.452 13.2014 188.438 13.29C188.429 13.374 188.408 13.4417 188.375 13.493C188.347 13.5397 188.307 13.5747 188.256 13.598C188.205 13.6167 188.139 13.626 188.06 13.626H183.622C183.673 14.3634 183.872 14.9047 184.217 15.25C184.562 15.5954 185.02 15.768 185.589 15.768C185.869 15.768 186.109 15.7354 186.31 15.67C186.515 15.6047 186.693 15.5324 186.842 15.453C186.996 15.3737 187.129 15.3014 187.241 15.236C187.358 15.1707 187.47 15.138 187.577 15.138C187.647 15.138 187.708 15.152 187.759 15.18C187.81 15.208 187.855 15.2477 187.892 15.299L188.396 15.929C188.205 16.153 187.99 16.342 187.752 16.496C187.514 16.6454 187.264 16.7667 187.003 16.86C186.746 16.9487 186.483 17.0117 186.212 17.049C185.946 17.0864 185.687 17.105 185.435 17.105C184.936 17.105 184.471 17.0234 184.042 16.86C183.613 16.692 183.239 16.447 182.922 16.125C182.605 15.7984 182.355 15.397 182.173 14.921C181.991 14.4404 181.9 13.885 181.9 13.255C181.9 12.765 181.979 12.3054 182.138 11.876C182.297 11.442 182.523 11.0664 182.817 10.749C183.116 10.427 183.477 10.1727 183.902 9.98602C184.331 9.79936 184.814 9.70602 185.351 9.70602ZM185.386 10.945C184.882 10.945 184.488 11.0874 184.203 11.372C183.918 11.6567 183.736 12.0604 183.657 12.583H186.905C186.905 12.359 186.875 12.149 186.814 11.953C186.753 11.7524 186.66 11.5774 186.534 11.428C186.408 11.2787 186.249 11.162 186.058 11.078C185.867 10.9894 185.643 10.945 185.386 10.945Z" fill="#828282"/>
<path d="M192.928 9.70602C193.464 9.70602 193.95 9.79236 194.384 9.96502C194.822 10.1377 195.196 10.3827 195.504 10.7C195.812 11.0174 196.05 11.4047 196.218 11.862C196.386 12.3194 196.47 12.8304 196.47 13.395C196.47 13.9644 196.386 14.4777 196.218 14.935C196.05 15.3924 195.812 15.782 195.504 16.104C195.196 16.426 194.822 16.6734 194.384 16.846C193.95 17.0187 193.464 17.105 192.928 17.105C192.391 17.105 191.903 17.0187 191.465 16.846C191.026 16.6734 190.65 16.426 190.338 16.104C190.03 15.782 189.789 15.3924 189.617 14.935C189.449 14.4777 189.365 13.9644 189.365 13.395C189.365 12.8304 189.449 12.3194 189.617 11.862C189.789 11.4047 190.03 11.0174 190.338 10.7C190.65 10.3827 191.026 10.1377 191.465 9.96502C191.903 9.79236 192.391 9.70602 192.928 9.70602ZM192.928 15.775C193.525 15.775 193.966 15.5744 194.251 15.173C194.54 14.7717 194.685 14.1837 194.685 13.409C194.685 12.6344 194.54 12.044 194.251 11.638C193.966 11.232 193.525 11.029 192.928 11.029C192.321 11.029 191.873 11.2344 191.584 11.645C191.294 12.051 191.15 12.639 191.15 13.409C191.15 14.179 191.294 14.767 191.584 15.173C191.873 15.5744 192.321 15.775 192.928 15.775Z" fill="#828282"/>
<path d="M205.573 11.337C205.521 11.4024 205.47 11.4537 205.419 11.491C205.372 11.5284 205.302 11.547 205.209 11.547C205.12 11.547 205.034 11.5214 204.95 11.47C204.866 11.414 204.765 11.3534 204.649 11.288C204.532 11.218 204.392 11.1574 204.229 11.106C204.07 11.05 203.872 11.022 203.634 11.022C203.33 11.022 203.064 11.078 202.836 11.19C202.607 11.2974 202.416 11.4537 202.262 11.659C202.112 11.8644 202 12.114 201.926 12.408C201.851 12.6974 201.814 13.0264 201.814 13.395C201.814 13.7777 201.853 14.1184 201.933 14.417C202.017 14.7157 202.136 14.9677 202.29 15.173C202.444 15.3737 202.63 15.5277 202.85 15.635C203.069 15.7377 203.316 15.789 203.592 15.789C203.867 15.789 204.089 15.7564 204.257 15.691C204.429 15.621 204.574 15.5464 204.691 15.467C204.807 15.383 204.908 15.3084 204.992 15.243C205.08 15.173 205.178 15.138 205.286 15.138C205.426 15.138 205.531 15.1917 205.601 15.299L206.098 15.929C205.906 16.153 205.699 16.342 205.475 16.496C205.251 16.6454 205.017 16.7667 204.775 16.86C204.537 16.9487 204.289 17.0117 204.033 17.049C203.776 17.0864 203.522 17.105 203.27 17.105C202.826 17.105 202.409 17.0234 202.017 16.86C201.625 16.692 201.282 16.4494 200.988 16.132C200.698 15.8147 200.467 15.4274 200.295 14.97C200.127 14.508 200.043 13.983 200.043 13.395C200.043 12.8677 200.117 12.38 200.267 11.932C200.421 11.4794 200.645 11.0897 200.939 10.763C201.233 10.4317 201.597 10.1727 202.031 9.98602C202.465 9.79936 202.964 9.70602 203.529 9.70602C204.065 9.70602 204.534 9.79236 204.936 9.96502C205.342 10.1377 205.706 10.385 206.028 10.707L205.573 11.337Z" fill="#828282"/>
<path d="M210.264 9.70602C210.8 9.70602 211.286 9.79236 211.72 9.96502C212.158 10.1377 212.532 10.3827 212.84 10.7C213.148 11.0174 213.386 11.4047 213.554 11.862C213.722 12.3194 213.806 12.8304 213.806 13.395C213.806 13.9644 213.722 14.4777 213.554 14.935C213.386 15.3924 213.148 15.782 212.84 16.104C212.532 16.426 212.158 16.6734 211.72 16.846C211.286 17.0187 210.8 17.105 210.264 17.105C209.727 17.105 209.239 17.0187 208.801 16.846C208.362 16.6734 207.986 16.426 207.674 16.104C207.366 15.782 207.125 15.3924 206.953 14.935C206.785 14.4777 206.701 13.9644 206.701 13.395C206.701 12.8304 206.785 12.3194 206.953 11.862C207.125 11.4047 207.366 11.0174 207.674 10.7C207.986 10.3827 208.362 10.1377 208.801 9.96502C209.239 9.79236 209.727 9.70602 210.264 9.70602ZM210.264 15.775C210.861 15.775 211.302 15.5744 211.587 15.173C211.876 14.7717 212.021 14.1837 212.021 13.409C212.021 12.6344 211.876 12.044 211.587 11.638C211.302 11.232 210.861 11.029 210.264 11.029C209.657 11.029 209.209 11.2344 208.92 11.645C208.63 12.051 208.486 12.639 208.486 13.409C208.486 14.179 208.63 14.767 208.92 15.173C209.209 15.5744 209.657 15.775 210.264 15.775Z" fill="#828282"/>
<path d="M215.155 17V9.81802H216.212C216.436 9.81802 216.583 9.92302 216.653 10.133L216.772 10.7C216.916 10.5507 217.068 10.4154 217.227 10.294C217.39 10.1727 217.56 10.0677 217.738 9.97902C217.92 9.89036 218.113 9.82269 218.319 9.77602C218.524 9.72936 218.748 9.70602 218.991 9.70602C219.383 9.70602 219.73 9.77369 220.034 9.90902C220.337 10.0397 220.589 10.2264 220.79 10.469C220.995 10.707 221.149 10.994 221.252 11.33C221.359 11.6614 221.413 12.0277 221.413 12.429V17H219.684V12.429C219.684 11.9904 219.581 11.652 219.376 11.414C219.175 11.1714 218.872 11.05 218.466 11.05C218.167 11.05 217.887 11.1177 217.626 11.253C217.364 11.3884 217.117 11.5727 216.884 11.806V17H215.155Z" fill="#828282"/>
<path d="M223.42 17V11.12L222.797 11.022C222.661 10.9987 222.552 10.952 222.468 10.882C222.388 10.812 222.349 10.714 222.349 10.588V9.88102H223.42V9.34902C223.42 8.93836 223.48 8.56969 223.602 8.24302C223.728 7.91636 223.905 7.63869 224.134 7.41002C224.367 7.18136 224.649 7.00636 224.981 6.88502C225.312 6.76369 225.685 6.70302 226.101 6.70302C226.432 6.70302 226.74 6.74736 227.025 6.83602L226.99 7.70402C226.98 7.83936 226.917 7.92336 226.801 7.95602C226.684 7.98869 226.549 8.00502 226.395 8.00502C226.189 8.00502 226.005 8.02836 225.842 8.07502C225.683 8.11702 225.548 8.19402 225.436 8.30602C225.324 8.41336 225.237 8.55802 225.177 8.74002C225.121 8.91736 225.093 9.13902 225.093 9.40502V9.88102H226.962V11.113H225.149V17H223.42Z" fill="#828282"/>
<path d="M230.988 9.70602C231.44 9.70602 231.856 9.77836 232.234 9.92302C232.616 10.0677 232.945 10.28 233.221 10.56C233.496 10.8354 233.711 11.176 233.865 11.582C234.019 11.9834 234.096 12.443 234.096 12.961C234.096 13.0917 234.089 13.2014 234.075 13.29C234.065 13.374 234.044 13.4417 234.012 13.493C233.984 13.5397 233.944 13.5747 233.893 13.598C233.841 13.6167 233.776 13.626 233.697 13.626H229.259C229.31 14.3634 229.508 14.9047 229.854 15.25C230.199 15.5954 230.656 15.768 231.226 15.768C231.506 15.768 231.746 15.7354 231.947 15.67C232.152 15.6047 232.329 15.5324 232.479 15.453C232.633 15.3737 232.766 15.3014 232.878 15.236C232.994 15.1707 233.106 15.138 233.214 15.138C233.284 15.138 233.344 15.152 233.396 15.18C233.447 15.208 233.491 15.2477 233.529 15.299L234.033 15.929C233.841 16.153 233.627 16.342 233.389 16.496C233.151 16.6454 232.901 16.7667 232.64 16.86C232.383 16.9487 232.119 17.0117 231.849 17.049C231.583 17.0864 231.324 17.105 231.072 17.105C230.572 17.105 230.108 17.0234 229.679 16.86C229.249 16.692 228.876 16.447 228.559 16.125C228.241 15.7984 227.992 15.397 227.81 14.921C227.628 14.4404 227.537 13.885 227.537 13.255C227.537 12.765 227.616 12.3054 227.775 11.876C227.933 11.442 228.16 11.0664 228.454 10.749C228.752 10.427 229.114 10.1727 229.539 9.98602C229.968 9.79936 230.451 9.70602 230.988 9.70602ZM231.023 10.945C230.519 10.945 230.124 11.0874 229.84 11.372C229.555 11.6567 229.373 12.0604 229.294 12.583H232.542C232.542 12.359 232.511 12.149 232.451 11.953C232.39 11.7524 232.297 11.5774 232.171 11.428C232.045 11.2787 231.886 11.162 231.695 11.078C231.503 10.9894 231.279 10.945 231.023 10.945Z" fill="#828282"/>
<path d="M235.498 17V9.81802H236.513C236.691 9.81802 236.814 9.85069 236.884 9.91602C236.954 9.98136 237.001 10.0934 237.024 10.252L237.129 11.12C237.386 10.6767 237.687 10.3267 238.032 10.07C238.378 9.81336 238.765 9.68502 239.194 9.68502C239.549 9.68502 239.843 9.76669 240.076 9.93002L239.852 11.225C239.838 11.309 239.808 11.3697 239.761 11.407C239.715 11.4397 239.652 11.456 239.572 11.456C239.502 11.456 239.407 11.4397 239.285 11.407C239.164 11.3744 239.003 11.358 238.802 11.358C238.443 11.358 238.135 11.4584 237.878 11.659C237.622 11.855 237.405 12.1444 237.227 12.527V17H235.498Z" fill="#828282"/>
<path d="M244.181 9.70602C244.634 9.70602 245.049 9.77836 245.427 9.92302C245.81 10.0677 246.139 10.28 246.414 10.56C246.689 10.8354 246.904 11.176 247.058 11.582C247.212 11.9834 247.289 12.443 247.289 12.961C247.289 13.0917 247.282 13.2014 247.268 13.29C247.259 13.374 247.238 13.4417 247.205 13.493C247.177 13.5397 247.137 13.5747 247.086 13.598C247.035 13.6167 246.969 13.626 246.89 13.626H242.452C242.503 14.3634 242.702 14.9047 243.047 15.25C243.392 15.5954 243.85 15.768 244.419 15.768C244.699 15.768 244.939 15.7354 245.14 15.67C245.345 15.6047 245.523 15.5324 245.672 15.453C245.826 15.3737 245.959 15.3014 246.071 15.236C246.188 15.1707 246.3 15.138 246.407 15.138C246.477 15.138 246.538 15.152 246.589 15.18C246.64 15.208 246.685 15.2477 246.722 15.299L247.226 15.929C247.035 16.153 246.82 16.342 246.582 16.496C246.344 16.6454 246.094 16.7667 245.833 16.86C245.576 16.9487 245.313 17.0117 245.042 17.049C244.776 17.0864 244.517 17.105 244.265 17.105C243.766 17.105 243.301 17.0234 242.872 16.86C242.443 16.692 242.069 16.447 241.752 16.125C241.435 15.7984 241.185 15.397 241.003 14.921C240.821 14.4404 240.73 13.885 240.73 13.255C240.73 12.765 240.809 12.3054 240.968 11.876C241.127 11.442 241.353 11.0664 241.647 10.749C241.946 10.427 242.307 10.1727 242.732 9.98602C243.161 9.79936 243.644 9.70602 244.181 9.70602ZM244.216 10.945C243.712 10.945 243.318 11.0874 243.033 11.372C242.748 11.6567 242.566 12.0604 242.487 12.583H245.735C245.735 12.359 245.705 12.149 245.644 11.953C245.583 11.7524 245.49 11.5774 245.364 11.428C245.238 11.2787 245.079 11.162 244.888 11.078C244.697 10.9894 244.473 10.945 244.216 10.945Z" fill="#828282"/>
<path d="M248.692 17V9.81802H249.749C249.973 9.81802 250.12 9.92302 250.19 10.133L250.309 10.7C250.453 10.5507 250.605 10.4154 250.764 10.294C250.927 10.1727 251.097 10.0677 251.275 9.97902C251.457 9.89036 251.65 9.82269 251.856 9.77602C252.061 9.72936 252.285 9.70602 252.528 9.70602C252.92 9.70602 253.267 9.77369 253.571 9.90902C253.874 10.0397 254.126 10.2264 254.327 10.469C254.532 10.707 254.686 10.994 254.789 11.33C254.896 11.6614 254.95 12.0277 254.95 12.429V17H253.221V12.429C253.221 11.9904 253.118 11.652 252.913 11.414C252.712 11.1714 252.409 11.05 252.003 11.05C251.704 11.05 251.424 11.1177 251.163 11.253C250.901 11.3884 250.654 11.5727 250.421 11.806V17H248.692Z" fill="#828282"/>
<path d="M261.696 11.337C261.644 11.4024 261.593 11.4537 261.542 11.491C261.495 11.5284 261.425 11.547 261.332 11.547C261.243 11.547 261.157 11.5214 261.073 11.47C260.989 11.414 260.888 11.3534 260.772 11.288C260.655 11.218 260.515 11.1574 260.352 11.106C260.193 11.05 259.995 11.022 259.757 11.022C259.453 11.022 259.187 11.078 258.959 11.19C258.73 11.2974 258.539 11.4537 258.385 11.659C258.235 11.8644 258.123 12.114 258.049 12.408C257.974 12.6974 257.937 13.0264 257.937 13.395C257.937 13.7777 257.976 14.1184 258.056 14.417C258.14 14.7157 258.259 14.9677 258.413 15.173C258.567 15.3737 258.753 15.5277 258.973 15.635C259.192 15.7377 259.439 15.789 259.715 15.789C259.99 15.789 260.212 15.7564 260.38 15.691C260.552 15.621 260.697 15.5464 260.814 15.467C260.93 15.383 261.031 15.3084 261.115 15.243C261.203 15.173 261.301 15.138 261.409 15.138C261.549 15.138 261.654 15.1917 261.724 15.299L262.221 15.929C262.029 16.153 261.822 16.342 261.598 16.496C261.374 16.6454 261.14 16.7667 260.898 16.86C260.66 16.9487 260.412 17.0117 260.156 17.049C259.899 17.0864 259.645 17.105 259.393 17.105C258.949 17.105 258.532 17.0234 258.14 16.86C257.748 16.692 257.405 16.4494 257.111 16.132C256.821 15.8147 256.59 15.4274 256.418 14.97C256.25 14.508 256.166 13.983 256.166 13.395C256.166 12.8677 256.24 12.38 256.39 11.932C256.544 11.4794 256.768 11.0897 257.062 10.763C257.356 10.4317 257.72 10.1727 258.154 9.98602C258.588 9.79936 259.087 9.70602 259.652 9.70602C260.188 9.70602 260.657 9.79236 261.059 9.96502C261.465 10.1377 261.829 10.385 262.151 10.707L261.696 11.337Z" fill="#828282"/>
<path d="M266.289 9.70602C266.741 9.70602 267.157 9.77836 267.535 9.92302C267.917 10.0677 268.246 10.28 268.522 10.56C268.797 10.8354 269.012 11.176 269.166 11.582C269.32 11.9834 269.397 12.443 269.397 12.961C269.397 13.0917 269.39 13.2014 269.376 13.29C269.366 13.374 269.345 13.4417 269.313 13.493C269.285 13.5397 269.245 13.5747 269.194 13.598C269.142 13.6167 269.077 13.626 268.998 13.626H264.56C264.611 14.3634 264.809 14.9047 265.155 15.25C265.5 15.5954 265.957 15.768 266.527 15.768C266.807 15.768 267.047 15.7354 267.248 15.67C267.453 15.6047 267.63 15.5324 267.78 15.453C267.934 15.3737 268.067 15.3014 268.179 15.236C268.295 15.1707 268.407 15.138 268.515 15.138C268.585 15.138 268.645 15.152 268.697 15.18C268.748 15.208 268.792 15.2477 268.83 15.299L269.334 15.929C269.142 16.153 268.928 16.342 268.69 16.496C268.452 16.6454 268.202 16.7667 267.941 16.86C267.684 16.9487 267.42 17.0117 267.15 17.049C266.884 17.0864 266.625 17.105 266.373 17.105C265.873 17.105 265.409 17.0234 264.98 16.86C264.55 16.692 264.177 16.447 263.86 16.125C263.542 15.7984 263.293 15.397 263.111 14.921C262.929 14.4404 262.838 13.885 262.838 13.255C262.838 12.765 262.917 12.3054 263.076 11.876C263.234 11.442 263.461 11.0664 263.755 10.749C264.053 10.427 264.415 10.1727 264.84 9.98602C265.269 9.79936 265.752 9.70602 266.289 9.70602ZM266.324 10.945C265.82 10.945 265.425 11.0874 265.141 11.372C264.856 11.6567 264.674 12.0604 264.595 12.583H267.843C267.843 12.359 267.812 12.149 267.752 11.953C267.691 11.7524 267.598 11.5774 267.472 11.428C267.346 11.2787 267.187 11.162 266.996 11.078C266.804 10.9894 266.58 10.945 266.324 10.945Z" fill="#828282"/>
<path d="M270.134 7.79502C270.293 7.65502 270.465 7.52202 270.652 7.39602C270.843 7.27002 271.049 7.16036 271.268 7.06702C271.487 6.97369 271.725 6.90136 271.982 6.85002C272.239 6.79402 272.516 6.76602 272.815 6.76602C273.221 6.76602 273.59 6.82202 273.921 6.93402C274.257 7.04602 274.544 7.20702 274.782 7.41702C275.02 7.62236 275.204 7.87202 275.335 8.16602C275.466 8.46002 275.531 8.78902 275.531 9.15302C275.531 9.50769 275.48 9.81569 275.377 10.077C275.274 10.3337 275.144 10.5577 274.985 10.749C274.831 10.9404 274.663 11.106 274.481 11.246C274.299 11.386 274.126 11.519 273.963 11.645C273.8 11.7664 273.657 11.8877 273.536 12.009C273.419 12.1257 273.349 12.2587 273.326 12.408L273.165 13.43H271.982L271.863 12.289C271.858 12.2657 271.856 12.247 271.856 12.233C271.856 12.2144 271.856 12.1934 271.856 12.17C271.856 11.9647 271.907 11.7874 272.01 11.638C272.113 11.484 272.241 11.3417 272.395 11.211C272.549 11.0757 272.715 10.945 272.892 10.819C273.069 10.693 273.235 10.5577 273.389 10.413C273.543 10.2637 273.671 10.0957 273.774 9.90902C273.877 9.72236 273.928 9.50302 273.928 9.25102C273.928 9.08302 273.895 8.93369 273.83 8.80302C273.769 8.66769 273.683 8.55336 273.571 8.46002C273.459 8.36202 273.324 8.28736 273.165 8.23602C273.011 8.18469 272.843 8.15902 272.661 8.15902C272.395 8.15902 272.169 8.18936 271.982 8.25002C271.8 8.30602 271.644 8.37136 271.513 8.44602C271.387 8.51602 271.28 8.58136 271.191 8.64202C271.102 8.69802 271.023 8.72602 270.953 8.72602C270.785 8.72602 270.664 8.65602 270.589 8.51602L270.134 7.79502ZM271.457 16.048C271.457 15.9034 271.483 15.7657 271.534 15.635C271.59 15.5044 271.665 15.3924 271.758 15.299C271.856 15.2057 271.97 15.131 272.101 15.075C272.232 15.019 272.372 14.991 272.521 14.991C272.666 14.991 272.803 15.019 272.934 15.075C273.065 15.131 273.177 15.2057 273.27 15.299C273.363 15.3924 273.438 15.5044 273.494 15.635C273.55 15.7657 273.578 15.9034 273.578 16.048C273.578 16.1974 273.55 16.3374 273.494 16.468C273.438 16.594 273.363 16.7037 273.27 16.797C273.177 16.8904 273.065 16.9627 272.934 17.014C272.803 17.07 272.666 17.098 272.521 17.098C272.372 17.098 272.232 17.07 272.101 17.014C271.97 16.9627 271.856 16.8904 271.758 16.797C271.665 16.7037 271.59 16.594 271.534 16.468C271.483 16.3374 271.457 16.1974 271.457 16.048Z" fill="#828282"/>
<path fill-rule="evenodd" clip-rule="evenodd" d="M19.5 3H5.5C4.4 3 3.5 3.9 3.5 5V19C3.5 20.1 4.4 21 5.5 21H19.5C20.6 21 21.5 20.1 21.5 19V5C21.5 3.9 20.6 3 19.5 3ZM19.5 19H5.5V5H19.5V19ZM17.08 7.58L18.49 9L10.49 17L6.49 13.01L7.91 11.6L10.49 14.17L17.08 7.58Z" fill="#828282"/>
<path fill-rule="evenodd" clip-rule="evenodd" d="M288.5 13L37.5 13L37.5 12L288.5 12L288.5 13Z" fill="#828282"/>
</svg>
