<svg width="194" height="40" viewBox="0 0 194 40" fill="none" xmlns="http://www.w3.org/2000/svg">
<path d="M16.4627 25.912H18.9267V18.096C18.9267 17.8613 18.9347 17.624 18.9507 17.384L16.9027 19.136C16.8494 19.1787 16.796 19.2107 16.7427 19.232C16.6894 19.248 16.6387 19.256 16.5907 19.256C16.5107 19.256 16.4387 19.24 16.3747 19.208C16.3107 19.1707 16.2627 19.128 16.2307 19.08L15.7827 18.464L19.1907 15.512H20.3507V25.912H22.6067V27H16.4627V25.912Z" fill="#4F4F4F"/>
<path d="M28.256 15.408C28.7413 15.408 29.1946 15.48 29.616 15.624C30.0373 15.768 30.4 15.9787 30.704 16.256C31.0133 16.528 31.256 16.8613 31.432 17.256C31.608 17.6507 31.696 18.0987 31.696 18.6C31.696 19.0267 31.632 19.4213 31.504 19.784C31.376 20.1467 31.2026 20.496 30.984 20.832C30.7653 21.1627 30.512 21.4853 30.224 21.8C29.9413 22.1093 29.64 22.4267 29.32 22.752L26.304 25.84C26.5173 25.7813 26.7333 25.736 26.952 25.704C27.1706 25.6667 27.3813 25.648 27.584 25.648H31.424C31.5786 25.648 31.7013 25.6933 31.792 25.784C31.8826 25.8747 31.928 25.992 31.928 26.136V27H24.28V26.512C24.28 26.4107 24.2986 26.3067 24.336 26.2C24.3786 26.0933 24.4453 25.9947 24.536 25.904L28.208 22.216C28.512 21.9067 28.7893 21.6107 29.04 21.328C29.2906 21.04 29.504 20.752 29.68 20.464C29.8613 20.176 30 19.8853 30.096 19.592C30.192 19.2933 30.24 18.976 30.24 18.64C30.24 18.304 30.1866 18.0107 30.08 17.76C29.9733 17.504 29.8266 17.2933 29.64 17.128C29.4533 16.9627 29.2346 16.84 28.984 16.76C28.7333 16.6747 28.464 16.632 28.176 16.632C27.888 16.632 27.6213 16.6747 27.376 16.76C27.1306 16.8453 26.912 16.9653 26.72 17.12C26.5333 17.2693 26.3733 17.448 26.24 17.656C26.112 17.864 26.0213 18.0933 25.968 18.344C25.9253 18.4987 25.8613 18.6107 25.776 18.68C25.6906 18.7493 25.5786 18.784 25.44 18.784C25.4133 18.784 25.384 18.784 25.352 18.784C25.3253 18.7787 25.2933 18.7733 25.256 18.768L24.512 18.64C24.5866 18.1173 24.7306 17.656 24.944 17.256C25.1573 16.8507 25.4266 16.512 25.752 16.24C26.0826 15.968 26.4586 15.7627 26.88 15.624C27.3066 15.48 27.7653 15.408 28.256 15.408Z" fill="#4F4F4F"/>
<path d="M34.0172 27.168C33.9425 27.3547 33.8305 27.4933 33.6812 27.584C33.5372 27.6747 33.3879 27.72 33.2332 27.72H32.6332L37.4412 15.744C37.5105 15.5733 37.6092 15.4427 37.7372 15.352C37.8652 15.2613 38.0172 15.216 38.1932 15.216H38.7932L34.0172 27.168Z" fill="#4F4F4F"/>
<path d="M47.498 21.272C47.498 22.2747 47.3886 23.144 47.17 23.88C46.9566 24.6107 46.6633 25.216 46.29 25.696C45.9166 26.176 45.474 26.5333 44.962 26.768C44.4553 27.0027 43.9113 27.12 43.33 27.12C42.7433 27.12 42.1966 27.0027 41.69 26.768C41.1886 26.5333 40.7513 26.176 40.378 25.696C40.0046 25.216 39.7113 24.6107 39.498 23.88C39.2846 23.144 39.178 22.2747 39.178 21.272C39.178 20.2693 39.2846 19.4 39.498 18.664C39.7113 17.928 40.0046 17.32 40.378 16.84C40.7513 16.3547 41.1886 15.9947 41.69 15.76C42.1966 15.5253 42.7433 15.408 43.33 15.408C43.9113 15.408 44.4553 15.5253 44.962 15.76C45.474 15.9947 45.9166 16.3547 46.29 16.84C46.6633 17.32 46.9566 17.928 47.17 18.664C47.3886 19.4 47.498 20.2693 47.498 21.272ZM46.018 21.272C46.018 20.3973 45.9433 19.664 45.794 19.072C45.65 18.4747 45.4526 17.9947 45.202 17.632C44.9566 17.2693 44.6713 17.0107 44.346 16.856C44.0206 16.696 43.682 16.616 43.33 16.616C42.978 16.616 42.6393 16.696 42.314 16.856C41.9886 17.0107 41.7033 17.2693 41.458 17.632C41.2126 17.9947 41.0153 18.4747 40.866 19.072C40.722 19.664 40.65 20.3973 40.65 21.272C40.65 22.1467 40.722 22.88 40.866 23.472C41.0153 24.064 41.2126 24.5413 41.458 24.904C41.7033 25.2667 41.9886 25.528 42.314 25.688C42.6393 25.8427 42.978 25.92 43.33 25.92C43.682 25.92 44.0206 25.8427 44.346 25.688C44.6713 25.528 44.9566 25.2667 45.202 24.904C45.4526 24.5413 45.65 24.064 45.794 23.472C45.9433 22.88 46.018 22.1467 46.018 21.272Z" fill="#4F4F4F"/>
<path d="M53.1792 19.976C53.6379 19.976 54.0725 20.0533 54.4832 20.208C54.8939 20.3573 55.2539 20.5787 55.5632 20.872C55.8725 21.16 56.1179 21.5173 56.2992 21.944C56.4805 22.3653 56.5712 22.848 56.5712 23.392C56.5712 23.92 56.4752 24.4107 56.2832 24.864C56.0912 25.3173 55.8219 25.712 55.4752 26.048C55.1339 26.384 54.7205 26.648 54.2352 26.84C53.7499 27.032 53.2165 27.128 52.6352 27.128C52.0592 27.128 51.5365 27.0373 51.0672 26.856C50.6032 26.6693 50.2059 26.408 49.8752 26.072C49.5445 25.7307 49.2885 25.32 49.1072 24.84C48.9312 24.3547 48.8432 23.8133 48.8432 23.216C48.8432 22.7147 48.9552 22.1813 49.1792 21.616C49.4032 21.0507 49.7579 20.4427 50.2432 19.792L53.1472 15.88C53.2219 15.784 53.3259 15.704 53.4592 15.64C53.5925 15.5707 53.7445 15.536 53.9152 15.536H55.1792L51.2032 20.568C51.4752 20.3813 51.7765 20.2373 52.1072 20.136C52.4379 20.0293 52.7952 19.976 53.1792 19.976ZM50.2192 23.464C50.2192 23.832 50.2725 24.168 50.3792 24.472C50.4859 24.776 50.6405 25.0373 50.8432 25.256C51.0512 25.4747 51.3019 25.6453 51.5952 25.768C51.8939 25.8853 52.2325 25.944 52.6112 25.944C52.9952 25.944 53.3419 25.8827 53.6512 25.76C53.9605 25.6373 54.2245 25.4667 54.4432 25.248C54.6672 25.0293 54.8379 24.7707 54.9552 24.472C55.0779 24.1733 55.1392 23.848 55.1392 23.496C55.1392 23.1227 55.0805 22.7867 54.9632 22.488C54.8459 22.184 54.6805 21.928 54.4672 21.72C54.2539 21.5067 53.9979 21.344 53.6992 21.232C53.4005 21.12 53.0725 21.064 52.7152 21.064C52.3312 21.064 51.9845 21.1307 51.6752 21.264C51.3659 21.392 51.1019 21.568 50.8832 21.792C50.6699 22.0107 50.5045 22.2667 50.3872 22.56C50.2752 22.848 50.2192 23.1493 50.2192 23.464Z" fill="#4F4F4F"/>
<path d="M58.5485 27.168C58.4738 27.3547 58.3618 27.4933 58.2125 27.584C58.0685 27.6747 57.9191 27.72 57.7645 27.72H57.1645L61.9725 15.744C62.0418 15.5733 62.1405 15.4427 62.2685 15.352C62.3965 15.2613 62.5485 15.216 62.7245 15.216H63.3245L58.5485 27.168Z" fill="#4F4F4F"/>
<path d="M68.0372 15.408C68.5225 15.408 68.9759 15.48 69.3972 15.624C69.8185 15.768 70.1812 15.9787 70.4852 16.256C70.7945 16.528 71.0372 16.8613 71.2132 17.256C71.3892 17.6507 71.4772 18.0987 71.4772 18.6C71.4772 19.0267 71.4132 19.4213 71.2852 19.784C71.1572 20.1467 70.9839 20.496 70.7652 20.832C70.5465 21.1627 70.2932 21.4853 70.0052 21.8C69.7225 22.1093 69.4212 22.4267 69.1012 22.752L66.0852 25.84C66.2985 25.7813 66.5145 25.736 66.7332 25.704C66.9519 25.6667 67.1625 25.648 67.3652 25.648H71.2052C71.3599 25.648 71.4825 25.6933 71.5732 25.784C71.6639 25.8747 71.7092 25.992 71.7092 26.136V27H64.0612V26.512C64.0612 26.4107 64.0799 26.3067 64.1172 26.2C64.1599 26.0933 64.2265 25.9947 64.3172 25.904L67.9892 22.216C68.2932 21.9067 68.5705 21.6107 68.8212 21.328C69.0719 21.04 69.2852 20.752 69.4612 20.464C69.6425 20.176 69.7812 19.8853 69.8772 19.592C69.9732 19.2933 70.0212 18.976 70.0212 18.64C70.0212 18.304 69.9679 18.0107 69.8612 17.76C69.7545 17.504 69.6079 17.2933 69.4212 17.128C69.2345 16.9627 69.0159 16.84 68.7652 16.76C68.5145 16.6747 68.2452 16.632 67.9572 16.632C67.6692 16.632 67.4025 16.6747 67.1572 16.76C66.9119 16.8453 66.6932 16.9653 66.5012 17.12C66.3145 17.2693 66.1545 17.448 66.0212 17.656C65.8932 17.864 65.8025 18.0933 65.7492 18.344C65.7065 18.4987 65.6425 18.6107 65.5572 18.68C65.4719 18.7493 65.3599 18.784 65.2212 18.784C65.1945 18.784 65.1652 18.784 65.1332 18.784C65.1065 18.7787 65.0745 18.7733 65.0372 18.768L64.2932 18.64C64.3679 18.1173 64.5119 17.656 64.7252 17.256C64.9385 16.8507 65.2079 16.512 65.5332 16.24C65.8639 15.968 66.2399 15.7627 66.6612 15.624C67.0879 15.48 67.5465 15.408 68.0372 15.408Z" fill="#4F4F4F"/>
<path d="M81.3105 21.272C81.3105 22.2747 81.2011 23.144 80.9825 23.88C80.7691 24.6107 80.4758 25.216 80.1025 25.696C79.7291 26.176 79.2865 26.5333 78.7745 26.768C78.2678 27.0027 77.7238 27.12 77.1425 27.12C76.5558 27.12 76.0091 27.0027 75.5025 26.768C75.0011 26.5333 74.5638 26.176 74.1905 25.696C73.8171 25.216 73.5238 24.6107 73.3105 23.88C73.0971 23.144 72.9905 22.2747 72.9905 21.272C72.9905 20.2693 73.0971 19.4 73.3105 18.664C73.5238 17.928 73.8171 17.32 74.1905 16.84C74.5638 16.3547 75.0011 15.9947 75.5025 15.76C76.0091 15.5253 76.5558 15.408 77.1425 15.408C77.7238 15.408 78.2678 15.5253 78.7745 15.76C79.2865 15.9947 79.7291 16.3547 80.1025 16.84C80.4758 17.32 80.7691 17.928 80.9825 18.664C81.2011 19.4 81.3105 20.2693 81.3105 21.272ZM79.8305 21.272C79.8305 20.3973 79.7558 19.664 79.6065 19.072C79.4625 18.4747 79.2651 17.9947 79.0145 17.632C78.7691 17.2693 78.4838 17.0107 78.1585 16.856C77.8331 16.696 77.4945 16.616 77.1425 16.616C76.7905 16.616 76.4518 16.696 76.1265 16.856C75.8011 17.0107 75.5158 17.2693 75.2705 17.632C75.0251 17.9947 74.8278 18.4747 74.6785 19.072C74.5345 19.664 74.4625 20.3973 74.4625 21.272C74.4625 22.1467 74.5345 22.88 74.6785 23.472C74.8278 24.064 75.0251 24.5413 75.2705 24.904C75.5158 25.2667 75.8011 25.528 76.1265 25.688C76.4518 25.8427 76.7905 25.92 77.1425 25.92C77.4945 25.92 77.8331 25.8427 78.1585 25.688C78.4838 25.528 78.7691 25.2667 79.0145 24.904C79.2651 24.5413 79.4625 24.064 79.6065 23.472C79.7558 22.88 79.8305 22.1467 79.8305 21.272Z" fill="#4F4F4F"/>
<path d="M86.5997 15.408C87.0851 15.408 87.5384 15.48 87.9597 15.624C88.3811 15.768 88.7437 15.9787 89.0477 16.256C89.357 16.528 89.5997 16.8613 89.7757 17.256C89.9517 17.6507 90.0397 18.0987 90.0397 18.6C90.0397 19.0267 89.9757 19.4213 89.8477 19.784C89.7197 20.1467 89.5464 20.496 89.3277 20.832C89.1091 21.1627 88.8557 21.4853 88.5677 21.8C88.285 22.1093 87.9837 22.4267 87.6637 22.752L84.6477 25.84C84.8611 25.7813 85.077 25.736 85.2957 25.704C85.5144 25.6667 85.7251 25.648 85.9277 25.648H89.7677C89.9224 25.648 90.0451 25.6933 90.1357 25.784C90.2264 25.8747 90.2717 25.992 90.2717 26.136V27H82.6237V26.512C82.6237 26.4107 82.6424 26.3067 82.6797 26.2C82.7224 26.0933 82.789 25.9947 82.8797 25.904L86.5517 22.216C86.8557 21.9067 87.1331 21.6107 87.3837 21.328C87.6344 21.04 87.8477 20.752 88.0237 20.464C88.2051 20.176 88.3437 19.8853 88.4397 19.592C88.5357 19.2933 88.5837 18.976 88.5837 18.64C88.5837 18.304 88.5304 18.0107 88.4237 17.76C88.3171 17.504 88.1704 17.2933 87.9837 17.128C87.7971 16.9627 87.5784 16.84 87.3277 16.76C87.0771 16.6747 86.8077 16.632 86.5197 16.632C86.2317 16.632 85.965 16.6747 85.7197 16.76C85.4744 16.8453 85.2557 16.9653 85.0637 17.12C84.8771 17.2693 84.717 17.448 84.5837 17.656C84.4557 17.864 84.3651 18.0933 84.3117 18.344C84.2691 18.4987 84.2051 18.6107 84.1197 18.68C84.0344 18.7493 83.9224 18.784 83.7837 18.784C83.757 18.784 83.7277 18.784 83.6957 18.784C83.6691 18.7787 83.637 18.7733 83.5997 18.768L82.8557 18.64C82.9304 18.1173 83.0744 17.656 83.2877 17.256C83.5011 16.8507 83.7704 16.512 84.0957 16.24C84.4264 15.968 84.8024 15.7627 85.2237 15.624C85.6504 15.48 86.109 15.408 86.5997 15.408Z" fill="#4F4F4F"/>
<path d="M93.369 25.912H95.833V18.096C95.833 17.8613 95.841 17.624 95.857 17.384L93.809 19.136C93.7556 19.1787 93.7023 19.2107 93.649 19.232C93.5956 19.248 93.545 19.256 93.497 19.256C93.417 19.256 93.345 19.24 93.281 19.208C93.217 19.1707 93.169 19.128 93.137 19.08L92.689 18.464L96.097 15.512H97.257V25.912H99.513V27H93.369V25.912Z" fill="#4F4F4F"/>
<path fill-rule="evenodd" clip-rule="evenodd" d="M177.5 14H176.833V12.6667H175.5V14H168.833V12.6667H167.5V14H166.833C166.1 14 165.5 14.6 165.5 15.3334V26C165.5 26.7334 166.1 27.3334 166.833 27.3334H177.5C178.233 27.3334 178.833 26.7334 178.833 26V15.3334C178.833 14.6 178.233 14 177.5 14ZM177.5 26H166.833V18.6667H177.5V26ZM166.833 17.3334H177.5V15.3334H166.833V17.3334Z" fill="#4F4F4F"/>
<path fill-rule="evenodd" clip-rule="evenodd" d="M188.167 1H5.16675C2.95761 1 1.16675 2.79086 1.16675 5V35C1.16675 37.2091 2.95761 39 5.16675 39H188.167C190.376 39 192.167 37.2091 192.167 35V5C192.167 2.79086 190.376 1 188.167 1ZM5.16675 0C2.40532 0 0.166748 2.23858 0.166748 5V35C0.166748 37.7614 2.40533 40 5.16675 40H188.167C190.928 40 193.167 37.7614 193.167 35V5C193.167 2.23858 190.928 0 188.167 0H5.16675Z" fill="#828282"/>
</svg>
