<svg width="60" height="60" viewBox="0 0 60 60" fill="none" xmlns="http://www.w3.org/2000/svg">
<path d="M60 30C60 46.5685 46.5685 60 30 60C13.4315 60 0 46.5685 0 30C0 13.4315 13.4315 0 30 0C46.5685 0 60 13.4315 60 30Z" fill="#F2F2F2"/>
<path fill-rule="evenodd" clip-rule="evenodd" d="M34.4443 21.1107H19.9999C19.3888 21.1107 18.8888 21.6107 18.8888 22.2218V37.7773L23.3332 33.3329H34.4443C35.0555 33.3329 35.5555 32.8329 35.5555 32.2218V22.2218C35.5555 21.6107 35.0555 21.1107 34.4443 21.1107ZM33.3332 23.3328V31.1106H22.411L21.7555 31.7661L21.111 32.4106V23.3328H33.3332ZM37.7777 25.5551H39.9999C40.611 25.5551 41.111 26.0551 41.111 26.6662V43.3329L36.6666 38.8885H24.4443C23.8332 38.8885 23.3332 38.3885 23.3332 37.7773V35.5551H37.7777V25.5551Z" fill="#8885FF"/>
</svg>
