<svg width="244" height="24" viewBox="0 0 244 24" fill="none" xmlns="http://www.w3.org/2000/svg">
<path d="M51.419 17H49.963C49.7997 17 49.6643 16.9604 49.557 16.881C49.4543 16.797 49.3797 16.6944 49.333 16.573L48.577 14.508H44.384L43.628 16.573C43.5907 16.6804 43.516 16.7784 43.404 16.867C43.2967 16.9557 43.1637 17 43.005 17H41.542L45.518 6.87802H47.443L51.419 17ZM44.867 13.178H48.094L46.862 9.81102C46.806 9.66169 46.743 9.48669 46.673 9.28602C46.6077 9.08069 46.5423 8.85902 46.477 8.62102C46.4117 8.85902 46.3463 9.08069 46.281 9.28602C46.2203 9.49136 46.1597 9.67102 46.099 9.82502L44.867 13.178Z" fill="#828282"/>
<path d="M56.6264 11.218C56.5798 11.2927 56.5308 11.3464 56.4794 11.379C56.4281 11.407 56.3628 11.421 56.2834 11.421C56.1994 11.421 56.1084 11.3977 56.0104 11.351C55.9171 11.3044 55.8074 11.253 55.6814 11.197C55.5554 11.1364 55.4108 11.0827 55.2474 11.036C55.0888 10.9894 54.8998 10.966 54.6804 10.966C54.3398 10.966 54.0714 11.0384 53.8754 11.183C53.6794 11.3277 53.5814 11.5167 53.5814 11.75C53.5814 11.904 53.6304 12.0347 53.7284 12.142C53.8311 12.2447 53.9641 12.3357 54.1274 12.415C54.2954 12.4944 54.4844 12.5667 54.6944 12.632C54.9044 12.6927 55.1191 12.7604 55.3384 12.835C55.5578 12.9097 55.7724 12.996 55.9824 13.094C56.1924 13.1874 56.3791 13.3087 56.5424 13.458C56.7104 13.6027 56.8434 13.7777 56.9414 13.983C57.0441 14.1884 57.0954 14.4357 57.0954 14.725C57.0954 15.0704 57.0324 15.39 56.9064 15.684C56.7804 15.9734 56.5961 16.2254 56.3534 16.44C56.1108 16.65 55.8098 16.8157 55.4504 16.937C55.0958 17.0537 54.6874 17.112 54.2254 17.112C53.9781 17.112 53.7354 17.0887 53.4974 17.042C53.2641 17 53.0378 16.9394 52.8184 16.86C52.6038 16.7807 52.4031 16.6874 52.2164 16.58C52.0344 16.4727 51.8734 16.356 51.7334 16.23L52.1324 15.572C52.1838 15.4927 52.2444 15.432 52.3144 15.39C52.3844 15.348 52.4731 15.327 52.5804 15.327C52.6878 15.327 52.7881 15.3574 52.8814 15.418C52.9794 15.4787 53.0914 15.544 53.2174 15.614C53.3434 15.684 53.4904 15.7494 53.6584 15.81C53.8311 15.8707 54.0481 15.901 54.3094 15.901C54.5148 15.901 54.6898 15.8777 54.8344 15.831C54.9838 15.7797 55.1051 15.7144 55.1984 15.635C55.2964 15.5557 55.3664 15.4647 55.4084 15.362C55.4551 15.2547 55.4784 15.145 55.4784 15.033C55.4784 14.865 55.4271 14.7274 55.3244 14.62C55.2264 14.5127 55.0934 14.4194 54.9254 14.34C54.7621 14.2607 54.5731 14.1907 54.3584 14.13C54.1484 14.0647 53.9314 13.9947 53.7074 13.92C53.4881 13.8454 53.2711 13.759 53.0564 13.661C52.8464 13.5584 52.6574 13.43 52.4894 13.276C52.3261 13.122 52.1931 12.933 52.0904 12.709C51.9924 12.485 51.9434 12.2144 51.9434 11.897C51.9434 11.603 52.0018 11.323 52.1184 11.057C52.2351 10.791 52.4054 10.56 52.6294 10.364C52.8581 10.1634 53.1404 10.0047 53.4764 9.88802C53.8171 9.76669 54.2091 9.70602 54.6524 9.70602C55.1471 9.70602 55.5974 9.78769 56.0034 9.95102C56.4094 10.1144 56.7478 10.329 57.0184 10.595L56.6264 11.218Z" fill="#828282"/>
<path d="M62.7378 11.218C62.6911 11.2927 62.6421 11.3464 62.5908 11.379C62.5394 11.407 62.4741 11.421 62.3948 11.421C62.3108 11.421 62.2198 11.3977 62.1218 11.351C62.0284 11.3044 61.9188 11.253 61.7928 11.197C61.6668 11.1364 61.5221 11.0827 61.3588 11.036C61.2001 10.9894 61.0111 10.966 60.7918 10.966C60.4511 10.966 60.1828 11.0384 59.9868 11.183C59.7908 11.3277 59.6928 11.5167 59.6928 11.75C59.6928 11.904 59.7418 12.0347 59.8398 12.142C59.9424 12.2447 60.0754 12.3357 60.2388 12.415C60.4068 12.4944 60.5958 12.5667 60.8058 12.632C61.0158 12.6927 61.2304 12.7604 61.4498 12.835C61.6691 12.9097 61.8838 12.996 62.0938 13.094C62.3038 13.1874 62.4904 13.3087 62.6538 13.458C62.8218 13.6027 62.9548 13.7777 63.0528 13.983C63.1554 14.1884 63.2068 14.4357 63.2068 14.725C63.2068 15.0704 63.1438 15.39 63.0178 15.684C62.8918 15.9734 62.7074 16.2254 62.4648 16.44C62.2221 16.65 61.9211 16.8157 61.5618 16.937C61.2071 17.0537 60.7988 17.112 60.3368 17.112C60.0894 17.112 59.8468 17.0887 59.6088 17.042C59.3754 17 59.1491 16.9394 58.9298 16.86C58.7151 16.7807 58.5144 16.6874 58.3278 16.58C58.1458 16.4727 57.9848 16.356 57.8448 16.23L58.2438 15.572C58.2951 15.4927 58.3558 15.432 58.4258 15.39C58.4958 15.348 58.5844 15.327 58.6918 15.327C58.7991 15.327 58.8994 15.3574 58.9928 15.418C59.0908 15.4787 59.2028 15.544 59.3288 15.614C59.4548 15.684 59.6018 15.7494 59.7698 15.81C59.9424 15.8707 60.1594 15.901 60.4208 15.901C60.6261 15.901 60.8011 15.8777 60.9458 15.831C61.0951 15.7797 61.2164 15.7144 61.3098 15.635C61.4078 15.5557 61.4778 15.4647 61.5198 15.362C61.5664 15.2547 61.5898 15.145 61.5898 15.033C61.5898 14.865 61.5384 14.7274 61.4358 14.62C61.3378 14.5127 61.2048 14.4194 61.0368 14.34C60.8734 14.2607 60.6844 14.1907 60.4698 14.13C60.2598 14.0647 60.0428 13.9947 59.8188 13.92C59.5994 13.8454 59.3824 13.759 59.1678 13.661C58.9578 13.5584 58.7688 13.43 58.6008 13.276C58.4374 13.122 58.3044 12.933 58.2018 12.709C58.1038 12.485 58.0548 12.2144 58.0548 11.897C58.0548 11.603 58.1131 11.323 58.2298 11.057C58.3464 10.791 58.5168 10.56 58.7408 10.364C58.9694 10.1634 59.2518 10.0047 59.5878 9.88802C59.9284 9.76669 60.3204 9.70602 60.7638 9.70602C61.2584 9.70602 61.7088 9.78769 62.1148 9.95102C62.5208 10.1144 62.8591 10.329 63.1298 10.595L62.7378 11.218Z" fill="#828282"/>
<path d="M66.4271 9.81802V17H64.6981V9.81802H66.4271ZM66.6861 7.72502C66.6861 7.87436 66.6558 8.01436 66.5951 8.14502C66.5344 8.27569 66.4528 8.39002 66.3501 8.48802C66.2521 8.58602 66.1354 8.66536 66.0001 8.72602C65.8648 8.78202 65.7201 8.81002 65.5661 8.81002C65.4168 8.81002 65.2744 8.78202 65.1391 8.72602C65.0084 8.66536 64.8941 8.58602 64.7961 8.48802C64.6981 8.39002 64.6188 8.27569 64.5581 8.14502C64.5021 8.01436 64.4741 7.87436 64.4741 7.72502C64.4741 7.57102 64.5021 7.42636 64.5581 7.29102C64.6188 7.15569 64.6981 7.03902 64.7961 6.94102C64.8941 6.84302 65.0084 6.76602 65.1391 6.71002C65.2744 6.64936 65.4168 6.61902 65.5661 6.61902C65.7201 6.61902 65.8648 6.64936 66.0001 6.71002C66.1354 6.76602 66.2521 6.84302 66.3501 6.94102C66.4528 7.03902 66.5344 7.15569 66.5951 7.29102C66.6558 7.42636 66.6861 7.57102 66.6861 7.72502Z" fill="#828282"/>
<path d="M70.8719 9.69202C71.1799 9.69202 71.4692 9.72469 71.7399 9.79002C72.0105 9.85069 72.2579 9.94169 72.4819 10.063H74.5469V10.707C74.5469 10.8144 74.5189 10.8984 74.4629 10.959C74.4069 11.0197 74.3112 11.0617 74.1759 11.085L73.5319 11.204C73.5785 11.3254 73.6135 11.4537 73.6369 11.589C73.6649 11.7244 73.6789 11.8667 73.6789 12.016C73.6789 12.3707 73.6066 12.6927 73.4619 12.982C73.3219 13.2667 73.1259 13.5094 72.8739 13.71C72.6266 13.9107 72.3302 14.067 71.9849 14.179C71.6442 14.2864 71.2732 14.34 70.8719 14.34C70.6012 14.34 70.3375 14.3144 70.0809 14.263C69.8569 14.3984 69.7449 14.55 69.7449 14.718C69.7449 14.8627 69.8102 14.97 69.9409 15.04C70.0762 15.1054 70.2512 15.152 70.4659 15.18C70.6852 15.208 70.9326 15.2267 71.2079 15.236C71.4832 15.2407 71.7656 15.2547 72.0549 15.278C72.3442 15.3014 72.6265 15.3434 72.9019 15.404C73.1772 15.46 73.4222 15.551 73.6369 15.677C73.8562 15.803 74.0312 15.9757 74.1619 16.195C74.2972 16.4097 74.3649 16.6874 74.3649 17.028C74.3649 17.3454 74.2856 17.6534 74.1269 17.952C73.9729 18.2507 73.7466 18.5167 73.4479 18.75C73.1539 18.9834 72.7922 19.17 72.3629 19.31C71.9335 19.4547 71.4436 19.527 70.8929 19.527C70.3469 19.527 69.8732 19.4734 69.4719 19.366C69.0706 19.2634 68.7369 19.1234 68.4709 18.946C68.2095 18.7734 68.0135 18.5727 67.8829 18.344C67.7522 18.1154 67.6869 17.8774 67.6869 17.63C67.6869 17.294 67.7895 17.0117 67.9949 16.783C68.2002 16.5544 68.4849 16.3724 68.8489 16.237C68.6715 16.139 68.5292 16.0084 68.4219 15.845C68.3145 15.6817 68.2609 15.4694 68.2609 15.208C68.2609 15.1007 68.2796 14.991 68.3169 14.879C68.3542 14.7624 68.4102 14.648 68.4849 14.536C68.5642 14.424 68.6622 14.319 68.7789 14.221C68.8955 14.1184 69.0332 14.0274 69.1919 13.948C68.8279 13.752 68.5409 13.4907 68.3309 13.164C68.1255 12.8374 68.0229 12.4547 68.0229 12.016C68.0229 11.6614 68.0929 11.3417 68.2329 11.057C68.3776 10.7677 68.5759 10.5227 68.8279 10.322C69.0845 10.1167 69.3855 9.96036 69.7309 9.85302C70.0809 9.74569 70.4612 9.69202 70.8719 9.69202ZM72.7689 17.322C72.7689 17.182 72.7269 17.0677 72.6429 16.979C72.5589 16.8904 72.4445 16.8227 72.2999 16.776C72.1552 16.7247 71.9849 16.6874 71.7889 16.664C71.5975 16.6407 71.3922 16.6244 71.1729 16.615C70.9582 16.601 70.7342 16.5894 70.5009 16.58C70.2722 16.566 70.0505 16.545 69.8359 16.517C69.6399 16.6244 69.4812 16.7527 69.3599 16.902C69.2432 17.0467 69.1849 17.2147 69.1849 17.406C69.1849 17.532 69.2152 17.6487 69.2759 17.756C69.3412 17.868 69.4415 17.9637 69.5769 18.043C69.7169 18.1224 69.8965 18.183 70.1159 18.225C70.3352 18.2717 70.6035 18.295 70.9209 18.295C71.2429 18.295 71.5205 18.2694 71.7539 18.218C71.9872 18.1714 72.1785 18.1037 72.3279 18.015C72.4819 17.931 72.5939 17.8284 72.6639 17.707C72.7339 17.5904 72.7689 17.462 72.7689 17.322ZM70.8719 13.234C71.0865 13.234 71.2732 13.206 71.4319 13.15C71.5905 13.0894 71.7212 13.0077 71.8239 12.905C71.9312 12.8024 72.0106 12.6787 72.0619 12.534C72.1179 12.3894 72.1459 12.2307 72.1459 12.058C72.1459 11.7034 72.0385 11.4234 71.8239 11.218C71.6139 11.008 71.2966 10.903 70.8719 10.903C70.4472 10.903 70.1276 11.008 69.9129 11.218C69.7029 11.4234 69.5979 11.7034 69.5979 12.058C69.5979 12.226 69.6236 12.3824 69.6749 12.527C69.7309 12.6717 69.8102 12.7977 69.9129 12.905C70.0202 13.0077 70.1532 13.0894 70.3119 13.15C70.4752 13.206 70.6619 13.234 70.8719 13.234Z" fill="#828282"/>
<path d="M75.633 17V9.81802H76.69C76.914 9.81802 77.061 9.92302 77.131 10.133L77.25 10.7C77.3946 10.5507 77.5463 10.4154 77.705 10.294C77.8683 10.1727 78.0386 10.0677 78.216 9.97902C78.398 9.89036 78.5916 9.82269 78.797 9.77602C79.0023 9.72936 79.2263 9.70602 79.469 9.70602C79.861 9.70602 80.2086 9.77369 80.512 9.90902C80.8153 10.0397 81.0673 10.2264 81.268 10.469C81.4733 10.707 81.6273 10.994 81.73 11.33C81.8373 11.6614 81.891 12.0277 81.891 12.429V17H80.162V12.429C80.162 11.9904 80.0593 11.652 79.854 11.414C79.6533 11.1714 79.35 11.05 78.944 11.05C78.6453 11.05 78.3653 11.1177 78.104 11.253C77.8426 11.3884 77.5953 11.5727 77.362 11.806V17H75.633Z" fill="#828282"/>
<path d="M89.748 6.76602C90.2147 6.76602 90.6347 6.83369 91.008 6.96902C91.386 7.09969 91.708 7.28402 91.974 7.52202C92.24 7.75536 92.443 8.03069 92.583 8.34802C92.7277 8.66536 92.8 9.00836 92.8 9.37702C92.8 9.69902 92.7627 9.98369 92.688 10.231C92.618 10.4737 92.513 10.686 92.373 10.868C92.2377 11.05 92.0697 11.204 91.869 11.33C91.673 11.456 91.449 11.561 91.197 11.645C91.8037 11.8364 92.2564 12.128 92.555 12.52C92.8537 12.912 93.003 13.4044 93.003 13.997C93.003 14.501 92.9097 14.9467 92.723 15.334C92.5364 15.7214 92.2844 16.048 91.967 16.314C91.6497 16.5754 91.281 16.7737 90.861 16.909C90.4457 17.0444 90.0047 17.112 89.538 17.112C89.0294 17.112 88.586 17.0537 88.208 16.937C87.83 16.8204 87.501 16.6477 87.221 16.419C86.941 16.1904 86.703 15.9104 86.507 15.579C86.311 15.2477 86.143 14.865 86.003 14.431L86.766 14.116C86.8967 14.06 87.0297 14.032 87.165 14.032C87.2864 14.032 87.3937 14.0577 87.487 14.109C87.585 14.1604 87.6597 14.235 87.711 14.333C87.795 14.4964 87.886 14.6574 87.984 14.816C88.0867 14.9747 88.208 15.117 88.348 15.243C88.488 15.3644 88.6514 15.4647 88.838 15.544C89.0294 15.6187 89.2557 15.656 89.517 15.656C89.811 15.656 90.0677 15.6094 90.287 15.516C90.5064 15.418 90.6884 15.292 90.833 15.138C90.9824 14.984 91.092 14.8137 91.162 14.627C91.2367 14.4357 91.274 14.2444 91.274 14.053C91.274 13.8104 91.2484 13.591 91.197 13.395C91.1457 13.1944 91.0384 13.024 90.875 12.884C90.7117 12.744 90.476 12.6344 90.168 12.555C89.8647 12.4757 89.4564 12.436 88.943 12.436V11.204C89.3677 11.1994 89.72 11.1597 90 11.085C90.28 11.0104 90.5017 10.9077 90.665 10.777C90.833 10.6417 90.9497 10.4807 91.015 10.294C91.0804 10.1074 91.113 9.90202 91.113 9.67802C91.113 9.19736 90.9824 8.83569 90.721 8.59302C90.4597 8.34569 90.1027 8.22202 89.65 8.22202C89.2394 8.22202 88.8987 8.33169 88.628 8.55102C88.3574 8.76569 88.1684 9.04336 88.061 9.38402C88.005 9.56136 87.928 9.68969 87.83 9.76902C87.732 9.84369 87.6037 9.88102 87.445 9.88102C87.3704 9.88102 87.291 9.87402 87.207 9.86002L86.297 9.69902C86.367 9.21369 86.5024 8.78902 86.703 8.42502C86.9037 8.05636 87.1534 7.75069 87.452 7.50802C87.7554 7.26069 88.1007 7.07636 88.488 6.95502C88.88 6.82902 89.3 6.76602 89.748 6.76602Z" fill="#828282"/>
<path d="M97.1252 17V6.59802H98.8542V10.595C99.1342 10.329 99.4422 10.1144 99.7782 9.95102C100.114 9.78769 100.508 9.70602 100.961 9.70602C101.353 9.70602 101.701 9.77369 102.004 9.90902C102.307 10.0397 102.559 10.2264 102.76 10.469C102.965 10.707 103.119 10.994 103.222 11.33C103.329 11.6614 103.383 12.0277 103.383 12.429V17H101.654V12.429C101.654 11.9904 101.551 11.652 101.346 11.414C101.145 11.1714 100.842 11.05 100.436 11.05C100.137 11.05 99.8575 11.1177 99.5962 11.253C99.3348 11.3884 99.0875 11.5727 98.8542 11.806V17H97.1252Z" fill="#828282"/>
<path d="M108.148 9.70602C108.685 9.70602 109.17 9.79236 109.604 9.96502C110.043 10.1377 110.416 10.3827 110.724 10.7C111.032 11.0174 111.27 11.4047 111.438 11.862C111.606 12.3194 111.69 12.8304 111.69 13.395C111.69 13.9644 111.606 14.4777 111.438 14.935C111.27 15.3924 111.032 15.782 110.724 16.104C110.416 16.426 110.043 16.6734 109.604 16.846C109.17 17.0187 108.685 17.105 108.148 17.105C107.612 17.105 107.124 17.0187 106.685 16.846C106.247 16.6734 105.871 16.426 105.558 16.104C105.25 15.782 105.01 15.3924 104.837 14.935C104.669 14.4777 104.585 13.9644 104.585 13.395C104.585 12.8304 104.669 12.3194 104.837 11.862C105.01 11.4047 105.25 11.0174 105.558 10.7C105.871 10.3827 106.247 10.1377 106.685 9.96502C107.124 9.79236 107.612 9.70602 108.148 9.70602ZM108.148 15.775C108.746 15.775 109.187 15.5744 109.471 15.173C109.761 14.7717 109.905 14.1837 109.905 13.409C109.905 12.6344 109.761 12.044 109.471 11.638C109.187 11.232 108.746 11.029 108.148 11.029C107.542 11.029 107.094 11.2344 106.804 11.645C106.515 12.051 106.37 12.639 106.37 13.409C106.37 14.179 106.515 14.767 106.804 15.173C107.094 15.5744 107.542 15.775 108.148 15.775Z" fill="#828282"/>
<path d="M113.039 17V9.81802H114.096C114.32 9.81802 114.467 9.92302 114.537 10.133L114.649 10.665C114.775 10.525 114.906 10.3967 115.041 10.28C115.181 10.1634 115.328 10.063 115.482 9.97902C115.641 9.89502 115.809 9.82969 115.986 9.78302C116.168 9.73169 116.367 9.70602 116.581 9.70602C117.034 9.70602 117.405 9.82969 117.694 10.077C117.988 10.3197 118.208 10.644 118.352 11.05C118.464 10.812 118.604 10.609 118.772 10.441C118.94 10.2684 119.125 10.1284 119.325 10.021C119.526 9.91369 119.738 9.83436 119.962 9.78302C120.191 9.73169 120.42 9.70602 120.648 9.70602C121.045 9.70602 121.397 9.76669 121.705 9.88802C122.013 10.0094 122.272 10.1867 122.482 10.42C122.692 10.6534 122.851 10.938 122.958 11.274C123.07 11.61 123.126 11.995 123.126 12.429V17H121.397V12.429C121.397 11.9717 121.297 11.6287 121.096 11.4C120.896 11.1667 120.602 11.05 120.214 11.05C120.037 11.05 119.871 11.0804 119.717 11.141C119.568 11.2017 119.435 11.2904 119.318 11.407C119.206 11.519 119.118 11.6614 119.052 11.834C118.987 12.0067 118.954 12.205 118.954 12.429V17H117.218V12.429C117.218 11.9484 117.12 11.5984 116.924 11.379C116.733 11.1597 116.448 11.05 116.07 11.05C115.823 11.05 115.59 11.113 115.37 11.239C115.156 11.3604 114.955 11.5284 114.768 11.743V17H113.039Z" fill="#828282"/>
<path d="M127.792 9.70602C128.245 9.70602 128.66 9.77836 129.038 9.92302C129.421 10.0677 129.75 10.28 130.025 10.56C130.301 10.8354 130.515 11.176 130.669 11.582C130.823 11.9834 130.9 12.443 130.9 12.961C130.9 13.0917 130.893 13.2014 130.879 13.29C130.87 13.374 130.849 13.4417 130.816 13.493C130.788 13.5397 130.749 13.5747 130.697 13.598C130.646 13.6167 130.581 13.626 130.501 13.626H126.063C126.115 14.3634 126.313 14.9047 126.658 15.25C127.004 15.5954 127.461 15.768 128.03 15.768C128.31 15.768 128.551 15.7354 128.751 15.67C128.957 15.6047 129.134 15.5324 129.283 15.453C129.437 15.3737 129.57 15.3014 129.682 15.236C129.799 15.1707 129.911 15.138 130.018 15.138C130.088 15.138 130.149 15.152 130.2 15.18C130.252 15.208 130.296 15.2477 130.333 15.299L130.837 15.929C130.646 16.153 130.431 16.342 130.193 16.496C129.955 16.6454 129.706 16.7667 129.444 16.86C129.188 16.9487 128.924 17.0117 128.653 17.049C128.387 17.0864 128.128 17.105 127.876 17.105C127.377 17.105 126.913 17.0234 126.483 16.86C126.054 16.692 125.681 16.447 125.363 16.125C125.046 15.7984 124.796 15.397 124.614 14.921C124.432 14.4404 124.341 13.885 124.341 13.255C124.341 12.765 124.421 12.3054 124.579 11.876C124.738 11.442 124.964 11.0664 125.258 10.749C125.557 10.427 125.919 10.1727 126.343 9.98602C126.773 9.79936 127.256 9.70602 127.792 9.70602ZM127.827 10.945C127.323 10.945 126.929 11.0874 126.644 11.372C126.36 11.6567 126.178 12.0604 126.098 12.583H129.346C129.346 12.359 129.316 12.149 129.255 11.953C129.195 11.7524 129.101 11.5774 128.975 11.428C128.849 11.2787 128.691 11.162 128.499 11.078C128.308 10.9894 128.084 10.945 127.827 10.945Z" fill="#828282"/>
<path d="M131.428 9.81802H132.8C132.931 9.81802 133.04 9.84836 133.129 9.90902C133.218 9.96969 133.274 10.0467 133.297 10.14L134.326 13.976C134.382 14.186 134.426 14.3914 134.459 14.592C134.496 14.7927 134.531 14.9934 134.564 15.194C134.615 14.9934 134.669 14.7927 134.725 14.592C134.786 14.3914 134.849 14.186 134.914 13.976L136.104 10.126C136.132 10.0327 136.188 9.95569 136.272 9.89502C136.356 9.83436 136.454 9.80402 136.566 9.80402H137.329C137.455 9.80402 137.56 9.83436 137.644 9.89502C137.728 9.95569 137.784 10.0327 137.812 10.126L138.988 14.046C139.049 14.2467 139.102 14.4427 139.149 14.634C139.2 14.8207 139.249 15.0097 139.296 15.201C139.329 15.0004 139.364 14.7997 139.401 14.599C139.443 14.3984 139.494 14.1907 139.555 13.976L140.619 10.14C140.642 10.0467 140.698 9.96969 140.787 9.90902C140.876 9.84836 140.978 9.81802 141.095 9.81802H142.404L140.129 17H138.736C138.587 17 138.479 16.8974 138.414 16.692L137.119 12.541C137.077 12.4057 137.037 12.2704 137 12.135C136.967 11.995 136.939 11.8574 136.916 11.722C136.888 11.862 136.858 12.002 136.825 12.142C136.792 12.2774 136.755 12.415 136.713 12.555L135.404 16.692C135.339 16.8974 135.213 17 135.026 17H133.703L131.428 9.81802Z" fill="#828282"/>
<path d="M146.443 9.70602C146.98 9.70602 147.465 9.79236 147.899 9.96502C148.338 10.1377 148.711 10.3827 149.019 10.7C149.327 11.0174 149.565 11.4047 149.733 11.862C149.901 12.3194 149.985 12.8304 149.985 13.395C149.985 13.9644 149.901 14.4777 149.733 14.935C149.565 15.3924 149.327 15.782 149.019 16.104C148.711 16.426 148.338 16.6734 147.899 16.846C147.465 17.0187 146.98 17.105 146.443 17.105C145.906 17.105 145.419 17.0187 144.98 16.846C144.541 16.6734 144.166 16.426 143.853 16.104C143.545 15.782 143.305 15.3924 143.132 14.935C142.964 14.4777 142.88 13.9644 142.88 13.395C142.88 12.8304 142.964 12.3194 143.132 11.862C143.305 11.4047 143.545 11.0174 143.853 10.7C144.166 10.3827 144.541 10.1377 144.98 9.96502C145.419 9.79236 145.906 9.70602 146.443 9.70602ZM146.443 15.775C147.04 15.775 147.481 15.5744 147.766 15.173C148.055 14.7717 148.2 14.1837 148.2 13.409C148.2 12.6344 148.055 12.044 147.766 11.638C147.481 11.232 147.04 11.029 146.443 11.029C145.836 11.029 145.388 11.2344 145.099 11.645C144.81 12.051 144.665 12.639 144.665 13.409C144.665 14.179 144.81 14.767 145.099 15.173C145.388 15.5744 145.836 15.775 146.443 15.775Z" fill="#828282"/>
<path d="M151.334 17V9.81802H152.349C152.526 9.81802 152.65 9.85069 152.72 9.91602C152.79 9.98136 152.837 10.0934 152.86 10.252L152.965 11.12C153.222 10.6767 153.523 10.3267 153.868 10.07C154.213 9.81336 154.601 9.68502 155.03 9.68502C155.385 9.68502 155.679 9.76669 155.912 9.93002L155.688 11.225C155.674 11.309 155.644 11.3697 155.597 11.407C155.55 11.4397 155.487 11.456 155.408 11.456C155.338 11.456 155.242 11.4397 155.121 11.407C155 11.3744 154.839 11.358 154.638 11.358C154.279 11.358 153.971 11.4584 153.714 11.659C153.457 11.855 153.24 12.1444 153.063 12.527V17H151.334Z" fill="#828282"/>
<path d="M158.799 6.59802V12.555H159.121C159.238 12.555 159.329 12.5387 159.394 12.506C159.459 12.4734 159.529 12.4127 159.604 12.324L161.389 10.119C161.468 10.0257 161.552 9.95336 161.641 9.90202C161.73 9.84602 161.846 9.81802 161.991 9.81802H163.573L161.34 12.485C161.261 12.583 161.179 12.674 161.095 12.758C161.011 12.8374 160.92 12.9074 160.822 12.968C160.92 13.038 161.006 13.1197 161.081 13.213C161.156 13.3064 161.23 13.4067 161.305 13.514L163.699 17H162.138C162.003 17 161.888 16.9767 161.795 16.93C161.702 16.8834 161.618 16.804 161.543 16.692L159.716 13.969C159.646 13.8617 159.576 13.7917 159.506 13.759C159.436 13.7264 159.331 13.71 159.191 13.71H158.799V17H157.07V6.59802H158.799Z" fill="#828282"/>
<path d="M169.84 17.112C169.219 17.112 168.741 16.937 168.405 16.587C168.069 16.2324 167.901 15.7447 167.901 15.124V11.113H167.173C167.079 11.113 166.998 11.0827 166.928 11.022C166.862 10.9614 166.83 10.8704 166.83 10.749V10.063L167.985 9.87402L168.349 7.91402C168.367 7.82069 168.409 7.74836 168.475 7.69702C168.545 7.64569 168.631 7.62002 168.734 7.62002H169.63V9.88102H171.52V11.113H169.63V15.005C169.63 15.229 169.686 15.404 169.798 15.53C169.91 15.656 170.059 15.719 170.246 15.719C170.353 15.719 170.442 15.7074 170.512 15.684C170.586 15.656 170.649 15.628 170.701 15.6C170.757 15.572 170.806 15.5464 170.848 15.523C170.89 15.495 170.932 15.481 170.974 15.481C171.025 15.481 171.067 15.495 171.1 15.523C171.132 15.5464 171.167 15.5837 171.205 15.635L171.723 16.475C171.471 16.685 171.181 16.8437 170.855 16.951C170.528 17.0584 170.19 17.112 169.84 17.112Z" fill="#828282"/>
<path d="M175.961 9.70602C176.497 9.70602 176.983 9.79236 177.417 9.96502C177.855 10.1377 178.229 10.3827 178.537 10.7C178.845 11.0174 179.083 11.4047 179.251 11.862C179.419 12.3194 179.503 12.8304 179.503 13.395C179.503 13.9644 179.419 14.4777 179.251 14.935C179.083 15.3924 178.845 15.782 178.537 16.104C178.229 16.426 177.855 16.6734 177.417 16.846C176.983 17.0187 176.497 17.105 175.961 17.105C175.424 17.105 174.936 17.0187 174.498 16.846C174.059 16.6734 173.683 16.426 173.371 16.104C173.063 15.782 172.822 15.3924 172.65 14.935C172.482 14.4777 172.398 13.9644 172.398 13.395C172.398 12.8304 172.482 12.3194 172.65 11.862C172.822 11.4047 173.063 11.0174 173.371 10.7C173.683 10.3827 174.059 10.1377 174.498 9.96502C174.936 9.79236 175.424 9.70602 175.961 9.70602ZM175.961 15.775C176.558 15.775 176.999 15.5744 177.284 15.173C177.573 14.7717 177.718 14.1837 177.718 13.409C177.718 12.6344 177.573 12.044 177.284 11.638C176.999 11.232 176.558 11.029 175.961 11.029C175.354 11.029 174.906 11.2344 174.617 11.645C174.327 12.051 174.183 12.639 174.183 13.409C174.183 14.179 174.327 14.767 174.617 15.173C174.906 15.5744 175.354 15.775 175.961 15.775Z" fill="#828282"/>
<path d="M190.615 14.613C190.717 14.613 190.806 14.6527 190.881 14.732L191.623 15.537C191.212 16.0457 190.706 16.4354 190.104 16.706C189.506 16.9767 188.788 17.112 187.948 17.112C187.196 17.112 186.52 16.9837 185.918 16.727C185.32 16.4704 184.809 16.1134 184.385 15.656C183.96 15.1987 183.633 14.6527 183.405 14.018C183.181 13.3834 183.069 12.6904 183.069 11.939C183.069 11.1784 183.195 10.483 183.447 9.85302C183.699 9.21836 184.053 8.67236 184.511 8.21502C184.968 7.75769 185.514 7.40302 186.149 7.15102C186.788 6.89436 187.493 6.76602 188.263 6.76602C189.014 6.76602 189.67 6.88736 190.23 7.13002C190.794 7.36802 191.277 7.68536 191.679 8.08202L191.049 8.95702C191.011 9.01302 190.962 9.06202 190.902 9.10402C190.846 9.14602 190.766 9.16702 190.664 9.16702C190.556 9.16702 190.447 9.12502 190.335 9.04102C190.223 8.95702 190.08 8.86602 189.908 8.76802C189.735 8.67002 189.516 8.57902 189.25 8.49502C188.988 8.41102 188.655 8.36902 188.249 8.36902C187.773 8.36902 187.334 8.45302 186.933 8.62102C186.536 8.78436 186.193 9.02002 185.904 9.32802C185.619 9.63602 185.395 10.0117 185.232 10.455C185.073 10.8937 184.994 11.3884 184.994 11.939C184.994 12.5084 185.073 13.0147 185.232 13.458C185.395 13.9014 185.614 14.2747 185.89 14.578C186.165 14.8814 186.489 15.1147 186.863 15.278C187.236 15.4367 187.637 15.516 188.067 15.516C188.323 15.516 188.554 15.502 188.76 15.474C188.97 15.446 189.161 15.4017 189.334 15.341C189.511 15.2804 189.677 15.2034 189.831 15.11C189.989 15.012 190.146 14.893 190.3 14.753C190.346 14.711 190.395 14.6784 190.447 14.655C190.498 14.627 190.554 14.613 190.615 14.613Z" fill="#828282"/>
<path d="M194.792 6.59802V17H193.063V6.59802H194.792Z" fill="#828282"/>
<path d="M198.593 9.81802V17H196.864V9.81802H198.593ZM198.852 7.72502C198.852 7.87436 198.822 8.01436 198.761 8.14502C198.7 8.27569 198.619 8.39002 198.516 8.48802C198.418 8.58602 198.301 8.66536 198.166 8.72602C198.031 8.78202 197.886 8.81002 197.732 8.81002C197.583 8.81002 197.44 8.78202 197.305 8.72602C197.174 8.66536 197.06 8.58602 196.962 8.48802C196.864 8.39002 196.785 8.27569 196.724 8.14502C196.668 8.01436 196.64 7.87436 196.64 7.72502C196.64 7.57102 196.668 7.42636 196.724 7.29102C196.785 7.15569 196.864 7.03902 196.962 6.94102C197.06 6.84302 197.174 6.76602 197.305 6.71002C197.44 6.64936 197.583 6.61902 197.732 6.61902C197.886 6.61902 198.031 6.64936 198.166 6.71002C198.301 6.76602 198.418 6.84302 198.516 6.94102C198.619 7.03902 198.7 7.15569 198.761 7.29102C198.822 7.42636 198.852 7.57102 198.852 7.72502Z" fill="#828282"/>
<path d="M203.521 9.70602C203.974 9.70602 204.389 9.77836 204.767 9.92302C205.15 10.0677 205.479 10.28 205.754 10.56C206.029 10.8354 206.244 11.176 206.398 11.582C206.552 11.9834 206.629 12.443 206.629 12.961C206.629 13.0917 206.622 13.2014 206.608 13.29C206.599 13.374 206.578 13.4417 206.545 13.493C206.517 13.5397 206.477 13.5747 206.426 13.598C206.375 13.6167 206.309 13.626 206.23 13.626H201.792C201.843 14.3634 202.042 14.9047 202.387 15.25C202.732 15.5954 203.19 15.768 203.759 15.768C204.039 15.768 204.279 15.7354 204.48 15.67C204.685 15.6047 204.863 15.5324 205.012 15.453C205.166 15.3737 205.299 15.3014 205.411 15.236C205.528 15.1707 205.64 15.138 205.747 15.138C205.817 15.138 205.878 15.152 205.929 15.18C205.98 15.208 206.025 15.2477 206.062 15.299L206.566 15.929C206.375 16.153 206.16 16.342 205.922 16.496C205.684 16.6454 205.434 16.7667 205.173 16.86C204.916 16.9487 204.653 17.0117 204.382 17.049C204.116 17.0864 203.857 17.105 203.605 17.105C203.106 17.105 202.641 17.0234 202.212 16.86C201.783 16.692 201.409 16.447 201.092 16.125C200.775 15.7984 200.525 15.397 200.343 14.921C200.161 14.4404 200.07 13.885 200.07 13.255C200.07 12.765 200.149 12.3054 200.308 11.876C200.467 11.442 200.693 11.0664 200.987 10.749C201.286 10.427 201.647 10.1727 202.072 9.98602C202.501 9.79936 202.984 9.70602 203.521 9.70602ZM203.556 10.945C203.052 10.945 202.658 11.0874 202.373 11.372C202.088 11.6567 201.906 12.0604 201.827 12.583H205.075C205.075 12.359 205.045 12.149 204.984 11.953C204.923 11.7524 204.83 11.5774 204.704 11.428C204.578 11.2787 204.419 11.162 204.228 11.078C204.037 10.9894 203.813 10.945 203.556 10.945Z" fill="#828282"/>
<path d="M208.031 17V9.81802H209.088C209.312 9.81802 209.459 9.92302 209.529 10.133L209.648 10.7C209.793 10.5507 209.945 10.4154 210.103 10.294C210.267 10.1727 210.437 10.0677 210.614 9.97902C210.796 9.89036 210.99 9.82269 211.195 9.77602C211.401 9.72936 211.625 9.70602 211.867 9.70602C212.259 9.70602 212.607 9.77369 212.91 9.90902C213.214 10.0397 213.466 10.2264 213.666 10.469C213.872 10.707 214.026 10.994 214.128 11.33C214.236 11.6614 214.289 12.0277 214.289 12.429V17H212.56V12.429C212.56 11.9904 212.458 11.652 212.252 11.414C212.052 11.1714 211.748 11.05 211.342 11.05C211.044 11.05 210.764 11.1177 210.502 11.253C210.241 11.3884 209.994 11.5727 209.76 11.806V17H208.031Z" fill="#828282"/>
<path d="M218.347 17.112C217.727 17.112 217.248 16.937 216.912 16.587C216.576 16.2324 216.408 15.7447 216.408 15.124V11.113H215.68C215.587 11.113 215.505 11.0827 215.435 11.022C215.37 10.9614 215.337 10.8704 215.337 10.749V10.063L216.492 9.87402L216.856 7.91402C216.875 7.82069 216.917 7.74836 216.982 7.69702C217.052 7.64569 217.139 7.62002 217.241 7.62002H218.137V9.88102H220.027V11.113H218.137V15.005C218.137 15.229 218.193 15.404 218.305 15.53C218.417 15.656 218.567 15.719 218.753 15.719C218.861 15.719 218.949 15.7074 219.019 15.684C219.094 15.656 219.157 15.628 219.208 15.6C219.264 15.572 219.313 15.5464 219.355 15.523C219.397 15.495 219.439 15.481 219.481 15.481C219.533 15.481 219.575 15.495 219.607 15.523C219.64 15.5464 219.675 15.5837 219.712 15.635L220.23 16.475C219.978 16.685 219.689 16.8437 219.362 16.951C219.036 17.0584 218.697 17.112 218.347 17.112Z" fill="#828282"/>
<path d="M233.105 17H231.649C231.485 17 231.35 16.9604 231.243 16.881C231.14 16.797 231.065 16.6944 231.019 16.573L230.263 14.508H226.07L225.314 16.573C225.276 16.6804 225.202 16.7784 225.09 16.867C224.982 16.9557 224.849 17 224.691 17H223.228L227.204 6.87802H229.129L233.105 17ZM226.553 13.178H229.78L228.548 9.81102C228.492 9.66169 228.429 9.48669 228.359 9.28602C228.293 9.08069 228.228 8.85902 228.163 8.62102C228.097 8.85902 228.032 9.08069 227.967 9.28602C227.906 9.49136 227.845 9.67102 227.785 9.82502L226.553 13.178Z" fill="#828282"/>
<path fill-rule="evenodd" clip-rule="evenodd" d="M19.5 3H5.5C4.4 3 3.5 3.9 3.5 5V19C3.5 20.1 4.4 21 5.5 21H19.5C20.6 21 21.5 20.1 21.5 19V5C21.5 3.9 20.6 3 19.5 3ZM19.5 19H5.5V5H19.5V19ZM17.08 7.58L18.49 9L10.49 17L6.49 13.01L7.91 11.6L10.49 14.17L17.08 7.58Z" fill="#828282"/>
<path fill-rule="evenodd" clip-rule="evenodd" d="M243.5 13L37.5 13L37.5 12L243.5 12L243.5 13Z" fill="#828282"/>
</svg>
