<svg width="430" height="16" viewBox="0 0 430 16" fill="none" xmlns="http://www.w3.org/2000/svg">
<path d="M2.66 12.376H0.5V0.808H2.66V12.376Z" fill="#2F80ED"/>
<path d="M4.89925 6.72H9.04325V8.368H4.89925V6.72Z" fill="#2F80ED"/>
<path d="M17.7613 1.648C17.7613 1.93067 17.6706 2.16 17.4893 2.336C17.3132 2.512 17.0173 2.6 16.6013 2.6H13.4172L13.0013 5.016C13.5239 4.90933 14.0012 4.856 14.4332 4.856C15.0412 4.856 15.5746 4.94667 16.0332 5.128C16.4972 5.30933 16.8866 5.56 17.2013 5.88C17.5159 6.2 17.7533 6.576 17.9132 7.008C18.0732 7.43467 18.1533 7.896 18.1533 8.392C18.1533 9.00533 18.0439 9.56533 17.8253 10.072C17.6119 10.5787 17.3133 11.0133 16.9293 11.376C16.5452 11.7333 16.0892 12.0107 15.5612 12.208C15.0386 12.4053 14.4679 12.504 13.8492 12.504C13.4866 12.504 13.1426 12.4667 12.8173 12.392C12.4919 12.3173 12.1853 12.2187 11.8973 12.096C11.6146 11.968 11.3506 11.824 11.1053 11.664C10.8653 11.4987 10.6493 11.3253 10.4572 11.144L11.0652 10.304C11.1932 10.1227 11.3639 10.032 11.5772 10.032C11.7106 10.032 11.8439 10.0747 11.9773 10.16C12.1159 10.2453 12.2759 10.3387 12.4572 10.44C12.6386 10.5413 12.8492 10.6347 13.0892 10.72C13.3292 10.8053 13.6199 10.848 13.9612 10.848C14.3239 10.848 14.6439 10.7893 14.9213 10.672C15.1986 10.5547 15.4279 10.392 15.6093 10.184C15.7959 9.97067 15.9346 9.72 16.0253 9.432C16.1213 9.13867 16.1692 8.82133 16.1692 8.48C16.1692 7.85067 15.9852 7.36 15.6172 7.008C15.2546 6.65067 14.7186 6.472 14.0092 6.472C13.4492 6.472 12.8866 6.57333 12.3212 6.776L11.0892 6.424L12.0492 0.808H17.7613V1.648Z" fill="#2F80ED"/>
<path d="M23.7705 12.504C23.1732 12.504 22.6265 12.424 22.1305 12.264C21.6398 12.104 21.2185 11.8773 20.8665 11.584C20.5145 11.2907 20.2398 10.936 20.0425 10.52C19.8505 10.104 19.7545 9.64 19.7545 9.128C19.7545 8.44533 19.9225 7.86933 20.2585 7.4C20.5945 6.92533 21.1172 6.57333 21.8265 6.344C21.2612 6.10933 20.8372 5.776 20.5545 5.344C20.2772 4.912 20.1385 4.392 20.1385 3.784C20.1385 3.34667 20.2265 2.93867 20.4025 2.56C20.5838 2.18133 20.8345 1.85333 21.1545 1.576C21.4745 1.29333 21.8558 1.07467 22.2985 0.92C22.7465 0.76 23.2372 0.68 23.7705 0.68C24.3038 0.68 24.7918 0.76 25.2345 0.92C25.6825 1.07467 26.0665 1.29333 26.3865 1.576C26.7065 1.85333 26.9545 2.18133 27.1305 2.56C27.3118 2.93867 27.4025 3.34667 27.4025 3.784C27.4025 4.392 27.2612 4.912 26.9785 5.344C26.6958 5.776 26.2745 6.10933 25.7145 6.344C26.4238 6.57333 26.9465 6.92533 27.2825 7.4C27.6185 7.86933 27.7865 8.44533 27.7865 9.128C27.7865 9.64 27.6878 10.104 27.4905 10.52C27.2985 10.936 27.0265 11.2907 26.6745 11.584C26.3225 11.8773 25.8985 12.104 25.4025 12.264C24.9118 12.424 24.3678 12.504 23.7705 12.504ZM23.7705 10.96C24.0958 10.96 24.3812 10.9147 24.6265 10.824C24.8718 10.728 25.0772 10.5973 25.2425 10.432C25.4132 10.2667 25.5412 10.0693 25.6265 9.84C25.7118 9.61067 25.7545 9.36267 25.7545 9.096C25.7545 8.46133 25.5785 7.98133 25.2265 7.656C24.8745 7.33067 24.3892 7.168 23.7705 7.168C23.1518 7.168 22.6665 7.33067 22.3145 7.656C21.9625 7.98133 21.7865 8.46133 21.7865 9.096C21.7865 9.36267 21.8292 9.61067 21.9145 9.84C21.9998 10.0693 22.1252 10.2667 22.2905 10.432C22.4612 10.5973 22.6692 10.728 22.9145 10.824C23.1598 10.9147 23.4452 10.96 23.7705 10.96ZM23.7705 5.616C24.0905 5.616 24.3598 5.56533 24.5785 5.464C24.7972 5.36267 24.9732 5.22933 25.1065 5.064C25.2398 4.89333 25.3332 4.70133 25.3865 4.488C25.4452 4.26933 25.4745 4.04533 25.4745 3.816C25.4745 3.59733 25.4398 3.38933 25.3705 3.192C25.3012 2.99467 25.1972 2.82133 25.0585 2.672C24.9198 2.51733 24.7438 2.39467 24.5305 2.304C24.3172 2.21333 24.0638 2.168 23.7705 2.168C23.4772 2.168 23.2238 2.21333 23.0105 2.304C22.7972 2.39467 22.6185 2.51733 22.4745 2.672C22.3358 2.82133 22.2318 2.99467 22.1625 3.192C22.0985 3.38933 22.0665 3.59733 22.0665 3.816C22.0665 4.04533 22.0932 4.26933 22.1465 4.488C22.2052 4.70133 22.3012 4.89333 22.4345 5.064C22.5678 5.22933 22.7438 5.36267 22.9625 5.464C23.1812 5.56533 23.4505 5.616 23.7705 5.616Z" fill="#2F80ED"/>
<path d="M32.6518 7.76C32.2518 7.76 31.8598 7.69067 31.4757 7.552C31.0917 7.41333 30.7478 7.20533 30.4438 6.928C30.1451 6.64533 29.9051 6.29867 29.7238 5.888C29.5424 5.472 29.4518 4.98667 29.4518 4.432C29.4518 3.91467 29.5478 3.42933 29.7397 2.976C29.9317 2.52267 30.2011 2.12533 30.5478 1.784C30.8944 1.44267 31.3104 1.17333 31.7957 0.976C32.2811 0.778667 32.8171 0.68 33.4038 0.68C33.9958 0.68 34.5264 0.773334 34.9958 0.96C35.4704 1.14667 35.8731 1.408 36.2038 1.744C36.5397 2.08 36.7958 2.48267 36.9718 2.952C37.1531 3.42133 37.2438 3.936 37.2438 4.496C37.2438 4.85333 37.2118 5.192 37.1478 5.512C37.0891 5.832 37.0011 6.14133 36.8838 6.44C36.7718 6.73333 36.6357 7.02133 36.4757 7.304C36.3158 7.58133 36.1371 7.86133 35.9398 8.144L33.2918 11.92C33.2011 12.048 33.0651 12.1573 32.8838 12.248C32.7078 12.3333 32.5051 12.376 32.2757 12.376H30.4598L34.0518 7.888C34.1424 7.776 34.2278 7.66667 34.3078 7.56C34.3877 7.45333 34.4651 7.34667 34.5397 7.24C34.2731 7.41067 33.9798 7.54133 33.6598 7.632C33.3398 7.71733 33.0038 7.76 32.6518 7.76ZM35.3478 4.296C35.3478 3.98133 35.2998 3.70133 35.2038 3.456C35.1077 3.20533 34.9717 2.99467 34.7957 2.824C34.6198 2.65333 34.4091 2.52267 34.1637 2.432C33.9237 2.34133 33.6598 2.296 33.3717 2.296C33.0731 2.296 32.8037 2.34667 32.5638 2.448C32.3238 2.544 32.1184 2.68 31.9478 2.856C31.7824 3.032 31.6544 3.24267 31.5638 3.488C31.4731 3.728 31.4277 3.992 31.4277 4.28C31.4277 4.92533 31.5931 5.41867 31.9238 5.76C32.2598 6.096 32.7344 6.264 33.3478 6.264C33.6678 6.264 33.9504 6.21333 34.1958 6.112C34.4464 6.01067 34.6571 5.872 34.8278 5.696C34.9984 5.52 35.1264 5.312 35.2118 5.072C35.3024 4.832 35.3478 4.57333 35.3478 4.296Z" fill="#2F80ED"/>
<path d="M41.5868 6.72H45.7308V8.368H41.5868V6.72Z" fill="#2F80ED"/>
<path d="M60.9665 12.376H59.3025C59.1158 12.376 58.9612 12.3307 58.8385 12.24C58.7212 12.144 58.6358 12.0267 58.5825 11.888L57.7185 9.528H52.9265L52.0625 11.888C52.0198 12.0107 51.9345 12.1227 51.8065 12.224C51.6838 12.3253 51.5318 12.376 51.3505 12.376H49.6785L54.2225 0.808H56.4225L60.9665 12.376ZM53.4785 8.008H57.1665L55.7585 4.16C55.6945 3.98933 55.6225 3.78933 55.5425 3.56C55.4678 3.32533 55.3932 3.072 55.3185 2.8C55.2438 3.072 55.1692 3.32533 55.0945 3.56C55.0252 3.79467 54.9558 4 54.8865 4.176L53.4785 8.008Z" fill="#2F80ED"/>
<path d="M67.9659 7.576C68.0565 7.74667 68.1392 7.92533 68.2139 8.112C68.2939 8.29333 68.3712 8.47733 68.4459 8.664C68.5205 8.472 68.5979 8.28267 68.6779 8.096C68.7579 7.90933 68.8432 7.73067 68.9339 7.56L72.3579 1.152C72.4005 1.072 72.4432 1.008 72.4859 0.96C72.5339 0.912 72.5845 0.877333 72.6379 0.856C72.6965 0.834666 72.7605 0.821333 72.8299 0.816C72.8992 0.810666 72.9819 0.808 73.0779 0.808H74.7019V12.376H72.8059V4.904C72.8059 4.76533 72.8085 4.61333 72.8139 4.448C72.8245 4.28267 72.8379 4.11467 72.8539 3.944L69.3579 10.504C69.2779 10.6533 69.1739 10.7707 69.0459 10.856C68.9179 10.936 68.7685 10.976 68.5979 10.976H68.3019C68.1312 10.976 67.9819 10.936 67.8539 10.856C67.7259 10.7707 67.6219 10.6533 67.5419 10.504L63.9979 3.92C64.0192 4.096 64.0325 4.26933 64.0379 4.44C64.0485 4.60533 64.0539 4.76 64.0539 4.904V12.376H62.1579V0.808H63.7819C63.8779 0.808 63.9605 0.810666 64.0299 0.816C64.0992 0.821333 64.1605 0.834666 64.2139 0.856C64.2725 0.877333 64.3259 0.912 64.3739 0.96C64.4219 1.008 64.4672 1.072 64.5099 1.152L67.9659 7.576Z" fill="#2F80ED"/>
<path d="M87.2009 12.376H85.5369C85.3502 12.376 85.1955 12.3307 85.0729 12.24C84.9555 12.144 84.8702 12.0267 84.8169 11.888L83.9529 9.528H79.1609L78.2969 11.888C78.2542 12.0107 78.1689 12.1227 78.0409 12.224C77.9182 12.3253 77.7662 12.376 77.5849 12.376H75.9129L80.4569 0.808H82.6569L87.2009 12.376ZM79.7129 8.008H83.4009L81.9929 4.16C81.9289 3.98933 81.8569 3.78933 81.7769 3.56C81.7022 3.32533 81.6275 3.072 81.5529 2.8C81.4782 3.072 81.4035 3.32533 81.3289 3.56C81.2595 3.79467 81.1902 4 81.1209 4.176L79.7129 8.008Z" fill="#2F80ED"/>
<path d="M90.6162 7.856V12.376H88.4642V0.808H91.9922C92.7816 0.808 93.4563 0.890666 94.0163 1.056C94.5816 1.216 95.0429 1.44267 95.4003 1.736C95.7629 2.02933 96.0269 2.38133 96.1923 2.792C96.3629 3.19733 96.4482 3.64533 96.4482 4.136C96.4482 4.52533 96.3896 4.89333 96.2723 5.24C96.1603 5.58667 95.9949 5.90133 95.7763 6.184C95.5629 6.46667 95.2962 6.71467 94.9762 6.928C94.6616 7.14133 94.3016 7.312 93.8962 7.44C94.1683 7.59467 94.4029 7.816 94.6003 8.104L97.4963 12.376H95.5602C95.3736 12.376 95.2136 12.3387 95.0803 12.264C94.9523 12.1893 94.8429 12.0827 94.7523 11.944L92.3203 8.24C92.2296 8.10133 92.1283 8.00267 92.0163 7.944C91.9096 7.88533 91.7496 7.856 91.5362 7.856H90.6162ZM90.6162 6.312H91.9603C92.3656 6.312 92.7176 6.26133 93.0163 6.16C93.3203 6.05867 93.5683 5.92 93.7603 5.744C93.9576 5.56267 94.1042 5.34933 94.2002 5.104C94.2962 4.85867 94.3443 4.58933 94.3443 4.296C94.3443 3.70933 94.1496 3.25867 93.7603 2.944C93.3763 2.62933 92.7869 2.472 91.9922 2.472H90.6162V6.312Z" fill="#2F80ED"/>
<path d="M101.101 5.656H101.605C101.807 5.656 101.975 5.62933 102.109 5.576C102.242 5.51733 102.357 5.42667 102.453 5.304L105.645 1.264C105.778 1.09333 105.917 0.976 106.061 0.912C106.21 0.842666 106.397 0.808 106.621 0.808H108.477L104.581 5.616C104.458 5.76533 104.341 5.89067 104.229 5.992C104.117 6.09333 103.997 6.176 103.869 6.24C104.045 6.304 104.202 6.39467 104.341 6.512C104.485 6.62933 104.623 6.77867 104.757 6.96L108.773 12.376H106.869C106.613 12.376 106.421 12.3413 106.293 12.272C106.17 12.1973 106.066 12.0907 105.981 11.952L102.709 7.68C102.602 7.54133 102.482 7.44267 102.349 7.384C102.215 7.32 102.026 7.288 101.781 7.288H101.101V12.376H98.9486V0.8H101.101V5.656Z" fill="#2F80ED"/>
<path d="M119.809 12.376H117.641V7.32H112.216V12.376H110.049V0.808H112.216V5.784H117.641V0.808H119.809V12.376Z" fill="#2F80ED"/>
<path d="M124.566 12.376H122.406V0.808H124.566V12.376Z" fill="#2F80ED"/>
<path d="M129.326 10.6H133.957V12.376H127.174V0.808H129.326V10.6Z" fill="#2F80ED"/>
<path d="M135.38 11.16C135.38 11.0107 135.407 10.872 135.46 10.744C135.519 10.6107 135.599 10.496 135.7 10.4C135.801 10.2987 135.924 10.2213 136.068 10.168C136.212 10.1093 136.369 10.08 136.54 10.08C136.743 10.08 136.919 10.1173 137.068 10.192C137.217 10.2613 137.343 10.36 137.444 10.488C137.545 10.6107 137.62 10.7547 137.668 10.92C137.716 11.08 137.74 11.2507 137.74 11.432C137.74 11.688 137.7 11.9573 137.62 12.24C137.545 12.5227 137.433 12.8053 137.284 13.088C137.135 13.3707 136.951 13.6453 136.732 13.912C136.513 14.1787 136.263 14.424 135.98 14.648L135.636 14.336C135.54 14.256 135.492 14.1573 135.492 14.04C135.492 13.9973 135.505 13.9493 135.532 13.896C135.564 13.8427 135.601 13.7947 135.644 13.752C135.703 13.688 135.775 13.608 135.86 13.512C135.945 13.4213 136.031 13.3147 136.116 13.192C136.201 13.0747 136.279 12.944 136.348 12.8C136.423 12.6613 136.476 12.512 136.508 12.352C136.343 12.352 136.191 12.3227 136.052 12.264C135.913 12.2 135.793 12.1147 135.692 12.008C135.596 11.9013 135.519 11.776 135.46 11.632C135.407 11.488 135.38 11.3307 135.38 11.16Z" fill="#2F80ED"/>
<path d="M153.691 6.592C153.691 7.44 153.55 8.22667 153.267 8.952C152.985 9.672 152.587 10.296 152.075 10.824C151.563 11.352 150.947 11.7653 150.227 12.064C149.507 12.3573 148.71 12.504 147.835 12.504C146.961 12.504 146.161 12.3573 145.435 12.064C144.715 11.7653 144.097 11.352 143.579 10.824C143.067 10.296 142.67 9.672 142.387 8.952C142.105 8.22667 141.963 7.44 141.963 6.592C141.963 5.744 142.105 4.96 142.387 4.24C142.67 3.51467 143.067 2.888 143.579 2.36C144.097 1.832 144.715 1.42133 145.435 1.128C146.161 0.829334 146.961 0.68 147.835 0.68C148.71 0.68 149.507 0.829334 150.227 1.128C150.947 1.42667 151.563 1.84 152.075 2.368C152.587 2.89067 152.985 3.51467 153.267 4.24C153.55 4.96 153.691 5.744 153.691 6.592ZM151.483 6.592C151.483 5.95733 151.398 5.38933 151.227 4.888C151.062 4.38133 150.822 3.952 150.507 3.6C150.193 3.248 149.809 2.97867 149.355 2.792C148.907 2.60533 148.401 2.512 147.835 2.512C147.27 2.512 146.761 2.60533 146.307 2.792C145.854 2.97867 145.467 3.248 145.147 3.6C144.833 3.952 144.59 4.38133 144.419 4.888C144.249 5.38933 144.163 5.95733 144.163 6.592C144.163 7.22667 144.249 7.79733 144.419 8.304C144.59 8.80533 144.833 9.232 145.147 9.584C145.467 9.93067 145.854 10.1973 146.307 10.384C146.761 10.5707 147.27 10.664 147.835 10.664C148.401 10.664 148.907 10.5707 149.355 10.384C149.809 10.1973 150.193 9.93067 150.507 9.584C150.822 9.232 151.062 8.80533 151.227 8.304C151.398 7.79733 151.483 7.22667 151.483 6.592Z" fill="#2F80ED"/>
<path d="M155.304 12.376V0.488H157.28V5.176C157.606 4.82933 157.974 4.55467 158.384 4.352C158.795 4.144 159.275 4.04 159.824 4.04C160.272 4.04 160.68 4.13333 161.048 4.32C161.422 4.50133 161.742 4.768 162.008 5.12C162.28 5.472 162.488 5.90667 162.632 6.424C162.782 6.94133 162.856 7.536 162.856 8.208C162.856 8.82133 162.774 9.38933 162.608 9.912C162.443 10.4347 162.206 10.888 161.896 11.272C161.592 11.656 161.222 11.9573 160.784 12.176C160.352 12.3893 159.867 12.496 159.328 12.496C159.078 12.496 158.848 12.4693 158.64 12.416C158.432 12.368 158.243 12.2987 158.072 12.208C157.902 12.1173 157.742 12.008 157.592 11.88C157.448 11.7467 157.31 11.6 157.176 11.44L157.088 11.992C157.056 12.1307 157 12.2293 156.92 12.288C156.846 12.3467 156.742 12.376 156.608 12.376H155.304ZM159.144 5.576C158.734 5.576 158.382 5.664 158.088 5.84C157.8 6.01067 157.531 6.25333 157.28 6.568V10.248C157.504 10.5253 157.747 10.72 158.008 10.832C158.275 10.9387 158.563 10.992 158.872 10.992C159.171 10.992 159.44 10.936 159.68 10.824C159.92 10.712 160.123 10.5413 160.288 10.312C160.459 10.0827 160.59 9.79467 160.68 9.448C160.771 9.096 160.816 8.68267 160.816 8.208C160.816 7.728 160.776 7.32267 160.696 6.992C160.622 6.656 160.512 6.384 160.368 6.176C160.224 5.968 160.048 5.816 159.84 5.72C159.638 5.624 159.406 5.576 159.144 5.576Z" fill="#2F80ED"/>
<path d="M170.837 12.376H169.949C169.763 12.376 169.616 12.3493 169.509 12.296C169.403 12.2373 169.323 12.1227 169.269 11.952L169.093 11.368C168.885 11.5547 168.68 11.72 168.477 11.864C168.28 12.0027 168.075 12.12 167.861 12.216C167.648 12.312 167.421 12.384 167.181 12.432C166.941 12.48 166.675 12.504 166.381 12.504C166.035 12.504 165.715 12.4587 165.421 12.368C165.128 12.272 164.875 12.1307 164.661 11.944C164.453 11.7573 164.291 11.5253 164.173 11.248C164.056 10.9707 163.997 10.648 163.997 10.28C163.997 9.97067 164.077 9.66667 164.237 9.368C164.403 9.064 164.675 8.792 165.053 8.552C165.432 8.30667 165.936 8.104 166.565 7.944C167.195 7.784 167.976 7.69333 168.909 7.672V7.192C168.909 6.64267 168.792 6.23733 168.557 5.976C168.328 5.70933 167.992 5.576 167.549 5.576C167.229 5.576 166.963 5.61333 166.749 5.688C166.536 5.76267 166.349 5.848 166.189 5.944C166.035 6.03467 165.891 6.11733 165.757 6.192C165.624 6.26667 165.477 6.304 165.317 6.304C165.184 6.304 165.069 6.26933 164.973 6.2C164.877 6.13067 164.8 6.04533 164.741 5.944L164.381 5.312C165.325 4.448 166.464 4.016 167.797 4.016C168.277 4.016 168.704 4.096 169.077 4.256C169.456 4.41067 169.776 4.62933 170.037 4.912C170.299 5.18933 170.496 5.52267 170.629 5.912C170.768 6.30133 170.837 6.728 170.837 7.192V12.376ZM166.997 11.144C167.2 11.144 167.387 11.1253 167.557 11.088C167.728 11.0507 167.888 10.9947 168.037 10.92C168.192 10.8453 168.339 10.7547 168.477 10.648C168.621 10.536 168.765 10.4053 168.909 10.256V8.872C168.333 8.89867 167.851 8.94933 167.461 9.024C167.077 9.09333 166.768 9.184 166.533 9.296C166.299 9.408 166.131 9.53867 166.029 9.688C165.933 9.83733 165.885 10 165.885 10.176C165.885 10.5227 165.987 10.7707 166.189 10.92C166.397 11.0693 166.667 11.144 166.997 11.144Z" fill="#2F80ED"/>
<path d="M174.884 4.168V12.376H172.908V4.168H174.884ZM175.18 1.776C175.18 1.94667 175.146 2.10667 175.076 2.256C175.007 2.40533 174.914 2.536 174.796 2.648C174.684 2.76 174.551 2.85067 174.396 2.92C174.242 2.984 174.076 3.016 173.9 3.016C173.73 3.016 173.567 2.984 173.412 2.92C173.263 2.85067 173.132 2.76 173.02 2.648C172.908 2.536 172.818 2.40533 172.748 2.256C172.684 2.10667 172.652 1.94667 172.652 1.776C172.652 1.6 172.684 1.43467 172.748 1.28C172.818 1.12533 172.908 0.992 173.02 0.88C173.132 0.768 173.263 0.68 173.412 0.616C173.567 0.546667 173.73 0.512 173.9 0.512C174.076 0.512 174.242 0.546667 174.396 0.616C174.551 0.68 174.684 0.768 174.796 0.88C174.914 0.992 175.007 1.12533 175.076 1.28C175.146 1.43467 175.18 1.6 175.18 1.776Z" fill="#2F80ED"/>
<path d="M182.9 12.376C182.644 12.376 182.476 12.256 182.396 12.016L182.236 11.224C182.065 11.416 181.887 11.5893 181.7 11.744C181.513 11.8987 181.311 12.032 181.092 12.144C180.879 12.256 180.647 12.3413 180.396 12.4C180.151 12.464 179.884 12.496 179.596 12.496C179.148 12.496 178.737 12.4027 178.364 12.216C177.991 12.0293 177.668 11.76 177.396 11.408C177.129 11.0507 176.921 10.6107 176.772 10.088C176.628 9.56533 176.556 8.968 176.556 8.296C176.556 7.688 176.639 7.12267 176.804 6.6C176.969 6.07733 177.207 5.624 177.516 5.24C177.825 4.856 178.196 4.55733 178.628 4.344C179.06 4.12533 179.545 4.016 180.084 4.016C180.543 4.016 180.935 4.09067 181.26 4.24C181.585 4.384 181.876 4.57867 182.132 4.824V0.488H184.108V12.376H182.9ZM180.268 10.928C180.679 10.928 181.028 10.8427 181.316 10.672C181.604 10.5013 181.876 10.2587 182.132 9.944V6.264C181.908 5.992 181.663 5.8 181.396 5.688C181.135 5.576 180.852 5.52 180.548 5.52C180.249 5.52 179.977 5.576 179.732 5.688C179.492 5.8 179.287 5.97067 179.116 6.2C178.951 6.424 178.823 6.712 178.732 7.064C178.641 7.41067 178.596 7.82133 178.596 8.296C178.596 8.776 178.633 9.184 178.708 9.52C178.788 9.85067 178.9 10.1227 179.044 10.336C179.188 10.544 179.364 10.696 179.572 10.792C179.78 10.8827 180.012 10.928 180.268 10.928Z" fill="#2F80ED"/>
<path d="M188.057 4.168V9.384C188.057 9.88533 188.172 10.2747 188.401 10.552C188.636 10.824 188.985 10.96 189.449 10.96C189.79 10.96 190.11 10.8853 190.409 10.736C190.708 10.5813 190.99 10.3707 191.257 10.104V4.168H193.233V12.376H192.025C191.769 12.376 191.601 12.256 191.521 12.016L191.385 11.36C191.214 11.5307 191.038 11.688 190.857 11.832C190.676 11.9707 190.481 12.0907 190.273 12.192C190.07 12.288 189.849 12.3627 189.609 12.416C189.374 12.4747 189.121 12.504 188.849 12.504C188.401 12.504 188.004 12.4293 187.657 12.28C187.316 12.1253 187.028 11.9093 186.793 11.632C186.558 11.3547 186.38 11.0267 186.257 10.648C186.14 10.264 186.081 9.84267 186.081 9.384V4.168H188.057Z" fill="#2F80ED"/>
<path d="M197.447 0.488V12.376H195.471V0.488H197.447Z" fill="#2F80ED"/>
<path d="M201.79 0.488V12.376H199.814V0.488H201.79Z" fill="#2F80ED"/>
<path d="M210.462 12.376H209.574C209.388 12.376 209.241 12.3493 209.134 12.296C209.028 12.2373 208.948 12.1227 208.894 11.952L208.718 11.368C208.51 11.5547 208.305 11.72 208.102 11.864C207.905 12.0027 207.7 12.12 207.486 12.216C207.273 12.312 207.046 12.384 206.806 12.432C206.566 12.48 206.3 12.504 206.006 12.504C205.66 12.504 205.34 12.4587 205.046 12.368C204.753 12.272 204.5 12.1307 204.286 11.944C204.078 11.7573 203.916 11.5253 203.798 11.248C203.681 10.9707 203.622 10.648 203.622 10.28C203.622 9.97067 203.702 9.66667 203.862 9.368C204.028 9.064 204.3 8.792 204.678 8.552C205.057 8.30667 205.561 8.104 206.19 7.944C206.82 7.784 207.601 7.69333 208.534 7.672V7.192C208.534 6.64267 208.417 6.23733 208.182 5.976C207.953 5.70933 207.617 5.576 207.174 5.576C206.854 5.576 206.588 5.61333 206.374 5.688C206.161 5.76267 205.974 5.848 205.814 5.944C205.66 6.03467 205.516 6.11733 205.382 6.192C205.249 6.26667 205.102 6.304 204.942 6.304C204.809 6.304 204.694 6.26933 204.598 6.2C204.502 6.13067 204.425 6.04533 204.366 5.944L204.006 5.312C204.95 4.448 206.089 4.016 207.422 4.016C207.902 4.016 208.329 4.096 208.702 4.256C209.081 4.41067 209.401 4.62933 209.662 4.912C209.924 5.18933 210.121 5.52267 210.254 5.912C210.393 6.30133 210.462 6.728 210.462 7.192V12.376ZM206.622 11.144C206.825 11.144 207.012 11.1253 207.182 11.088C207.353 11.0507 207.513 10.9947 207.662 10.92C207.817 10.8453 207.964 10.7547 208.102 10.648C208.246 10.536 208.39 10.4053 208.534 10.256V8.872C207.958 8.89867 207.476 8.94933 207.086 9.024C206.702 9.09333 206.393 9.184 206.158 9.296C205.924 9.408 205.756 9.53867 205.654 9.688C205.558 9.83733 205.51 10 205.51 10.176C205.51 10.5227 205.612 10.7707 205.814 10.92C206.022 11.0693 206.292 11.144 206.622 11.144Z" fill="#2F80ED"/>
<path d="M212.405 12.376V0.488H214.381V5.056C214.701 4.752 215.053 4.50667 215.437 4.32C215.821 4.13333 216.272 4.04 216.789 4.04C217.237 4.04 217.635 4.11733 217.981 4.272C218.328 4.42133 218.616 4.63467 218.845 4.912C219.08 5.184 219.256 5.512 219.373 5.896C219.496 6.27467 219.557 6.69333 219.557 7.152V12.376H217.581V7.152C217.581 6.65067 217.464 6.264 217.229 5.992C217 5.71467 216.653 5.576 216.189 5.576C215.848 5.576 215.528 5.65333 215.229 5.808C214.931 5.96267 214.648 6.17333 214.381 6.44V12.376H212.405Z" fill="#2F80ED"/>
<path d="M224.457 14.84V0H227.737V0.776C227.737 0.914667 227.686 1.03467 227.585 1.136C227.489 1.232 227.363 1.28 227.209 1.28H226.105V13.56H227.209C227.363 13.56 227.489 13.608 227.585 13.704C227.686 13.8053 227.737 13.9253 227.737 14.064V14.84H224.457Z" fill="#2F80ED"/>
<path d="M239.67 12.376H238.006C237.819 12.376 237.664 12.3307 237.542 12.24C237.424 12.144 237.339 12.0267 237.286 11.888L236.422 9.528H231.63L230.766 11.888C230.723 12.0107 230.638 12.1227 230.51 12.224C230.387 12.3253 230.235 12.376 230.054 12.376H228.382L232.926 0.808H235.126L239.67 12.376ZM232.182 8.008H235.87L234.462 4.16C234.398 3.98933 234.326 3.78933 234.246 3.56C234.171 3.32533 234.096 3.072 234.022 2.8C233.947 3.072 233.872 3.32533 233.798 3.56C233.728 3.79467 233.659 4 233.59 4.176L232.182 8.008Z" fill="#2F80ED"/>
<path d="M241.101 12.376V5.656L240.389 5.544C240.234 5.51733 240.109 5.464 240.013 5.384C239.922 5.304 239.877 5.192 239.877 5.048V4.24H241.101V3.632C241.101 3.16267 241.17 2.74133 241.309 2.368C241.453 1.99467 241.656 1.67733 241.917 1.416C242.184 1.15467 242.506 0.954667 242.885 0.816C243.264 0.677333 243.69 0.608 244.165 0.608C244.544 0.608 244.896 0.658667 245.221 0.76L245.181 1.752C245.17 1.90667 245.098 2.00267 244.965 2.04C244.832 2.07733 244.677 2.096 244.501 2.096C244.266 2.096 244.056 2.12267 243.869 2.176C243.688 2.224 243.533 2.312 243.405 2.44C243.277 2.56267 243.178 2.728 243.109 2.936C243.045 3.13867 243.013 3.392 243.013 3.696V4.24H245.149V5.648H243.077V12.376H241.101Z" fill="#2F80ED"/>
<path d="M246.71 12.376V5.656L245.998 5.544C245.844 5.51733 245.718 5.464 245.622 5.384C245.532 5.304 245.486 5.192 245.486 5.048V4.24H246.71V3.976C246.71 3.47467 246.793 3.01067 246.958 2.584C247.124 2.152 247.374 1.77867 247.71 1.464C248.046 1.14933 248.47 0.904 248.982 0.728C249.494 0.546666 250.1 0.455999 250.798 0.455999C251.022 0.455999 251.252 0.469333 251.486 0.496C251.721 0.517333 251.924 0.554667 252.094 0.608L252.03 1.632C252.02 1.75467 251.953 1.82933 251.83 1.856C251.708 1.87733 251.556 1.888 251.374 1.888C250.857 1.888 250.422 1.93333 250.07 2.024C249.724 2.11467 249.441 2.25067 249.222 2.432C249.009 2.608 248.854 2.832 248.758 3.104C248.668 3.37067 248.622 3.68267 248.622 4.04V4.24H253.71V12.376H251.734V5.648H248.686V12.376H246.71Z" fill="#2F80ED"/>
<path d="M255.968 12.376V4.168H257.128C257.33 4.168 257.472 4.20533 257.552 4.28C257.632 4.35467 257.685 4.48267 257.712 4.664L257.832 5.656C258.125 5.14933 258.469 4.74933 258.864 4.456C259.258 4.16267 259.701 4.016 260.192 4.016C260.597 4.016 260.933 4.10933 261.2 4.296L260.944 5.776C260.928 5.872 260.893 5.94133 260.84 5.984C260.786 6.02133 260.714 6.04 260.624 6.04C260.544 6.04 260.434 6.02133 260.296 5.984C260.157 5.94667 259.973 5.928 259.744 5.928C259.333 5.928 258.981 6.04267 258.688 6.272C258.394 6.496 258.146 6.82667 257.944 7.264V12.376H255.968Z" fill="#2F80ED"/>
<path d="M262.499 12.376V4.168H263.707C263.963 4.168 264.131 4.288 264.211 4.528L264.339 5.136C264.483 4.976 264.632 4.82933 264.787 4.696C264.947 4.56267 265.115 4.448 265.291 4.352C265.472 4.256 265.664 4.18133 265.867 4.128C266.075 4.06933 266.302 4.04 266.547 4.04C267.064 4.04 267.488 4.18133 267.819 4.464C268.155 4.74133 268.406 5.112 268.571 5.576C268.699 5.304 268.859 5.072 269.051 4.88C269.243 4.68267 269.454 4.52267 269.683 4.4C269.912 4.27733 270.155 4.18667 270.411 4.128C270.672 4.06933 270.934 4.04 271.195 4.04C271.648 4.04 272.051 4.10933 272.403 4.248C272.755 4.38667 273.051 4.58933 273.291 4.856C273.531 5.12267 273.712 5.448 273.835 5.832C273.963 6.216 274.027 6.656 274.027 7.152V12.376H272.051V7.152C272.051 6.62933 271.936 6.23733 271.707 5.976C271.478 5.70933 271.142 5.576 270.699 5.576C270.496 5.576 270.307 5.61067 270.131 5.68C269.96 5.74933 269.808 5.85067 269.675 5.984C269.547 6.112 269.446 6.27467 269.371 6.472C269.296 6.66933 269.259 6.896 269.259 7.152V12.376H267.275V7.152C267.275 6.60267 267.163 6.20267 266.939 5.952C266.72 5.70133 266.395 5.576 265.963 5.576C265.68 5.576 265.414 5.648 265.163 5.792C264.918 5.93067 264.688 6.12267 264.475 6.368V12.376H262.499Z" fill="#2F80ED"/>
<path d="M282.4 12.376H281.512C281.325 12.376 281.178 12.3493 281.072 12.296C280.965 12.2373 280.885 12.1227 280.832 11.952L280.656 11.368C280.448 11.5547 280.242 11.72 280.04 11.864C279.842 12.0027 279.637 12.12 279.424 12.216C279.21 12.312 278.984 12.384 278.744 12.432C278.504 12.48 278.237 12.504 277.944 12.504C277.597 12.504 277.277 12.4587 276.984 12.368C276.69 12.272 276.437 12.1307 276.224 11.944C276.016 11.7573 275.853 11.5253 275.736 11.248C275.618 10.9707 275.56 10.648 275.56 10.28C275.56 9.97067 275.64 9.66667 275.8 9.368C275.965 9.064 276.237 8.792 276.616 8.552C276.994 8.30667 277.498 8.104 278.128 7.944C278.757 7.784 279.538 7.69333 280.472 7.672V7.192C280.472 6.64267 280.354 6.23733 280.12 5.976C279.89 5.70933 279.554 5.576 279.112 5.576C278.792 5.576 278.525 5.61333 278.312 5.688C278.098 5.76267 277.912 5.848 277.752 5.944C277.597 6.03467 277.453 6.11733 277.32 6.192C277.186 6.26667 277.04 6.304 276.88 6.304C276.746 6.304 276.632 6.26933 276.536 6.2C276.44 6.13067 276.362 6.04533 276.304 5.944L275.944 5.312C276.888 4.448 278.026 4.016 279.36 4.016C279.84 4.016 280.266 4.096 280.64 4.256C281.018 4.41067 281.338 4.62933 281.6 4.912C281.861 5.18933 282.058 5.52267 282.192 5.912C282.33 6.30133 282.4 6.728 282.4 7.192V12.376ZM278.56 11.144C278.762 11.144 278.949 11.1253 279.12 11.088C279.29 11.0507 279.45 10.9947 279.6 10.92C279.754 10.8453 279.901 10.7547 280.04 10.648C280.184 10.536 280.328 10.4053 280.472 10.256V8.872C279.896 8.89867 279.413 8.94933 279.024 9.024C278.64 9.09333 278.33 9.184 278.096 9.296C277.861 9.408 277.693 9.53867 277.592 9.688C277.496 9.83733 277.448 10 277.448 10.176C277.448 10.5227 277.549 10.7707 277.752 10.92C277.96 11.0693 278.229 11.144 278.56 11.144Z" fill="#2F80ED"/>
<path d="M287.039 12.504C286.329 12.504 285.783 12.304 285.399 11.904C285.015 11.4987 284.823 10.9413 284.823 10.232V5.648H283.991C283.884 5.648 283.791 5.61333 283.711 5.544C283.636 5.47467 283.599 5.37067 283.599 5.232V4.448L284.919 4.232L285.335 1.992C285.356 1.88533 285.404 1.80267 285.479 1.744C285.559 1.68533 285.657 1.656 285.775 1.656H286.799V4.24H288.959V5.648H286.799V10.096C286.799 10.352 286.863 10.552 286.991 10.696C287.119 10.84 287.289 10.912 287.503 10.912C287.625 10.912 287.727 10.8987 287.807 10.872C287.892 10.84 287.964 10.808 288.023 10.776C288.087 10.744 288.143 10.7147 288.191 10.688C288.239 10.656 288.287 10.64 288.335 10.64C288.393 10.64 288.441 10.656 288.479 10.688C288.516 10.7147 288.556 10.7573 288.599 10.816L289.191 11.776C288.903 12.016 288.572 12.1973 288.199 12.32C287.825 12.4427 287.439 12.504 287.039 12.504Z" fill="#2F80ED"/>
<path d="M292.634 4.168V12.376H290.658V4.168H292.634ZM292.93 1.776C292.93 1.94667 292.896 2.10667 292.826 2.256C292.757 2.40533 292.664 2.536 292.546 2.648C292.434 2.76 292.301 2.85067 292.146 2.92C291.992 2.984 291.826 3.016 291.65 3.016C291.48 3.016 291.317 2.984 291.162 2.92C291.013 2.85067 290.882 2.76 290.77 2.648C290.658 2.536 290.568 2.40533 290.498 2.256C290.434 2.10667 290.402 1.94667 290.402 1.776C290.402 1.6 290.434 1.43467 290.498 1.28C290.568 1.12533 290.658 0.992 290.77 0.88C290.882 0.768 291.013 0.68 291.162 0.616C291.317 0.546667 291.48 0.512 291.65 0.512C291.826 0.512 291.992 0.546667 292.146 0.616C292.301 0.68 292.434 0.768 292.546 0.88C292.664 0.992 292.757 1.12533 292.826 1.28C292.896 1.43467 292.93 1.6 292.93 1.776Z" fill="#2F80ED"/>
<path d="M298.986 12.376H297.194L293.93 4.168H295.57C295.714 4.168 295.834 4.20267 295.93 4.272C296.031 4.34133 296.101 4.42933 296.138 4.536L297.722 8.92C297.813 9.176 297.887 9.42667 297.946 9.672C298.01 9.91733 298.066 10.1627 298.114 10.408C298.162 10.1627 298.215 9.91733 298.274 9.672C298.338 9.42667 298.418 9.176 298.514 8.92L300.138 4.536C300.175 4.42933 300.242 4.34133 300.338 4.272C300.434 4.20267 300.549 4.168 300.682 4.168H302.242L298.986 12.376Z" fill="#2F80ED"/>
<path d="M306.532 4.04C307.049 4.04 307.524 4.12267 307.956 4.288C308.393 4.45333 308.769 4.696 309.084 5.016C309.398 5.33067 309.644 5.72 309.82 6.184C309.996 6.64267 310.084 7.168 310.084 7.76C310.084 7.90933 310.076 8.03467 310.06 8.136C310.049 8.232 310.025 8.30933 309.988 8.368C309.956 8.42133 309.91 8.46133 309.852 8.488C309.793 8.50933 309.718 8.52 309.628 8.52H304.556C304.614 9.36267 304.841 9.98133 305.236 10.376C305.63 10.7707 306.153 10.968 306.804 10.968C307.124 10.968 307.398 10.9307 307.628 10.856C307.862 10.7813 308.065 10.6987 308.236 10.608C308.412 10.5173 308.564 10.4347 308.692 10.36C308.825 10.2853 308.953 10.248 309.076 10.248C309.156 10.248 309.225 10.264 309.284 10.296C309.342 10.328 309.393 10.3733 309.436 10.432L310.012 11.152C309.793 11.408 309.548 11.624 309.276 11.8C309.004 11.9707 308.718 12.1093 308.42 12.216C308.126 12.3173 307.825 12.3893 307.516 12.432C307.212 12.4747 306.916 12.496 306.628 12.496C306.057 12.496 305.526 12.4027 305.036 12.216C304.545 12.024 304.118 11.744 303.756 11.376C303.393 11.0027 303.108 10.544 302.9 10C302.692 9.45067 302.588 8.816 302.588 8.096C302.588 7.536 302.678 7.01067 302.86 6.52C303.041 6.024 303.3 5.59467 303.636 5.232C303.977 4.864 304.39 4.57333 304.876 4.36C305.366 4.14667 305.918 4.04 306.532 4.04ZM306.572 5.456C305.996 5.456 305.545 5.61867 305.22 5.944C304.894 6.26933 304.686 6.73067 304.596 7.328H308.308C308.308 7.072 308.273 6.832 308.204 6.608C308.134 6.37867 308.028 6.17867 307.884 6.008C307.74 5.83733 307.558 5.704 307.34 5.608C307.121 5.50667 306.865 5.456 306.572 5.456Z" fill="#2F80ED"/>
<path d="M322.188 0.808V2.52H317.06V5.944H321.388V7.664H317.06V12.376H314.892V0.808H322.188Z" fill="#2F80ED"/>
<path d="M325.869 4.168V12.376H323.893V4.168H325.869ZM326.165 1.776C326.165 1.94667 326.13 2.10667 326.061 2.256C325.991 2.40533 325.898 2.536 325.781 2.648C325.669 2.76 325.535 2.85067 325.381 2.92C325.226 2.984 325.061 3.016 324.885 3.016C324.714 3.016 324.551 2.984 324.397 2.92C324.247 2.85067 324.117 2.76 324.005 2.648C323.893 2.536 323.802 2.40533 323.733 2.256C323.669 2.10667 323.637 1.94667 323.637 1.776C323.637 1.6 323.669 1.43467 323.733 1.28C323.802 1.12533 323.893 0.992 324.005 0.88C324.117 0.768 324.247 0.68 324.397 0.616C324.551 0.546667 324.714 0.512 324.885 0.512C325.061 0.512 325.226 0.546667 325.381 0.616C325.535 0.68 325.669 0.768 325.781 0.88C325.898 0.992 325.991 1.12533 326.061 1.28C326.13 1.43467 326.165 1.6 326.165 1.776Z" fill="#2F80ED"/>
<path d="M330.212 0.488V12.376H328.236V0.488H330.212Z" fill="#2F80ED"/>
<path d="M334.556 4.168V12.376H332.58V4.168H334.556ZM334.852 1.776C334.852 1.94667 334.817 2.10667 334.748 2.256C334.679 2.40533 334.585 2.536 334.468 2.648C334.356 2.76 334.223 2.85067 334.068 2.92C333.913 2.984 333.748 3.016 333.572 3.016C333.401 3.016 333.239 2.984 333.084 2.92C332.935 2.85067 332.804 2.76 332.692 2.648C332.58 2.536 332.489 2.40533 332.42 2.256C332.356 2.10667 332.324 1.94667 332.324 1.776C332.324 1.6 332.356 1.43467 332.42 1.28C332.489 1.12533 332.58 0.992 332.692 0.88C332.804 0.768 332.935 0.68 333.084 0.616C333.239 0.546667 333.401 0.512 333.572 0.512C333.748 0.512 333.913 0.546667 334.068 0.616C334.223 0.68 334.356 0.768 334.468 0.88C334.585 0.992 334.679 1.12533 334.748 1.28C334.817 1.43467 334.852 1.6 334.852 1.776Z" fill="#2F80ED"/>
<path d="M336.796 12.376V4.168H338.004C338.26 4.168 338.428 4.288 338.508 4.528L338.644 5.176C338.809 5.00533 338.983 4.85067 339.164 4.712C339.351 4.57333 339.545 4.45333 339.748 4.352C339.956 4.25067 340.177 4.17333 340.412 4.12C340.647 4.06667 340.903 4.04 341.18 4.04C341.628 4.04 342.025 4.11733 342.372 4.272C342.719 4.42133 343.007 4.63467 343.236 4.912C343.471 5.184 343.647 5.512 343.764 5.896C343.887 6.27467 343.948 6.69333 343.948 7.152V12.376H341.972V7.152C341.972 6.65067 341.855 6.264 341.62 5.992C341.391 5.71467 341.044 5.576 340.58 5.576C340.239 5.576 339.919 5.65333 339.62 5.808C339.321 5.96267 339.039 6.17333 338.772 6.44V12.376H336.796Z" fill="#2F80ED"/>
<path d="M348.73 4.024C349.082 4.024 349.412 4.06133 349.722 4.136C350.031 4.20533 350.314 4.30933 350.57 4.448H352.93V5.184C352.93 5.30667 352.898 5.40267 352.834 5.472C352.77 5.54133 352.66 5.58933 352.506 5.616L351.77 5.752C351.823 5.89067 351.863 6.03733 351.89 6.192C351.922 6.34667 351.938 6.50933 351.938 6.68C351.938 7.08533 351.855 7.45333 351.69 7.784C351.53 8.10933 351.306 8.38667 351.018 8.616C350.735 8.84533 350.396 9.024 350.002 9.152C349.612 9.27467 349.188 9.336 348.73 9.336C348.42 9.336 348.119 9.30667 347.826 9.248C347.57 9.40267 347.442 9.576 347.442 9.768C347.442 9.93333 347.516 10.056 347.666 10.136C347.82 10.2107 348.02 10.264 348.266 10.296C348.516 10.328 348.799 10.3493 349.114 10.36C349.428 10.3653 349.751 10.3813 350.082 10.408C350.412 10.4347 350.735 10.4827 351.05 10.552C351.364 10.616 351.644 10.72 351.89 10.864C352.14 11.008 352.34 11.2053 352.49 11.456C352.644 11.7013 352.722 12.0187 352.722 12.408C352.722 12.7707 352.631 13.1227 352.45 13.464C352.274 13.8053 352.015 14.1093 351.674 14.376C351.338 14.6427 350.924 14.856 350.434 15.016C349.943 15.1813 349.383 15.264 348.754 15.264C348.13 15.264 347.588 15.2027 347.13 15.08C346.671 14.9627 346.29 14.8027 345.986 14.6C345.687 14.4027 345.463 14.1733 345.314 13.912C345.164 13.6507 345.09 13.3787 345.09 13.096C345.09 12.712 345.207 12.3893 345.442 12.128C345.676 11.8667 346.002 11.6587 346.418 11.504C346.215 11.392 346.052 11.2427 345.93 11.056C345.807 10.8693 345.746 10.6267 345.746 10.328C345.746 10.2053 345.767 10.08 345.81 9.952C345.852 9.81867 345.916 9.688 346.002 9.56C346.092 9.432 346.204 9.312 346.338 9.2C346.471 9.08267 346.628 8.97867 346.81 8.888C346.394 8.664 346.066 8.36533 345.826 7.992C345.591 7.61867 345.474 7.18133 345.474 6.68C345.474 6.27467 345.554 5.90933 345.714 5.584C345.879 5.25333 346.106 4.97333 346.394 4.744C346.687 4.50933 347.031 4.33067 347.426 4.208C347.826 4.08533 348.26 4.024 348.73 4.024ZM350.898 12.744C350.898 12.584 350.85 12.4533 350.754 12.352C350.658 12.2507 350.527 12.1733 350.362 12.12C350.196 12.0613 350.002 12.0187 349.778 11.992C349.559 11.9653 349.324 11.9467 349.074 11.936C348.828 11.92 348.572 11.9067 348.306 11.896C348.044 11.88 347.791 11.856 347.546 11.824C347.322 11.9467 347.14 12.0933 347.002 12.264C346.868 12.4293 346.802 12.6213 346.802 12.84C346.802 12.984 346.836 13.1173 346.906 13.24C346.98 13.368 347.095 13.4773 347.25 13.568C347.41 13.6587 347.615 13.728 347.866 13.776C348.116 13.8293 348.423 13.856 348.786 13.856C349.154 13.856 349.471 13.8267 349.738 13.768C350.004 13.7147 350.223 13.6373 350.394 13.536C350.57 13.44 350.698 13.3227 350.778 13.184C350.858 13.0507 350.898 12.904 350.898 12.744ZM348.73 8.072C348.975 8.072 349.188 8.04 349.37 7.976C349.551 7.90667 349.7 7.81333 349.818 7.696C349.94 7.57867 350.031 7.43733 350.09 7.272C350.154 7.10667 350.186 6.92533 350.186 6.728C350.186 6.32267 350.063 6.00267 349.818 5.768C349.578 5.528 349.215 5.408 348.73 5.408C348.244 5.408 347.879 5.528 347.634 5.768C347.394 6.00267 347.274 6.32267 347.274 6.728C347.274 6.92 347.303 7.09867 347.362 7.264C347.426 7.42933 347.516 7.57333 347.634 7.696C347.756 7.81333 347.908 7.90667 348.09 7.976C348.276 8.04 348.49 8.072 348.73 8.072Z" fill="#2F80ED"/>
<path d="M356.265 4.168H357.833C357.982 4.168 358.107 4.20267 358.209 4.272C358.31 4.34133 358.374 4.42933 358.401 4.536L359.577 8.92C359.641 9.16 359.691 9.39467 359.729 9.624C359.771 9.85333 359.811 10.0827 359.849 10.312C359.907 10.0827 359.969 9.85333 360.033 9.624C360.102 9.39467 360.174 9.16 360.249 8.92L361.609 4.52C361.641 4.41333 361.705 4.32533 361.801 4.256C361.897 4.18667 362.009 4.152 362.137 4.152H363.009C363.153 4.152 363.273 4.18667 363.369 4.256C363.465 4.32533 363.529 4.41333 363.561 4.52L364.905 9C364.974 9.22933 365.035 9.45333 365.089 9.672C365.147 9.88533 365.203 10.1013 365.257 10.32C365.294 10.0907 365.334 9.86133 365.377 9.632C365.425 9.40267 365.483 9.16533 365.553 8.92L366.769 4.536C366.795 4.42933 366.859 4.34133 366.961 4.272C367.062 4.20267 367.179 4.168 367.313 4.168H368.809L366.209 12.376H364.617C364.446 12.376 364.323 12.2587 364.249 12.024L362.769 7.28C362.721 7.12533 362.675 6.97067 362.633 6.816C362.595 6.656 362.563 6.49867 362.537 6.344C362.505 6.504 362.47 6.664 362.433 6.824C362.395 6.97867 362.353 7.136 362.305 7.296L360.809 12.024C360.734 12.2587 360.59 12.376 360.377 12.376H358.865L356.265 4.168Z" fill="#2F80ED"/>
<path d="M372.025 4.168V12.376H370.049V4.168H372.025ZM372.321 1.776C372.321 1.94667 372.286 2.10667 372.217 2.256C372.148 2.40533 372.054 2.536 371.937 2.648C371.825 2.76 371.692 2.85067 371.537 2.92C371.382 2.984 371.217 3.016 371.041 3.016C370.87 3.016 370.708 2.984 370.553 2.92C370.404 2.85067 370.273 2.76 370.161 2.648C370.049 2.536 369.958 2.40533 369.889 2.256C369.825 2.10667 369.793 1.94667 369.793 1.776C369.793 1.6 369.825 1.43467 369.889 1.28C369.958 1.12533 370.049 0.992 370.161 0.88C370.273 0.768 370.404 0.68 370.553 0.616C370.708 0.546667 370.87 0.512 371.041 0.512C371.217 0.512 371.382 0.546667 371.537 0.616C371.692 0.68 371.825 0.768 371.937 0.88C372.054 0.992 372.148 1.12533 372.217 1.28C372.286 1.43467 372.321 1.6 372.321 1.776Z" fill="#2F80ED"/>
<path d="M376.961 12.504C376.251 12.504 375.705 12.304 375.321 11.904C374.937 11.4987 374.745 10.9413 374.745 10.232V5.648H373.913C373.806 5.648 373.713 5.61333 373.633 5.544C373.558 5.47467 373.521 5.37067 373.521 5.232V4.448L374.841 4.232L375.257 1.992C375.278 1.88533 375.326 1.80267 375.401 1.744C375.481 1.68533 375.579 1.656 375.697 1.656H376.721V4.24H378.881V5.648H376.721V10.096C376.721 10.352 376.785 10.552 376.913 10.696C377.041 10.84 377.211 10.912 377.425 10.912C377.547 10.912 377.649 10.8987 377.729 10.872C377.814 10.84 377.886 10.808 377.945 10.776C378.009 10.744 378.065 10.7147 378.113 10.688C378.161 10.656 378.209 10.64 378.257 10.64C378.315 10.64 378.363 10.656 378.401 10.688C378.438 10.7147 378.478 10.7573 378.521 10.816L379.113 11.776C378.825 12.016 378.494 12.1973 378.121 12.32C377.747 12.4427 377.361 12.504 376.961 12.504Z" fill="#2F80ED"/>
<path d="M380.452 12.376V0.488H382.428V5.056C382.748 4.752 383.1 4.50667 383.484 4.32C383.868 4.13333 384.319 4.04 384.836 4.04C385.284 4.04 385.681 4.11733 386.028 4.272C386.375 4.42133 386.663 4.63467 386.892 4.912C387.127 5.184 387.303 5.512 387.42 5.896C387.543 6.27467 387.604 6.69333 387.604 7.152V12.376H385.628V7.152C385.628 6.65067 385.511 6.264 385.276 5.992C385.047 5.71467 384.7 5.576 384.236 5.576C383.895 5.576 383.575 5.65333 383.276 5.808C382.977 5.96267 382.695 6.17333 382.428 6.44V12.376H380.452Z" fill="#2F80ED"/>
<path d="M401.016 0.808V1.6C401.016 1.84533 400.946 2.06933 400.808 2.272L394.872 10.656H400.872V12.376H392.08V11.528C392.08 11.4213 392.098 11.32 392.136 11.224C392.173 11.1227 392.221 11.0293 392.28 10.944L398.232 2.52H392.456V0.808H401.016Z" fill="#2F80ED"/>
<path d="M412.387 12.376H410.219V7.32H404.795V12.376H402.627V0.808H404.795V5.784H410.219V0.808H412.387V12.376Z" fill="#2F80ED"/>
<path d="M415.848 0.808C415.944 0.808 416.024 0.813333 416.088 0.823999C416.152 0.829333 416.208 0.845333 416.256 0.872C416.31 0.893333 416.36 0.928 416.408 0.976C416.456 1.01867 416.51 1.07733 416.568 1.152L422.64 8.888C422.619 8.70133 422.603 8.52 422.592 8.344C422.587 8.16267 422.584 7.99467 422.584 7.84V0.808H424.48V12.376H423.368C423.198 12.376 423.056 12.3493 422.944 12.296C422.832 12.2427 422.723 12.1467 422.616 12.008L416.568 4.304C416.584 4.47467 416.595 4.64533 416.6 4.816C416.611 4.98133 416.616 5.13333 416.616 5.272V12.376H414.72V0.808H415.848Z" fill="#2F80ED"/>
<path d="M426.246 14.84V14.064C426.246 13.9253 426.294 13.8053 426.39 13.704C426.491 13.608 426.619 13.56 426.774 13.56H427.878V1.28H426.774C426.619 1.28 426.491 1.232 426.39 1.136C426.294 1.03467 426.246 0.914667 426.246 0.776V0H429.526V14.84H426.246Z" fill="#2F80ED"/>
</svg>
