<svg width="430" height="16" viewBox="0 0 430 16" fill="none" xmlns="http://www.w3.org/2000/svg">
<path d="M2.66 12.975H0.5V1.407H2.66V12.975Z" fill="#2F80ED"/>
<path d="M4.89925 7.319H9.04325V8.967H4.89925V7.319Z" fill="#2F80ED"/>
<path d="M17.7613 2.247C17.7613 2.52967 17.6706 2.759 17.4893 2.935C17.3132 3.111 17.0173 3.199 16.6013 3.199H13.4172L13.0013 5.615C13.5239 5.50833 14.0012 5.455 14.4332 5.455C15.0412 5.455 15.5746 5.54567 16.0332 5.727C16.4972 5.90833 16.8866 6.159 17.2013 6.479C17.5159 6.799 17.7533 7.175 17.9132 7.607C18.0732 8.03367 18.1533 8.495 18.1533 8.991C18.1533 9.60433 18.0439 10.1643 17.8253 10.671C17.6119 11.1777 17.3133 11.6123 16.9293 11.975C16.5452 12.3323 16.0892 12.6097 15.5612 12.807C15.0386 13.0043 14.4679 13.103 13.8492 13.103C13.4866 13.103 13.1426 13.0657 12.8173 12.991C12.4919 12.9163 12.1853 12.8177 11.8973 12.695C11.6146 12.567 11.3506 12.423 11.1053 12.263C10.8653 12.0977 10.6493 11.9243 10.4572 11.743L11.0652 10.903C11.1932 10.7217 11.3639 10.631 11.5772 10.631C11.7106 10.631 11.8439 10.6737 11.9773 10.759C12.1159 10.8443 12.2759 10.9377 12.4572 11.039C12.6386 11.1403 12.8492 11.2337 13.0892 11.319C13.3292 11.4043 13.6199 11.447 13.9612 11.447C14.3239 11.447 14.6439 11.3883 14.9213 11.271C15.1986 11.1537 15.4279 10.991 15.6093 10.783C15.7959 10.5697 15.9346 10.319 16.0253 10.031C16.1213 9.73767 16.1692 9.42033 16.1692 9.079C16.1692 8.44967 15.9852 7.959 15.6172 7.607C15.2546 7.24967 14.7186 7.071 14.0092 7.071C13.4492 7.071 12.8866 7.17233 12.3212 7.375L11.0892 7.023L12.0492 1.407H17.7613V2.247Z" fill="#2F80ED"/>
<path d="M23.7705 13.103C23.1732 13.103 22.6265 13.023 22.1305 12.863C21.6398 12.703 21.2185 12.4763 20.8665 12.183C20.5145 11.8897 20.2398 11.535 20.0425 11.119C19.8505 10.703 19.7545 10.239 19.7545 9.727C19.7545 9.04433 19.9225 8.46833 20.2585 7.999C20.5945 7.52433 21.1172 7.17233 21.8265 6.943C21.2612 6.70833 20.8372 6.375 20.5545 5.943C20.2772 5.511 20.1385 4.991 20.1385 4.383C20.1385 3.94567 20.2265 3.53767 20.4025 3.159C20.5838 2.78033 20.8345 2.45233 21.1545 2.175C21.4745 1.89233 21.8558 1.67367 22.2985 1.519C22.7465 1.359 23.2372 1.279 23.7705 1.279C24.3038 1.279 24.7918 1.359 25.2345 1.519C25.6825 1.67367 26.0665 1.89233 26.3865 2.175C26.7065 2.45233 26.9545 2.78033 27.1305 3.159C27.3118 3.53767 27.4025 3.94567 27.4025 4.383C27.4025 4.991 27.2612 5.511 26.9785 5.943C26.6958 6.375 26.2745 6.70833 25.7145 6.943C26.4238 7.17233 26.9465 7.52433 27.2825 7.999C27.6185 8.46833 27.7865 9.04433 27.7865 9.727C27.7865 10.239 27.6878 10.703 27.4905 11.119C27.2985 11.535 27.0265 11.8897 26.6745 12.183C26.3225 12.4763 25.8985 12.703 25.4025 12.863C24.9118 13.023 24.3678 13.103 23.7705 13.103ZM23.7705 11.559C24.0958 11.559 24.3812 11.5137 24.6265 11.423C24.8718 11.327 25.0772 11.1963 25.2425 11.031C25.4132 10.8657 25.5412 10.6683 25.6265 10.439C25.7118 10.2097 25.7545 9.96167 25.7545 9.695C25.7545 9.06033 25.5785 8.58033 25.2265 8.255C24.8745 7.92967 24.3892 7.767 23.7705 7.767C23.1518 7.767 22.6665 7.92967 22.3145 8.255C21.9625 8.58033 21.7865 9.06033 21.7865 9.695C21.7865 9.96167 21.8292 10.2097 21.9145 10.439C21.9998 10.6683 22.1252 10.8657 22.2905 11.031C22.4612 11.1963 22.6692 11.327 22.9145 11.423C23.1598 11.5137 23.4452 11.559 23.7705 11.559ZM23.7705 6.215C24.0905 6.215 24.3598 6.16433 24.5785 6.063C24.7972 5.96167 24.9732 5.82833 25.1065 5.663C25.2398 5.49233 25.3332 5.30033 25.3865 5.087C25.4452 4.86833 25.4745 4.64433 25.4745 4.415C25.4745 4.19633 25.4398 3.98833 25.3705 3.791C25.3012 3.59367 25.1972 3.42033 25.0585 3.271C24.9198 3.11633 24.7438 2.99367 24.5305 2.903C24.3172 2.81233 24.0638 2.767 23.7705 2.767C23.4772 2.767 23.2238 2.81233 23.0105 2.903C22.7972 2.99367 22.6185 3.11633 22.4745 3.271C22.3358 3.42033 22.2318 3.59367 22.1625 3.791C22.0985 3.98833 22.0665 4.19633 22.0665 4.415C22.0665 4.64433 22.0932 4.86833 22.1465 5.087C22.2052 5.30033 22.3012 5.49233 22.4345 5.663C22.5678 5.82833 22.7438 5.96167 22.9625 6.063C23.1812 6.16433 23.4505 6.215 23.7705 6.215Z" fill="#2F80ED"/>
<path d="M32.6518 8.359C32.2518 8.359 31.8598 8.28967 31.4757 8.151C31.0917 8.01233 30.7478 7.80433 30.4438 7.527C30.1451 7.24433 29.9051 6.89767 29.7238 6.487C29.5424 6.071 29.4518 5.58567 29.4518 5.031C29.4518 4.51367 29.5478 4.02833 29.7397 3.575C29.9317 3.12167 30.2011 2.72433 30.5478 2.383C30.8944 2.04167 31.3104 1.77233 31.7957 1.575C32.2811 1.37767 32.8171 1.279 33.4038 1.279C33.9958 1.279 34.5264 1.37233 34.9958 1.559C35.4704 1.74567 35.8731 2.007 36.2038 2.343C36.5397 2.679 36.7958 3.08167 36.9718 3.551C37.1531 4.02033 37.2438 4.535 37.2438 5.095C37.2438 5.45233 37.2118 5.791 37.1478 6.111C37.0891 6.431 37.0011 6.74033 36.8838 7.039C36.7718 7.33233 36.6357 7.62033 36.4757 7.903C36.3158 8.18033 36.1371 8.46033 35.9398 8.743L33.2918 12.519C33.2011 12.647 33.0651 12.7563 32.8838 12.847C32.7078 12.9323 32.5051 12.975 32.2757 12.975H30.4598L34.0518 8.487C34.1424 8.375 34.2278 8.26567 34.3078 8.159C34.3877 8.05233 34.4651 7.94567 34.5397 7.839C34.2731 8.00967 33.9798 8.14033 33.6598 8.231C33.3398 8.31633 33.0038 8.359 32.6518 8.359ZM35.3478 4.895C35.3478 4.58033 35.2998 4.30033 35.2038 4.055C35.1077 3.80433 34.9717 3.59367 34.7957 3.423C34.6198 3.25233 34.4091 3.12167 34.1637 3.031C33.9237 2.94033 33.6598 2.895 33.3717 2.895C33.0731 2.895 32.8037 2.94567 32.5638 3.047C32.3238 3.143 32.1184 3.279 31.9478 3.455C31.7824 3.631 31.6544 3.84167 31.5638 4.087C31.4731 4.327 31.4277 4.591 31.4277 4.879C31.4277 5.52433 31.5931 6.01767 31.9238 6.359C32.2598 6.695 32.7344 6.863 33.3478 6.863C33.6678 6.863 33.9504 6.81233 34.1958 6.711C34.4464 6.60967 34.6571 6.471 34.8278 6.295C34.9984 6.119 35.1264 5.911 35.2118 5.671C35.3024 5.431 35.3478 5.17233 35.3478 4.895Z" fill="#2F80ED"/>
<path d="M41.5868 7.319H45.7308V8.967H41.5868V7.319Z" fill="#2F80ED"/>
<path d="M60.9665 12.975H59.3025C59.1158 12.975 58.9612 12.9297 58.8385 12.839C58.7212 12.743 58.6358 12.6257 58.5825 12.487L57.7185 10.127H52.9265L52.0625 12.487C52.0198 12.6097 51.9345 12.7217 51.8065 12.823C51.6838 12.9243 51.5318 12.975 51.3505 12.975H49.6785L54.2225 1.407H56.4225L60.9665 12.975ZM53.4785 8.607H57.1665L55.7585 4.759C55.6945 4.58833 55.6225 4.38833 55.5425 4.159C55.4678 3.92433 55.3932 3.671 55.3185 3.399C55.2438 3.671 55.1692 3.92433 55.0945 4.159C55.0252 4.39367 54.9558 4.599 54.8865 4.775L53.4785 8.607Z" fill="#2F80ED"/>
<path d="M67.9659 8.175C68.0565 8.34567 68.1392 8.52433 68.2139 8.711C68.2939 8.89233 68.3712 9.07633 68.4459 9.263C68.5205 9.071 68.5979 8.88167 68.6779 8.695C68.7579 8.50833 68.8432 8.32967 68.9339 8.159L72.3579 1.751C72.4005 1.671 72.4432 1.607 72.4859 1.559C72.5339 1.511 72.5845 1.47633 72.6379 1.455C72.6965 1.43367 72.7605 1.42033 72.8299 1.415C72.8992 1.40967 72.9819 1.407 73.0779 1.407H74.7019V12.975H72.8059V5.503C72.8059 5.36433 72.8085 5.21233 72.8139 5.047C72.8245 4.88167 72.8379 4.71367 72.8539 4.543L69.3579 11.103C69.2779 11.2523 69.1739 11.3697 69.0459 11.455C68.9179 11.535 68.7685 11.575 68.5979 11.575H68.3019C68.1312 11.575 67.9819 11.535 67.8539 11.455C67.7259 11.3697 67.6219 11.2523 67.5419 11.103L63.9979 4.519C64.0192 4.695 64.0325 4.86833 64.0379 5.039C64.0485 5.20433 64.0539 5.359 64.0539 5.503V12.975H62.1579V1.407H63.7819C63.8779 1.407 63.9605 1.40967 64.0299 1.415C64.0992 1.42033 64.1605 1.43367 64.2139 1.455C64.2725 1.47633 64.3259 1.511 64.3739 1.559C64.4219 1.607 64.4672 1.671 64.5099 1.751L67.9659 8.175Z" fill="#2F80ED"/>
<path d="M87.2009 12.975H85.5369C85.3502 12.975 85.1955 12.9297 85.0729 12.839C84.9555 12.743 84.8702 12.6257 84.8169 12.487L83.9529 10.127H79.1609L78.2969 12.487C78.2542 12.6097 78.1689 12.7217 78.0409 12.823C77.9182 12.9243 77.7662 12.975 77.5849 12.975H75.9129L80.4569 1.407H82.6569L87.2009 12.975ZM79.7129 8.607H83.4009L81.9929 4.759C81.9289 4.58833 81.8569 4.38833 81.7769 4.159C81.7022 3.92433 81.6275 3.671 81.5529 3.399C81.4782 3.671 81.4035 3.92433 81.3289 4.159C81.2595 4.39367 81.1902 4.599 81.1209 4.775L79.7129 8.607Z" fill="#2F80ED"/>
<path d="M90.6162 8.455V12.975H88.4642V1.407H91.9922C92.7816 1.407 93.4563 1.48967 94.0163 1.655C94.5816 1.815 95.0429 2.04167 95.4003 2.335C95.7629 2.62833 96.0269 2.98033 96.1923 3.391C96.3629 3.79633 96.4482 4.24433 96.4482 4.735C96.4482 5.12433 96.3896 5.49233 96.2723 5.839C96.1603 6.18567 95.9949 6.50033 95.7763 6.783C95.5629 7.06567 95.2962 7.31367 94.9762 7.527C94.6616 7.74033 94.3016 7.911 93.8962 8.039C94.1683 8.19367 94.4029 8.415 94.6003 8.703L97.4963 12.975H95.5602C95.3736 12.975 95.2136 12.9377 95.0803 12.863C94.9523 12.7883 94.8429 12.6817 94.7523 12.543L92.3203 8.839C92.2296 8.70033 92.1283 8.60167 92.0163 8.543C91.9096 8.48433 91.7496 8.455 91.5362 8.455H90.6162ZM90.6162 6.911H91.9603C92.3656 6.911 92.7176 6.86033 93.0163 6.759C93.3203 6.65767 93.5683 6.519 93.7603 6.343C93.9576 6.16167 94.1042 5.94833 94.2002 5.703C94.2962 5.45767 94.3443 5.18833 94.3443 4.895C94.3443 4.30833 94.1496 3.85767 93.7603 3.543C93.3763 3.22833 92.7869 3.071 91.9922 3.071H90.6162V6.911Z" fill="#2F80ED"/>
<path d="M101.101 6.255H101.605C101.807 6.255 101.975 6.22833 102.109 6.175C102.242 6.11633 102.357 6.02567 102.453 5.903L105.645 1.863C105.778 1.69233 105.917 1.575 106.061 1.511C106.21 1.44167 106.397 1.407 106.621 1.407H108.477L104.581 6.215C104.458 6.36433 104.341 6.48967 104.229 6.591C104.117 6.69233 103.997 6.775 103.869 6.839C104.045 6.903 104.202 6.99367 104.341 7.111C104.485 7.22833 104.623 7.37767 104.757 7.559L108.773 12.975H106.869C106.613 12.975 106.421 12.9403 106.293 12.871C106.17 12.7963 106.066 12.6897 105.981 12.551L102.709 8.279C102.602 8.14033 102.482 8.04167 102.349 7.983C102.215 7.919 102.026 7.887 101.781 7.887H101.101V12.975H98.9486V1.399H101.101V6.255Z" fill="#2F80ED"/>
<path d="M119.809 12.975H117.641V7.919H112.216V12.975H110.049V1.407H112.216V6.383H117.641V1.407H119.809V12.975Z" fill="#2F80ED"/>
<path d="M124.566 12.975H122.406V1.407H124.566V12.975Z" fill="#2F80ED"/>
<path d="M129.326 11.199H133.957V12.975H127.174V1.407H129.326V11.199Z" fill="#2F80ED"/>
<path d="M135.38 11.759C135.38 11.6097 135.407 11.471 135.46 11.343C135.519 11.2097 135.599 11.095 135.7 10.999C135.801 10.8977 135.924 10.8203 136.068 10.767C136.212 10.7083 136.369 10.679 136.54 10.679C136.743 10.679 136.919 10.7163 137.068 10.791C137.217 10.8603 137.343 10.959 137.444 11.087C137.545 11.2097 137.62 11.3537 137.668 11.519C137.716 11.679 137.74 11.8497 137.74 12.031C137.74 12.287 137.7 12.5563 137.62 12.839C137.545 13.1217 137.433 13.4043 137.284 13.687C137.135 13.9697 136.951 14.2443 136.732 14.511C136.513 14.7777 136.263 15.023 135.98 15.247L135.636 14.935C135.54 14.855 135.492 14.7563 135.492 14.639C135.492 14.5963 135.505 14.5483 135.532 14.495C135.564 14.4417 135.601 14.3937 135.644 14.351C135.703 14.287 135.775 14.207 135.86 14.111C135.945 14.0203 136.031 13.9137 136.116 13.791C136.201 13.6737 136.279 13.543 136.348 13.399C136.423 13.2603 136.476 13.111 136.508 12.951C136.343 12.951 136.191 12.9217 136.052 12.863C135.913 12.799 135.793 12.7137 135.692 12.607C135.596 12.5003 135.519 12.375 135.46 12.231C135.407 12.087 135.38 11.9297 135.38 11.759Z" fill="#2F80ED"/>
<path d="M153.691 7.191C153.691 8.039 153.55 8.82567 153.267 9.551C152.985 10.271 152.587 10.895 152.075 11.423C151.563 11.951 150.947 12.3643 150.227 12.663C149.507 12.9563 148.71 13.103 147.835 13.103C146.961 13.103 146.161 12.9563 145.435 12.663C144.715 12.3643 144.097 11.951 143.579 11.423C143.067 10.895 142.67 10.271 142.387 9.551C142.105 8.82567 141.963 8.039 141.963 7.191C141.963 6.343 142.105 5.559 142.387 4.839C142.67 4.11367 143.067 3.487 143.579 2.959C144.097 2.431 144.715 2.02033 145.435 1.727C146.161 1.42833 146.961 1.279 147.835 1.279C148.71 1.279 149.507 1.42833 150.227 1.727C150.947 2.02567 151.563 2.439 152.075 2.967C152.587 3.48967 152.985 4.11367 153.267 4.839C153.55 5.559 153.691 6.343 153.691 7.191ZM151.483 7.191C151.483 6.55633 151.398 5.98833 151.227 5.487C151.062 4.98033 150.822 4.551 150.507 4.199C150.193 3.847 149.809 3.57767 149.355 3.391C148.907 3.20433 148.401 3.111 147.835 3.111C147.27 3.111 146.761 3.20433 146.307 3.391C145.854 3.57767 145.467 3.847 145.147 4.199C144.833 4.551 144.59 4.98033 144.419 5.487C144.249 5.98833 144.163 6.55633 144.163 7.191C144.163 7.82567 144.249 8.39633 144.419 8.903C144.59 9.40433 144.833 9.831 145.147 10.183C145.467 10.5297 145.854 10.7963 146.307 10.983C146.761 11.1697 147.27 11.263 147.835 11.263C148.401 11.263 148.907 11.1697 149.355 10.983C149.809 10.7963 150.193 10.5297 150.507 10.183C150.822 9.831 151.062 9.40433 151.227 8.903C151.398 8.39633 151.483 7.82567 151.483 7.191Z" fill="#2F80ED"/>
<path d="M155.304 12.975V1.087H157.28V5.775C157.606 5.42833 157.974 5.15367 158.384 4.951C158.795 4.743 159.275 4.639 159.824 4.639C160.272 4.639 160.68 4.73233 161.048 4.919C161.422 5.10033 161.742 5.367 162.008 5.719C162.28 6.071 162.488 6.50567 162.632 7.023C162.782 7.54033 162.856 8.135 162.856 8.807C162.856 9.42033 162.774 9.98833 162.608 10.511C162.443 11.0337 162.206 11.487 161.896 11.871C161.592 12.255 161.222 12.5563 160.784 12.775C160.352 12.9883 159.867 13.095 159.328 13.095C159.078 13.095 158.848 13.0683 158.64 13.015C158.432 12.967 158.243 12.8977 158.072 12.807C157.902 12.7163 157.742 12.607 157.592 12.479C157.448 12.3457 157.31 12.199 157.176 12.039L157.088 12.591C157.056 12.7297 157 12.8283 156.92 12.887C156.846 12.9457 156.742 12.975 156.608 12.975H155.304ZM159.144 6.175C158.734 6.175 158.382 6.263 158.088 6.439C157.8 6.60967 157.531 6.85233 157.28 7.167V10.847C157.504 11.1243 157.747 11.319 158.008 11.431C158.275 11.5377 158.563 11.591 158.872 11.591C159.171 11.591 159.44 11.535 159.68 11.423C159.92 11.311 160.123 11.1403 160.288 10.911C160.459 10.6817 160.59 10.3937 160.68 10.047C160.771 9.695 160.816 9.28167 160.816 8.807C160.816 8.327 160.776 7.92167 160.696 7.591C160.622 7.255 160.512 6.983 160.368 6.775C160.224 6.567 160.048 6.415 159.84 6.319C159.638 6.223 159.406 6.175 159.144 6.175Z" fill="#2F80ED"/>
<path d="M170.837 12.975H169.949C169.763 12.975 169.616 12.9483 169.509 12.895C169.403 12.8363 169.323 12.7217 169.269 12.551L169.093 11.967C168.885 12.1537 168.68 12.319 168.477 12.463C168.28 12.6017 168.075 12.719 167.861 12.815C167.648 12.911 167.421 12.983 167.181 13.031C166.941 13.079 166.675 13.103 166.381 13.103C166.035 13.103 165.715 13.0577 165.421 12.967C165.128 12.871 164.875 12.7297 164.661 12.543C164.453 12.3563 164.291 12.1243 164.173 11.847C164.056 11.5697 163.997 11.247 163.997 10.879C163.997 10.5697 164.077 10.2657 164.237 9.967C164.403 9.663 164.675 9.391 165.053 9.151C165.432 8.90567 165.936 8.703 166.565 8.543C167.195 8.383 167.976 8.29233 168.909 8.271V7.791C168.909 7.24167 168.792 6.83633 168.557 6.575C168.328 6.30833 167.992 6.175 167.549 6.175C167.229 6.175 166.963 6.21233 166.749 6.287C166.536 6.36167 166.349 6.447 166.189 6.543C166.035 6.63367 165.891 6.71633 165.757 6.791C165.624 6.86567 165.477 6.903 165.317 6.903C165.184 6.903 165.069 6.86833 164.973 6.799C164.877 6.72967 164.8 6.64433 164.741 6.543L164.381 5.911C165.325 5.047 166.464 4.615 167.797 4.615C168.277 4.615 168.704 4.695 169.077 4.855C169.456 5.00967 169.776 5.22833 170.037 5.511C170.299 5.78833 170.496 6.12167 170.629 6.511C170.768 6.90033 170.837 7.327 170.837 7.791V12.975ZM166.997 11.743C167.2 11.743 167.387 11.7243 167.557 11.687C167.728 11.6497 167.888 11.5937 168.037 11.519C168.192 11.4443 168.339 11.3537 168.477 11.247C168.621 11.135 168.765 11.0043 168.909 10.855V9.471C168.333 9.49767 167.851 9.54833 167.461 9.623C167.077 9.69233 166.768 9.783 166.533 9.895C166.299 10.007 166.131 10.1377 166.029 10.287C165.933 10.4363 165.885 10.599 165.885 10.775C165.885 11.1217 165.987 11.3697 166.189 11.519C166.397 11.6683 166.667 11.743 166.997 11.743Z" fill="#2F80ED"/>
<path d="M174.884 4.767V12.975H172.908V4.767H174.884ZM175.18 2.375C175.18 2.54567 175.146 2.70567 175.076 2.855C175.007 3.00433 174.914 3.135 174.796 3.247C174.684 3.359 174.551 3.44967 174.396 3.519C174.242 3.583 174.076 3.615 173.9 3.615C173.73 3.615 173.567 3.583 173.412 3.519C173.263 3.44967 173.132 3.359 173.02 3.247C172.908 3.135 172.818 3.00433 172.748 2.855C172.684 2.70567 172.652 2.54567 172.652 2.375C172.652 2.199 172.684 2.03367 172.748 1.879C172.818 1.72433 172.908 1.591 173.02 1.479C173.132 1.367 173.263 1.279 173.412 1.215C173.567 1.14567 173.73 1.111 173.9 1.111C174.076 1.111 174.242 1.14567 174.396 1.215C174.551 1.279 174.684 1.367 174.796 1.479C174.914 1.591 175.007 1.72433 175.076 1.879C175.146 2.03367 175.18 2.199 175.18 2.375Z" fill="#2F80ED"/>
<path d="M182.9 12.975C182.644 12.975 182.476 12.855 182.396 12.615L182.236 11.823C182.065 12.015 181.887 12.1883 181.7 12.343C181.513 12.4977 181.311 12.631 181.092 12.743C180.879 12.855 180.647 12.9403 180.396 12.999C180.151 13.063 179.884 13.095 179.596 13.095C179.148 13.095 178.737 13.0017 178.364 12.815C177.991 12.6283 177.668 12.359 177.396 12.007C177.129 11.6497 176.921 11.2097 176.772 10.687C176.628 10.1643 176.556 9.567 176.556 8.895C176.556 8.287 176.639 7.72167 176.804 7.199C176.969 6.67633 177.207 6.223 177.516 5.839C177.825 5.455 178.196 5.15633 178.628 4.943C179.06 4.72433 179.545 4.615 180.084 4.615C180.543 4.615 180.935 4.68967 181.26 4.839C181.585 4.983 181.876 5.17767 182.132 5.423V1.087H184.108V12.975H182.9ZM180.268 11.527C180.679 11.527 181.028 11.4417 181.316 11.271C181.604 11.1003 181.876 10.8577 182.132 10.543V6.863C181.908 6.591 181.663 6.399 181.396 6.287C181.135 6.175 180.852 6.119 180.548 6.119C180.249 6.119 179.977 6.175 179.732 6.287C179.492 6.399 179.287 6.56967 179.116 6.799C178.951 7.023 178.823 7.311 178.732 7.663C178.641 8.00967 178.596 8.42033 178.596 8.895C178.596 9.375 178.633 9.783 178.708 10.119C178.788 10.4497 178.9 10.7217 179.044 10.935C179.188 11.143 179.364 11.295 179.572 11.391C179.78 11.4817 180.012 11.527 180.268 11.527Z" fill="#2F80ED"/>
<path d="M188.057 4.767V9.983C188.057 10.4843 188.172 10.8737 188.401 11.151C188.636 11.423 188.985 11.559 189.449 11.559C189.79 11.559 190.11 11.4843 190.409 11.335C190.708 11.1803 190.99 10.9697 191.257 10.703V4.767H193.233V12.975H192.025C191.769 12.975 191.601 12.855 191.521 12.615L191.385 11.959C191.214 12.1297 191.038 12.287 190.857 12.431C190.676 12.5697 190.481 12.6897 190.273 12.791C190.07 12.887 189.849 12.9617 189.609 13.015C189.374 13.0737 189.121 13.103 188.849 13.103C188.401 13.103 188.004 13.0283 187.657 12.879C187.316 12.7243 187.028 12.5083 186.793 12.231C186.558 11.9537 186.38 11.6257 186.257 11.247C186.14 10.863 186.081 10.4417 186.081 9.983V4.767H188.057Z" fill="#2F80ED"/>
<path d="M197.447 1.087V12.975H195.471V1.087H197.447Z" fill="#2F80ED"/>
<path d="M201.79 1.087V12.975H199.814V1.087H201.79Z" fill="#2F80ED"/>
<path d="M210.462 12.975H209.574C209.388 12.975 209.241 12.9483 209.134 12.895C209.028 12.8363 208.948 12.7217 208.894 12.551L208.718 11.967C208.51 12.1537 208.305 12.319 208.102 12.463C207.905 12.6017 207.7 12.719 207.486 12.815C207.273 12.911 207.046 12.983 206.806 13.031C206.566 13.079 206.3 13.103 206.006 13.103C205.66 13.103 205.34 13.0577 205.046 12.967C204.753 12.871 204.5 12.7297 204.286 12.543C204.078 12.3563 203.916 12.1243 203.798 11.847C203.681 11.5697 203.622 11.247 203.622 10.879C203.622 10.5697 203.702 10.2657 203.862 9.967C204.028 9.663 204.3 9.391 204.678 9.151C205.057 8.90567 205.561 8.703 206.19 8.543C206.82 8.383 207.601 8.29233 208.534 8.271V7.791C208.534 7.24167 208.417 6.83633 208.182 6.575C207.953 6.30833 207.617 6.175 207.174 6.175C206.854 6.175 206.588 6.21233 206.374 6.287C206.161 6.36167 205.974 6.447 205.814 6.543C205.66 6.63367 205.516 6.71633 205.382 6.791C205.249 6.86567 205.102 6.903 204.942 6.903C204.809 6.903 204.694 6.86833 204.598 6.799C204.502 6.72967 204.425 6.64433 204.366 6.543L204.006 5.911C204.95 5.047 206.089 4.615 207.422 4.615C207.902 4.615 208.329 4.695 208.702 4.855C209.081 5.00967 209.401 5.22833 209.662 5.511C209.924 5.78833 210.121 6.12167 210.254 6.511C210.393 6.90033 210.462 7.327 210.462 7.791V12.975ZM206.622 11.743C206.825 11.743 207.012 11.7243 207.182 11.687C207.353 11.6497 207.513 11.5937 207.662 11.519C207.817 11.4443 207.964 11.3537 208.102 11.247C208.246 11.135 208.39 11.0043 208.534 10.855V9.471C207.958 9.49767 207.476 9.54833 207.086 9.623C206.702 9.69233 206.393 9.783 206.158 9.895C205.924 10.007 205.756 10.1377 205.654 10.287C205.558 10.4363 205.51 10.599 205.51 10.775C205.51 11.1217 205.612 11.3697 205.814 11.519C206.022 11.6683 206.292 11.743 206.622 11.743Z" fill="#2F80ED"/>
<path d="M212.405 12.975V1.087H214.381V5.655C214.701 5.351 215.053 5.10567 215.437 4.919C215.821 4.73233 216.272 4.639 216.789 4.639C217.237 4.639 217.635 4.71633 217.981 4.871C218.328 5.02033 218.616 5.23366 218.845 5.511C219.08 5.783 219.256 6.111 219.373 6.495C219.496 6.87367 219.557 7.29233 219.557 7.751V12.975H217.581V7.751C217.581 7.24967 217.464 6.863 217.229 6.591C217 6.31367 216.653 6.175 216.189 6.175C215.848 6.175 215.528 6.25233 215.229 6.407C214.931 6.56167 214.648 6.77233 214.381 7.039V12.975H212.405Z" fill="#2F80ED"/>
<path d="M224.457 15.439V0.598999H227.737V1.375C227.737 1.51367 227.686 1.63367 227.585 1.735C227.489 1.831 227.363 1.879 227.209 1.879H226.105V14.159H227.209C227.363 14.159 227.489 14.207 227.585 14.303C227.686 14.4043 227.737 14.5243 227.737 14.663V15.439H224.457Z" fill="#2F80ED"/>
<path d="M239.67 12.975H238.006C237.819 12.975 237.664 12.9297 237.542 12.839C237.424 12.743 237.339 12.6257 237.286 12.487L236.422 10.127H231.63L230.766 12.487C230.723 12.6097 230.638 12.7217 230.51 12.823C230.387 12.9243 230.235 12.975 230.054 12.975H228.382L232.926 1.407H235.126L239.67 12.975ZM232.182 8.607H235.87L234.462 4.759C234.398 4.58833 234.326 4.38833 234.246 4.159C234.171 3.92433 234.096 3.671 234.022 3.399C233.947 3.671 233.872 3.92433 233.798 4.159C233.728 4.39367 233.659 4.599 233.59 4.775L232.182 8.607Z" fill="#2F80ED"/>
<path d="M241.101 12.975V6.255L240.389 6.143C240.234 6.11633 240.109 6.063 240.013 5.983C239.922 5.903 239.877 5.791 239.877 5.647V4.839H241.101V4.231C241.101 3.76167 241.17 3.34033 241.309 2.967C241.453 2.59367 241.656 2.27633 241.917 2.015C242.184 1.75367 242.506 1.55367 242.885 1.415C243.264 1.27633 243.69 1.207 244.165 1.207C244.544 1.207 244.896 1.25767 245.221 1.359L245.181 2.351C245.17 2.50567 245.098 2.60167 244.965 2.639C244.832 2.67633 244.677 2.695 244.501 2.695C244.266 2.695 244.056 2.72167 243.869 2.775C243.688 2.823 243.533 2.911 243.405 3.039C243.277 3.16167 243.178 3.327 243.109 3.535C243.045 3.73767 243.013 3.991 243.013 4.295V4.839H245.149V6.247H243.077V12.975H241.101Z" fill="#2F80ED"/>
<path d="M246.71 12.975V6.255L245.998 6.143C245.844 6.11633 245.718 6.063 245.622 5.983C245.532 5.903 245.486 5.791 245.486 5.647V4.839H246.71V4.575C246.71 4.07367 246.793 3.60967 246.958 3.183C247.124 2.751 247.374 2.37767 247.71 2.063C248.046 1.74833 248.47 1.503 248.982 1.327C249.494 1.14567 250.1 1.055 250.798 1.055C251.022 1.055 251.252 1.06833 251.486 1.095C251.721 1.11633 251.924 1.15367 252.094 1.207L252.03 2.231C252.02 2.35367 251.953 2.42833 251.83 2.455C251.708 2.47633 251.556 2.487 251.374 2.487C250.857 2.487 250.422 2.53233 250.07 2.623C249.724 2.71367 249.441 2.84967 249.222 3.031C249.009 3.207 248.854 3.431 248.758 3.703C248.668 3.96967 248.622 4.28167 248.622 4.639V4.839H253.71V12.975H251.734V6.247H248.686V12.975H246.71Z" fill="#2F80ED"/>
<path d="M255.968 12.975V4.767H257.128C257.33 4.767 257.472 4.80433 257.552 4.879C257.632 4.95367 257.685 5.08167 257.712 5.263L257.832 6.255C258.125 5.74833 258.469 5.34833 258.864 5.055C259.258 4.76167 259.701 4.615 260.192 4.615C260.597 4.615 260.933 4.70833 261.2 4.895L260.944 6.375C260.928 6.471 260.893 6.54033 260.84 6.583C260.786 6.62033 260.714 6.639 260.624 6.639C260.544 6.639 260.434 6.62033 260.296 6.583C260.157 6.54567 259.973 6.527 259.744 6.527C259.333 6.527 258.981 6.64167 258.688 6.871C258.394 7.095 258.146 7.42567 257.944 7.863V12.975H255.968Z" fill="#2F80ED"/>
<path d="M262.499 12.975V4.767H263.707C263.963 4.767 264.131 4.887 264.211 5.127L264.339 5.735C264.483 5.575 264.632 5.42833 264.787 5.295C264.947 5.16167 265.115 5.047 265.291 4.951C265.472 4.855 265.664 4.78033 265.867 4.727C266.075 4.66833 266.302 4.639 266.547 4.639C267.064 4.639 267.488 4.78033 267.819 5.063C268.155 5.34033 268.406 5.711 268.571 6.175C268.699 5.903 268.859 5.671 269.051 5.479C269.243 5.28167 269.454 5.12167 269.683 4.999C269.912 4.87633 270.155 4.78567 270.411 4.727C270.672 4.66833 270.934 4.639 271.195 4.639C271.648 4.639 272.051 4.70833 272.403 4.847C272.755 4.98567 273.051 5.18833 273.291 5.455C273.531 5.72167 273.712 6.047 273.835 6.431C273.963 6.815 274.027 7.255 274.027 7.751V12.975H272.051V7.751C272.051 7.22833 271.936 6.83633 271.707 6.575C271.478 6.30833 271.142 6.175 270.699 6.175C270.496 6.175 270.307 6.20967 270.131 6.279C269.96 6.34833 269.808 6.44967 269.675 6.583C269.547 6.711 269.446 6.87367 269.371 7.071C269.296 7.26833 269.259 7.495 269.259 7.751V12.975H267.275V7.751C267.275 7.20167 267.163 6.80167 266.939 6.551C266.72 6.30033 266.395 6.175 265.963 6.175C265.68 6.175 265.414 6.247 265.163 6.391C264.918 6.52967 264.688 6.72167 264.475 6.967V12.975H262.499Z" fill="#2F80ED"/>
<path d="M282.4 12.975H281.512C281.325 12.975 281.178 12.9483 281.072 12.895C280.965 12.8363 280.885 12.7217 280.832 12.551L280.656 11.967C280.448 12.1537 280.242 12.319 280.04 12.463C279.842 12.6017 279.637 12.719 279.424 12.815C279.21 12.911 278.984 12.983 278.744 13.031C278.504 13.079 278.237 13.103 277.944 13.103C277.597 13.103 277.277 13.0577 276.984 12.967C276.69 12.871 276.437 12.7297 276.224 12.543C276.016 12.3563 275.853 12.1243 275.736 11.847C275.618 11.5697 275.56 11.247 275.56 10.879C275.56 10.5697 275.64 10.2657 275.8 9.967C275.965 9.663 276.237 9.391 276.616 9.151C276.994 8.90567 277.498 8.703 278.128 8.543C278.757 8.383 279.538 8.29233 280.472 8.271V7.791C280.472 7.24167 280.354 6.83633 280.12 6.575C279.89 6.30833 279.554 6.175 279.112 6.175C278.792 6.175 278.525 6.21233 278.312 6.287C278.098 6.36167 277.912 6.447 277.752 6.543C277.597 6.63367 277.453 6.71633 277.32 6.791C277.186 6.86567 277.04 6.903 276.88 6.903C276.746 6.903 276.632 6.86833 276.536 6.799C276.44 6.72967 276.362 6.64433 276.304 6.543L275.944 5.911C276.888 5.047 278.026 4.615 279.36 4.615C279.84 4.615 280.266 4.695 280.64 4.855C281.018 5.00967 281.338 5.22833 281.6 5.511C281.861 5.78833 282.058 6.12167 282.192 6.511C282.33 6.90033 282.4 7.327 282.4 7.791V12.975ZM278.56 11.743C278.762 11.743 278.949 11.7243 279.12 11.687C279.29 11.6497 279.45 11.5937 279.6 11.519C279.754 11.4443 279.901 11.3537 280.04 11.247C280.184 11.135 280.328 11.0043 280.472 10.855V9.471C279.896 9.49767 279.413 9.54833 279.024 9.623C278.64 9.69233 278.33 9.783 278.096 9.895C277.861 10.007 277.693 10.1377 277.592 10.287C277.496 10.4363 277.448 10.599 277.448 10.775C277.448 11.1217 277.549 11.3697 277.752 11.519C277.96 11.6683 278.229 11.743 278.56 11.743Z" fill="#2F80ED"/>
<path d="M287.039 13.103C286.329 13.103 285.783 12.903 285.399 12.503C285.015 12.0977 284.823 11.5403 284.823 10.831V6.247H283.991C283.884 6.247 283.791 6.21233 283.711 6.143C283.636 6.07367 283.599 5.96967 283.599 5.831V5.047L284.919 4.831L285.335 2.591C285.356 2.48433 285.404 2.40167 285.479 2.343C285.559 2.28433 285.657 2.255 285.775 2.255H286.799V4.839H288.959V6.247H286.799V10.695C286.799 10.951 286.863 11.151 286.991 11.295C287.119 11.439 287.289 11.511 287.503 11.511C287.625 11.511 287.727 11.4977 287.807 11.471C287.892 11.439 287.964 11.407 288.023 11.375C288.087 11.343 288.143 11.3137 288.191 11.287C288.239 11.255 288.287 11.239 288.335 11.239C288.393 11.239 288.441 11.255 288.479 11.287C288.516 11.3137 288.556 11.3563 288.599 11.415L289.191 12.375C288.903 12.615 288.572 12.7963 288.199 12.919C287.825 13.0417 287.439 13.103 287.039 13.103Z" fill="#2F80ED"/>
<path d="M292.634 4.767V12.975H290.658V4.767H292.634ZM292.93 2.375C292.93 2.54567 292.896 2.70567 292.826 2.855C292.757 3.00433 292.664 3.135 292.546 3.247C292.434 3.359 292.301 3.44967 292.146 3.519C291.992 3.583 291.826 3.615 291.65 3.615C291.48 3.615 291.317 3.583 291.162 3.519C291.013 3.44967 290.882 3.359 290.77 3.247C290.658 3.135 290.568 3.00433 290.498 2.855C290.434 2.70567 290.402 2.54567 290.402 2.375C290.402 2.199 290.434 2.03367 290.498 1.879C290.568 1.72433 290.658 1.591 290.77 1.479C290.882 1.367 291.013 1.279 291.162 1.215C291.317 1.14567 291.48 1.111 291.65 1.111C291.826 1.111 291.992 1.14567 292.146 1.215C292.301 1.279 292.434 1.367 292.546 1.479C292.664 1.591 292.757 1.72433 292.826 1.879C292.896 2.03367 292.93 2.199 292.93 2.375Z" fill="#2F80ED"/>
<path d="M298.986 12.975H297.194L293.93 4.767H295.57C295.714 4.767 295.834 4.80167 295.93 4.871C296.031 4.94033 296.101 5.02833 296.138 5.135L297.722 9.519C297.813 9.775 297.887 10.0257 297.946 10.271C298.01 10.5163 298.066 10.7617 298.114 11.007C298.162 10.7617 298.215 10.5163 298.274 10.271C298.338 10.0257 298.418 9.775 298.514 9.519L300.138 5.135C300.175 5.02833 300.242 4.94033 300.338 4.871C300.434 4.80167 300.549 4.767 300.682 4.767H302.242L298.986 12.975Z" fill="#2F80ED"/>
<path d="M306.532 4.639C307.049 4.639 307.524 4.72167 307.956 4.887C308.393 5.05233 308.769 5.295 309.084 5.615C309.398 5.92967 309.644 6.319 309.82 6.783C309.996 7.24167 310.084 7.767 310.084 8.359C310.084 8.50833 310.076 8.63367 310.06 8.735C310.049 8.831 310.025 8.90833 309.988 8.967C309.956 9.02033 309.91 9.06033 309.852 9.087C309.793 9.10833 309.718 9.119 309.628 9.119H304.556C304.614 9.96167 304.841 10.5803 305.236 10.975C305.63 11.3697 306.153 11.567 306.804 11.567C307.124 11.567 307.398 11.5297 307.628 11.455C307.862 11.3803 308.065 11.2977 308.236 11.207C308.412 11.1163 308.564 11.0337 308.692 10.959C308.825 10.8843 308.953 10.847 309.076 10.847C309.156 10.847 309.225 10.863 309.284 10.895C309.342 10.927 309.393 10.9723 309.436 11.031L310.012 11.751C309.793 12.007 309.548 12.223 309.276 12.399C309.004 12.5697 308.718 12.7083 308.42 12.815C308.126 12.9163 307.825 12.9883 307.516 13.031C307.212 13.0737 306.916 13.095 306.628 13.095C306.057 13.095 305.526 13.0017 305.036 12.815C304.545 12.623 304.118 12.343 303.756 11.975C303.393 11.6017 303.108 11.143 302.9 10.599C302.692 10.0497 302.588 9.415 302.588 8.695C302.588 8.135 302.678 7.60967 302.86 7.119C303.041 6.623 303.3 6.19367 303.636 5.831C303.977 5.463 304.39 5.17233 304.876 4.959C305.366 4.74567 305.918 4.639 306.532 4.639ZM306.572 6.055C305.996 6.055 305.545 6.21767 305.22 6.543C304.894 6.86833 304.686 7.32967 304.596 7.927H308.308C308.308 7.671 308.273 7.431 308.204 7.207C308.134 6.97767 308.028 6.77767 307.884 6.607C307.74 6.43633 307.558 6.303 307.34 6.207C307.121 6.10567 306.865 6.055 306.572 6.055Z" fill="#2F80ED"/>
<path d="M322.188 1.407V3.119H317.06V6.543H321.388V8.263H317.06V12.975H314.892V1.407H322.188Z" fill="#2F80ED"/>
<path d="M325.869 4.767V12.975H323.893V4.767H325.869ZM326.165 2.375C326.165 2.54567 326.13 2.70567 326.061 2.855C325.991 3.00433 325.898 3.135 325.781 3.247C325.669 3.359 325.535 3.44967 325.381 3.519C325.226 3.583 325.061 3.615 324.885 3.615C324.714 3.615 324.551 3.583 324.397 3.519C324.247 3.44967 324.117 3.359 324.005 3.247C323.893 3.135 323.802 3.00433 323.733 2.855C323.669 2.70567 323.637 2.54567 323.637 2.375C323.637 2.199 323.669 2.03367 323.733 1.879C323.802 1.72433 323.893 1.591 324.005 1.479C324.117 1.367 324.247 1.279 324.397 1.215C324.551 1.14567 324.714 1.111 324.885 1.111C325.061 1.111 325.226 1.14567 325.381 1.215C325.535 1.279 325.669 1.367 325.781 1.479C325.898 1.591 325.991 1.72433 326.061 1.879C326.13 2.03367 326.165 2.199 326.165 2.375Z" fill="#2F80ED"/>
<path d="M330.212 1.087V12.975H328.236V1.087H330.212Z" fill="#2F80ED"/>
<path d="M334.556 4.767V12.975H332.58V4.767H334.556ZM334.852 2.375C334.852 2.54567 334.817 2.70567 334.748 2.855C334.679 3.00433 334.585 3.135 334.468 3.247C334.356 3.359 334.223 3.44967 334.068 3.519C333.913 3.583 333.748 3.615 333.572 3.615C333.401 3.615 333.239 3.583 333.084 3.519C332.935 3.44967 332.804 3.359 332.692 3.247C332.58 3.135 332.489 3.00433 332.42 2.855C332.356 2.70567 332.324 2.54567 332.324 2.375C332.324 2.199 332.356 2.03367 332.42 1.879C332.489 1.72433 332.58 1.591 332.692 1.479C332.804 1.367 332.935 1.279 333.084 1.215C333.239 1.14567 333.401 1.111 333.572 1.111C333.748 1.111 333.913 1.14567 334.068 1.215C334.223 1.279 334.356 1.367 334.468 1.479C334.585 1.591 334.679 1.72433 334.748 1.879C334.817 2.03367 334.852 2.199 334.852 2.375Z" fill="#2F80ED"/>
<path d="M336.796 12.975V4.767H338.004C338.26 4.767 338.428 4.887 338.508 5.127L338.644 5.775C338.809 5.60433 338.983 5.44967 339.164 5.311C339.351 5.17233 339.545 5.05233 339.748 4.951C339.956 4.84967 340.177 4.77233 340.412 4.719C340.647 4.66567 340.903 4.639 341.18 4.639C341.628 4.639 342.025 4.71633 342.372 4.871C342.719 5.02033 343.007 5.23366 343.236 5.511C343.471 5.783 343.647 6.111 343.764 6.495C343.887 6.87367 343.948 7.29233 343.948 7.751V12.975H341.972V7.751C341.972 7.24967 341.855 6.863 341.62 6.591C341.391 6.31367 341.044 6.175 340.58 6.175C340.239 6.175 339.919 6.25233 339.62 6.407C339.321 6.56167 339.039 6.77233 338.772 7.039V12.975H336.796Z" fill="#2F80ED"/>
<path d="M348.73 4.623C349.082 4.623 349.412 4.66033 349.722 4.735C350.031 4.80433 350.314 4.90833 350.57 5.047H352.93V5.783C352.93 5.90567 352.898 6.00167 352.834 6.071C352.77 6.14033 352.66 6.18833 352.506 6.215L351.77 6.351C351.823 6.48967 351.863 6.63633 351.89 6.791C351.922 6.94567 351.938 7.10833 351.938 7.279C351.938 7.68433 351.855 8.05233 351.69 8.383C351.53 8.70833 351.306 8.98567 351.018 9.215C350.735 9.44433 350.396 9.623 350.002 9.751C349.612 9.87367 349.188 9.935 348.73 9.935C348.42 9.935 348.119 9.90567 347.826 9.847C347.57 10.0017 347.442 10.175 347.442 10.367C347.442 10.5323 347.516 10.655 347.666 10.735C347.82 10.8097 348.02 10.863 348.266 10.895C348.516 10.927 348.799 10.9483 349.114 10.959C349.428 10.9643 349.751 10.9803 350.082 11.007C350.412 11.0337 350.735 11.0817 351.05 11.151C351.364 11.215 351.644 11.319 351.89 11.463C352.14 11.607 352.34 11.8043 352.49 12.055C352.644 12.3003 352.722 12.6177 352.722 13.007C352.722 13.3697 352.631 13.7217 352.45 14.063C352.274 14.4043 352.015 14.7083 351.674 14.975C351.338 15.2417 350.924 15.455 350.434 15.615C349.943 15.7803 349.383 15.863 348.754 15.863C348.13 15.863 347.588 15.8017 347.13 15.679C346.671 15.5617 346.29 15.4017 345.986 15.199C345.687 15.0017 345.463 14.7723 345.314 14.511C345.164 14.2497 345.09 13.9777 345.09 13.695C345.09 13.311 345.207 12.9883 345.442 12.727C345.676 12.4657 346.002 12.2577 346.418 12.103C346.215 11.991 346.052 11.8417 345.93 11.655C345.807 11.4683 345.746 11.2257 345.746 10.927C345.746 10.8043 345.767 10.679 345.81 10.551C345.852 10.4177 345.916 10.287 346.002 10.159C346.092 10.031 346.204 9.911 346.338 9.799C346.471 9.68167 346.628 9.57767 346.81 9.487C346.394 9.263 346.066 8.96433 345.826 8.591C345.591 8.21767 345.474 7.78033 345.474 7.279C345.474 6.87367 345.554 6.50833 345.714 6.183C345.879 5.85233 346.106 5.57233 346.394 5.343C346.687 5.10833 347.031 4.92967 347.426 4.807C347.826 4.68433 348.26 4.623 348.73 4.623ZM350.898 13.343C350.898 13.183 350.85 13.0523 350.754 12.951C350.658 12.8497 350.527 12.7723 350.362 12.719C350.196 12.6603 350.002 12.6177 349.778 12.591C349.559 12.5643 349.324 12.5457 349.074 12.535C348.828 12.519 348.572 12.5057 348.306 12.495C348.044 12.479 347.791 12.455 347.546 12.423C347.322 12.5457 347.14 12.6923 347.002 12.863C346.868 13.0283 346.802 13.2203 346.802 13.439C346.802 13.583 346.836 13.7163 346.906 13.839C346.98 13.967 347.095 14.0763 347.25 14.167C347.41 14.2577 347.615 14.327 347.866 14.375C348.116 14.4283 348.423 14.455 348.786 14.455C349.154 14.455 349.471 14.4257 349.738 14.367C350.004 14.3137 350.223 14.2363 350.394 14.135C350.57 14.039 350.698 13.9217 350.778 13.783C350.858 13.6497 350.898 13.503 350.898 13.343ZM348.73 8.671C348.975 8.671 349.188 8.639 349.37 8.575C349.551 8.50567 349.7 8.41233 349.818 8.295C349.94 8.17767 350.031 8.03633 350.09 7.871C350.154 7.70567 350.186 7.52433 350.186 7.327C350.186 6.92167 350.063 6.60167 349.818 6.367C349.578 6.127 349.215 6.007 348.73 6.007C348.244 6.007 347.879 6.127 347.634 6.367C347.394 6.60167 347.274 6.92167 347.274 7.327C347.274 7.519 347.303 7.69767 347.362 7.863C347.426 8.02833 347.516 8.17233 347.634 8.295C347.756 8.41233 347.908 8.50567 348.09 8.575C348.276 8.639 348.49 8.671 348.73 8.671Z" fill="#2F80ED"/>
<path d="M356.265 4.767H357.833C357.982 4.767 358.107 4.80167 358.209 4.871C358.31 4.94033 358.374 5.02833 358.401 5.135L359.577 9.519C359.641 9.759 359.691 9.99367 359.729 10.223C359.771 10.4523 359.811 10.6817 359.849 10.911C359.907 10.6817 359.969 10.4523 360.033 10.223C360.102 9.99367 360.174 9.759 360.249 9.519L361.609 5.119C361.641 5.01233 361.705 4.92433 361.801 4.855C361.897 4.78567 362.009 4.751 362.137 4.751H363.009C363.153 4.751 363.273 4.78567 363.369 4.855C363.465 4.92433 363.529 5.01233 363.561 5.119L364.905 9.599C364.974 9.82833 365.035 10.0523 365.089 10.271C365.147 10.4843 365.203 10.7003 365.257 10.919C365.294 10.6897 365.334 10.4603 365.377 10.231C365.425 10.0017 365.483 9.76433 365.553 9.519L366.769 5.135C366.795 5.02833 366.859 4.94033 366.961 4.871C367.062 4.80167 367.179 4.767 367.313 4.767H368.809L366.209 12.975H364.617C364.446 12.975 364.323 12.8577 364.249 12.623L362.769 7.879C362.721 7.72433 362.675 7.56967 362.633 7.415C362.595 7.255 362.563 7.09767 362.537 6.943C362.505 7.103 362.47 7.263 362.433 7.423C362.395 7.57767 362.353 7.735 362.305 7.895L360.809 12.623C360.734 12.8577 360.59 12.975 360.377 12.975H358.865L356.265 4.767Z" fill="#2F80ED"/>
<path d="M372.025 4.767V12.975H370.049V4.767H372.025ZM372.321 2.375C372.321 2.54567 372.286 2.70567 372.217 2.855C372.148 3.00433 372.054 3.135 371.937 3.247C371.825 3.359 371.692 3.44967 371.537 3.519C371.382 3.583 371.217 3.615 371.041 3.615C370.87 3.615 370.708 3.583 370.553 3.519C370.404 3.44967 370.273 3.359 370.161 3.247C370.049 3.135 369.958 3.00433 369.889 2.855C369.825 2.70567 369.793 2.54567 369.793 2.375C369.793 2.199 369.825 2.03367 369.889 1.879C369.958 1.72433 370.049 1.591 370.161 1.479C370.273 1.367 370.404 1.279 370.553 1.215C370.708 1.14567 370.87 1.111 371.041 1.111C371.217 1.111 371.382 1.14567 371.537 1.215C371.692 1.279 371.825 1.367 371.937 1.479C372.054 1.591 372.148 1.72433 372.217 1.879C372.286 2.03367 372.321 2.199 372.321 2.375Z" fill="#2F80ED"/>
<path d="M376.961 13.103C376.251 13.103 375.705 12.903 375.321 12.503C374.937 12.0977 374.745 11.5403 374.745 10.831V6.247H373.913C373.806 6.247 373.713 6.21233 373.633 6.143C373.558 6.07367 373.521 5.96967 373.521 5.831V5.047L374.841 4.831L375.257 2.591C375.278 2.48433 375.326 2.40167 375.401 2.343C375.481 2.28433 375.579 2.255 375.697 2.255H376.721V4.839H378.881V6.247H376.721V10.695C376.721 10.951 376.785 11.151 376.913 11.295C377.041 11.439 377.211 11.511 377.425 11.511C377.547 11.511 377.649 11.4977 377.729 11.471C377.814 11.439 377.886 11.407 377.945 11.375C378.009 11.343 378.065 11.3137 378.113 11.287C378.161 11.255 378.209 11.239 378.257 11.239C378.315 11.239 378.363 11.255 378.401 11.287C378.438 11.3137 378.478 11.3563 378.521 11.415L379.113 12.375C378.825 12.615 378.494 12.7963 378.121 12.919C377.747 13.0417 377.361 13.103 376.961 13.103Z" fill="#2F80ED"/>
<path d="M380.452 12.975V1.087H382.428V5.655C382.748 5.351 383.1 5.10567 383.484 4.919C383.868 4.73233 384.319 4.639 384.836 4.639C385.284 4.639 385.681 4.71633 386.028 4.871C386.375 5.02033 386.663 5.23366 386.892 5.511C387.127 5.783 387.303 6.111 387.42 6.495C387.543 6.87367 387.604 7.29233 387.604 7.751V12.975H385.628V7.751C385.628 7.24967 385.511 6.863 385.276 6.591C385.047 6.31367 384.7 6.175 384.236 6.175C383.895 6.175 383.575 6.25233 383.276 6.407C382.977 6.56167 382.695 6.77233 382.428 7.039V12.975H380.452Z" fill="#2F80ED"/>
<path d="M401.016 1.407V2.199C401.016 2.44433 400.946 2.66833 400.808 2.871L394.872 11.255H400.872V12.975H392.08V12.127C392.08 12.0203 392.098 11.919 392.136 11.823C392.173 11.7217 392.221 11.6283 392.28 11.543L398.232 3.119H392.456V1.407H401.016Z" fill="#2F80ED"/>
<path d="M412.387 12.975H410.219V7.919H404.795V12.975H402.627V1.407H404.795V6.383H410.219V1.407H412.387V12.975Z" fill="#2F80ED"/>
<path d="M415.848 1.407C415.944 1.407 416.024 1.41233 416.088 1.423C416.152 1.42833 416.208 1.44433 416.256 1.471C416.31 1.49233 416.36 1.527 416.408 1.575C416.456 1.61767 416.51 1.67633 416.568 1.751L422.64 9.487C422.619 9.30033 422.603 9.119 422.592 8.943C422.587 8.76167 422.584 8.59367 422.584 8.439V1.407H424.48V12.975H423.368C423.198 12.975 423.056 12.9483 422.944 12.895C422.832 12.8417 422.723 12.7457 422.616 12.607L416.568 4.903C416.584 5.07367 416.595 5.24433 416.6 5.415C416.611 5.58033 416.616 5.73233 416.616 5.871V12.975H414.72V1.407H415.848Z" fill="#2F80ED"/>
<path d="M426.246 15.439V14.663C426.246 14.5243 426.294 14.4043 426.39 14.303C426.491 14.207 426.619 14.159 426.774 14.159H427.878V1.879H426.774C426.619 1.879 426.491 1.831 426.39 1.735C426.294 1.63367 426.246 1.51367 426.246 1.375V0.598999H429.526V15.439H426.246Z" fill="#2F80ED"/>
</svg>
