<svg width="12" height="4" viewBox="0 0 12 4" fill="none" xmlns="http://www.w3.org/2000/svg">
<path fill-rule="evenodd" clip-rule="evenodd" d="M2.16659 0.675049C1.43325 0.675049 0.833252 1.27505 0.833252 2.00838C0.833252 2.74172 1.43325 3.34172 2.16659 3.34172C2.89992 3.34172 3.49992 2.74172 3.49992 2.00838C3.49992 1.27505 2.89992 0.675049 2.16659 0.675049ZM10.1666 0.675049C9.43325 0.675049 8.83325 1.27505 8.83325 2.00838C8.83325 2.74172 9.43325 3.34172 10.1666 3.34172C10.8999 3.34172 11.4999 2.74172 11.4999 2.00838C11.4999 1.27505 10.8999 0.675049 10.1666 0.675049ZM4.83325 2.00838C4.83325 1.27505 5.43325 0.675049 6.16658 0.675049C6.89992 0.675049 7.49992 1.27505 7.49992 2.00838C7.49992 2.74172 6.89992 3.34172 6.16658 3.34172C5.43325 3.34172 4.83325 2.74172 4.83325 2.00838Z" fill="#4F4F4F"/>
</svg>
