<svg width="15" height="19" viewBox="0 0 15 19" fill="none" xmlns="http://www.w3.org/2000/svg">
<path fill-rule="evenodd" clip-rule="evenodd" d="M13.0952 0H5.21529C4.34937 0 3.64876 0.75 3.64876 1.66667H11.5208C12.3867 1.66667 13.0952 2.41667 13.0952 3.33333V14.1667L14.6696 15V1.66667C14.6696 0.75 13.9611 0 13.0952 0ZM9.94646 5V15.8083L6.63234 14.3L6.01045 14.0167L5.38856 14.3L2.07444 15.8083V5H9.94646ZM2.0744 3.33333H9.94642C10.8123 3.33333 11.5208 4.08333 11.5208 5V18.3333L6.01041 15.8333L0.5 18.3333V5C0.5 4.08333 1.20848 3.33333 2.0744 3.33333Z" fill="#2F80ED"/>
</svg>
