<svg width="12" height="3" viewBox="0 0 12 3" fill="none" xmlns="http://www.w3.org/2000/svg">
<path fill-rule="evenodd" clip-rule="evenodd" d="M2.16659 0.243042C1.43325 0.243042 0.833252 0.843042 0.833252 1.57638C0.833252 2.30971 1.43325 2.90971 2.16659 2.90971C2.89992 2.90971 3.49992 2.30971 3.49992 1.57638C3.49992 0.843042 2.89992 0.243042 2.16659 0.243042ZM10.1666 0.243042C9.43325 0.243042 8.83325 0.843042 8.83325 1.57638C8.83325 2.30971 9.43325 2.90971 10.1666 2.90971C10.8999 2.90971 11.4999 2.30971 11.4999 1.57638C11.4999 0.843042 10.8999 0.243042 10.1666 0.243042ZM4.83325 1.57638C4.83325 0.843042 5.43325 0.243042 6.16658 0.243042C6.89992 0.243042 7.49992 0.843042 7.49992 1.57638C7.49992 2.30971 6.89992 2.90971 6.16658 2.90971C5.43325 2.90971 4.83325 2.30971 4.83325 1.57638Z" fill="#4F4F4F"/>
</svg>
