<svg width="12" height="3" viewBox="0 0 12 3" fill="none" xmlns="http://www.w3.org/2000/svg">
<path fill-rule="evenodd" clip-rule="evenodd" d="M1.83333 0.260071C1.1 0.260071 0.5 0.860071 0.5 1.5934C0.5 2.32674 1.1 2.92674 1.83333 2.92674C2.56667 2.92674 3.16667 2.32674 3.16667 1.5934C3.16667 0.860071 2.56667 0.260071 1.83333 0.260071ZM9.83333 0.260071C9.1 0.260071 8.5 0.860071 8.5 1.5934C8.5 2.32674 9.1 2.92674 9.83333 2.92674C10.5667 2.92674 11.1667 2.32674 11.1667 1.5934C11.1667 0.860071 10.5667 0.260071 9.83333 0.260071ZM4.5 1.5934C4.5 0.860071 5.1 0.260071 5.83333 0.260071C6.56667 0.260071 7.16667 0.860071 7.16667 1.5934C7.16667 2.32674 6.56667 2.92674 5.83333 2.92674C5.1 2.92674 4.5 2.32674 4.5 1.5934Z" fill="#4F4F4F"/>
</svg>
