<svg width="15" height="4" viewBox="0 0 15 4" fill="none" xmlns="http://www.w3.org/2000/svg">
<path fill-rule="evenodd" clip-rule="evenodd" d="M10.8008 2C10.8008 2.9625 11.5883 3.75 12.5508 3.75C13.5133 3.75 14.3008 2.9625 14.3008 2C14.3008 1.0375 13.5133 0.25 12.5508 0.25C11.5883 0.25 10.8008 1.0375 10.8008 2ZM9.05078 2C9.05078 1.0375 8.26328 0.25 7.30078 0.25C6.33828 0.25 5.55078 1.0375 5.55078 2C5.55078 2.9625 6.33828 3.75 7.30078 3.75C8.26328 3.75 9.05078 2.9625 9.05078 2ZM2.05078 0.249999C3.01328 0.25 3.80078 1.0375 3.80078 2C3.80078 2.9625 3.01328 3.75 2.05078 3.75C1.08828 3.75 0.300781 2.9625 0.300781 2C0.300781 1.0375 1.08828 0.249999 2.05078 0.249999Z" fill="#828282"/>
</svg>
