<svg width="12" height="3" viewBox="0 0 12 3" fill="none" xmlns="http://www.w3.org/2000/svg">
<path fill-rule="evenodd" clip-rule="evenodd" d="M2.16659 0.224121C1.43325 0.224121 0.833252 0.824121 0.833252 1.55745C0.833252 2.29079 1.43325 2.89079 2.16659 2.89079C2.89992 2.89079 3.49992 2.29079 3.49992 1.55745C3.49992 0.824121 2.89992 0.224121 2.16659 0.224121ZM10.1666 0.224121C9.43325 0.224121 8.83325 0.824121 8.83325 1.55745C8.83325 2.29079 9.43325 2.89079 10.1666 2.89079C10.8999 2.89079 11.4999 2.29079 11.4999 1.55745C11.4999 0.824121 10.8999 0.224121 10.1666 0.224121ZM4.83325 1.55745C4.83325 0.824121 5.43325 0.224121 6.16658 0.224121C6.89992 0.224121 7.49992 0.824121 7.49992 1.55745C7.49992 2.29079 6.89992 2.89079 6.16658 2.89079C5.43325 2.89079 4.83325 2.29079 4.83325 1.55745Z" fill="#4F4F4F"/>
</svg>
