<svg width="12" height="4" viewBox="0 0 12 4" fill="none" xmlns="http://www.w3.org/2000/svg">
<path fill-rule="evenodd" clip-rule="evenodd" d="M1.83333 0.699036C1.1 0.699036 0.5 1.29904 0.5 2.03237C0.5 2.7657 1.1 3.3657 1.83333 3.3657C2.56667 3.3657 3.16667 2.7657 3.16667 2.03237C3.16667 1.29904 2.56667 0.699036 1.83333 0.699036ZM9.83333 0.699036C9.1 0.699036 8.5 1.29904 8.5 2.03237C8.5 2.7657 9.1 3.3657 9.83333 3.3657C10.5667 3.3657 11.1667 2.7657 11.1667 2.03237C11.1667 1.29904 10.5667 0.699036 9.83333 0.699036ZM4.5 2.03237C4.5 1.29904 5.1 0.699036 5.83333 0.699036C6.56667 0.699036 7.16667 1.29904 7.16667 2.03237C7.16667 2.7657 6.56667 3.3657 5.83333 3.3657C5.1 3.3657 4.5 2.7657 4.5 2.03237Z" fill="#4F4F4F"/>
</svg>
