<svg width="18" height="18" viewBox="0 0 18 18" fill="none" xmlns="http://www.w3.org/2000/svg">
<path fill-rule="evenodd" clip-rule="evenodd" d="M8.825 0.666687C4.225 0.666687 0.5 4.40002 0.5 9.00002C0.5 13.6 4.225 17.3334 8.825 17.3334C13.4333 17.3334 17.1667 13.6 17.1667 9.00002C17.1667 4.40002 13.4333 0.666687 8.825 0.666687ZM8.8335 15.6667C5.15016 15.6667 2.16683 12.6834 2.16683 9.00002C2.16683 5.31669 5.15016 2.33335 8.8335 2.33335C12.5168 2.33335 15.5002 5.31669 15.5002 9.00002C15.5002 12.6834 12.5168 15.6667 8.8335 15.6667ZM8 4.83335H9.25V9.20835L13 11.4334L12.375 12.4584L8 9.83335V4.83335Z" fill="#2F80ED"/>
</svg>
