<svg width="12" height="3" viewBox="0 0 12 3" fill="none" xmlns="http://www.w3.org/2000/svg">
<path fill-rule="evenodd" clip-rule="evenodd" d="M2.16659 0.0760498C1.43325 0.0760498 0.833252 0.67605 0.833252 1.40938C0.833252 2.14272 1.43325 2.74272 2.16659 2.74272C2.89992 2.74272 3.49992 2.14272 3.49992 1.40938C3.49992 0.67605 2.89992 0.0760498 2.16659 0.0760498ZM10.1666 0.0760498C9.43325 0.0760498 8.83325 0.67605 8.83325 1.40938C8.83325 2.14272 9.43325 2.74272 10.1666 2.74272C10.8999 2.74272 11.4999 2.14272 11.4999 1.40938C11.4999 0.67605 10.8999 0.0760498 10.1666 0.0760498ZM4.83325 1.40938C4.83325 0.67605 5.43325 0.0760498 6.16658 0.0760498C6.89992 0.0760498 7.49992 0.67605 7.49992 1.40938C7.49992 2.14272 6.89992 2.74272 6.16658 2.74272C5.43325 2.74272 4.83325 2.14272 4.83325 1.40938Z" fill="#4F4F4F"/>
</svg>
