<svg width="12" height="3" viewBox="0 0 12 3" fill="none" xmlns="http://www.w3.org/2000/svg">
<path fill-rule="evenodd" clip-rule="evenodd" d="M1.83333 0.243042C1.1 0.243042 0.5 0.843042 0.5 1.57638C0.5 2.30971 1.1 2.90971 1.83333 2.90971C2.56667 2.90971 3.16667 2.30971 3.16667 1.57638C3.16667 0.843042 2.56667 0.243042 1.83333 0.243042ZM9.83333 0.243042C9.1 0.243042 8.5 0.843042 8.5 1.57638C8.5 2.30971 9.1 2.90971 9.83333 2.90971C10.5667 2.90971 11.1667 2.30971 11.1667 1.57638C11.1667 0.843042 10.5667 0.243042 9.83333 0.243042ZM4.5 1.57638C4.5 0.843042 5.1 0.243042 5.83333 0.243042C6.56667 0.243042 7.16667 0.843042 7.16667 1.57638C7.16667 2.30971 6.56667 2.90971 5.83333 2.90971C5.1 2.90971 4.5 2.30971 4.5 1.57638Z" fill="#4F4F4F"/>
</svg>
