<svg width="15" height="4" viewBox="0 0 15 4" fill="none" xmlns="http://www.w3.org/2000/svg">
<path fill-rule="evenodd" clip-rule="evenodd" d="M10.8289 2C10.8289 2.9625 11.6164 3.75 12.5789 3.75C13.5414 3.75 14.3289 2.9625 14.3289 2C14.3289 1.0375 13.5414 0.25 12.5789 0.25C11.6164 0.25 10.8289 1.0375 10.8289 2ZM9.07886 2C9.07886 1.0375 8.29136 0.25 7.32886 0.25C6.36636 0.25 5.57886 1.0375 5.57886 2C5.57886 2.9625 6.36636 3.75 7.32886 3.75C8.29136 3.75 9.07886 2.9625 9.07886 2ZM2.07886 0.249999C3.04136 0.25 3.82886 1.0375 3.82886 2C3.82886 2.9625 3.04136 3.75 2.07886 3.75C1.11636 3.75 0.328857 2.9625 0.328857 2C0.328857 1.0375 1.11636 0.249999 2.07886 0.249999Z" fill="#828282"/>
</svg>
