<svg width="12" height="3" viewBox="0 0 12 3" fill="none" xmlns="http://www.w3.org/2000/svg">
<path fill-rule="evenodd" clip-rule="evenodd" d="M1.83333 0.0140381C1.1 0.0140381 0.5 0.614038 0.5 1.34737C0.5 2.0807 1.1 2.6807 1.83333 2.6807C2.56667 2.6807 3.16667 2.0807 3.16667 1.34737C3.16667 0.614038 2.56667 0.0140381 1.83333 0.0140381ZM9.83333 0.0140381C9.1 0.0140381 8.5 0.614038 8.5 1.34737C8.5 2.0807 9.1 2.6807 9.83333 2.6807C10.5667 2.6807 11.1667 2.0807 11.1667 1.34737C11.1667 0.614038 10.5667 0.0140381 9.83333 0.0140381ZM4.5 1.34737C4.5 0.614038 5.1 0.0140381 5.83333 0.0140381C6.56667 0.0140381 7.16667 0.614038 7.16667 1.34737C7.16667 2.0807 6.56667 2.6807 5.83333 2.6807C5.1 2.6807 4.5 2.0807 4.5 1.34737Z" fill="#4F4F4F"/>
</svg>
