<svg width="12" height="4" viewBox="0 0 12 4" fill="none" xmlns="http://www.w3.org/2000/svg">
<path fill-rule="evenodd" clip-rule="evenodd" d="M1.83333 0.434082C1.1 0.434082 0.5 1.03408 0.5 1.76742C0.5 2.50075 1.1 3.10075 1.83333 3.10075C2.56667 3.10075 3.16667 2.50075 3.16667 1.76742C3.16667 1.03408 2.56667 0.434082 1.83333 0.434082ZM9.83333 0.434082C9.1 0.434082 8.5 1.03408 8.5 1.76742C8.5 2.50075 9.1 3.10075 9.83333 3.10075C10.5667 3.10075 11.1667 2.50075 11.1667 1.76742C11.1667 1.03408 10.5667 0.434082 9.83333 0.434082ZM4.5 1.76742C4.5 1.03408 5.1 0.434082 5.83333 0.434082C6.56667 0.434082 7.16667 1.03408 7.16667 1.76742C7.16667 2.50075 6.56667 3.10075 5.83333 3.10075C5.1 3.10075 4.5 2.50075 4.5 1.76742Z" fill="#4F4F4F"/>
</svg>
