<svg width="18" height="18" viewBox="0 0 18 18" fill="none" xmlns="http://www.w3.org/2000/svg">
<path fill-rule="evenodd" clip-rule="evenodd" d="M8.825 0.666626C4.225 0.666626 0.5 4.39996 0.5 8.99996C0.5 13.6 4.225 17.3333 8.825 17.3333C13.4333 17.3333 17.1667 13.6 17.1667 8.99996C17.1667 4.39996 13.4333 0.666626 8.825 0.666626ZM8.8335 15.6666C5.15016 15.6666 2.16683 12.6833 2.16683 8.99996C2.16683 5.31662 5.15016 2.33329 8.8335 2.33329C12.5168 2.33329 15.5002 5.31662 15.5002 8.99996C15.5002 12.6833 12.5168 15.6666 8.8335 15.6666ZM8 4.83329H9.25V9.20829L13 11.4333L12.375 12.4583L8 9.83329V4.83329Z" fill="#2F80ED"/>
</svg>
