<svg width="98" height="16" viewBox="0 0 98 16" fill="none" xmlns="http://www.w3.org/2000/svg">
<path d="M1.65998 0.804077C1.75598 0.804077 1.83598 0.80941 1.89998 0.820077C1.96398 0.825411 2.01998 0.841411 2.06798 0.868077C2.12132 0.889411 2.17198 0.924078 2.21998 0.972077C2.26798 1.01474 2.32132 1.07341 2.37998 1.14808L8.45198 8.88408C8.43065 8.69741 8.41465 8.51608 8.40398 8.34008C8.39865 8.15874 8.39598 7.99074 8.39598 7.83608V0.804077H10.292V12.3721H9.17998C9.00932 12.3721 8.86798 12.3454 8.75598 12.2921C8.64398 12.2387 8.53465 12.1427 8.42798 12.0041L2.37998 4.30008C2.39598 4.47074 2.40665 4.64141 2.41198 4.81208C2.42265 4.97741 2.42798 5.12941 2.42798 5.26808V12.3721H0.531982V0.804077H1.65998Z" fill="#EB5757"/>
<path d="M15.9057 4.03608C16.4231 4.03608 16.8977 4.11874 17.3297 4.28408C17.7671 4.44941 18.1431 4.69208 18.4577 5.01208C18.7724 5.32674 19.0177 5.71608 19.1937 6.18008C19.3697 6.63874 19.4577 7.16408 19.4577 7.75608C19.4577 7.90541 19.4497 8.03075 19.4337 8.13208C19.4231 8.22808 19.3991 8.30541 19.3617 8.36408C19.3297 8.41741 19.2844 8.45741 19.2257 8.48408C19.1671 8.50541 19.0924 8.51608 19.0017 8.51608H13.9297C13.9884 9.35874 14.2151 9.97741 14.6097 10.3721C15.0044 10.7667 15.5271 10.9641 16.1777 10.9641C16.4977 10.9641 16.7724 10.9267 17.0017 10.8521C17.2364 10.7774 17.4391 10.6947 17.6097 10.6041C17.7857 10.5134 17.9377 10.4307 18.0657 10.3561C18.1991 10.2814 18.3271 10.2441 18.4497 10.2441C18.5297 10.2441 18.5991 10.2601 18.6577 10.2921C18.7164 10.3241 18.7671 10.3694 18.8097 10.4281L19.3857 11.1481C19.1671 11.4041 18.9217 11.6201 18.6497 11.7961C18.3777 11.9667 18.0924 12.1054 17.7937 12.2121C17.5004 12.3134 17.1991 12.3854 16.8897 12.4281C16.5857 12.4707 16.2897 12.4921 16.0017 12.4921C15.4311 12.4921 14.9004 12.3987 14.4097 12.2121C13.9191 12.0201 13.4924 11.7401 13.1297 11.3721C12.7671 10.9987 12.4817 10.5401 12.2737 9.99608C12.0657 9.44674 11.9617 8.81208 11.9617 8.09208C11.9617 7.53208 12.0524 7.00674 12.2337 6.51608C12.4151 6.02008 12.6737 5.59074 13.0097 5.22808C13.3511 4.86008 13.7644 4.56941 14.2497 4.35608C14.7404 4.14274 15.2924 4.03608 15.9057 4.03608ZM15.9457 5.45208C15.3697 5.45208 14.9191 5.61474 14.5937 5.94008C14.2684 6.26541 14.0604 6.72674 13.9697 7.32408H17.6817C17.6817 7.06808 17.6471 6.82808 17.5777 6.60408C17.5084 6.37474 17.4017 6.17474 17.2577 6.00408C17.1137 5.83341 16.9324 5.70008 16.7137 5.60408C16.4951 5.50274 16.2391 5.45208 15.9457 5.45208Z" fill="#EB5757"/>
<path d="M20.0606 4.16408H21.6286C21.7779 4.16408 21.9033 4.19874 22.0046 4.26808C22.1059 4.33741 22.1699 4.42541 22.1966 4.53208L23.3726 8.91608C23.4366 9.15608 23.4873 9.39075 23.5246 9.62008C23.5673 9.84941 23.6073 10.0787 23.6446 10.3081C23.7033 10.0787 23.7646 9.84941 23.8286 9.62008C23.8979 9.39075 23.9699 9.15608 24.0446 8.91608L25.4046 4.51608C25.4366 4.40941 25.5006 4.32141 25.5966 4.25208C25.6926 4.18274 25.8046 4.14808 25.9326 4.14808H26.8046C26.9486 4.14808 27.0686 4.18274 27.1646 4.25208C27.2606 4.32141 27.3246 4.40941 27.3566 4.51608L28.7006 8.99608C28.7699 9.22541 28.8313 9.44941 28.8846 9.66808C28.9433 9.88141 28.9993 10.0974 29.0526 10.3161C29.0899 10.0867 29.1299 9.85741 29.1726 9.62808C29.2206 9.39874 29.2793 9.16141 29.3486 8.91608L30.5646 4.53208C30.5913 4.42541 30.6553 4.33741 30.7566 4.26808C30.8579 4.19874 30.9753 4.16408 31.1086 4.16408H32.6046L30.0046 12.3721H28.4126C28.2419 12.3721 28.1193 12.2547 28.0446 12.0201L26.5646 7.27608C26.5166 7.12141 26.4713 6.96674 26.4286 6.81208C26.3913 6.65208 26.3593 6.49474 26.3326 6.34008C26.3006 6.50008 26.2659 6.66008 26.2286 6.82008C26.1913 6.97474 26.1486 7.13208 26.1006 7.29208L24.6046 12.0201C24.5299 12.2547 24.3859 12.3721 24.1726 12.3721H22.6606L20.0606 4.16408Z" fill="#EB5757"/>
<path d="M42.7306 7.57208C42.8213 7.74274 42.9039 7.92141 42.9786 8.10808C43.0586 8.28941 43.1359 8.47341 43.2106 8.66008C43.2853 8.46808 43.3626 8.27874 43.4426 8.09208C43.5226 7.90541 43.6079 7.72674 43.6986 7.55608L47.1226 1.14808C47.1653 1.06808 47.2079 1.00408 47.2506 0.956078C47.2986 0.908077 47.3493 0.873411 47.4026 0.852077C47.4613 0.830744 47.5253 0.81741 47.5946 0.812078C47.6639 0.806744 47.7466 0.804077 47.8426 0.804077H49.4666V12.3721H47.5706V4.90008C47.5706 4.76141 47.5733 4.60941 47.5786 4.44408C47.5893 4.27874 47.6026 4.11074 47.6186 3.94008L44.1226 10.5001C44.0426 10.6494 43.9386 10.7667 43.8106 10.8521C43.6826 10.9321 43.5333 10.9721 43.3626 10.9721H43.0666C42.8959 10.9721 42.7466 10.9321 42.6186 10.8521C42.4906 10.7667 42.3866 10.6494 42.3066 10.5001L38.7626 3.91608C38.7839 4.09208 38.7973 4.26541 38.8026 4.43608C38.8133 4.60141 38.8186 4.75608 38.8186 4.90008V12.3721H36.9226V0.804077H38.5466C38.6426 0.804077 38.7253 0.806744 38.7946 0.812078C38.8639 0.81741 38.9253 0.830744 38.9786 0.852077C39.0373 0.873411 39.0906 0.908077 39.1386 0.956078C39.1866 1.00408 39.2319 1.06808 39.2746 1.14808L42.7306 7.57208Z" fill="#EB5757"/>
<path d="M55.0776 4.03608C55.5949 4.03608 56.0696 4.11874 56.5016 4.28408C56.9389 4.44941 57.3149 4.69208 57.6296 5.01208C57.9443 5.32674 58.1896 5.71608 58.3656 6.18008C58.5416 6.63874 58.6296 7.16408 58.6296 7.75608C58.6296 7.90541 58.6216 8.03075 58.6056 8.13208C58.5949 8.22808 58.5709 8.30541 58.5336 8.36408C58.5016 8.41741 58.4563 8.45741 58.3976 8.48408C58.3389 8.50541 58.2643 8.51608 58.1736 8.51608H53.1016C53.1603 9.35874 53.3869 9.97741 53.7816 10.3721C54.1763 10.7667 54.6989 10.9641 55.3496 10.9641C55.6696 10.9641 55.9443 10.9267 56.1736 10.8521C56.4083 10.7774 56.6109 10.6947 56.7816 10.6041C56.9576 10.5134 57.1096 10.4307 57.2376 10.3561C57.3709 10.2814 57.4989 10.2441 57.6216 10.2441C57.7016 10.2441 57.7709 10.2601 57.8296 10.2921C57.8883 10.3241 57.9389 10.3694 57.9816 10.4281L58.5576 11.1481C58.3389 11.4041 58.0936 11.6201 57.8216 11.7961C57.5496 11.9667 57.2643 12.1054 56.9656 12.2121C56.6723 12.3134 56.3709 12.3854 56.0616 12.4281C55.7576 12.4707 55.4616 12.4921 55.1736 12.4921C54.6029 12.4921 54.0723 12.3987 53.5816 12.2121C53.0909 12.0201 52.6643 11.7401 52.3016 11.3721C51.9389 10.9987 51.6536 10.5401 51.4456 9.99608C51.2376 9.44674 51.1336 8.81208 51.1336 8.09208C51.1336 7.53208 51.2243 7.00674 51.4056 6.51608C51.5869 6.02008 51.8456 5.59074 52.1816 5.22808C52.5229 4.86008 52.9363 4.56941 53.4216 4.35608C53.9123 4.14274 54.4643 4.03608 55.0776 4.03608ZM55.1176 5.45208C54.5416 5.45208 54.0909 5.61474 53.7656 5.94008C53.4403 6.26541 53.2323 6.72674 53.1416 7.32408H56.8536C56.8536 7.06808 56.8189 6.82808 56.7496 6.60408C56.6803 6.37474 56.5736 6.17474 56.4296 6.00408C56.2856 5.83341 56.1043 5.70008 55.8856 5.60408C55.6669 5.50274 55.4109 5.45208 55.1176 5.45208Z" fill="#EB5757"/>
<path d="M65.1045 5.76408C65.0511 5.84941 64.9952 5.91074 64.9365 5.94808C64.8778 5.98008 64.8032 5.99608 64.7125 5.99608C64.6165 5.99608 64.5125 5.96941 64.4005 5.91608C64.2938 5.86274 64.1685 5.80408 64.0245 5.74008C63.8805 5.67074 63.7151 5.60941 63.5285 5.55608C63.3471 5.50274 63.1311 5.47608 62.8805 5.47608C62.4911 5.47608 62.1845 5.55874 61.9605 5.72408C61.7365 5.88941 61.6245 6.10541 61.6245 6.37208C61.6245 6.54808 61.6805 6.69741 61.7925 6.82008C61.9098 6.93741 62.0618 7.04141 62.2485 7.13208C62.4405 7.22274 62.6565 7.30541 62.8965 7.38008C63.1365 7.44941 63.3818 7.52674 63.6325 7.61208C63.8832 7.69741 64.1285 7.79608 64.3685 7.90808C64.6085 8.01474 64.8218 8.15341 65.0085 8.32408C65.2005 8.48941 65.3525 8.68941 65.4645 8.92408C65.5818 9.15874 65.6405 9.44141 65.6405 9.77208C65.6405 10.1667 65.5685 10.5321 65.4245 10.8681C65.2805 11.1987 65.0698 11.4867 64.7925 11.7321C64.5151 11.9721 64.1712 12.1614 63.7605 12.3001C63.3551 12.4334 62.8885 12.5001 62.3605 12.5001C62.0778 12.5001 61.8005 12.4734 61.5285 12.4201C61.2618 12.3721 61.0032 12.3027 60.7525 12.2121C60.5071 12.1214 60.2778 12.0147 60.0645 11.8921C59.8565 11.7694 59.6725 11.6361 59.5125 11.4921L59.9685 10.7401C60.0271 10.6494 60.0965 10.5801 60.1765 10.5321C60.2565 10.4841 60.3578 10.4601 60.4805 10.4601C60.6031 10.4601 60.7178 10.4947 60.8245 10.5641C60.9365 10.6334 61.0645 10.7081 61.2085 10.7881C61.3525 10.8681 61.5205 10.9427 61.7125 11.0121C61.9098 11.0814 62.1578 11.1161 62.4565 11.1161C62.6911 11.1161 62.8912 11.0894 63.0565 11.0361C63.2271 10.9774 63.3658 10.9027 63.4725 10.8121C63.5845 10.7214 63.6645 10.6174 63.7125 10.5001C63.7658 10.3774 63.7925 10.2521 63.7925 10.1241C63.7925 9.93208 63.7338 9.77474 63.6165 9.65208C63.5045 9.52941 63.3525 9.42274 63.1605 9.33208C62.9738 9.24141 62.7578 9.16141 62.5125 9.09208C62.2725 9.01741 62.0245 8.93741 61.7685 8.85208C61.5178 8.76674 61.2698 8.66808 61.0245 8.55608C60.7845 8.43874 60.5685 8.29208 60.3765 8.11608C60.1898 7.94008 60.0378 7.72408 59.9205 7.46808C59.8085 7.21208 59.7525 6.90274 59.7525 6.54008C59.7525 6.20408 59.8191 5.88408 59.9525 5.58008C60.0858 5.27608 60.2805 5.01208 60.5365 4.78808C60.7978 4.55874 61.1205 4.37741 61.5045 4.24408C61.8938 4.10541 62.3418 4.03608 62.8485 4.03608C63.4138 4.03608 63.9285 4.12941 64.3925 4.31608C64.8565 4.50274 65.2431 4.74808 65.5525 5.05208L65.1045 5.76408Z" fill="#EB5757"/>
<path d="M72.0889 5.76408C72.0355 5.84941 71.9795 5.91074 71.9209 5.94808C71.8622 5.98008 71.7875 5.99608 71.6969 5.99608C71.6009 5.99608 71.4969 5.96941 71.3849 5.91608C71.2782 5.86274 71.1529 5.80408 71.0089 5.74008C70.8649 5.67074 70.6995 5.60941 70.5129 5.55608C70.3315 5.50274 70.1155 5.47608 69.8649 5.47608C69.4755 5.47608 69.1689 5.55874 68.9449 5.72408C68.7209 5.88941 68.6089 6.10541 68.6089 6.37208C68.6089 6.54808 68.6649 6.69741 68.7769 6.82008C68.8942 6.93741 69.0462 7.04141 69.2329 7.13208C69.4249 7.22274 69.6409 7.30541 69.8809 7.38008C70.1209 7.44941 70.3662 7.52674 70.6169 7.61208C70.8675 7.69741 71.1129 7.79608 71.3529 7.90808C71.5929 8.01474 71.8062 8.15341 71.9929 8.32408C72.1849 8.48941 72.3369 8.68941 72.4489 8.92408C72.5662 9.15874 72.6249 9.44141 72.6249 9.77208C72.6249 10.1667 72.5529 10.5321 72.4089 10.8681C72.2649 11.1987 72.0542 11.4867 71.7769 11.7321C71.4995 11.9721 71.1555 12.1614 70.7449 12.3001C70.3395 12.4334 69.8729 12.5001 69.3449 12.5001C69.0622 12.5001 68.7849 12.4734 68.5129 12.4201C68.2462 12.3721 67.9875 12.3027 67.7369 12.2121C67.4915 12.1214 67.2622 12.0147 67.0489 11.8921C66.8409 11.7694 66.6569 11.6361 66.4969 11.4921L66.9529 10.7401C67.0115 10.6494 67.0809 10.5801 67.1609 10.5321C67.2409 10.4841 67.3422 10.4601 67.4649 10.4601C67.5875 10.4601 67.7022 10.4947 67.8089 10.5641C67.9209 10.6334 68.0489 10.7081 68.1929 10.7881C68.3369 10.8681 68.5049 10.9427 68.6969 11.0121C68.8942 11.0814 69.1422 11.1161 69.4409 11.1161C69.6755 11.1161 69.8755 11.0894 70.0409 11.0361C70.2115 10.9774 70.3502 10.9027 70.4569 10.8121C70.5689 10.7214 70.6489 10.6174 70.6969 10.5001C70.7502 10.3774 70.7769 10.2521 70.7769 10.1241C70.7769 9.93208 70.7182 9.77474 70.6009 9.65208C70.4889 9.52941 70.3369 9.42274 70.1449 9.33208C69.9582 9.24141 69.7422 9.16141 69.4969 9.09208C69.2569 9.01741 69.0089 8.93741 68.7529 8.85208C68.5022 8.76674 68.2542 8.66808 68.0089 8.55608C67.7689 8.43874 67.5529 8.29208 67.3609 8.11608C67.1742 7.94008 67.0222 7.72408 66.9049 7.46808C66.7929 7.21208 66.7369 6.90274 66.7369 6.54008C66.7369 6.20408 66.8035 5.88408 66.9369 5.58008C67.0702 5.27608 67.2649 5.01208 67.5209 4.78808C67.7822 4.55874 68.1049 4.37741 68.4889 4.24408C68.8782 4.10541 69.3262 4.03608 69.8329 4.03608C70.3982 4.03608 70.9129 4.12941 71.3769 4.31608C71.8409 4.50274 72.2275 4.74808 72.5369 5.05208L72.0889 5.76408Z" fill="#EB5757"/>
<path d="M80.6332 12.3721H79.7452C79.5586 12.3721 79.4119 12.3454 79.3052 12.2921C79.1986 12.2334 79.1186 12.1187 79.0652 11.9481L78.8892 11.3641C78.6812 11.5507 78.4759 11.7161 78.2732 11.8601C78.0759 11.9987 77.8706 12.1161 77.6572 12.2121C77.4439 12.3081 77.2172 12.3801 76.9772 12.4281C76.7372 12.4761 76.4706 12.5001 76.1772 12.5001C75.8306 12.5001 75.5106 12.4547 75.2172 12.3641C74.9239 12.2681 74.6706 12.1267 74.4572 11.9401C74.2492 11.7534 74.0866 11.5214 73.9692 11.2441C73.8519 10.9667 73.7932 10.6441 73.7932 10.2761C73.7932 9.96674 73.8732 9.66274 74.0332 9.36408C74.1986 9.06008 74.4706 8.78808 74.8492 8.54808C75.2279 8.30274 75.7319 8.10008 76.3612 7.94008C76.9906 7.78008 77.7719 7.68941 78.7052 7.66808V7.18808C78.7052 6.63874 78.5879 6.23341 78.3532 5.97208C78.1239 5.70541 77.7879 5.57208 77.3452 5.57208C77.0252 5.57208 76.7586 5.60941 76.5452 5.68408C76.3319 5.75874 76.1452 5.84408 75.9852 5.94008C75.8306 6.03074 75.6866 6.11341 75.5532 6.18808C75.4199 6.26274 75.2732 6.30008 75.1132 6.30008C74.9799 6.30008 74.8652 6.26541 74.7692 6.19608C74.6732 6.12674 74.5959 6.04141 74.5372 5.94008L74.1772 5.30808C75.1212 4.44408 76.2599 4.01208 77.5932 4.01208C78.0732 4.01208 78.4999 4.09208 78.8732 4.25208C79.2519 4.40674 79.5719 4.62541 79.8332 4.90808C80.0946 5.18541 80.2919 5.51874 80.4252 5.90808C80.5639 6.29741 80.6332 6.72408 80.6332 7.18808V12.3721ZM76.7932 11.1401C76.9959 11.1401 77.1826 11.1214 77.3532 11.0841C77.5239 11.0467 77.6839 10.9907 77.8332 10.9161C77.9879 10.8414 78.1346 10.7507 78.2732 10.6441C78.4172 10.5321 78.5612 10.4014 78.7052 10.2521V8.86808C78.1292 8.89474 77.6466 8.94541 77.2572 9.02008C76.8732 9.08941 76.5639 9.18008 76.3292 9.29208C76.0946 9.40408 75.9266 9.53475 75.8252 9.68408C75.7292 9.83341 75.6812 9.99608 75.6812 10.1721C75.6812 10.5187 75.7826 10.7667 75.9852 10.9161C76.1932 11.0654 76.4626 11.1401 76.7932 11.1401Z" fill="#EB5757"/>
<path d="M85.4162 4.02008C85.7682 4.02008 86.0989 4.05741 86.4082 4.13208C86.7176 4.20141 87.0002 4.30541 87.2562 4.44408H89.6162V5.18008C89.6162 5.30274 89.5842 5.39874 89.5202 5.46808C89.4562 5.53741 89.3469 5.58541 89.1922 5.61208L88.4562 5.74808C88.5096 5.88674 88.5496 6.03341 88.5762 6.18808C88.6082 6.34274 88.6242 6.50541 88.6242 6.67608C88.6242 7.08141 88.5416 7.44941 88.3762 7.78008C88.2162 8.10541 87.9922 8.38274 87.7042 8.61208C87.4216 8.84141 87.0829 9.02008 86.6882 9.14808C86.2989 9.27074 85.8749 9.33208 85.4162 9.33208C85.1069 9.33208 84.8056 9.30274 84.5122 9.24408C84.2562 9.39874 84.1282 9.57208 84.1282 9.76408C84.1282 9.92941 84.2029 10.0521 84.3522 10.1321C84.5069 10.2067 84.7069 10.2601 84.9522 10.2921C85.2029 10.3241 85.4856 10.3454 85.8002 10.3561C86.1149 10.3614 86.4376 10.3774 86.7682 10.4041C87.0989 10.4307 87.4216 10.4787 87.7362 10.5481C88.0509 10.6121 88.3309 10.7161 88.5762 10.8601C88.8269 11.0041 89.0269 11.2014 89.1762 11.4521C89.3309 11.6974 89.4082 12.0147 89.4082 12.4041C89.4082 12.7667 89.3176 13.1187 89.1362 13.4601C88.9602 13.8014 88.7016 14.1054 88.3602 14.3721C88.0242 14.6387 87.6109 14.8521 87.1202 15.0121C86.6296 15.1774 86.0696 15.2601 85.4402 15.2601C84.8162 15.2601 84.2749 15.1987 83.8162 15.0761C83.3576 14.9587 82.9762 14.7987 82.6722 14.5961C82.3736 14.3987 82.1496 14.1694 82.0002 13.9081C81.8509 13.6467 81.7762 13.3747 81.7762 13.0921C81.7762 12.7081 81.8936 12.3854 82.1282 12.1241C82.3629 11.8627 82.6882 11.6547 83.1042 11.5001C82.9016 11.3881 82.7389 11.2387 82.6162 11.0521C82.4936 10.8654 82.4322 10.6227 82.4322 10.3241C82.4322 10.2014 82.4536 10.0761 82.4962 9.94808C82.5389 9.81474 82.6029 9.68408 82.6882 9.55608C82.7789 9.42808 82.8909 9.30808 83.0242 9.19608C83.1576 9.07874 83.3149 8.97474 83.4962 8.88408C83.0802 8.66008 82.7522 8.36141 82.5122 7.98808C82.2776 7.61474 82.1602 7.17741 82.1602 6.67608C82.1602 6.27074 82.2402 5.90541 82.4002 5.58008C82.5656 5.24941 82.7922 4.96941 83.0802 4.74008C83.3736 4.50541 83.7176 4.32674 84.1122 4.20408C84.5122 4.08141 84.9469 4.02008 85.4162 4.02008ZM87.5842 12.7401C87.5842 12.5801 87.5362 12.4494 87.4402 12.3481C87.3442 12.2467 87.2136 12.1694 87.0482 12.1161C86.8829 12.0574 86.6882 12.0147 86.4642 11.9881C86.2456 11.9614 86.0109 11.9427 85.7602 11.9321C85.5149 11.9161 85.2589 11.9027 84.9922 11.8921C84.7309 11.8761 84.4776 11.8521 84.2322 11.8201C84.0082 11.9427 83.8269 12.0894 83.6882 12.2601C83.5549 12.4254 83.4882 12.6174 83.4882 12.8361C83.4882 12.9801 83.5229 13.1134 83.5922 13.2361C83.6669 13.3641 83.7816 13.4734 83.9362 13.5641C84.0962 13.6547 84.3016 13.7241 84.5522 13.7721C84.8029 13.8254 85.1096 13.8521 85.4722 13.8521C85.8402 13.8521 86.1576 13.8227 86.4242 13.7641C86.6909 13.7107 86.9096 13.6334 87.0802 13.5321C87.2562 13.4361 87.3842 13.3187 87.4642 13.1801C87.5442 13.0467 87.5842 12.9001 87.5842 12.7401ZM85.4162 8.06808C85.6616 8.06808 85.8749 8.03608 86.0562 7.97208C86.2376 7.90274 86.3869 7.80941 86.5042 7.69208C86.6269 7.57474 86.7176 7.43341 86.7762 7.26808C86.8402 7.10274 86.8722 6.92141 86.8722 6.72408C86.8722 6.31874 86.7496 5.99874 86.5042 5.76408C86.2642 5.52408 85.9016 5.40408 85.4162 5.40408C84.9309 5.40408 84.5656 5.52408 84.3202 5.76408C84.0802 5.99874 83.9602 6.31874 83.9602 6.72408C83.9602 6.91608 83.9896 7.09474 84.0482 7.26008C84.1122 7.42541 84.2029 7.56941 84.3202 7.69208C84.4429 7.80941 84.5949 7.90274 84.7762 7.97208C84.9629 8.03608 85.1762 8.06808 85.4162 8.06808Z" fill="#EB5757"/>
<path d="M94.2495 4.03608C94.7668 4.03608 95.2415 4.11874 95.6735 4.28408C96.1108 4.44941 96.4868 4.69208 96.8015 5.01208C97.1161 5.32674 97.3615 5.71608 97.5375 6.18008C97.7135 6.63874 97.8015 7.16408 97.8015 7.75608C97.8015 7.90541 97.7935 8.03075 97.7775 8.13208C97.7668 8.22808 97.7428 8.30541 97.7055 8.36408C97.6735 8.41741 97.6282 8.45741 97.5695 8.48408C97.5108 8.50541 97.4361 8.51608 97.3455 8.51608H92.2735C92.3322 9.35874 92.5588 9.97741 92.9535 10.3721C93.3482 10.7667 93.8708 10.9641 94.5215 10.9641C94.8415 10.9641 95.1161 10.9267 95.3455 10.8521C95.5801 10.7774 95.7828 10.6947 95.9535 10.6041C96.1295 10.5134 96.2815 10.4307 96.4095 10.3561C96.5428 10.2814 96.6708 10.2441 96.7935 10.2441C96.8735 10.2441 96.9428 10.2601 97.0015 10.2921C97.0602 10.3241 97.1108 10.3694 97.1535 10.4281L97.7295 11.1481C97.5108 11.4041 97.2655 11.6201 96.9935 11.7961C96.7215 11.9667 96.4361 12.1054 96.1375 12.2121C95.8441 12.3134 95.5428 12.3854 95.2335 12.4281C94.9295 12.4707 94.6335 12.4921 94.3455 12.4921C93.7748 12.4921 93.2442 12.3987 92.7535 12.2121C92.2628 12.0201 91.8361 11.7401 91.4735 11.3721C91.1108 10.9987 90.8255 10.5401 90.6175 9.99608C90.4095 9.44674 90.3055 8.81208 90.3055 8.09208C90.3055 7.53208 90.3961 7.00674 90.5775 6.51608C90.7588 6.02008 91.0175 5.59074 91.3535 5.22808C91.6948 4.86008 92.1081 4.56941 92.5935 4.35608C93.0842 4.14274 93.6361 4.03608 94.2495 4.03608ZM94.2895 5.45208C93.7135 5.45208 93.2628 5.61474 92.9375 5.94008C92.6122 6.26541 92.4042 6.72674 92.3135 7.32408H96.0255C96.0255 7.06808 95.9908 6.82808 95.9215 6.60408C95.8521 6.37474 95.7455 6.17474 95.6015 6.00408C95.4575 5.83341 95.2761 5.70008 95.0575 5.60408C94.8388 5.50274 94.5828 5.45208 94.2895 5.45208Z" fill="#EB5757"/>
</svg>
