<svg width="98" height="15" viewBox="0 0 98 15" fill="none" xmlns="http://www.w3.org/2000/svg">
<path d="M1.65998 0.243042C1.75598 0.243042 1.83598 0.248375 1.89998 0.259042C1.96398 0.264375 2.01998 0.280375 2.06798 0.307042C2.12132 0.328376 2.17198 0.363043 2.21998 0.411042C2.26798 0.453709 2.32132 0.512376 2.37998 0.587042L8.45198 8.32304C8.43065 8.13638 8.41465 7.95504 8.40398 7.77904C8.39865 7.59771 8.39598 7.42971 8.39598 7.27504V0.243042H10.292V11.811H9.17998C9.00932 11.811 8.86798 11.7844 8.75598 11.731C8.64398 11.6777 8.53465 11.5817 8.42798 11.443L2.37998 3.73904C2.39598 3.90971 2.40665 4.08038 2.41198 4.25104C2.42265 4.41638 2.42798 4.56838 2.42798 4.70704V11.811H0.531982V0.243042H1.65998Z" fill="#EB5757"/>
<path d="M15.9057 3.47504C16.4231 3.47504 16.8977 3.55771 17.3297 3.72304C17.7671 3.88838 18.1431 4.13104 18.4577 4.45104C18.7724 4.76571 19.0177 5.15504 19.1937 5.61904C19.3697 6.07771 19.4577 6.60304 19.4577 7.19504C19.4577 7.34438 19.4497 7.46971 19.4337 7.57104C19.4231 7.66704 19.3991 7.74438 19.3617 7.80304C19.3297 7.85638 19.2844 7.89638 19.2257 7.92304C19.1671 7.94438 19.0924 7.95504 19.0017 7.95504H13.9297C13.9884 8.79771 14.2151 9.41638 14.6097 9.81104C15.0044 10.2057 15.5271 10.403 16.1777 10.403C16.4977 10.403 16.7724 10.3657 17.0017 10.291C17.2364 10.2164 17.4391 10.1337 17.6097 10.043C17.7857 9.95238 17.9377 9.86971 18.0657 9.79504C18.1991 9.72038 18.3271 9.68304 18.4497 9.68304C18.5297 9.68304 18.5991 9.69904 18.6577 9.73104C18.7164 9.76304 18.7671 9.80838 18.8097 9.86704L19.3857 10.587C19.1671 10.843 18.9217 11.059 18.6497 11.235C18.3777 11.4057 18.0924 11.5444 17.7937 11.651C17.5004 11.7524 17.1991 11.8244 16.8897 11.867C16.5857 11.9097 16.2897 11.931 16.0017 11.931C15.4311 11.931 14.9004 11.8377 14.4097 11.651C13.9191 11.459 13.4924 11.179 13.1297 10.811C12.7671 10.4377 12.4817 9.97904 12.2737 9.43504C12.0657 8.88571 11.9617 8.25104 11.9617 7.53104C11.9617 6.97104 12.0524 6.44571 12.2337 5.95504C12.4151 5.45904 12.6737 5.02971 13.0097 4.66704C13.3511 4.29904 13.7644 4.00838 14.2497 3.79504C14.7404 3.58171 15.2924 3.47504 15.9057 3.47504ZM15.9457 4.89104C15.3697 4.89104 14.9191 5.05371 14.5937 5.37904C14.2684 5.70438 14.0604 6.16571 13.9697 6.76304H17.6817C17.6817 6.50704 17.6471 6.26704 17.5777 6.04304C17.5084 5.81371 17.4017 5.61371 17.2577 5.44304C17.1137 5.27238 16.9324 5.13904 16.7137 5.04304C16.4951 4.94171 16.2391 4.89104 15.9457 4.89104Z" fill="#EB5757"/>
<path d="M20.0606 3.60304H21.6286C21.7779 3.60304 21.9033 3.63771 22.0046 3.70704C22.1059 3.77638 22.1699 3.86438 22.1966 3.97104L23.3726 8.35504C23.4366 8.59504 23.4873 8.82971 23.5246 9.05904C23.5673 9.28838 23.6073 9.51771 23.6446 9.74704C23.7033 9.51771 23.7646 9.28838 23.8286 9.05904C23.8979 8.82971 23.9699 8.59504 24.0446 8.35504L25.4046 3.95504C25.4366 3.84838 25.5006 3.76038 25.5966 3.69104C25.6926 3.62171 25.8046 3.58704 25.9326 3.58704H26.8046C26.9486 3.58704 27.0686 3.62171 27.1646 3.69104C27.2606 3.76038 27.3246 3.84838 27.3566 3.95504L28.7006 8.43504C28.7699 8.66438 28.8313 8.88838 28.8846 9.10704C28.9433 9.32038 28.9993 9.53638 29.0526 9.75504C29.0899 9.52571 29.1299 9.29638 29.1726 9.06704C29.2206 8.83771 29.2793 8.60038 29.3486 8.35504L30.5646 3.97104C30.5913 3.86438 30.6553 3.77638 30.7566 3.70704C30.8579 3.63771 30.9753 3.60304 31.1086 3.60304H32.6046L30.0046 11.811H28.4126C28.2419 11.811 28.1193 11.6937 28.0446 11.459L26.5646 6.71504C26.5166 6.56038 26.4713 6.40571 26.4286 6.25104C26.3913 6.09104 26.3593 5.93371 26.3326 5.77904C26.3006 5.93904 26.2659 6.09904 26.2286 6.25904C26.1913 6.41371 26.1486 6.57104 26.1006 6.73104L24.6046 11.459C24.5299 11.6937 24.3859 11.811 24.1726 11.811H22.6606L20.0606 3.60304Z" fill="#EB5757"/>
<path d="M42.7306 7.01104C42.8213 7.18171 42.9039 7.36038 42.9786 7.54704C43.0586 7.72838 43.1359 7.91238 43.2106 8.09904C43.2853 7.90704 43.3626 7.71771 43.4426 7.53104C43.5226 7.34438 43.6079 7.16571 43.6986 6.99504L47.1226 0.587042C47.1653 0.507042 47.2079 0.443042 47.2506 0.395042C47.2986 0.347042 47.3493 0.312375 47.4026 0.291042C47.4613 0.269709 47.5253 0.256375 47.5946 0.251042C47.6639 0.245709 47.7466 0.243042 47.8426 0.243042H49.4666V11.811H47.5706V4.33904C47.5706 4.20038 47.5733 4.04838 47.5786 3.88304C47.5893 3.71771 47.6026 3.54971 47.6186 3.37904L44.1226 9.93904C44.0426 10.0884 43.9386 10.2057 43.8106 10.291C43.6826 10.371 43.5333 10.411 43.3626 10.411H43.0666C42.8959 10.411 42.7466 10.371 42.6186 10.291C42.4906 10.2057 42.3866 10.0884 42.3066 9.93904L38.7626 3.35504C38.7839 3.53104 38.7973 3.70438 38.8026 3.87504C38.8133 4.04038 38.8186 4.19504 38.8186 4.33904V11.811H36.9226V0.243042H38.5466C38.6426 0.243042 38.7253 0.245709 38.7946 0.251042C38.8639 0.256375 38.9253 0.269709 38.9786 0.291042C39.0373 0.312375 39.0906 0.347042 39.1386 0.395042C39.1866 0.443042 39.2319 0.507042 39.2746 0.587042L42.7306 7.01104Z" fill="#EB5757"/>
<path d="M55.0776 3.47504C55.5949 3.47504 56.0696 3.55771 56.5016 3.72304C56.9389 3.88838 57.3149 4.13104 57.6296 4.45104C57.9443 4.76571 58.1896 5.15504 58.3656 5.61904C58.5416 6.07771 58.6296 6.60304 58.6296 7.19504C58.6296 7.34438 58.6216 7.46971 58.6056 7.57104C58.5949 7.66704 58.5709 7.74438 58.5336 7.80304C58.5016 7.85638 58.4563 7.89638 58.3976 7.92304C58.3389 7.94438 58.2643 7.95504 58.1736 7.95504H53.1016C53.1603 8.79771 53.3869 9.41638 53.7816 9.81104C54.1763 10.2057 54.6989 10.403 55.3496 10.403C55.6696 10.403 55.9443 10.3657 56.1736 10.291C56.4083 10.2164 56.6109 10.1337 56.7816 10.043C56.9576 9.95238 57.1096 9.86971 57.2376 9.79504C57.3709 9.72038 57.4989 9.68304 57.6216 9.68304C57.7016 9.68304 57.7709 9.69904 57.8296 9.73104C57.8883 9.76304 57.9389 9.80838 57.9816 9.86704L58.5576 10.587C58.3389 10.843 58.0936 11.059 57.8216 11.235C57.5496 11.4057 57.2643 11.5444 56.9656 11.651C56.6723 11.7524 56.3709 11.8244 56.0616 11.867C55.7576 11.9097 55.4616 11.931 55.1736 11.931C54.6029 11.931 54.0723 11.8377 53.5816 11.651C53.0909 11.459 52.6643 11.179 52.3016 10.811C51.9389 10.4377 51.6536 9.97904 51.4456 9.43504C51.2376 8.88571 51.1336 8.25104 51.1336 7.53104C51.1336 6.97104 51.2243 6.44571 51.4056 5.95504C51.5869 5.45904 51.8456 5.02971 52.1816 4.66704C52.5229 4.29904 52.9363 4.00838 53.4216 3.79504C53.9123 3.58171 54.4643 3.47504 55.0776 3.47504ZM55.1176 4.89104C54.5416 4.89104 54.0909 5.05371 53.7656 5.37904C53.4403 5.70438 53.2323 6.16571 53.1416 6.76304H56.8536C56.8536 6.50704 56.8189 6.26704 56.7496 6.04304C56.6803 5.81371 56.5736 5.61371 56.4296 5.44304C56.2856 5.27238 56.1043 5.13904 55.8856 5.04304C55.6669 4.94171 55.4109 4.89104 55.1176 4.89104Z" fill="#EB5757"/>
<path d="M65.1045 5.20304C65.0511 5.28838 64.9952 5.34971 64.9365 5.38704C64.8778 5.41904 64.8032 5.43504 64.7125 5.43504C64.6165 5.43504 64.5125 5.40838 64.4005 5.35504C64.2938 5.30171 64.1685 5.24304 64.0245 5.17904C63.8805 5.10971 63.7151 5.04838 63.5285 4.99504C63.3471 4.94171 63.1311 4.91504 62.8805 4.91504C62.4911 4.91504 62.1845 4.99771 61.9605 5.16304C61.7365 5.32838 61.6245 5.54438 61.6245 5.81104C61.6245 5.98704 61.6805 6.13638 61.7925 6.25904C61.9098 6.37638 62.0618 6.48038 62.2485 6.57104C62.4405 6.66171 62.6565 6.74438 62.8965 6.81904C63.1365 6.88838 63.3818 6.96571 63.6325 7.05104C63.8832 7.13638 64.1285 7.23504 64.3685 7.34704C64.6085 7.45371 64.8218 7.59238 65.0085 7.76304C65.2005 7.92838 65.3525 8.12838 65.4645 8.36304C65.5818 8.59771 65.6405 8.88038 65.6405 9.21104C65.6405 9.60571 65.5685 9.97104 65.4245 10.307C65.2805 10.6377 65.0698 10.9257 64.7925 11.171C64.5151 11.411 64.1712 11.6004 63.7605 11.739C63.3551 11.8724 62.8885 11.939 62.3605 11.939C62.0778 11.939 61.8005 11.9124 61.5285 11.859C61.2618 11.811 61.0032 11.7417 60.7525 11.651C60.5071 11.5604 60.2778 11.4537 60.0645 11.331C59.8565 11.2084 59.6725 11.075 59.5125 10.931L59.9685 10.179C60.0271 10.0884 60.0965 10.019 60.1765 9.97104C60.2565 9.92304 60.3578 9.89904 60.4805 9.89904C60.6031 9.89904 60.7178 9.93371 60.8245 10.003C60.9365 10.0724 61.0645 10.147 61.2085 10.227C61.3525 10.307 61.5205 10.3817 61.7125 10.451C61.9098 10.5204 62.1578 10.555 62.4565 10.555C62.6911 10.555 62.8912 10.5284 63.0565 10.475C63.2271 10.4164 63.3658 10.3417 63.4725 10.251C63.5845 10.1604 63.6645 10.0564 63.7125 9.93904C63.7658 9.81638 63.7925 9.69104 63.7925 9.56304C63.7925 9.37104 63.7338 9.21371 63.6165 9.09104C63.5045 8.96838 63.3525 8.86171 63.1605 8.77104C62.9738 8.68038 62.7578 8.60038 62.5125 8.53104C62.2725 8.45638 62.0245 8.37638 61.7685 8.29104C61.5178 8.20571 61.2698 8.10704 61.0245 7.99504C60.7845 7.87771 60.5685 7.73104 60.3765 7.55504C60.1898 7.37904 60.0378 7.16304 59.9205 6.90704C59.8085 6.65104 59.7525 6.34171 59.7525 5.97904C59.7525 5.64304 59.8191 5.32304 59.9525 5.01904C60.0858 4.71504 60.2805 4.45104 60.5365 4.22704C60.7978 3.99771 61.1205 3.81638 61.5045 3.68304C61.8938 3.54438 62.3418 3.47504 62.8485 3.47504C63.4138 3.47504 63.9285 3.56838 64.3925 3.75504C64.8565 3.94171 65.2431 4.18704 65.5525 4.49104L65.1045 5.20304Z" fill="#EB5757"/>
<path d="M72.0889 5.20304C72.0355 5.28838 71.9795 5.34971 71.9209 5.38704C71.8622 5.41904 71.7875 5.43504 71.6969 5.43504C71.6009 5.43504 71.4969 5.40838 71.3849 5.35504C71.2782 5.30171 71.1529 5.24304 71.0089 5.17904C70.8649 5.10971 70.6995 5.04838 70.5129 4.99504C70.3315 4.94171 70.1155 4.91504 69.8649 4.91504C69.4755 4.91504 69.1689 4.99771 68.9449 5.16304C68.7209 5.32838 68.6089 5.54438 68.6089 5.81104C68.6089 5.98704 68.6649 6.13638 68.7769 6.25904C68.8942 6.37638 69.0462 6.48038 69.2329 6.57104C69.4249 6.66171 69.6409 6.74438 69.8809 6.81904C70.1209 6.88838 70.3662 6.96571 70.6169 7.05104C70.8675 7.13638 71.1129 7.23504 71.3529 7.34704C71.5929 7.45371 71.8062 7.59238 71.9929 7.76304C72.1849 7.92838 72.3369 8.12838 72.4489 8.36304C72.5662 8.59771 72.6249 8.88038 72.6249 9.21104C72.6249 9.60571 72.5529 9.97104 72.4089 10.307C72.2649 10.6377 72.0542 10.9257 71.7769 11.171C71.4995 11.411 71.1555 11.6004 70.7449 11.739C70.3395 11.8724 69.8729 11.939 69.3449 11.939C69.0622 11.939 68.7849 11.9124 68.5129 11.859C68.2462 11.811 67.9875 11.7417 67.7369 11.651C67.4915 11.5604 67.2622 11.4537 67.0489 11.331C66.8409 11.2084 66.6569 11.075 66.4969 10.931L66.9529 10.179C67.0115 10.0884 67.0809 10.019 67.1609 9.97104C67.2409 9.92304 67.3422 9.89904 67.4649 9.89904C67.5875 9.89904 67.7022 9.93371 67.8089 10.003C67.9209 10.0724 68.0489 10.147 68.1929 10.227C68.3369 10.307 68.5049 10.3817 68.6969 10.451C68.8942 10.5204 69.1422 10.555 69.4409 10.555C69.6755 10.555 69.8755 10.5284 70.0409 10.475C70.2115 10.4164 70.3502 10.3417 70.4569 10.251C70.5689 10.1604 70.6489 10.0564 70.6969 9.93904C70.7502 9.81638 70.7769 9.69104 70.7769 9.56304C70.7769 9.37104 70.7182 9.21371 70.6009 9.09104C70.4889 8.96838 70.3369 8.86171 70.1449 8.77104C69.9582 8.68038 69.7422 8.60038 69.4969 8.53104C69.2569 8.45638 69.0089 8.37638 68.7529 8.29104C68.5022 8.20571 68.2542 8.10704 68.0089 7.99504C67.7689 7.87771 67.5529 7.73104 67.3609 7.55504C67.1742 7.37904 67.0222 7.16304 66.9049 6.90704C66.7929 6.65104 66.7369 6.34171 66.7369 5.97904C66.7369 5.64304 66.8035 5.32304 66.9369 5.01904C67.0702 4.71504 67.2649 4.45104 67.5209 4.22704C67.7822 3.99771 68.1049 3.81638 68.4889 3.68304C68.8782 3.54438 69.3262 3.47504 69.8329 3.47504C70.3982 3.47504 70.9129 3.56838 71.3769 3.75504C71.8409 3.94171 72.2275 4.18704 72.5369 4.49104L72.0889 5.20304Z" fill="#EB5757"/>
<path d="M80.6332 11.811H79.7452C79.5586 11.811 79.4119 11.7844 79.3052 11.731C79.1986 11.6724 79.1186 11.5577 79.0652 11.387L78.8892 10.803C78.6812 10.9897 78.4759 11.155 78.2732 11.299C78.0759 11.4377 77.8706 11.555 77.6572 11.651C77.4439 11.747 77.2172 11.819 76.9772 11.867C76.7372 11.915 76.4706 11.939 76.1772 11.939C75.8306 11.939 75.5106 11.8937 75.2172 11.803C74.9239 11.707 74.6706 11.5657 74.4572 11.379C74.2492 11.1924 74.0866 10.9604 73.9692 10.683C73.8519 10.4057 73.7932 10.083 73.7932 9.71504C73.7932 9.40571 73.8732 9.10171 74.0332 8.80304C74.1986 8.49904 74.4706 8.22704 74.8492 7.98704C75.2279 7.74171 75.7319 7.53904 76.3612 7.37904C76.9906 7.21904 77.7719 7.12838 78.7052 7.10704V6.62704C78.7052 6.07771 78.5879 5.67238 78.3532 5.41104C78.1239 5.14438 77.7879 5.01104 77.3452 5.01104C77.0252 5.01104 76.7586 5.04838 76.5452 5.12304C76.3319 5.19771 76.1452 5.28304 75.9852 5.37904C75.8306 5.46971 75.6866 5.55238 75.5532 5.62704C75.4199 5.70171 75.2732 5.73904 75.1132 5.73904C74.9799 5.73904 74.8652 5.70438 74.7692 5.63504C74.6732 5.56571 74.5959 5.48038 74.5372 5.37904L74.1772 4.74704C75.1212 3.88304 76.2599 3.45104 77.5932 3.45104C78.0732 3.45104 78.4999 3.53104 78.8732 3.69104C79.2519 3.84571 79.5719 4.06438 79.8332 4.34704C80.0946 4.62438 80.2919 4.95771 80.4252 5.34704C80.5639 5.73638 80.6332 6.16304 80.6332 6.62704V11.811ZM76.7932 10.579C76.9959 10.579 77.1826 10.5604 77.3532 10.523C77.5239 10.4857 77.6839 10.4297 77.8332 10.355C77.9879 10.2804 78.1346 10.1897 78.2732 10.083C78.4172 9.97104 78.5612 9.84038 78.7052 9.69104V8.30704C78.1292 8.33371 77.6466 8.38438 77.2572 8.45904C76.8732 8.52838 76.5639 8.61904 76.3292 8.73104C76.0946 8.84304 75.9266 8.97371 75.8252 9.12304C75.7292 9.27238 75.6812 9.43504 75.6812 9.61104C75.6812 9.95771 75.7826 10.2057 75.9852 10.355C76.1932 10.5044 76.4626 10.579 76.7932 10.579Z" fill="#EB5757"/>
<path d="M85.4162 3.45904C85.7682 3.45904 86.0989 3.49638 86.4082 3.57104C86.7176 3.64038 87.0002 3.74438 87.2562 3.88304H89.6162V4.61904C89.6162 4.74171 89.5842 4.83771 89.5202 4.90704C89.4562 4.97638 89.3469 5.02438 89.1922 5.05104L88.4562 5.18704C88.5096 5.32571 88.5496 5.47238 88.5762 5.62704C88.6082 5.78171 88.6242 5.94438 88.6242 6.11504C88.6242 6.52038 88.5416 6.88838 88.3762 7.21904C88.2162 7.54438 87.9922 7.82171 87.7042 8.05104C87.4216 8.28038 87.0829 8.45904 86.6882 8.58704C86.2989 8.70971 85.8749 8.77104 85.4162 8.77104C85.1069 8.77104 84.8056 8.74171 84.5122 8.68304C84.2562 8.83771 84.1282 9.01104 84.1282 9.20304C84.1282 9.36838 84.2029 9.49104 84.3522 9.57104C84.5069 9.64571 84.7069 9.69904 84.9522 9.73104C85.2029 9.76304 85.4856 9.78438 85.8002 9.79504C86.1149 9.80038 86.4376 9.81638 86.7682 9.84304C87.0989 9.86971 87.4216 9.91771 87.7362 9.98704C88.0509 10.051 88.3309 10.155 88.5762 10.299C88.8269 10.443 89.0269 10.6404 89.1762 10.891C89.3309 11.1364 89.4082 11.4537 89.4082 11.843C89.4082 12.2057 89.3176 12.5577 89.1362 12.899C88.9602 13.2404 88.7016 13.5444 88.3602 13.811C88.0242 14.0777 87.6109 14.291 87.1202 14.451C86.6296 14.6164 86.0696 14.699 85.4402 14.699C84.8162 14.699 84.2749 14.6377 83.8162 14.515C83.3576 14.3977 82.9762 14.2377 82.6722 14.035C82.3736 13.8377 82.1496 13.6084 82.0002 13.347C81.8509 13.0857 81.7762 12.8137 81.7762 12.531C81.7762 12.147 81.8936 11.8244 82.1282 11.563C82.3629 11.3017 82.6882 11.0937 83.1042 10.939C82.9016 10.827 82.7389 10.6777 82.6162 10.491C82.4936 10.3044 82.4322 10.0617 82.4322 9.76304C82.4322 9.64038 82.4536 9.51504 82.4962 9.38704C82.5389 9.25371 82.6029 9.12304 82.6882 8.99504C82.7789 8.86704 82.8909 8.74704 83.0242 8.63504C83.1576 8.51771 83.3149 8.41371 83.4962 8.32304C83.0802 8.09904 82.7522 7.80038 82.5122 7.42704C82.2776 7.05371 82.1602 6.61638 82.1602 6.11504C82.1602 5.70971 82.2402 5.34438 82.4002 5.01904C82.5656 4.68838 82.7922 4.40838 83.0802 4.17904C83.3736 3.94438 83.7176 3.76571 84.1122 3.64304C84.5122 3.52038 84.9469 3.45904 85.4162 3.45904ZM87.5842 12.179C87.5842 12.019 87.5362 11.8884 87.4402 11.787C87.3442 11.6857 87.2136 11.6084 87.0482 11.555C86.8829 11.4964 86.6882 11.4537 86.4642 11.427C86.2456 11.4004 86.0109 11.3817 85.7602 11.371C85.5149 11.355 85.2589 11.3417 84.9922 11.331C84.7309 11.315 84.4776 11.291 84.2322 11.259C84.0082 11.3817 83.8269 11.5284 83.6882 11.699C83.5549 11.8644 83.4882 12.0564 83.4882 12.275C83.4882 12.419 83.5229 12.5524 83.5922 12.675C83.6669 12.803 83.7816 12.9124 83.9362 13.003C84.0962 13.0937 84.3016 13.163 84.5522 13.211C84.8029 13.2644 85.1096 13.291 85.4722 13.291C85.8402 13.291 86.1576 13.2617 86.4242 13.203C86.6909 13.1497 86.9096 13.0724 87.0802 12.971C87.2562 12.875 87.3842 12.7577 87.4642 12.619C87.5442 12.4857 87.5842 12.339 87.5842 12.179ZM85.4162 7.50704C85.6616 7.50704 85.8749 7.47504 86.0562 7.41104C86.2376 7.34171 86.3869 7.24838 86.5042 7.13104C86.6269 7.01371 86.7176 6.87238 86.7762 6.70704C86.8402 6.54171 86.8722 6.36038 86.8722 6.16304C86.8722 5.75771 86.7496 5.43771 86.5042 5.20304C86.2642 4.96304 85.9016 4.84304 85.4162 4.84304C84.9309 4.84304 84.5656 4.96304 84.3202 5.20304C84.0802 5.43771 83.9602 5.75771 83.9602 6.16304C83.9602 6.35504 83.9896 6.53371 84.0482 6.69904C84.1122 6.86438 84.2029 7.00838 84.3202 7.13104C84.4429 7.24838 84.5949 7.34171 84.7762 7.41104C84.9629 7.47504 85.1762 7.50704 85.4162 7.50704Z" fill="#EB5757"/>
<path d="M94.2495 3.47504C94.7668 3.47504 95.2415 3.55771 95.6735 3.72304C96.1108 3.88838 96.4868 4.13104 96.8015 4.45104C97.1161 4.76571 97.3615 5.15504 97.5375 5.61904C97.7135 6.07771 97.8015 6.60304 97.8015 7.19504C97.8015 7.34438 97.7935 7.46971 97.7775 7.57104C97.7668 7.66704 97.7428 7.74438 97.7055 7.80304C97.6735 7.85638 97.6282 7.89638 97.5695 7.92304C97.5108 7.94438 97.4361 7.95504 97.3455 7.95504H92.2735C92.3322 8.79771 92.5588 9.41638 92.9535 9.81104C93.3482 10.2057 93.8708 10.403 94.5215 10.403C94.8415 10.403 95.1161 10.3657 95.3455 10.291C95.5801 10.2164 95.7828 10.1337 95.9535 10.043C96.1295 9.95238 96.2815 9.86971 96.4095 9.79504C96.5428 9.72038 96.6708 9.68304 96.7935 9.68304C96.8735 9.68304 96.9428 9.69904 97.0015 9.73104C97.0602 9.76304 97.1108 9.80838 97.1535 9.86704L97.7295 10.587C97.5108 10.843 97.2655 11.059 96.9935 11.235C96.7215 11.4057 96.4361 11.5444 96.1375 11.651C95.8441 11.7524 95.5428 11.8244 95.2335 11.867C94.9295 11.9097 94.6335 11.931 94.3455 11.931C93.7748 11.931 93.2442 11.8377 92.7535 11.651C92.2628 11.459 91.8361 11.179 91.4735 10.811C91.1108 10.4377 90.8255 9.97904 90.6175 9.43504C90.4095 8.88571 90.3055 8.25104 90.3055 7.53104C90.3055 6.97104 90.3961 6.44571 90.5775 5.95504C90.7588 5.45904 91.0175 5.02971 91.3535 4.66704C91.6948 4.29904 92.1081 4.00838 92.5935 3.79504C93.0842 3.58171 93.6361 3.47504 94.2495 3.47504ZM94.2895 4.89104C93.7135 4.89104 93.2628 5.05371 92.9375 5.37904C92.6122 5.70438 92.4042 6.16571 92.3135 6.76304H96.0255C96.0255 6.50704 95.9908 6.26704 95.9215 6.04304C95.8521 5.81371 95.7455 5.61371 95.6015 5.44304C95.4575 5.27238 95.2761 5.13904 95.0575 5.04304C94.8388 4.94171 94.5828 4.89104 94.2895 4.89104Z" fill="#EB5757"/>
</svg>
