<svg width="35" height="13" viewBox="0 0 35 13" fill="none" xmlns="http://www.w3.org/2000/svg">
<path d="M7.59465 3.06505C7.53598 3.18239 7.46665 3.26505 7.38665 3.31305C7.31198 3.36105 7.22132 3.38505 7.11465 3.38505C7.00798 3.38505 6.88798 3.34505 6.75465 3.26505C6.62132 3.17972 6.46398 3.08639 6.28265 2.98505C6.10132 2.88372 5.88798 2.79305 5.64265 2.71305C5.40265 2.62772 5.11732 2.58505 4.78665 2.58505C4.48798 2.58505 4.22665 2.62239 4.00265 2.69705C3.78398 2.76639 3.59732 2.86505 3.44265 2.99305C3.29332 3.12105 3.18132 3.27572 3.10665 3.45705C3.03198 3.63305 2.99465 3.82772 2.99465 4.04105C2.99465 4.31305 3.06932 4.53972 3.21865 4.72105C3.37332 4.90239 3.57598 5.05705 3.82665 5.18505C4.07732 5.31305 4.36265 5.42772 4.68265 5.52905C5.00265 5.63039 5.32798 5.73972 5.65865 5.85705C5.99465 5.96905 6.32265 6.10239 6.64265 6.25705C6.96265 6.40639 7.24798 6.59839 7.49865 6.83305C7.74932 7.06239 7.94932 7.34505 8.09865 7.68105C8.25331 8.01705 8.33065 8.42505 8.33065 8.90505C8.33065 9.42772 8.23998 9.91839 8.05865 10.3771C7.88265 10.8304 7.62132 11.2277 7.27465 11.5691C6.93332 11.9051 6.51465 12.1717 6.01865 12.3691C5.52265 12.5611 4.95465 12.6571 4.31465 12.6571C3.94665 12.6571 3.58398 12.6197 3.22665 12.5451C2.86932 12.4757 2.52532 12.3744 2.19465 12.2411C1.86932 12.1077 1.56265 11.9477 1.27465 11.7611C0.991982 11.5744 0.738648 11.3664 0.514648 11.1371L1.13865 10.1051C1.19732 10.0304 1.26665 9.96905 1.34665 9.92105C1.43198 9.86772 1.52532 9.84105 1.62665 9.84105C1.75998 9.84105 1.90398 9.89705 2.05865 10.0091C2.21332 10.1157 2.39465 10.2357 2.60265 10.3691C2.81598 10.5024 3.06398 10.6251 3.34665 10.7371C3.63465 10.8437 3.97865 10.8971 4.37865 10.8971C4.99198 10.8971 5.46665 10.7531 5.80265 10.4651C6.13865 10.1717 6.30665 9.75305 6.30665 9.20905C6.30665 8.90505 6.22932 8.65705 6.07465 8.46505C5.92531 8.27305 5.72532 8.11305 5.47465 7.98505C5.22398 7.85172 4.93865 7.73972 4.61865 7.64905C4.29865 7.55839 3.97332 7.45972 3.64265 7.35305C3.31198 7.24639 2.98665 7.11839 2.66665 6.96905C2.34665 6.81972 2.06132 6.62505 1.81065 6.38505C1.55998 6.14505 1.35732 5.84639 1.20265 5.48905C1.05332 5.12639 0.978648 4.68105 0.978648 4.15305C0.978648 3.73172 1.06132 3.32105 1.22665 2.92105C1.39732 2.52105 1.64265 2.16639 1.96265 1.85705C2.28798 1.54772 2.68532 1.29972 3.15465 1.11305C3.62398 0.926386 4.15998 0.833053 4.76265 0.833053C5.44532 0.833053 6.07465 0.939719 6.65065 1.15305C7.22665 1.36639 7.71732 1.66505 8.12265 2.04905L7.59465 3.06505Z" fill="white"/>
<path d="M13.2528 4.19305C13.7701 4.19305 14.2448 4.27572 14.6768 4.44105C15.1141 4.60639 15.4901 4.84905 15.8048 5.16905C16.1194 5.48372 16.3648 5.87305 16.5408 6.33705C16.7168 6.79572 16.8048 7.32105 16.8048 7.91305C16.8048 8.06239 16.7968 8.18772 16.7808 8.28905C16.7701 8.38505 16.7461 8.46239 16.7088 8.52105C16.6768 8.57439 16.6314 8.61439 16.5728 8.64105C16.5141 8.66239 16.4394 8.67305 16.3488 8.67305H11.2768C11.3354 9.51572 11.5621 10.1344 11.9568 10.5291C12.3514 10.9237 12.8741 11.1211 13.5248 11.1211C13.8448 11.1211 14.1194 11.0837 14.3488 11.0091C14.5834 10.9344 14.7861 10.8517 14.9568 10.7611C15.1328 10.6704 15.2848 10.5877 15.4128 10.5131C15.5461 10.4384 15.6741 10.4011 15.7968 10.4011C15.8768 10.4011 15.9461 10.4171 16.0048 10.4491C16.0634 10.4811 16.1141 10.5264 16.1568 10.5851L16.7328 11.3051C16.5141 11.5611 16.2688 11.7771 15.9968 11.9531C15.7248 12.1237 15.4394 12.2624 15.1408 12.3691C14.8474 12.4704 14.5461 12.5424 14.2368 12.5851C13.9328 12.6277 13.6368 12.6491 13.3488 12.6491C12.7781 12.6491 12.2474 12.5557 11.7568 12.3691C11.2661 12.1771 10.8394 11.8971 10.4768 11.5291C10.1141 11.1557 9.82877 10.6971 9.62077 10.1531C9.41277 9.60372 9.30877 8.96905 9.30877 8.24905C9.30877 7.68905 9.39944 7.16372 9.58077 6.67305C9.76211 6.17705 10.0208 5.74772 10.3568 5.38505C10.6981 5.01705 11.1114 4.72639 11.5968 4.51305C12.0874 4.29972 12.6394 4.19305 13.2528 4.19305ZM13.2928 5.60905C12.7168 5.60905 12.2661 5.77172 11.9408 6.09705C11.6154 6.42239 11.4074 6.88372 11.3168 7.48105H15.0288C15.0288 7.22505 14.9941 6.98505 14.9248 6.76105C14.8554 6.53172 14.7488 6.33172 14.6048 6.16105C14.4608 5.99039 14.2794 5.85705 14.0608 5.76105C13.8421 5.65972 13.5861 5.60905 13.2928 5.60905Z" fill="white"/>
<path d="M18.4076 12.5291V4.32105H19.6156C19.8716 4.32105 20.0396 4.44105 20.1196 4.68105L20.2556 5.32905C20.421 5.15839 20.5943 5.00372 20.7756 4.86505C20.9623 4.72639 21.157 4.60639 21.3596 4.50505C21.5676 4.40372 21.789 4.32639 22.0236 4.27305C22.2583 4.21972 22.5143 4.19305 22.7916 4.19305C23.2396 4.19305 23.637 4.27039 23.9836 4.42505C24.3303 4.57439 24.6183 4.78772 24.8476 5.06505C25.0823 5.33705 25.2583 5.66505 25.3756 6.04905C25.4983 6.42772 25.5596 6.84639 25.5596 7.30505V12.5291H23.5836V7.30505C23.5836 6.80372 23.4663 6.41705 23.2316 6.14505C23.0023 5.86772 22.6556 5.72905 22.1916 5.72905C21.8503 5.72905 21.5303 5.80639 21.2316 5.96105C20.933 6.11572 20.6503 6.32639 20.3836 6.59305V12.5291H18.4076Z" fill="white"/>
<path d="M33.2774 12.5291C33.0214 12.5291 32.8534 12.4091 32.7734 12.1691L32.6134 11.3771C32.4427 11.5691 32.2641 11.7424 32.0774 11.8971C31.8907 12.0517 31.6881 12.1851 31.4694 12.2971C31.2561 12.4091 31.0241 12.4944 30.7734 12.5531C30.5281 12.6171 30.2614 12.6491 29.9734 12.6491C29.5254 12.6491 29.1147 12.5557 28.7414 12.3691C28.3681 12.1824 28.0454 11.9131 27.7734 11.5611C27.5067 11.2037 27.2987 10.7637 27.1494 10.2411C27.0054 9.71839 26.9334 9.12105 26.9334 8.44905C26.9334 7.84105 27.0161 7.27572 27.1814 6.75305C27.3467 6.23039 27.5841 5.77705 27.8934 5.39305C28.2027 5.00905 28.5734 4.71039 29.0054 4.49705C29.4374 4.27839 29.9227 4.16905 30.4614 4.16905C30.9201 4.16905 31.3121 4.24372 31.6374 4.39305C31.9627 4.53705 32.2534 4.73172 32.5094 4.97705V0.641052H34.4854V12.5291H33.2774ZM30.6454 11.0811C31.0561 11.0811 31.4054 10.9957 31.6934 10.8251C31.9814 10.6544 32.2534 10.4117 32.5094 10.0971V6.41705C32.2854 6.14505 32.0401 5.95305 31.7734 5.84105C31.5121 5.72905 31.2294 5.67305 30.9254 5.67305C30.6267 5.67305 30.3547 5.72905 30.1094 5.84105C29.8694 5.95305 29.6641 6.12372 29.4934 6.35305C29.3281 6.57705 29.2001 6.86505 29.1094 7.21705C29.0187 7.56372 28.9734 7.97439 28.9734 8.44905C28.9734 8.92905 29.0107 9.33705 29.0854 9.67305C29.1654 10.0037 29.2774 10.2757 29.4214 10.4891C29.5654 10.6971 29.7414 10.8491 29.9494 10.9451C30.1574 11.0357 30.3894 11.0811 30.6454 11.0811Z" fill="white"/>
</svg>
