<svg width="35" height="13" viewBox="0 0 35 13" fill="none" xmlns="http://www.w3.org/2000/svg">
<path d="M7.59465 2.46605C7.53598 2.58339 7.46665 2.66605 7.38665 2.71405C7.31198 2.76205 7.22132 2.78605 7.11465 2.78605C7.00798 2.78605 6.88798 2.74605 6.75465 2.66605C6.62132 2.58072 6.46398 2.48739 6.28265 2.38605C6.10132 2.28472 5.88798 2.19405 5.64265 2.11405C5.40265 2.02872 5.11732 1.98605 4.78665 1.98605C4.48798 1.98605 4.22665 2.02339 4.00265 2.09805C3.78398 2.16739 3.59732 2.26605 3.44265 2.39405C3.29332 2.52205 3.18132 2.67672 3.10665 2.85805C3.03198 3.03405 2.99465 3.22872 2.99465 3.44205C2.99465 3.71405 3.06932 3.94072 3.21865 4.12205C3.37332 4.30339 3.57598 4.45805 3.82665 4.58605C4.07732 4.71405 4.36265 4.82872 4.68265 4.93005C5.00265 5.03139 5.32798 5.14072 5.65865 5.25805C5.99465 5.37005 6.32265 5.50339 6.64265 5.65805C6.96265 5.80739 7.24798 5.99939 7.49865 6.23405C7.74932 6.46339 7.94932 6.74605 8.09865 7.08205C8.25331 7.41805 8.33065 7.82605 8.33065 8.30605C8.33065 8.82872 8.23998 9.31939 8.05865 9.77805C7.88265 10.2314 7.62132 10.6287 7.27465 10.9701C6.93332 11.3061 6.51465 11.5727 6.01865 11.7701C5.52265 11.9621 4.95465 12.0581 4.31465 12.0581C3.94665 12.0581 3.58398 12.0207 3.22665 11.9461C2.86932 11.8767 2.52532 11.7754 2.19465 11.6421C1.86932 11.5087 1.56265 11.3487 1.27465 11.1621C0.991982 10.9754 0.738648 10.7674 0.514648 10.5381L1.13865 9.50605C1.19732 9.43139 1.26665 9.37005 1.34665 9.32205C1.43198 9.26872 1.52532 9.24205 1.62665 9.24205C1.75998 9.24205 1.90398 9.29805 2.05865 9.41005C2.21332 9.51672 2.39465 9.63672 2.60265 9.77005C2.81598 9.90339 3.06398 10.0261 3.34665 10.1381C3.63465 10.2447 3.97865 10.2981 4.37865 10.2981C4.99198 10.2981 5.46665 10.1541 5.80265 9.86605C6.13865 9.57272 6.30665 9.15405 6.30665 8.61005C6.30665 8.30605 6.22932 8.05805 6.07465 7.86605C5.92531 7.67405 5.72532 7.51405 5.47465 7.38605C5.22398 7.25272 4.93865 7.14072 4.61865 7.05005C4.29865 6.95939 3.97332 6.86072 3.64265 6.75405C3.31198 6.64739 2.98665 6.51939 2.66665 6.37005C2.34665 6.22072 2.06132 6.02605 1.81065 5.78605C1.55998 5.54605 1.35732 5.24739 1.20265 4.89005C1.05332 4.52739 0.978648 4.08205 0.978648 3.55405C0.978648 3.13272 1.06132 2.72205 1.22665 2.32205C1.39732 1.92205 1.64265 1.56739 1.96265 1.25805C2.28798 0.94872 2.68532 0.70072 3.15465 0.514053C3.62398 0.327387 4.15998 0.234054 4.76265 0.234054C5.44532 0.234054 6.07465 0.34072 6.65065 0.554053C7.22665 0.767386 7.71732 1.06605 8.12265 1.45005L7.59465 2.46605Z" fill="white"/>
<path d="M13.2528 3.59405C13.7701 3.59405 14.2448 3.67672 14.6768 3.84205C15.1141 4.00739 15.4901 4.25005 15.8048 4.57005C16.1194 4.88472 16.3648 5.27405 16.5408 5.73805C16.7168 6.19672 16.8048 6.72205 16.8048 7.31405C16.8048 7.46339 16.7968 7.58872 16.7808 7.69005C16.7701 7.78605 16.7461 7.86339 16.7088 7.92205C16.6768 7.97539 16.6314 8.01539 16.5728 8.04205C16.5141 8.06339 16.4394 8.07405 16.3488 8.07405H11.2768C11.3354 8.91672 11.5621 9.53539 11.9568 9.93005C12.3514 10.3247 12.8741 10.5221 13.5248 10.5221C13.8448 10.5221 14.1194 10.4847 14.3488 10.4101C14.5834 10.3354 14.7861 10.2527 14.9568 10.1621C15.1328 10.0714 15.2848 9.98872 15.4128 9.91405C15.5461 9.83939 15.6741 9.80205 15.7968 9.80205C15.8768 9.80205 15.9461 9.81805 16.0048 9.85005C16.0634 9.88205 16.1141 9.92739 16.1568 9.98605L16.7328 10.7061C16.5141 10.9621 16.2688 11.1781 15.9968 11.3541C15.7248 11.5247 15.4394 11.6634 15.1408 11.7701C14.8474 11.8714 14.5461 11.9434 14.2368 11.9861C13.9328 12.0287 13.6368 12.0501 13.3488 12.0501C12.7781 12.0501 12.2474 11.9567 11.7568 11.7701C11.2661 11.5781 10.8394 11.2981 10.4768 10.9301C10.1141 10.5567 9.82877 10.0981 9.62077 9.55405C9.41277 9.00472 9.30877 8.37005 9.30877 7.65005C9.30877 7.09005 9.39944 6.56472 9.58077 6.07405C9.76211 5.57805 10.0208 5.14872 10.3568 4.78605C10.6981 4.41805 11.1114 4.12739 11.5968 3.91405C12.0874 3.70072 12.6394 3.59405 13.2528 3.59405ZM13.2928 5.01005C12.7168 5.01005 12.2661 5.17272 11.9408 5.49805C11.6154 5.82339 11.4074 6.28472 11.3168 6.88205H15.0288C15.0288 6.62605 14.9941 6.38605 14.9248 6.16205C14.8554 5.93272 14.7488 5.73272 14.6048 5.56205C14.4608 5.39139 14.2794 5.25805 14.0608 5.16205C13.8421 5.06072 13.5861 5.01005 13.2928 5.01005Z" fill="white"/>
<path d="M18.4076 11.9301V3.72205H19.6156C19.8716 3.72205 20.0396 3.84205 20.1196 4.08205L20.2556 4.73005C20.421 4.55939 20.5943 4.40472 20.7756 4.26605C20.9623 4.12739 21.157 4.00739 21.3596 3.90605C21.5676 3.80472 21.789 3.72739 22.0236 3.67405C22.2583 3.62072 22.5143 3.59405 22.7916 3.59405C23.2396 3.59405 23.637 3.67139 23.9836 3.82605C24.3303 3.97539 24.6183 4.18872 24.8476 4.46605C25.0823 4.73805 25.2583 5.06605 25.3756 5.45005C25.4983 5.82872 25.5596 6.24739 25.5596 6.70605V11.9301H23.5836V6.70605C23.5836 6.20472 23.4663 5.81805 23.2316 5.54605C23.0023 5.26872 22.6556 5.13005 22.1916 5.13005C21.8503 5.13005 21.5303 5.20739 21.2316 5.36205C20.933 5.51672 20.6503 5.72739 20.3836 5.99405V11.9301H18.4076Z" fill="white"/>
<path d="M33.2774 11.9301C33.0214 11.9301 32.8534 11.8101 32.7734 11.5701L32.6134 10.7781C32.4427 10.9701 32.2641 11.1434 32.0774 11.2981C31.8907 11.4527 31.6881 11.5861 31.4694 11.6981C31.2561 11.8101 31.0241 11.8954 30.7734 11.9541C30.5281 12.0181 30.2614 12.0501 29.9734 12.0501C29.5254 12.0501 29.1147 11.9567 28.7414 11.7701C28.3681 11.5834 28.0454 11.3141 27.7734 10.9621C27.5067 10.6047 27.2987 10.1647 27.1494 9.64205C27.0054 9.11939 26.9334 8.52205 26.9334 7.85005C26.9334 7.24205 27.0161 6.67672 27.1814 6.15405C27.3467 5.63139 27.5841 5.17805 27.8934 4.79405C28.2027 4.41005 28.5734 4.11139 29.0054 3.89805C29.4374 3.67939 29.9227 3.57005 30.4614 3.57005C30.9201 3.57005 31.3121 3.64472 31.6374 3.79405C31.9627 3.93805 32.2534 4.13272 32.5094 4.37805V0.0420532H34.4854V11.9301H33.2774ZM30.6454 10.4821C31.0561 10.4821 31.4054 10.3967 31.6934 10.2261C31.9814 10.0554 32.2534 9.81272 32.5094 9.49805V5.81805C32.2854 5.54605 32.0401 5.35405 31.7734 5.24205C31.5121 5.13005 31.2294 5.07405 30.9254 5.07405C30.6267 5.07405 30.3547 5.13005 30.1094 5.24205C29.8694 5.35405 29.6641 5.52472 29.4934 5.75405C29.3281 5.97805 29.2001 6.26605 29.1094 6.61805C29.0187 6.96472 28.9734 7.37539 28.9734 7.85005C28.9734 8.33005 29.0107 8.73805 29.0854 9.07405C29.1654 9.40472 29.2774 9.67672 29.4214 9.89005C29.5654 10.0981 29.7414 10.2501 29.9494 10.3461C30.1574 10.4367 30.3894 10.4821 30.6454 10.4821Z" fill="white"/>
</svg>
