<svg width="145" height="16" viewBox="0 0 145 16" fill="none" xmlns="http://www.w3.org/2000/svg">
<path d="M9.58308 1.18609V2.95409H6.10308V12.7541H3.95108V2.95409H0.455078V1.18609H9.58308Z" fill="#4F4F4F"/>
<path d="M12.7137 4.41809C13.327 4.41809 13.8817 4.51676 14.3777 4.71409C14.879 4.91142 15.3057 5.19142 15.6577 5.55409C16.0097 5.91676 16.2817 6.35942 16.4737 6.88209C16.6657 7.40476 16.7617 7.98876 16.7617 8.63409C16.7617 9.28476 16.6657 9.87142 16.4737 10.3941C16.2817 10.9168 16.0097 11.3621 15.6577 11.7301C15.3057 12.0981 14.879 12.3808 14.3777 12.5781C13.8817 12.7754 13.327 12.8741 12.7137 12.8741C12.1004 12.8741 11.543 12.7754 11.0417 12.5781C10.5404 12.3808 10.111 12.0981 9.7537 11.7301C9.4017 11.3621 9.12704 10.9168 8.9297 10.3941C8.7377 9.87142 8.6417 9.28476 8.6417 8.63409C8.6417 7.98876 8.7377 7.40476 8.9297 6.88209C9.12704 6.35942 9.4017 5.91676 9.7537 5.55409C10.111 5.19142 10.5404 4.91142 11.0417 4.71409C11.543 4.51676 12.1004 4.41809 12.7137 4.41809ZM12.7137 11.3541C13.3964 11.3541 13.9004 11.1248 14.2257 10.6661C14.5564 10.2074 14.7217 9.53542 14.7217 8.65009C14.7217 7.76476 14.5564 7.09009 14.2257 6.62609C13.9004 6.16209 13.3964 5.93009 12.7137 5.93009C12.0204 5.93009 11.5084 6.16476 11.1777 6.63409C10.847 7.09809 10.6817 7.77009 10.6817 8.65009C10.6817 9.53009 10.847 10.2021 11.1777 10.6661C11.5084 11.1248 12.0204 11.3541 12.7137 11.3541Z" fill="#4F4F4F"/>
<path d="M24.0795 12.7541C23.8235 12.7541 23.6555 12.6341 23.5755 12.3941L23.4155 11.6021C23.2448 11.7941 23.0661 11.9674 22.8795 12.1221C22.6928 12.2768 22.4901 12.4101 22.2715 12.5221C22.0581 12.6341 21.8261 12.7194 21.5755 12.7781C21.3301 12.8421 21.0635 12.8741 20.7755 12.8741C20.3275 12.8741 19.9168 12.7808 19.5435 12.5941C19.1701 12.4074 18.8475 12.1381 18.5755 11.7861C18.3088 11.4288 18.1008 10.9888 17.9515 10.4661C17.8075 9.94342 17.7355 9.34609 17.7355 8.67409C17.7355 8.06609 17.8181 7.50076 17.9835 6.97809C18.1488 6.45542 18.3861 6.00209 18.6955 5.61809C19.0048 5.23409 19.3755 4.93542 19.8075 4.72209C20.2395 4.50342 20.7248 4.39409 21.2635 4.39409C21.7221 4.39409 22.1141 4.46876 22.4395 4.61809C22.7648 4.76209 23.0555 4.95676 23.3115 5.20209V0.866089H25.2875V12.7541H24.0795ZM21.4475 11.3061C21.8581 11.3061 22.2075 11.2208 22.4955 11.0501C22.7835 10.8794 23.0555 10.6368 23.3115 10.3221V6.64209C23.0875 6.37009 22.8421 6.17809 22.5755 6.06609C22.3141 5.95409 22.0315 5.89809 21.7275 5.89809C21.4288 5.89809 21.1568 5.95409 20.9115 6.06609C20.6715 6.17809 20.4661 6.34876 20.2955 6.57809C20.1301 6.80209 20.0021 7.09009 19.9115 7.44209C19.8208 7.78876 19.7755 8.19942 19.7755 8.67409C19.7755 9.15409 19.8128 9.56209 19.8875 9.89809C19.9675 10.2288 20.0795 10.5008 20.2235 10.7141C20.3675 10.9221 20.5435 11.0741 20.7515 11.1701C20.9595 11.2608 21.1915 11.3061 21.4475 11.3061Z" fill="#4F4F4F"/>
<path d="M33.8605 12.7541H32.9725C32.7858 12.7541 32.6391 12.7274 32.5325 12.6741C32.4258 12.6154 32.3458 12.5008 32.2925 12.3301L32.1165 11.7461C31.9085 11.9328 31.7031 12.0981 31.5005 12.2421C31.3031 12.3808 31.0978 12.4981 30.8845 12.5941C30.6711 12.6901 30.4445 12.7621 30.2045 12.8101C29.9645 12.8581 29.6978 12.8821 29.4045 12.8821C29.0578 12.8821 28.7378 12.8368 28.4445 12.7461C28.1511 12.6501 27.8978 12.5088 27.6845 12.3221C27.4765 12.1354 27.3138 11.9034 27.1965 11.6261C27.0791 11.3488 27.0205 11.0261 27.0205 10.6581C27.0205 10.3488 27.1005 10.0448 27.2605 9.74609C27.4258 9.44209 27.6978 9.17009 28.0765 8.93009C28.4551 8.68476 28.9591 8.48209 29.5885 8.32209C30.2178 8.16209 30.9991 8.07142 31.9325 8.05009V7.57009C31.9325 7.02076 31.8151 6.61542 31.5805 6.35409C31.3511 6.08742 31.0151 5.95409 30.5725 5.95409C30.2525 5.95409 29.9858 5.99142 29.7725 6.06609C29.5591 6.14076 29.3725 6.22609 29.2125 6.32209C29.0578 6.41276 28.9138 6.49542 28.7805 6.57009C28.6471 6.64476 28.5005 6.68209 28.3405 6.68209C28.2071 6.68209 28.0925 6.64742 27.9965 6.57809C27.9005 6.50876 27.8231 6.42342 27.7645 6.32209L27.4045 5.69009C28.3485 4.82609 29.4871 4.39409 30.8205 4.39409C31.3005 4.39409 31.7271 4.47409 32.1005 4.63409C32.4791 4.78876 32.7991 5.00742 33.0605 5.29009C33.3218 5.56742 33.5191 5.90076 33.6525 6.29009C33.7911 6.67942 33.8605 7.10609 33.8605 7.57009V12.7541ZM30.0205 11.5221C30.2231 11.5221 30.4098 11.5034 30.5805 11.4661C30.7511 11.4288 30.9111 11.3728 31.0605 11.2981C31.2151 11.2234 31.3618 11.1328 31.5005 11.0261C31.6445 10.9141 31.7885 10.7834 31.9325 10.6341V9.25009C31.3565 9.27676 30.8738 9.32742 30.4845 9.40209C30.1005 9.47142 29.7911 9.56209 29.5565 9.67409C29.3218 9.78609 29.1538 9.91676 29.0525 10.0661C28.9565 10.2154 28.9085 10.3781 28.9085 10.5541C28.9085 10.9008 29.0098 11.1488 29.2125 11.2981C29.4205 11.4474 29.6898 11.5221 30.0205 11.5221Z" fill="#4F4F4F"/>
<path d="M38.4342 15.0101C38.3755 15.1488 38.2982 15.2528 38.2022 15.3221C38.1115 15.3968 37.9702 15.4341 37.7782 15.4341H36.3062L37.8422 12.1461L34.5222 4.54609H36.2502C36.4102 4.54609 36.5329 4.58342 36.6182 4.65809C36.7035 4.73276 36.7675 4.81809 36.8102 4.91409L38.5622 9.17009C38.6209 9.30876 38.6715 9.45276 38.7142 9.60209C38.7569 9.75142 38.7942 9.90076 38.8262 10.0501C38.8689 9.89542 38.9142 9.74609 38.9622 9.60209C39.0155 9.45809 39.0715 9.31142 39.1302 9.16209L40.7782 4.91409C40.8209 4.80742 40.8902 4.71942 40.9862 4.65009C41.0875 4.58076 41.1995 4.54609 41.3222 4.54609H42.9062L38.4342 15.0101Z" fill="#4F4F4F"/>
<path d="M51.9152 8.64209C51.9152 9.29276 51.8352 9.87942 51.6752 10.4021C51.5152 10.9248 51.2752 11.3701 50.9552 11.7381C50.6405 12.1061 50.2459 12.3888 49.7712 12.5861C49.2965 12.7834 48.7445 12.8821 48.1152 12.8821C47.8272 12.8821 47.5445 12.8634 47.2672 12.8261C46.9899 12.7941 46.6992 12.7408 46.3952 12.6661L46.5072 11.3861C46.5179 11.2688 46.5605 11.1754 46.6352 11.1061C46.7152 11.0314 46.8299 10.9941 46.9792 10.9941C47.0699 10.9941 47.1872 11.0128 47.3312 11.0501C47.4805 11.0874 47.6672 11.1061 47.8912 11.1061C48.1952 11.1061 48.4645 11.0634 48.6992 10.9781C48.9339 10.8874 49.1285 10.7461 49.2832 10.5541C49.4432 10.3621 49.5632 10.1141 49.6432 9.81009C49.7232 9.50076 49.7632 9.12742 49.7632 8.69009V1.18609H51.9152V8.64209Z" fill="#4F4F4F"/>
<path d="M55.9396 4.54609V9.76209C55.9396 10.2634 56.0542 10.6528 56.2836 10.9301C56.5182 11.2021 56.8676 11.3381 57.3316 11.3381C57.6729 11.3381 57.9929 11.2634 58.2916 11.1141C58.5902 10.9594 58.8729 10.7488 59.1396 10.4821V4.54609H61.1156V12.7541H59.9076C59.6516 12.7541 59.4836 12.6341 59.4036 12.3941L59.2676 11.7381C59.0969 11.9088 58.9209 12.0661 58.7396 12.2101C58.5582 12.3488 58.3636 12.4688 58.1556 12.5701C57.9529 12.6661 57.7316 12.7408 57.4916 12.7941C57.2569 12.8528 57.0036 12.8821 56.7316 12.8821C56.2836 12.8821 55.8862 12.8074 55.5396 12.6581C55.1982 12.5034 54.9102 12.2874 54.6756 12.0101C54.4409 11.7328 54.2622 11.4048 54.1396 11.0261C54.0222 10.6421 53.9636 10.2208 53.9636 9.76209V4.54609H55.9396Z" fill="#4F4F4F"/>
<path d="M63.2253 12.7541V4.54609H64.4333C64.6893 4.54609 64.8573 4.66609 64.9373 4.90609L65.0733 5.55409C65.2387 5.38342 65.412 5.22876 65.5933 5.09009C65.78 4.95142 65.9747 4.83142 66.1773 4.73009C66.3853 4.62876 66.6067 4.55142 66.8413 4.49809C67.076 4.44476 67.332 4.41809 67.6093 4.41809C68.0573 4.41809 68.4547 4.49542 68.8013 4.65009C69.148 4.79942 69.436 5.01275 69.6653 5.29009C69.9 5.56209 70.076 5.89009 70.1933 6.27409C70.316 6.65276 70.3773 7.07142 70.3773 7.53009V12.7541H68.4013V7.53009C68.4013 7.02876 68.284 6.64209 68.0493 6.37009C67.82 6.09276 67.4733 5.95409 67.0093 5.95409C66.668 5.95409 66.348 6.03142 66.0493 6.18609C65.7507 6.34075 65.468 6.55142 65.2013 6.81809V12.7541H63.2253Z" fill="#4F4F4F"/>
<path d="M75.7111 4.41809C76.2284 4.41809 76.7031 4.50076 77.1351 4.66609C77.5724 4.83142 77.9484 5.07409 78.2631 5.39409C78.5777 5.70876 78.8231 6.09809 78.9991 6.56209C79.1751 7.02076 79.2631 7.54609 79.2631 8.13809C79.2631 8.28742 79.2551 8.41276 79.2391 8.51409C79.2284 8.61009 79.2044 8.68742 79.1671 8.74609C79.1351 8.79942 79.0897 8.83942 79.0311 8.86609C78.9724 8.88742 78.8977 8.89809 78.8071 8.89809H73.7351C73.7937 9.74076 74.0204 10.3594 74.4151 10.7541C74.8097 11.1488 75.3324 11.3461 75.9831 11.3461C76.3031 11.3461 76.5777 11.3088 76.8071 11.2341C77.0417 11.1594 77.2444 11.0768 77.4151 10.9861C77.5911 10.8954 77.7431 10.8128 77.8711 10.7381C78.0044 10.6634 78.1324 10.6261 78.2551 10.6261C78.3351 10.6261 78.4044 10.6421 78.4631 10.6741C78.5217 10.7061 78.5724 10.7514 78.6151 10.8101L79.1911 11.5301C78.9724 11.7861 78.7271 12.0021 78.4551 12.1781C78.1831 12.3488 77.8977 12.4874 77.5991 12.5941C77.3057 12.6954 77.0044 12.7674 76.6951 12.8101C76.3911 12.8528 76.0951 12.8741 75.8071 12.8741C75.2364 12.8741 74.7057 12.7808 74.2151 12.5941C73.7244 12.4021 73.2977 12.1221 72.9351 11.7541C72.5724 11.3808 72.2871 10.9221 72.0791 10.3781C71.8711 9.82876 71.7671 9.19409 71.7671 8.47409C71.7671 7.91409 71.8577 7.38876 72.0391 6.89809C72.2204 6.40209 72.4791 5.97275 72.8151 5.61009C73.1564 5.24209 73.5697 4.95142 74.0551 4.73809C74.5457 4.52476 75.0977 4.41809 75.7111 4.41809ZM75.7511 5.83409C75.1751 5.83409 74.7244 5.99676 74.3991 6.32209C74.0737 6.64742 73.8657 7.10876 73.7751 7.70609H77.4871C77.4871 7.45009 77.4524 7.21009 77.3831 6.98609C77.3137 6.75676 77.2071 6.55676 77.0631 6.38609C76.9191 6.21542 76.7377 6.08209 76.5191 5.98609C76.3004 5.88476 76.0444 5.83409 75.7511 5.83409Z" fill="#4F4F4F"/>
<path d="M91.7837 6.97009C91.7837 7.97809 91.6744 8.85542 91.4557 9.60209C91.2424 10.3434 90.9437 10.9568 90.5597 11.4421C90.181 11.9274 89.7304 12.2901 89.2077 12.5301C88.6904 12.7648 88.1304 12.8821 87.5277 12.8821C86.925 12.8821 86.365 12.7648 85.8477 12.5301C85.3357 12.2901 84.8904 11.9274 84.5117 11.4421C84.133 10.9568 83.837 10.3434 83.6237 9.60209C83.4104 8.85542 83.3037 7.97809 83.3037 6.97009C83.3037 5.95676 83.4104 5.07942 83.6237 4.33809C83.837 3.59676 84.133 2.98342 84.5117 2.49809C84.8904 2.01276 85.3357 1.65276 85.8477 1.41809C86.365 1.17809 86.925 1.05809 87.5277 1.05809C88.1304 1.05809 88.6904 1.17809 89.2077 1.41809C89.7304 1.65276 90.181 2.01276 90.5597 2.49809C90.9437 2.98342 91.2424 3.59676 91.4557 4.33809C91.6744 5.07942 91.7837 5.95676 91.7837 6.97009ZM89.7437 6.97009C89.7437 6.13276 89.6824 5.43942 89.5597 4.89009C89.437 4.34076 89.2717 3.90342 89.0637 3.57809C88.861 3.25276 88.6264 3.02609 88.3597 2.89809C88.093 2.76476 87.8157 2.69809 87.5277 2.69809C87.245 2.69809 86.9704 2.76476 86.7037 2.89809C86.4424 3.02609 86.2104 3.25276 86.0077 3.57809C85.805 3.90342 85.6424 4.34076 85.5197 4.89009C85.4024 5.43942 85.3437 6.13276 85.3437 6.97009C85.3437 7.80742 85.4024 8.50076 85.5197 9.05009C85.6424 9.59942 85.805 10.0368 86.0077 10.3621C86.2104 10.6874 86.4424 10.9168 86.7037 11.0501C86.9704 11.1781 87.245 11.2421 87.5277 11.2421C87.8157 11.2421 88.093 11.1781 88.3597 11.0501C88.6264 10.9168 88.861 10.6874 89.0637 10.3621C89.2717 10.0368 89.437 9.59942 89.5597 9.05009C89.6824 8.50076 89.7437 7.80742 89.7437 6.97009Z" fill="#4F4F4F"/>
<path d="M96.4249 8.13809C96.0249 8.13809 95.633 8.06876 95.249 7.93009C94.865 7.79142 94.521 7.58342 94.2169 7.30609C93.9183 7.02342 93.6783 6.67676 93.4969 6.26609C93.3156 5.85009 93.225 5.36476 93.225 4.81009C93.225 4.29276 93.321 3.80742 93.513 3.35409C93.705 2.90076 93.9743 2.50342 94.321 2.16209C94.6676 1.82076 95.0836 1.55142 95.569 1.35409C96.0543 1.15676 96.5903 1.05809 97.1769 1.05809C97.769 1.05809 98.2996 1.15142 98.769 1.33809C99.2436 1.52476 99.6463 1.78609 99.977 2.12209C100.313 2.45809 100.569 2.86076 100.745 3.33009C100.926 3.79942 101.017 4.31409 101.017 4.87409C101.017 5.23142 100.985 5.57009 100.921 5.89009C100.862 6.21009 100.774 6.51942 100.657 6.81809C100.545 7.11142 100.409 7.39942 100.249 7.68209C100.089 7.95942 99.9103 8.23942 99.713 8.52209L97.0649 12.2981C96.9743 12.4261 96.8383 12.5354 96.657 12.6261C96.4809 12.7114 96.2783 12.7541 96.049 12.7541H94.2329L97.825 8.26609C97.9156 8.15409 98.001 8.04476 98.081 7.93809C98.161 7.83142 98.2383 7.72476 98.313 7.61809C98.0463 7.78876 97.753 7.91942 97.433 8.01009C97.113 8.09542 96.7769 8.13809 96.4249 8.13809ZM99.1209 4.67409C99.1209 4.35942 99.073 4.07942 98.977 3.83409C98.881 3.58342 98.745 3.37276 98.569 3.20209C98.393 3.03142 98.1823 2.90076 97.937 2.81009C97.697 2.71942 97.433 2.67409 97.145 2.67409C96.8463 2.67409 96.577 2.72476 96.337 2.82609C96.097 2.92209 95.8916 3.05809 95.721 3.23409C95.5556 3.41009 95.4276 3.62076 95.337 3.86609C95.2463 4.10609 95.201 4.37009 95.201 4.65809C95.201 5.30342 95.3663 5.79676 95.697 6.13809C96.033 6.47409 96.5076 6.64209 97.1209 6.64209C97.4409 6.64209 97.7236 6.59142 97.9689 6.49009C98.2196 6.38876 98.4303 6.25009 98.601 6.07409C98.7716 5.89809 98.8996 5.69009 98.985 5.45009C99.0756 5.21009 99.1209 4.95142 99.1209 4.67409Z" fill="#4F4F4F"/>
<path d="M102.106 11.5381C102.106 11.3888 102.133 11.2501 102.186 11.1221C102.245 10.9888 102.325 10.8741 102.426 10.7781C102.528 10.6768 102.65 10.5994 102.794 10.5461C102.938 10.4874 103.096 10.4581 103.266 10.4581C103.469 10.4581 103.645 10.4954 103.794 10.5701C103.944 10.6394 104.069 10.7381 104.17 10.8661C104.272 10.9888 104.346 11.1328 104.394 11.2981C104.442 11.4581 104.466 11.6288 104.466 11.8101C104.466 12.0661 104.426 12.3354 104.346 12.6181C104.272 12.9008 104.16 13.1834 104.01 13.4661C103.861 13.7488 103.677 14.0234 103.458 14.2901C103.24 14.5568 102.989 14.8021 102.706 15.0261L102.362 14.7141C102.266 14.6341 102.218 14.5354 102.218 14.4181C102.218 14.3754 102.232 14.3274 102.258 14.2741C102.29 14.2208 102.328 14.1728 102.37 14.1301C102.429 14.0661 102.501 13.9861 102.586 13.8901C102.672 13.7994 102.757 13.6928 102.842 13.5701C102.928 13.4528 103.005 13.3221 103.074 13.1781C103.149 13.0394 103.202 12.8901 103.234 12.7301C103.069 12.7301 102.917 12.7008 102.778 12.6421C102.64 12.5781 102.52 12.4928 102.418 12.3861C102.322 12.2794 102.245 12.1541 102.186 12.0101C102.133 11.8661 102.106 11.7088 102.106 11.5381Z" fill="#4F4F4F"/>
<path d="M112.97 1.05809C113.503 1.05809 113.991 1.13809 114.434 1.29809C114.876 1.45276 115.255 1.67409 115.57 1.96209C115.884 2.25009 116.13 2.59676 116.306 3.00209C116.482 3.40742 116.57 3.85809 116.57 4.35409C116.57 4.78076 116.506 5.17542 116.378 5.53809C116.255 5.90076 116.087 6.24742 115.874 6.57809C115.666 6.90876 115.42 7.22876 115.138 7.53809C114.855 7.84742 114.559 8.16209 114.25 8.48209L111.642 11.1461C111.898 11.0714 112.148 11.0154 112.394 10.9781C112.639 10.9354 112.874 10.9141 113.098 10.9141H116.066C116.279 10.9141 116.447 10.9754 116.57 11.0981C116.698 11.2154 116.762 11.3728 116.762 11.5701V12.7541H108.826V12.0981C108.826 11.9648 108.852 11.8261 108.906 11.6821C108.964 11.5381 109.055 11.4048 109.178 11.2821L112.69 7.76209C112.983 7.46342 113.244 7.17809 113.474 6.90609C113.708 6.63409 113.903 6.36476 114.058 6.09809C114.218 5.83142 114.338 5.56209 114.418 5.29009C114.503 5.01275 114.546 4.72209 114.546 4.41809C114.546 4.14076 114.506 3.89809 114.426 3.69009C114.346 3.47676 114.231 3.29809 114.082 3.15409C113.932 3.01009 113.754 2.90342 113.546 2.83409C113.343 2.75942 113.114 2.72209 112.858 2.72209C112.383 2.72209 111.991 2.84209 111.682 3.08209C111.378 3.32209 111.164 3.64476 111.042 4.05009C110.983 4.25276 110.895 4.39942 110.778 4.49009C110.66 4.57542 110.511 4.61809 110.33 4.61809C110.25 4.61809 110.162 4.61009 110.066 4.59409L109.026 4.41009C109.106 3.85542 109.26 3.37009 109.49 2.95409C109.719 2.53276 110.004 2.18342 110.346 1.90609C110.692 1.62342 111.087 1.41276 111.53 1.27409C111.978 1.13009 112.458 1.05809 112.97 1.05809Z" fill="#4F4F4F"/>
<path d="M126.315 6.97009C126.315 7.97809 126.206 8.85542 125.987 9.60209C125.774 10.3434 125.475 10.9568 125.091 11.4421C124.712 11.9274 124.262 12.2901 123.739 12.5301C123.222 12.7648 122.662 12.8821 122.059 12.8821C121.456 12.8821 120.896 12.7648 120.379 12.5301C119.867 12.2901 119.422 11.9274 119.043 11.4421C118.664 10.9568 118.368 10.3434 118.155 9.60209C117.942 8.85542 117.835 7.97809 117.835 6.97009C117.835 5.95676 117.942 5.07942 118.155 4.33809C118.368 3.59676 118.664 2.98342 119.043 2.49809C119.422 2.01276 119.867 1.65276 120.379 1.41809C120.896 1.17809 121.456 1.05809 122.059 1.05809C122.662 1.05809 123.222 1.17809 123.739 1.41809C124.262 1.65276 124.712 2.01276 125.091 2.49809C125.475 2.98342 125.774 3.59676 125.987 4.33809C126.206 5.07942 126.315 5.95676 126.315 6.97009ZM124.275 6.97009C124.275 6.13276 124.214 5.43942 124.091 4.89009C123.968 4.34076 123.803 3.90342 123.595 3.57809C123.392 3.25276 123.158 3.02609 122.891 2.89809C122.624 2.76476 122.347 2.69809 122.059 2.69809C121.776 2.69809 121.502 2.76476 121.235 2.89809C120.974 3.02609 120.742 3.25276 120.539 3.57809C120.336 3.90342 120.174 4.34076 120.051 4.89009C119.934 5.43942 119.875 6.13276 119.875 6.97009C119.875 7.80742 119.934 8.50076 120.051 9.05009C120.174 9.59942 120.336 10.0368 120.539 10.3621C120.742 10.6874 120.974 10.9168 121.235 11.0501C121.502 11.1781 121.776 11.2421 122.059 11.2421C122.347 11.2421 122.624 11.1781 122.891 11.0501C123.158 10.9168 123.392 10.6874 123.595 10.3621C123.803 10.0368 123.968 9.59942 124.091 9.05009C124.214 8.50076 124.275 7.80742 124.275 6.97009Z" fill="#4F4F4F"/>
<path d="M131.532 1.05809C132.066 1.05809 132.554 1.13809 132.996 1.29809C133.439 1.45276 133.818 1.67409 134.132 1.96209C134.447 2.25009 134.692 2.59676 134.868 3.00209C135.044 3.40742 135.132 3.85809 135.132 4.35409C135.132 4.78076 135.068 5.17542 134.94 5.53809C134.818 5.90076 134.65 6.24742 134.436 6.57809C134.228 6.90876 133.983 7.22876 133.7 7.53809C133.418 7.84742 133.122 8.16209 132.812 8.48209L130.204 11.1461C130.46 11.0714 130.711 11.0154 130.956 10.9781C131.202 10.9354 131.436 10.9141 131.66 10.9141H134.628C134.842 10.9141 135.01 10.9754 135.132 11.0981C135.26 11.2154 135.324 11.3728 135.324 11.5701V12.7541H127.388V12.0981C127.388 11.9648 127.415 11.8261 127.468 11.6821C127.527 11.5381 127.618 11.4048 127.74 11.2821L131.252 7.76209C131.546 7.46342 131.807 7.17809 132.036 6.90609C132.271 6.63409 132.466 6.36476 132.62 6.09809C132.78 5.83142 132.9 5.56209 132.98 5.29009C133.066 5.01275 133.108 4.72209 133.108 4.41809C133.108 4.14076 133.068 3.89809 132.988 3.69009C132.908 3.47676 132.794 3.29809 132.644 3.15409C132.495 3.01009 132.316 2.90342 132.108 2.83409C131.906 2.75942 131.676 2.72209 131.42 2.72209C130.946 2.72209 130.554 2.84209 130.244 3.08209C129.94 3.32209 129.727 3.64476 129.604 4.05009C129.546 4.25276 129.458 4.39942 129.34 4.49009C129.223 4.57542 129.074 4.61809 128.892 4.61809C128.812 4.61809 128.724 4.61009 128.628 4.59409L127.588 4.41009C127.668 3.85542 127.823 3.37009 128.052 2.95409C128.282 2.53276 128.567 2.18342 128.908 1.90609C129.255 1.62342 129.65 1.41276 130.092 1.27409C130.54 1.13009 131.02 1.05809 131.532 1.05809Z" fill="#4F4F4F"/>
<path d="M138.149 11.2741H140.493V4.53009C140.493 4.26876 140.501 3.99409 140.517 3.70609L138.853 5.09809C138.784 5.15676 138.712 5.19676 138.637 5.21809C138.568 5.23942 138.499 5.25009 138.429 5.25009C138.323 5.25009 138.224 5.22876 138.133 5.18609C138.048 5.13809 137.984 5.08476 137.941 5.02609L137.317 4.17009L140.845 1.17009H142.469V11.2741H144.549V12.7541H138.149V11.2741Z" fill="#4F4F4F"/>
</svg>
