<svg width="145" height="16" viewBox="0 0 145 16" fill="none" xmlns="http://www.w3.org/2000/svg">
<path d="M9.58308 0.995049V2.76305H6.10308V12.563H3.95108V2.76305H0.455078V0.995049H9.58308Z" fill="#4F4F4F"/>
<path d="M12.7137 4.22705C13.327 4.22705 13.8817 4.32572 14.3777 4.52305C14.879 4.72038 15.3057 5.00038 15.6577 5.36305C16.0097 5.72572 16.2817 6.16838 16.4737 6.69105C16.6657 7.21372 16.7617 7.79772 16.7617 8.44305C16.7617 9.09372 16.6657 9.68038 16.4737 10.203C16.2817 10.7257 16.0097 11.171 15.6577 11.539C15.3057 11.907 14.879 12.1897 14.3777 12.387C13.8817 12.5844 13.327 12.6831 12.7137 12.6831C12.1004 12.6831 11.543 12.5844 11.0417 12.387C10.5404 12.1897 10.111 11.907 9.7537 11.539C9.4017 11.171 9.12704 10.7257 8.9297 10.203C8.7377 9.68038 8.6417 9.09372 8.6417 8.44305C8.6417 7.79772 8.7377 7.21372 8.9297 6.69105C9.12704 6.16838 9.4017 5.72572 9.7537 5.36305C10.111 5.00038 10.5404 4.72038 11.0417 4.52305C11.543 4.32572 12.1004 4.22705 12.7137 4.22705ZM12.7137 11.163C13.3964 11.163 13.9004 10.9337 14.2257 10.475C14.5564 10.0164 14.7217 9.34438 14.7217 8.45905C14.7217 7.57372 14.5564 6.89905 14.2257 6.43505C13.9004 5.97105 13.3964 5.73905 12.7137 5.73905C12.0204 5.73905 11.5084 5.97372 11.1777 6.44305C10.847 6.90705 10.6817 7.57905 10.6817 8.45905C10.6817 9.33905 10.847 10.011 11.1777 10.475C11.5084 10.9337 12.0204 11.163 12.7137 11.163Z" fill="#4F4F4F"/>
<path d="M24.0795 12.563C23.8235 12.563 23.6555 12.443 23.5755 12.203L23.4155 11.411C23.2448 11.603 23.0661 11.7764 22.8795 11.931C22.6928 12.0857 22.4901 12.219 22.2715 12.331C22.0581 12.443 21.8261 12.5284 21.5755 12.587C21.3301 12.651 21.0635 12.6831 20.7755 12.6831C20.3275 12.6831 19.9168 12.5897 19.5435 12.403C19.1701 12.2164 18.8475 11.947 18.5755 11.595C18.3088 11.2377 18.1008 10.7977 17.9515 10.275C17.8075 9.75238 17.7355 9.15505 17.7355 8.48305C17.7355 7.87505 17.8181 7.30972 17.9835 6.78705C18.1488 6.26438 18.3861 5.81105 18.6955 5.42705C19.0048 5.04305 19.3755 4.74438 19.8075 4.53105C20.2395 4.31238 20.7248 4.20305 21.2635 4.20305C21.7221 4.20305 22.1141 4.27772 22.4395 4.42705C22.7648 4.57105 23.0555 4.76572 23.3115 5.01105V0.675049H25.2875V12.563H24.0795ZM21.4475 11.115C21.8581 11.115 22.2075 11.0297 22.4955 10.859C22.7835 10.6884 23.0555 10.4457 23.3115 10.131V6.45105C23.0875 6.17905 22.8421 5.98705 22.5755 5.87505C22.3141 5.76305 22.0315 5.70705 21.7275 5.70705C21.4288 5.70705 21.1568 5.76305 20.9115 5.87505C20.6715 5.98705 20.4661 6.15772 20.2955 6.38705C20.1301 6.61105 20.0021 6.89905 19.9115 7.25105C19.8208 7.59772 19.7755 8.00838 19.7755 8.48305C19.7755 8.96305 19.8128 9.37105 19.8875 9.70705C19.9675 10.0377 20.0795 10.3097 20.2235 10.523C20.3675 10.731 20.5435 10.883 20.7515 10.979C20.9595 11.0697 21.1915 11.115 21.4475 11.115Z" fill="#4F4F4F"/>
<path d="M33.8605 12.563H32.9725C32.7858 12.563 32.6391 12.5364 32.5325 12.483C32.4258 12.4244 32.3458 12.3097 32.2925 12.139L32.1165 11.555C31.9085 11.7417 31.7031 11.907 31.5005 12.051C31.3031 12.1897 31.0978 12.307 30.8845 12.403C30.6711 12.499 30.4445 12.571 30.2045 12.619C29.9645 12.667 29.6978 12.691 29.4045 12.691C29.0578 12.691 28.7378 12.6457 28.4445 12.555C28.1511 12.459 27.8978 12.3177 27.6845 12.131C27.4765 11.9444 27.3138 11.7124 27.1965 11.435C27.0791 11.1577 27.0205 10.835 27.0205 10.467C27.0205 10.1577 27.1005 9.85372 27.2605 9.55505C27.4258 9.25105 27.6978 8.97905 28.0765 8.73905C28.4551 8.49372 28.9591 8.29105 29.5885 8.13105C30.2178 7.97105 30.9991 7.88038 31.9325 7.85905V7.37905C31.9325 6.82972 31.8151 6.42438 31.5805 6.16305C31.3511 5.89638 31.0151 5.76305 30.5725 5.76305C30.2525 5.76305 29.9858 5.80038 29.7725 5.87505C29.5591 5.94972 29.3725 6.03505 29.2125 6.13105C29.0578 6.22172 28.9138 6.30438 28.7805 6.37905C28.6471 6.45372 28.5005 6.49105 28.3405 6.49105C28.2071 6.49105 28.0925 6.45638 27.9965 6.38705C27.9005 6.31772 27.8231 6.23238 27.7645 6.13105L27.4045 5.49905C28.3485 4.63505 29.4871 4.20305 30.8205 4.20305C31.3005 4.20305 31.7271 4.28305 32.1005 4.44305C32.4791 4.59772 32.7991 4.81638 33.0605 5.09905C33.3218 5.37638 33.5191 5.70972 33.6525 6.09905C33.7911 6.48838 33.8605 6.91505 33.8605 7.37905V12.563ZM30.0205 11.331C30.2231 11.331 30.4098 11.3124 30.5805 11.275C30.7511 11.2377 30.9111 11.1817 31.0605 11.107C31.2151 11.0324 31.3618 10.9417 31.5005 10.835C31.6445 10.723 31.7885 10.5924 31.9325 10.443V9.05905C31.3565 9.08572 30.8738 9.13638 30.4845 9.21105C30.1005 9.28038 29.7911 9.37105 29.5565 9.48305C29.3218 9.59505 29.1538 9.72572 29.0525 9.87505C28.9565 10.0244 28.9085 10.187 28.9085 10.363C28.9085 10.7097 29.0098 10.9577 29.2125 11.107C29.4205 11.2564 29.6898 11.331 30.0205 11.331Z" fill="#4F4F4F"/>
<path d="M38.4342 14.819C38.3755 14.9577 38.2982 15.0617 38.2022 15.1311C38.1115 15.2057 37.9702 15.243 37.7782 15.243H36.3062L37.8422 11.955L34.5222 4.35505H36.2502C36.4102 4.35505 36.5329 4.39238 36.6182 4.46705C36.7035 4.54172 36.7675 4.62705 36.8102 4.72305L38.5622 8.97905C38.6209 9.11772 38.6715 9.26172 38.7142 9.41105C38.7569 9.56038 38.7942 9.70972 38.8262 9.85905C38.8689 9.70438 38.9142 9.55505 38.9622 9.41105C39.0155 9.26705 39.0715 9.12038 39.1302 8.97105L40.7782 4.72305C40.8209 4.61638 40.8902 4.52838 40.9862 4.45905C41.0875 4.38972 41.1995 4.35505 41.3222 4.35505H42.9062L38.4342 14.819Z" fill="#4F4F4F"/>
<path d="M51.9152 8.45105C51.9152 9.10172 51.8352 9.68838 51.6752 10.211C51.5152 10.7337 51.2752 11.179 50.9552 11.547C50.6405 11.915 50.2459 12.1977 49.7712 12.395C49.2965 12.5924 48.7445 12.691 48.1152 12.691C47.8272 12.691 47.5445 12.6724 47.2672 12.635C46.9899 12.6031 46.6992 12.5497 46.3952 12.475L46.5072 11.195C46.5179 11.0777 46.5605 10.9844 46.6352 10.915C46.7152 10.8404 46.8299 10.803 46.9792 10.803C47.0699 10.803 47.1872 10.8217 47.3312 10.859C47.4805 10.8964 47.6672 10.915 47.8912 10.915C48.1952 10.915 48.4645 10.8724 48.6992 10.787C48.9339 10.6964 49.1285 10.555 49.2832 10.363C49.4432 10.171 49.5632 9.92305 49.6432 9.61905C49.7232 9.30972 49.7632 8.93638 49.7632 8.49905V0.995049H51.9152V8.45105Z" fill="#4F4F4F"/>
<path d="M55.9396 4.35505V9.57105C55.9396 10.0724 56.0542 10.4617 56.2836 10.739C56.5182 11.011 56.8676 11.147 57.3316 11.147C57.6729 11.147 57.9929 11.0724 58.2916 10.923C58.5902 10.7684 58.8729 10.5577 59.1396 10.291V4.35505H61.1156V12.563H59.9076C59.6516 12.563 59.4836 12.443 59.4036 12.203L59.2676 11.547C59.0969 11.7177 58.9209 11.875 58.7396 12.019C58.5582 12.1577 58.3636 12.2777 58.1556 12.379C57.9529 12.475 57.7316 12.5497 57.4916 12.6031C57.2569 12.6617 57.0036 12.691 56.7316 12.691C56.2836 12.691 55.8862 12.6164 55.5396 12.467C55.1982 12.3124 54.9102 12.0964 54.6756 11.819C54.4409 11.5417 54.2622 11.2137 54.1396 10.835C54.0222 10.451 53.9636 10.0297 53.9636 9.57105V4.35505H55.9396Z" fill="#4F4F4F"/>
<path d="M63.2253 12.563V4.35505H64.4333C64.6893 4.35505 64.8573 4.47505 64.9373 4.71505L65.0733 5.36305C65.2387 5.19238 65.412 5.03772 65.5933 4.89905C65.78 4.76038 65.9747 4.64038 66.1773 4.53905C66.3853 4.43772 66.6067 4.36038 66.8413 4.30705C67.076 4.25372 67.332 4.22705 67.6093 4.22705C68.0573 4.22705 68.4547 4.30438 68.8013 4.45905C69.148 4.60838 69.436 4.82171 69.6653 5.09905C69.9 5.37105 70.076 5.69905 70.1933 6.08305C70.316 6.46172 70.3773 6.88038 70.3773 7.33905V12.563H68.4013V7.33905C68.4013 6.83772 68.284 6.45105 68.0493 6.17905C67.82 5.90172 67.4733 5.76305 67.0093 5.76305C66.668 5.76305 66.348 5.84038 66.0493 5.99505C65.7507 6.14971 65.468 6.36038 65.2013 6.62705V12.563H63.2253Z" fill="#4F4F4F"/>
<path d="M75.7111 4.22705C76.2284 4.22705 76.7031 4.30972 77.1351 4.47505C77.5724 4.64038 77.9484 4.88305 78.2631 5.20305C78.5777 5.51771 78.8231 5.90705 78.9991 6.37105C79.1751 6.82972 79.2631 7.35505 79.2631 7.94705C79.2631 8.09638 79.2551 8.22172 79.2391 8.32305C79.2284 8.41905 79.2044 8.49638 79.1671 8.55505C79.1351 8.60838 79.0897 8.64838 79.0311 8.67505C78.9724 8.69638 78.8977 8.70705 78.8071 8.70705H73.7351C73.7937 9.54972 74.0204 10.1684 74.4151 10.563C74.8097 10.9577 75.3324 11.155 75.9831 11.155C76.3031 11.155 76.5777 11.1177 76.8071 11.043C77.0417 10.9684 77.2444 10.8857 77.4151 10.795C77.5911 10.7044 77.7431 10.6217 77.8711 10.547C78.0044 10.4724 78.1324 10.435 78.2551 10.435C78.3351 10.435 78.4044 10.451 78.4631 10.483C78.5217 10.515 78.5724 10.5604 78.6151 10.619L79.1911 11.339C78.9724 11.595 78.7271 11.811 78.4551 11.987C78.1831 12.1577 77.8977 12.2964 77.5991 12.403C77.3057 12.5044 77.0044 12.5764 76.6951 12.619C76.3911 12.6617 76.0951 12.6831 75.8071 12.6831C75.2364 12.6831 74.7057 12.5897 74.2151 12.403C73.7244 12.211 73.2977 11.931 72.9351 11.563C72.5724 11.1897 72.2871 10.731 72.0791 10.187C71.8711 9.63772 71.7671 9.00305 71.7671 8.28305C71.7671 7.72305 71.8577 7.19772 72.0391 6.70705C72.2204 6.21105 72.4791 5.78171 72.8151 5.41905C73.1564 5.05105 73.5697 4.76038 74.0551 4.54705C74.5457 4.33372 75.0977 4.22705 75.7111 4.22705ZM75.7511 5.64305C75.1751 5.64305 74.7244 5.80572 74.3991 6.13105C74.0737 6.45638 73.8657 6.91772 73.7751 7.51505H77.4871C77.4871 7.25905 77.4524 7.01905 77.3831 6.79505C77.3137 6.56572 77.2071 6.36572 77.0631 6.19505C76.9191 6.02438 76.7377 5.89105 76.5191 5.79505C76.3004 5.69372 76.0444 5.64305 75.7511 5.64305Z" fill="#4F4F4F"/>
<path d="M91.7837 6.77905C91.7837 7.78705 91.6744 8.66438 91.4557 9.41105C91.2424 10.1524 90.9437 10.7657 90.5597 11.251C90.181 11.7364 89.7304 12.099 89.2077 12.339C88.6904 12.5737 88.1304 12.691 87.5277 12.691C86.925 12.691 86.365 12.5737 85.8477 12.339C85.3357 12.099 84.8904 11.7364 84.5117 11.251C84.133 10.7657 83.837 10.1524 83.6237 9.41105C83.4104 8.66438 83.3037 7.78705 83.3037 6.77905C83.3037 5.76572 83.4104 4.88838 83.6237 4.14705C83.837 3.40572 84.133 2.79238 84.5117 2.30705C84.8904 1.82172 85.3357 1.46172 85.8477 1.22705C86.365 0.987049 86.925 0.867049 87.5277 0.867049C88.1304 0.867049 88.6904 0.987049 89.2077 1.22705C89.7304 1.46172 90.181 1.82172 90.5597 2.30705C90.9437 2.79238 91.2424 3.40572 91.4557 4.14705C91.6744 4.88838 91.7837 5.76572 91.7837 6.77905ZM89.7437 6.77905C89.7437 5.94172 89.6824 5.24838 89.5597 4.69905C89.437 4.14972 89.2717 3.71238 89.0637 3.38705C88.861 3.06172 88.6264 2.83505 88.3597 2.70705C88.093 2.57372 87.8157 2.50705 87.5277 2.50705C87.245 2.50705 86.9704 2.57372 86.7037 2.70705C86.4424 2.83505 86.2104 3.06172 86.0077 3.38705C85.805 3.71238 85.6424 4.14972 85.5197 4.69905C85.4024 5.24838 85.3437 5.94172 85.3437 6.77905C85.3437 7.61638 85.4024 8.30972 85.5197 8.85905C85.6424 9.40838 85.805 9.84572 86.0077 10.171C86.2104 10.4964 86.4424 10.7257 86.7037 10.859C86.9704 10.987 87.245 11.051 87.5277 11.051C87.8157 11.051 88.093 10.987 88.3597 10.859C88.6264 10.7257 88.861 10.4964 89.0637 10.171C89.2717 9.84572 89.437 9.40838 89.5597 8.85905C89.6824 8.30972 89.7437 7.61638 89.7437 6.77905Z" fill="#4F4F4F"/>
<path d="M96.4249 7.94705C96.0249 7.94705 95.633 7.87772 95.249 7.73905C94.865 7.60038 94.521 7.39238 94.2169 7.11505C93.9183 6.83238 93.6783 6.48572 93.4969 6.07505C93.3156 5.65905 93.225 5.17372 93.225 4.61905C93.225 4.10172 93.321 3.61638 93.513 3.16305C93.705 2.70972 93.9743 2.31238 94.321 1.97105C94.6676 1.62972 95.0836 1.36038 95.569 1.16305C96.0543 0.965716 96.5903 0.867049 97.1769 0.867049C97.769 0.867049 98.2996 0.960382 98.769 1.14705C99.2436 1.33372 99.6463 1.59505 99.977 1.93105C100.313 2.26705 100.569 2.66972 100.745 3.13905C100.926 3.60838 101.017 4.12305 101.017 4.68305C101.017 5.04038 100.985 5.37905 100.921 5.69905C100.862 6.01905 100.774 6.32838 100.657 6.62705C100.545 6.92038 100.409 7.20838 100.249 7.49105C100.089 7.76838 99.9103 8.04838 99.713 8.33105L97.0649 12.107C96.9743 12.235 96.8383 12.3444 96.657 12.435C96.4809 12.5204 96.2783 12.563 96.049 12.563H94.2329L97.825 8.07505C97.9156 7.96305 98.001 7.85372 98.081 7.74705C98.161 7.64038 98.2383 7.53372 98.313 7.42705C98.0463 7.59772 97.753 7.72838 97.433 7.81905C97.113 7.90438 96.7769 7.94705 96.4249 7.94705ZM99.1209 4.48305C99.1209 4.16838 99.073 3.88838 98.977 3.64305C98.881 3.39238 98.745 3.18172 98.569 3.01105C98.393 2.84038 98.1823 2.70972 97.937 2.61905C97.697 2.52838 97.433 2.48305 97.145 2.48305C96.8463 2.48305 96.577 2.53372 96.337 2.63505C96.097 2.73105 95.8916 2.86705 95.721 3.04305C95.5556 3.21905 95.4276 3.42972 95.337 3.67505C95.2463 3.91505 95.201 4.17905 95.201 4.46705C95.201 5.11238 95.3663 5.60572 95.697 5.94705C96.033 6.28305 96.5076 6.45105 97.1209 6.45105C97.4409 6.45105 97.7236 6.40038 97.9689 6.29905C98.2196 6.19772 98.4303 6.05905 98.601 5.88305C98.7716 5.70705 98.8996 5.49905 98.985 5.25905C99.0756 5.01905 99.1209 4.76038 99.1209 4.48305Z" fill="#4F4F4F"/>
<path d="M102.106 11.347C102.106 11.1977 102.133 11.059 102.186 10.931C102.245 10.7977 102.325 10.683 102.426 10.587C102.528 10.4857 102.65 10.4084 102.794 10.355C102.938 10.2964 103.096 10.267 103.266 10.267C103.469 10.267 103.645 10.3044 103.794 10.379C103.944 10.4484 104.069 10.547 104.17 10.675C104.272 10.7977 104.346 10.9417 104.394 11.107C104.442 11.267 104.466 11.4377 104.466 11.619C104.466 11.875 104.426 12.1444 104.346 12.427C104.272 12.7097 104.16 12.9924 104.01 13.275C103.861 13.5577 103.677 13.8324 103.458 14.099C103.24 14.3657 102.989 14.611 102.706 14.835L102.362 14.523C102.266 14.443 102.218 14.3444 102.218 14.227C102.218 14.1844 102.232 14.1364 102.258 14.083C102.29 14.0297 102.328 13.9817 102.37 13.939C102.429 13.875 102.501 13.795 102.586 13.699C102.672 13.6084 102.757 13.5017 102.842 13.379C102.928 13.2617 103.005 13.131 103.074 12.987C103.149 12.8484 103.202 12.699 103.234 12.539C103.069 12.539 102.917 12.5097 102.778 12.451C102.64 12.387 102.52 12.3017 102.418 12.195C102.322 12.0884 102.245 11.963 102.186 11.819C102.133 11.675 102.106 11.5177 102.106 11.347Z" fill="#4F4F4F"/>
<path d="M112.97 0.867049C113.503 0.867049 113.991 0.947049 114.434 1.10705C114.876 1.26172 115.255 1.48305 115.57 1.77105C115.884 2.05905 116.13 2.40572 116.306 2.81105C116.482 3.21638 116.57 3.66705 116.57 4.16305C116.57 4.58972 116.506 4.98438 116.378 5.34705C116.255 5.70972 116.087 6.05638 115.874 6.38705C115.666 6.71772 115.42 7.03772 115.138 7.34705C114.855 7.65638 114.559 7.97105 114.25 8.29105L111.642 10.955C111.898 10.8804 112.148 10.8244 112.394 10.787C112.639 10.7444 112.874 10.723 113.098 10.723H116.066C116.279 10.723 116.447 10.7844 116.57 10.907C116.698 11.0244 116.762 11.1817 116.762 11.379V12.563H108.826V11.907C108.826 11.7737 108.852 11.635 108.906 11.491C108.964 11.347 109.055 11.2137 109.178 11.091L112.69 7.57105C112.983 7.27238 113.244 6.98705 113.474 6.71505C113.708 6.44305 113.903 6.17372 114.058 5.90705C114.218 5.64038 114.338 5.37105 114.418 5.09905C114.503 4.82171 114.546 4.53105 114.546 4.22705C114.546 3.94972 114.506 3.70705 114.426 3.49905C114.346 3.28572 114.231 3.10705 114.082 2.96305C113.932 2.81905 113.754 2.71238 113.546 2.64305C113.343 2.56838 113.114 2.53105 112.858 2.53105C112.383 2.53105 111.991 2.65105 111.682 2.89105C111.378 3.13105 111.164 3.45372 111.042 3.85905C110.983 4.06172 110.895 4.20838 110.778 4.29905C110.66 4.38438 110.511 4.42705 110.33 4.42705C110.25 4.42705 110.162 4.41905 110.066 4.40305L109.026 4.21905C109.106 3.66438 109.26 3.17905 109.49 2.76305C109.719 2.34172 110.004 1.99238 110.346 1.71505C110.692 1.43238 111.087 1.22172 111.53 1.08305C111.978 0.939049 112.458 0.867049 112.97 0.867049Z" fill="#4F4F4F"/>
<path d="M126.315 6.77905C126.315 7.78705 126.206 8.66438 125.987 9.41105C125.774 10.1524 125.475 10.7657 125.091 11.251C124.712 11.7364 124.262 12.099 123.739 12.339C123.222 12.5737 122.662 12.691 122.059 12.691C121.456 12.691 120.896 12.5737 120.379 12.339C119.867 12.099 119.422 11.7364 119.043 11.251C118.664 10.7657 118.368 10.1524 118.155 9.41105C117.942 8.66438 117.835 7.78705 117.835 6.77905C117.835 5.76572 117.942 4.88838 118.155 4.14705C118.368 3.40572 118.664 2.79238 119.043 2.30705C119.422 1.82172 119.867 1.46172 120.379 1.22705C120.896 0.987049 121.456 0.867049 122.059 0.867049C122.662 0.867049 123.222 0.987049 123.739 1.22705C124.262 1.46172 124.712 1.82172 125.091 2.30705C125.475 2.79238 125.774 3.40572 125.987 4.14705C126.206 4.88838 126.315 5.76572 126.315 6.77905ZM124.275 6.77905C124.275 5.94172 124.214 5.24838 124.091 4.69905C123.968 4.14972 123.803 3.71238 123.595 3.38705C123.392 3.06172 123.158 2.83505 122.891 2.70705C122.624 2.57372 122.347 2.50705 122.059 2.50705C121.776 2.50705 121.502 2.57372 121.235 2.70705C120.974 2.83505 120.742 3.06172 120.539 3.38705C120.336 3.71238 120.174 4.14972 120.051 4.69905C119.934 5.24838 119.875 5.94172 119.875 6.77905C119.875 7.61638 119.934 8.30972 120.051 8.85905C120.174 9.40838 120.336 9.84572 120.539 10.171C120.742 10.4964 120.974 10.7257 121.235 10.859C121.502 10.987 121.776 11.051 122.059 11.051C122.347 11.051 122.624 10.987 122.891 10.859C123.158 10.7257 123.392 10.4964 123.595 10.171C123.803 9.84572 123.968 9.40838 124.091 8.85905C124.214 8.30972 124.275 7.61638 124.275 6.77905Z" fill="#4F4F4F"/>
<path d="M131.532 0.867049C132.066 0.867049 132.554 0.947049 132.996 1.10705C133.439 1.26172 133.818 1.48305 134.132 1.77105C134.447 2.05905 134.692 2.40572 134.868 2.81105C135.044 3.21638 135.132 3.66705 135.132 4.16305C135.132 4.58972 135.068 4.98438 134.94 5.34705C134.818 5.70972 134.65 6.05638 134.436 6.38705C134.228 6.71772 133.983 7.03772 133.7 7.34705C133.418 7.65638 133.122 7.97105 132.812 8.29105L130.204 10.955C130.46 10.8804 130.711 10.8244 130.956 10.787C131.202 10.7444 131.436 10.723 131.66 10.723H134.628C134.842 10.723 135.01 10.7844 135.132 10.907C135.26 11.0244 135.324 11.1817 135.324 11.379V12.563H127.388V11.907C127.388 11.7737 127.415 11.635 127.468 11.491C127.527 11.347 127.618 11.2137 127.74 11.091L131.252 7.57105C131.546 7.27238 131.807 6.98705 132.036 6.71505C132.271 6.44305 132.466 6.17372 132.62 5.90705C132.78 5.64038 132.9 5.37105 132.98 5.09905C133.066 4.82171 133.108 4.53105 133.108 4.22705C133.108 3.94972 133.068 3.70705 132.988 3.49905C132.908 3.28572 132.794 3.10705 132.644 2.96305C132.495 2.81905 132.316 2.71238 132.108 2.64305C131.906 2.56838 131.676 2.53105 131.42 2.53105C130.946 2.53105 130.554 2.65105 130.244 2.89105C129.94 3.13105 129.727 3.45372 129.604 3.85905C129.546 4.06172 129.458 4.20838 129.34 4.29905C129.223 4.38438 129.074 4.42705 128.892 4.42705C128.812 4.42705 128.724 4.41905 128.628 4.40305L127.588 4.21905C127.668 3.66438 127.823 3.17905 128.052 2.76305C128.282 2.34172 128.567 1.99238 128.908 1.71505C129.255 1.43238 129.65 1.22172 130.092 1.08305C130.54 0.939049 131.02 0.867049 131.532 0.867049Z" fill="#4F4F4F"/>
<path d="M138.149 11.083H140.493V4.33905C140.493 4.07772 140.501 3.80305 140.517 3.51505L138.853 4.90705C138.784 4.96572 138.712 5.00572 138.637 5.02705C138.568 5.04838 138.499 5.05905 138.429 5.05905C138.323 5.05905 138.224 5.03772 138.133 4.99505C138.048 4.94705 137.984 4.89372 137.941 4.83505L137.317 3.97905L140.845 0.979049H142.469V11.083H144.549V12.563H138.149V11.083Z" fill="#4F4F4F"/>
</svg>
